<svg width="1400" height="645" viewBox="0 0 1400 645" fill="none" xmlns="http://www.w3.org/2000/svg">
<g clip-path="url(#clip0_394_2976)">
<g opacity="0.4">
<path d="M429.67 369.178L432.848 381.892L423.632 399.257L434.437 402.978L436.026 405.459L444.289 447.012L448.42 447.632L448.738 449.183L445.242 452.904L454.141 469.339L443.971 488.255L438.251 486.704L436.026 487.014L432.53 495.387L426.81 499.418L419.818 496.937L400.75 501.279L395.347 492.286L391.851 467.478L381.046 471.199L375.961 469.029V450.423L366.745 446.702L361.025 453.214L346.723 457.865L342.592 458.175L337.507 451.043L336.871 440.19L343.863 434.608V429.957L347.041 429.336L347.359 425.925L353.397 424.995L353.715 420.344L355.94 417.553L339.414 396.466L338.461 387.163L332.74 382.512L327.337 374.449L328.926 368.868L336.236 365.147L343.228 368.558L347.995 364.836L356.893 368.248L358.482 361.735L362.931 358.635L371.83 358.945L376.597 363.286L380.093 362.046L386.449 357.394L392.169 356.774V353.983L389.627 349.332L395.029 335.377L405.517 335.687L402.975 340.649L406.153 343.75L404.881 347.471L404.564 351.502L399.479 358.324L401.386 362.976L402.339 367.317L405.517 368.248L409.966 364.216L418.865 367.627L422.996 364.526L429.67 369.178Z" fill="#F4AE3F"/>
</g>
</g>
<defs>
<clipPath id="clip0_394_2976">
<rect width="1400" height="645" fill="white"/>
</clipPath>
</defs>
</svg>
