<svg width="583" height="488" viewBox="0 0 583 488" fill="none" xmlns="http://www.w3.org/2000/svg">
<g opacity="0.05">
<path d="M120.917 67.1104L197.972 16.5206V479.083H188.694V41.5319V25.2623L174.98 34.0159L134.314 59.9734L130.195 62.6026V67.4894V479.083H120.917V67.1104Z" fill="#0E5072" stroke="#0E5072" stroke-width="17.8332"/>
<mask id="path-2-inside-1_207_5" fill="white">
<path fill-rule="evenodd" clip-rule="evenodd" d="M220.433 0V487.999L247.544 487.999V301.968H261.1V487.999L355.988 488V59.095L261.1 17.7548V281.298H247.544V12.5873L220.433 0ZM288.184 54.204V474.426H328.851V73.2994L288.184 54.204Z"/>
</mask>
<path fill-rule="evenodd" clip-rule="evenodd" d="M220.433 0V487.999L247.544 487.999V301.968H261.1V487.999L355.988 488V59.095L261.1 17.7548V281.298H247.544V12.5873L220.433 0ZM288.184 54.204V474.426H328.851V73.2994L288.184 54.204Z" fill="#0E5072"/>
<path d="M220.433 487.999H202.6V505.831L220.433 505.832L220.433 487.999ZM220.433 0L227.943 -16.1748L202.6 -27.9412V0H220.433ZM247.544 487.999L247.544 505.832L265.377 505.833V487.999H247.544ZM247.544 301.968V284.135H229.711V301.968H247.544ZM261.1 301.968H278.933V284.135H261.1V301.968ZM261.1 487.999H243.266V505.832L261.099 505.832L261.1 487.999ZM355.988 488L355.988 505.833L373.822 505.833V488H355.988ZM355.988 59.095H373.822V47.4122L363.111 42.746L355.988 59.095ZM261.1 17.7548L268.222 1.40589L243.266 -9.46662V17.7548H261.1ZM261.1 281.298V299.131H278.933V281.298H261.1ZM247.544 281.298H229.711V299.131H247.544V281.298ZM247.544 12.5873H265.377V1.2055L255.054 -3.58751L247.544 12.5873ZM288.184 474.426H270.351V492.26H288.184V474.426ZM288.184 54.204L295.764 38.0619L270.351 26.1291V54.204H288.184ZM328.851 474.426V492.26H346.684V474.426H328.851ZM328.851 73.2994H346.684V61.9718L336.431 57.1572L328.851 73.2994ZM238.266 487.999V0H202.6V487.999H238.266ZM247.544 470.166L220.433 470.165L220.433 505.832L247.544 505.832L247.544 470.166ZM229.711 301.968V487.999H265.377V301.968H229.711ZM261.1 284.135H247.544V319.801H261.1V284.135ZM278.933 487.999V301.968H243.266V487.999H278.933ZM355.989 470.166L261.1 470.165L261.099 505.832L355.988 505.833L355.989 470.166ZM338.155 59.095V488H373.822V59.095H338.155ZM253.977 34.1038L348.866 75.4439L363.111 42.746L268.222 1.40589L253.977 34.1038ZM278.933 281.298V17.7548H243.266V281.298H278.933ZM247.544 299.131H261.1V263.465H247.544V299.131ZM229.711 12.5873V281.298H265.377V12.5873H229.711ZM212.923 16.1748L240.034 28.7621L255.054 -3.58751L227.943 -16.1748L212.923 16.1748ZM306.018 474.426V54.204H270.351V474.426H306.018ZM328.851 456.593H288.184V492.26H328.851V456.593ZM311.018 73.2994V474.426H346.684V73.2994H311.018ZM280.605 70.3462L321.271 89.4416L336.431 57.1572L295.764 38.0619L280.605 70.3462Z" fill="#0E5072" mask="url(#path-2-inside-1_207_5)"/>
</g>
</svg>
