<svg width="8" height="7" viewBox="0 0 8 7" fill="none" xmlns="http://www.w3.org/2000/svg">
<path d="M3.6676 3.00411C3.89639 2.68415 4.14377 2.32391 4.22072 1.89114C4.35081 2.33314 4.59311 2.68968 4.80588 3.00277C4.80885 3.00715 4.81182 3.01151 4.81478 3.01587C4.9233 3.17558 5.02351 3.32398 5.09661 3.4669C5.1697 3.6098 5.21554 3.74695 5.21554 3.88415C5.21554 4.43401 4.7698 4.87975 4.21994 4.87975C3.67009 4.87975 3.22434 4.43401 3.22434 3.88415C3.22434 3.74705 3.27721 3.60797 3.35917 3.46258C3.43322 3.33122 3.53083 3.195 3.63427 3.05066C3.64532 3.03524 3.65644 3.01972 3.6676 3.00411Z" fill="black" stroke="black" stroke-width="0.00630136"/>
<circle cx="4.22056" cy="3.33713" r="3.26515" stroke="black" stroke-width="0.0768281"/>
</svg>
