<svg width="1400" height="645" viewBox="0 0 1400 645" fill="none" xmlns="http://www.w3.org/2000/svg">
<g clip-path="url(#clip0_394_2954)">
<g opacity="0.15">
<path d="M702.981 143.118L362.296 41.7163" stroke="black" stroke-width="0.654819"/>
<path d="M104.239 216.611L44.8102 235.837L31.7803 240.798L18.7504 249.481L10.8053 258.474L4.76702 269.637L1.27118 278.01L28.6023 319.873L32.7337 325.454L40.6788 330.726L46.717 331.036L53.7087 334.137L61.9716 339.409L82.9466 355.844L136.02 390.264L155.088 400.188" stroke="black" stroke-width="0.654819"/>
<path d="M567.597 249.481L573.635 255.373L580.627 255.683L580.944 259.404L588.572 261.574L587.618 274.599L590.478 276.459V280.8L594.928 284.832L593.974 292.584L589.525 297.236L595.246 302.507V307.159L600.966 308.399L602.237 306.228L603.826 308.399L602.555 311.19L601.602 328.865L605.733 336.618L602.873 345.921H600.966L597.47 340.959L593.974 343.13L592.385 344.99H587.936L585.076 341.269L576.177 340.649L578.72 345.921L576.813 350.572L577.766 353.983L572.681 357.084L575.224 362.046L574.906 367.937L578.084 371.348L569.186 375.69L559.652 381.582L556.156 390.885L549.164 397.086L545.033 389.644L525.964 389.954L517.066 367.317L514.206 366.387L504.354 371.038L493.866 368.868L484.014 367.937L484.65 351.812L463.675 349.022L459.861 345.3L461.768 343.44L460.815 340.029L470.349 331.656L481.79 329.486V322.663L485.603 320.183L486.239 305.918L501.494 290.413L532.956 311.5L554.249 300.957L554.567 271.498L567.597 249.481Z" stroke="black" stroke-width="0.654819"/>
<path d="M459.861 345.3L463.675 349.021L484.65 351.812L484.014 367.937L493.866 368.868L504.354 371.038L514.206 366.387L517.066 367.317L525.964 389.954L545.033 389.644L549.164 397.086L556.156 390.884L558.063 397.086L557.745 402.668L555.202 405.149L553.931 409.18L555.202 414.142L552.66 417.243L555.202 424.065L551.071 426.235L549.8 429.026V436.779L551.389 440.19L548.528 441.74L549.164 444.841L555.52 455.074L550.117 462.207H546.304L542.808 468.719L541.537 483.913L530.414 492.286L528.825 498.798L525.964 499.418L522.786 502.209H513.252L507.214 493.526L506.896 489.495L504.036 486.084L500.54 485.154L491.324 490.735L483.379 497.247L483.061 500.348L490.688 504.07L485.603 507.791L478.294 502.209L477.658 494.146L480.201 489.495L479.247 488.875H473.527L444.607 492.286L443.971 488.255L454.141 469.339L445.242 452.904L448.738 449.182L448.42 447.632L444.289 447.012L436.026 405.459L434.437 402.978L423.632 399.257L432.848 381.892L429.67 369.178L432.53 367.007V361.425L430.306 358.324L432.848 357.084L435.708 353.983H439.84L441.429 349.642L447.467 349.021L450.009 350.882L455.094 345.92L459.861 345.3Z" stroke="black" stroke-width="0.654819"/>
<path d="M314.625 255.062L310.494 250.101L311.129 247L317.803 241.728H327.337L334.011 238.317L346.088 238.627L351.808 241.108L356.893 246.07L362.296 247.31L368.97 251.031L368.652 234.596L375.643 233.666L378.822 232.735L381.682 228.394L380.411 223.122L376.279 217.851V215.37L382 216.61L386.449 209.168V201.106L384.542 192.113L380.093 188.082L372.148 191.493L368.97 196.764L362.614 200.175L348.63 199.865L348.312 196.764L343.228 196.454L341.639 194.283L341.321 190.252L347.041 186.841L346.723 178.469L341.956 175.057L336.871 179.089L334.011 180.019L323.842 166.995L321.617 162.654L321.935 155.211L331.151 154.901L336.554 147.769L329.244 141.877L317.803 127.923L321.299 111.488L337.825 111.798L340.05 109.627L339.414 105.286L334.965 100.014L334.647 95.3628L327.337 86.37L326.384 81.0984L331.469 74.8964L329.562 67.144L324.795 64.0431L326.702 51.3291L326.066 37.3748L324.159 26.8315L317.485 21.5599L311.447 21.87L305.091 17.5286L303.82 11.0166L298.735 4.8147L297.146 6.05508L285.387 22.1801L259.963 39.5455L255.196 45.4373L249.476 46.0575L245.98 47.608L242.166 50.3988L228.183 75.2065L223.416 87.3003L209.115 86.37L173.521 123.271L166.529 126.372L131.253 166.685V170.716L123.943 173.817L122.036 182.81V188.702L115.998 195.214L114.409 198.315V202.346L116.316 206.687L104.24 216.61L113.774 217.851L146.19 206.067L182.737 189.012L184.962 187.461L195.131 163.274L208.479 149.32L214.517 133.505L223.416 124.822L230.725 118.62H235.174L243.12 126.062L249.793 146.839L248.204 151.49L242.802 152.11L237.399 160.173L229.772 159.863L222.78 156.452L219.602 161.413L221.191 172.577L217.377 179.399L228.818 187.461L243.437 194.594L260.917 186.221L270.768 196.764L272.675 215.68L270.768 226.844L276.171 236.146L267.273 251.651L268.862 260.334L284.434 263.435L303.184 260.334L314.625 255.062Z" stroke="black" stroke-width="0.654819"/>
<path d="M429.67 369.178L432.848 381.892L423.632 399.257L434.437 402.978L436.026 405.459L444.289 447.012L448.42 447.632L448.738 449.182L445.242 452.904L454.141 469.339L443.971 488.255L438.251 486.704L436.026 487.014L432.53 495.387L426.81 499.418L419.818 496.937L400.75 501.279L395.347 492.286L391.851 467.478L381.046 471.199L375.961 469.029V450.423L366.745 446.702L361.025 453.214L346.723 457.865L342.592 458.175L337.507 451.043L336.871 440.19L343.863 434.608V429.957L347.041 429.336L347.359 425.925L353.397 424.995L353.715 420.344L355.94 417.553L339.414 396.466L338.461 387.163L332.74 382.512L327.337 374.449L328.926 368.868L336.236 365.146L343.228 368.557L347.995 364.836L356.893 368.247L358.482 361.735L362.931 358.634L371.83 358.945L376.597 363.286L380.093 362.045L386.449 357.394L392.169 356.774V353.983L389.627 349.332L395.029 335.377L405.517 335.687L402.975 340.649L406.153 343.75L404.881 347.471L404.564 351.502L399.479 358.324L401.386 362.976L402.339 367.317L405.517 368.247L409.966 364.216L418.865 367.627L422.996 364.526L429.67 369.178Z" stroke="black" stroke-width="0.654819"/>
<path d="M245.344 338.168L245.98 345.3L259.645 368.248L277.124 368.558L284.752 359.565H291.108L303.82 366.077L318.121 359.255L319.71 359.565L328.926 368.868L336.236 365.147L343.227 368.558L347.995 364.836L356.893 368.248L358.482 361.736L362.931 358.635L371.83 358.945L376.597 363.286L380.093 362.046L386.449 357.394L379.139 349.642L381.999 345.921L383.271 337.238L386.767 331.656L379.139 330.106L378.186 326.695H368.97L365.791 323.904L359.753 323.284L356.575 320.183L350.855 320.493L342.592 318.322V311.81L319.392 299.096L306.362 298.166L286.658 293.824L277.442 295.375L270.451 300.026L267.59 306.228L263.459 309.949L270.451 316.461L266.001 324.214L261.234 330.726L248.522 332.586L245.344 338.168Z" stroke="black" stroke-width="0.654819"/>
<path d="M328.926 368.868L327.337 374.449L332.74 382.512L338.46 387.163L339.414 396.466L355.94 417.553L353.715 420.344L353.397 424.995L347.359 425.925L347.041 429.336L343.863 429.957V434.608L336.871 440.19L337.507 451.043L342.592 458.175L346.723 457.865L346.088 466.548L354.986 473.99L348.948 487.324L336.554 487.945L330.515 492.906L325.748 492.596L323.206 497.247L316.85 491.356H313.99L295.239 480.192L287.294 485.154L280.302 485.774L273.311 483.913L263.459 476.161L253.925 468.408L245.662 458.175L245.344 451.973L253.289 454.144L255.832 454.454L258.056 449.493L251.7 435.228V432.747L257.421 419.413L257.103 417.863L250.747 410.421L258.692 400.808L259.645 393.365L273.311 379.411L277.124 368.558L284.752 359.565H291.108L303.82 366.077L318.121 359.255L319.71 359.565L328.926 368.868Z" stroke="black" stroke-width="0.654819"/>
<path d="M277.124 368.557L273.311 379.411L259.645 393.365L258.692 400.807L250.747 410.42L257.103 417.863L257.421 419.413L251.7 432.747V435.228L258.056 449.493L255.832 454.454L253.289 454.144L245.344 451.973L245.662 458.175L253.925 468.408L240.895 478.952L236.763 477.401L234.857 467.788L229.772 466.858L228.501 472.44L231.679 479.572L225.958 480.502L221.509 472.75L212.61 471.509V455.695L210.386 450.423L203.394 440.81L193.224 439.88L183.372 443.291L175.427 438.329L167.165 434.918L172.567 424.065V421.894L157.63 406.079L152.546 402.978L155.088 400.187L158.584 395.226L160.173 376.93L148.414 354.913L160.491 335.687L170.025 338.168L174.474 358.634L193.542 363.522L197.674 359.875L199.898 334.137L205.619 325.454L212.293 325.144L233.268 339.719L238.988 335.067L245.344 338.168L245.98 345.3L259.645 368.247L277.124 368.557Z" stroke="black" stroke-width="0.654819"/>
<path d="M556.156 390.885L559.652 381.582L569.186 375.69L578.084 371.348L574.906 367.937L575.224 362.046L572.682 357.084L577.766 353.983L576.813 350.572L578.72 345.921L576.177 340.649L585.076 341.269L587.936 344.99H592.385L593.974 343.13L597.47 340.959L600.966 345.921H602.873L608.911 351.502L616.538 349.332L617.174 342.51L618.445 341.889L621.941 343.13L622.577 347.161L627.026 352.743L619.399 362.046L621.623 363.596L633.064 364.216L636.56 361.735L644.505 365.767L642.28 369.178L641.009 375.69L642.598 377.55L673.425 375.38L675.968 373.519L676.285 370.728L698.849 372.279V374.139L689.315 380.651L688.998 387.473L690.904 388.404L697.578 386.543L697.26 399.567L690.587 405.459L691.54 410.421L694.082 412.591L698.214 413.522L706.477 410.731L711.244 415.072L710.608 422.204L707.112 429.336L698.214 430.267L696.625 431.197L687.091 443.601L684.23 449.493L688.68 457.865L686.773 461.586V465.308L683.913 467.478V473.68L678.192 473.37L675.014 479.572L667.387 480.192L666.116 477.091L653.086 482.053L645.458 474.921L649.272 471.509L647.365 469.959L636.242 464.687L633.064 460.656L634.971 456.625L635.924 455.695L634.018 452.284L636.242 447.012L635.924 443.911L634.653 443.291L627.661 445.772L626.072 443.911L628.615 436.779L631.157 433.988L630.84 432.127L629.25 431.197L624.166 435.228L622.259 435.538L617.81 431.197L615.267 425.925L614.314 422.514L613.043 422.204L610.818 422.824L609.547 419.413L605.097 419.723L600.013 417.553L600.966 415.382V413.522L599.695 412.281L597.788 412.591L593.974 415.692L593.339 417.863L592.703 422.824L584.122 428.406H580.309L578.402 430.887L579.038 433.368L581.262 434.918L579.355 437.709L577.131 438.019L573.635 436.779V432.127L557.745 424.375L555.202 424.065L552.66 417.243L555.202 414.142L553.931 409.18L555.202 405.149L557.745 402.668L558.063 397.086L556.156 390.885Z" stroke="black" stroke-width="0.654819"/>
<path d="M962.626 236.146V233.976L971.842 225.293L974.067 158.622L973.114 151.8L968.029 134.745L963.262 129.784V124.512L964.851 119.24L968.982 116.449L971.207 110.247L982.012 107.457L994.406 108.387L995.36 107.147L995.678 105.286L1002.03 95.983L998.856 80.1681L1003.3 75.2066L1011.89 66.2138L1012.84 64.9734L1017.92 54.1201L1023.01 38.6153L1024.92 32.4133L1022.37 29.3124L1009.98 37.3749L1003.3 38.3052L989.957 46.0576L986.461 43.8869L982.648 37.9951V33.6537L985.19 24.971L986.461 17.2186L980.741 15.9782L974.703 21.8701L957.223 23.1104L939.744 20.6297L918.769 13.4975L914.002 8.22583L905.739 16.5984L890.167 17.5287L881.268 29.3124L882.54 35.2042L880.633 42.3364L876.819 45.7475L873.641 42.9566L866.332 29.9326L855.526 23.7306L848.217 24.6609L797.051 26.2114L789.423 29.0023L779.571 29.6225L769.084 39.2354L763.999 43.8869L768.13 51.9494L773.851 55.0503L779.889 62.8028L789.105 62.1826V55.9806L797.686 48.5383L809.127 55.0503H814.212L817.39 57.5311L817.072 64.0431L806.267 87.9205L809.763 93.5023L802.771 102.805L801.5 112.418L809.763 118H813.259L821.839 115.829L823.428 116.449L817.072 125.132L820.25 128.543L835.823 130.714L838.047 138.466L843.768 136.916L850.759 140.017L852.984 147.149L849.488 158.312L849.806 160.173L861.565 160.793L854.255 167.615V170.096L856.48 171.646L871.734 171.026L873.641 174.127L866.649 179.709L866.967 181.88L874.277 197.695H878.09L880.633 203.896H888.578L891.756 216.3L894.616 222.192L900.654 222.812L902.243 228.394H909.871L911.46 229.634L912.095 233.976L913.049 234.596L926.079 233.046L927.986 234.596V239.558L962.626 236.146Z" stroke="black" stroke-width="0.654819"/>
<path d="M806.267 87.9206L809.763 93.5023L802.771 102.805L801.5 112.418L809.763 118H813.259L821.839 115.829L823.428 116.449L817.072 125.132L820.25 128.543L835.823 130.714L838.047 138.466L843.768 136.916L850.759 140.017L852.984 147.149L849.488 158.312L849.806 160.173L861.565 160.793L854.255 167.615V170.096L856.48 171.647L871.734 171.026L873.641 174.127L866.65 179.709L866.967 181.88L874.277 197.695H878.09L880.633 203.897H888.578L891.756 216.3L894.616 222.192L900.655 222.812L902.244 228.394L891.12 229.945L883.175 237.387L886.671 249.791L873.641 255.993L828.831 256.303L806.267 257.853L795.462 256.923L790.377 255.372L794.826 252.271V247L788.47 239.247L789.741 238.007L797.368 236.457L798.64 235.526L793.555 230.875V228.704L791.966 227.464L786.563 230.875L776.711 225.603V213.82L770.355 205.757L726.498 206.687V199.555L718.235 201.416L708.066 188.082L697.896 187.772L696.625 178.779L732.219 179.709L737.304 158.312L702.981 143.118L708.384 136.916L724.274 135.985L732.219 131.644L733.808 122.651L742.706 120.481L743.342 118.31L741.117 116.759L734.126 115.829L737.621 108.387L763.681 93.8124L766.224 90.0912L765.906 87.9206L763.999 83.5792L764.317 76.7571L774.804 74.5864L776.076 79.548L796.415 87.9206H806.267Z" stroke="black" stroke-width="0.654819"/>
<path d="M696.625 178.779L697.896 187.772L708.066 188.082L718.235 201.416L726.498 199.555V206.687L770.355 205.757L776.711 213.82V225.603L786.563 230.875L791.966 227.464L793.555 228.704V230.875L798.64 235.526L797.368 236.457L789.741 238.007L788.47 239.248L794.826 247V252.272L790.377 255.373L787.834 264.986L786.245 266.226L773.533 262.505L764.952 265.916L747.791 260.644L742.388 247.31L738.575 244.519L723.002 248.55L722.367 260.334L729.994 278.01L736.032 287.312V288.863L729.994 292.274L732.219 307.159L726.498 313.05L726.816 320.803L713.468 329.486L709.973 338.168H698.532L697.578 339.099V340.959L688.044 344.37L687.408 350.882L681.37 355.224L676.285 370.728L675.968 373.519L673.425 375.38L642.598 377.55L641.009 375.69L642.28 369.178L644.505 365.767L636.56 361.736L633.064 364.216L621.623 363.596L619.399 362.046L627.026 352.743L622.577 347.161L621.941 343.13L618.445 341.889L617.174 342.51L616.538 349.332L608.911 351.502L602.873 345.921L605.733 336.618L601.602 328.865L602.555 311.19L603.826 308.399L602.237 306.228L600.966 308.399L595.246 307.159V302.507L589.525 297.236L593.974 292.584L594.928 284.832L590.479 280.8V276.459L587.618 274.599L588.572 261.574L580.944 259.404L580.627 255.683L573.635 255.373L567.597 249.481L600.013 242.659L624.801 262.505L641.963 263.435L664.209 250.721L672.79 236.457L673.743 219.401L682.641 209.478L674.696 189.632L696.625 178.779Z" stroke="black" stroke-width="0.654819"/>
<path d="M956.906 280.8L946.1 280.18L951.503 263.125L943.558 264.365V252.582L936.248 250.721L931.799 257.853L939.744 267.156L932.435 272.428L933.706 277.389L936.566 276.459L941.015 279.87L941.969 292.894L932.753 297.545L919.405 311.5L921.629 317.702L912.731 322.043L911.46 326.695L893.345 328.865L892.392 352.432L889.531 359.255L874.912 357.394L872.688 351.812L871.099 350.882L833.28 347.471V330.726L831.691 330.106L813.259 328.555L802.453 336.618V364.526L786.563 369.488L784.656 380.651L792.601 387.783L794.826 393.985L782.114 402.978L780.843 421.894L785.61 423.444V434.608L789.423 435.538L792.284 439.88L802.771 444.221L803.089 447.632L806.267 450.113L804.996 460.966L817.708 460.346L832.645 473.99L841.225 474.61L842.179 471.199L840.272 469.649L840.59 466.548H850.124L851.713 460.656L856.162 460.346L860.293 466.238L865.378 465.618L866.649 462.207L876.819 473.99H885.082L889.849 478.642L900.337 478.952L910.506 486.394L916.227 484.223L918.451 477.401L922.901 475.851L925.761 457.555L934.342 456.935L940.698 455.074L942.604 451.043H948.325L954.999 452.283L961.355 449.182L962.944 443.911L982.648 439.88L985.19 434.918L977.881 433.057L975.338 429.026L977.881 424.685L982.965 425.925L990.593 417.863L987.415 408.56L976.292 396.466L977.563 392.435L996.313 396.466L998.538 394.295L995.36 390.574V387.473L997.902 385.923V364.216L1010.3 371.658L1010.61 354.603L1012.2 350.262L1005.53 353.983H994.406L987.733 348.711L984.554 318.012L990.593 307.469L995.678 306.538V294.755L977.881 294.445L977.245 291.344L973.114 290.723L972.478 287.002L957.859 285.142L956.906 280.8Z" stroke="black" stroke-width="0.654819"/>
<path d="M676.285 370.728L681.37 355.223L687.409 350.882L688.044 344.37L697.578 340.959V339.098L698.532 338.168H709.973L713.468 329.485L726.816 320.803L726.498 313.05L732.219 307.158L729.994 292.274L736.032 288.863V287.312L729.994 278.009L722.367 260.334L723.002 248.55L738.575 244.519L742.388 247.31L747.791 260.644L764.953 265.916L773.533 262.505L786.245 266.226L788.152 264.985L790.377 255.372L795.462 256.923L806.267 257.853L828.831 256.303L873.641 255.993L886.671 249.791L883.175 237.387L891.12 229.945L902.244 228.394H909.871L911.46 229.634L912.095 233.976L913.049 234.596L926.079 233.045L927.986 234.596V239.558L962.626 236.146L962.944 246.38L960.084 257.543L965.486 265.916L966.122 275.839L956.906 280.8L946.1 280.18L951.503 263.125L943.558 264.365V252.582L936.248 250.721L931.799 257.853L939.744 267.156L932.435 272.428L933.706 277.389L936.566 276.459L941.016 279.87L941.969 292.894L932.753 297.545L919.405 311.5L921.63 317.702L912.731 322.043L911.46 326.695L893.345 328.865L892.392 352.432L889.531 359.255L874.912 357.394L872.37 351.812L871.099 350.882L833.28 347.471V330.726L831.691 330.106L813.259 328.555L802.453 336.618V364.526L786.563 369.488L784.656 380.651L792.601 387.783L794.826 393.985L782.114 402.978L780.843 421.894L775.122 423.444L755.101 423.134L753.829 436.779L743.342 435.538L742.706 427.476L728.405 421.584L724.909 423.755L721.413 420.654L721.731 414.762L711.244 415.072L706.477 410.731L698.214 413.521L694.082 412.591L691.54 410.42L690.587 405.459L697.26 399.567L697.578 386.543L690.904 388.404L688.998 387.473L689.315 380.651L698.849 374.139V372.279L676.285 370.728Z" stroke="black" stroke-width="0.654819"/>
<path d="M167.164 434.918L175.427 438.329L183.372 443.291L193.224 439.88L203.394 440.81L210.386 450.423L212.61 455.695V471.51L221.509 472.75L225.958 480.502L231.678 479.572L228.5 472.44L229.772 466.858L234.857 467.788L236.763 477.401L240.895 478.952L253.925 468.409L263.459 476.161L264.412 484.844L258.692 489.495L262.188 499.108L257.103 499.418L253.925 498.178L250.111 501.589L251.382 507.791L225.958 513.683L228.818 522.365L226.911 526.397L229.772 529.187L226.276 536.63L215.788 532.598L206.254 533.219L200.216 531.358L195.767 533.839L194.178 530.428L191 531.048L187.822 540.971L181.783 540.351L177.97 530.428V527.637H174.156L173.203 522.365L167.164 513.993L166.847 511.822L161.444 506.24L152.863 506.55L147.143 500.969L138.88 500.659L121.083 509.961L118.858 499.108L123.625 494.767L122.036 492.286L125.85 488.565L124.897 485.464L126.803 482.053V477.401L136.655 463.447V456.625L137.609 453.214L144.6 446.082H146.825L153.499 442.671L163.033 442.05L167.164 434.918Z" stroke="black" stroke-width="0.654819"/>
<path d="M226.276 536.63L229.772 529.187L226.912 526.396L228.818 522.365L225.958 513.682L251.382 507.791L250.111 501.589L253.925 498.178L257.103 499.418L262.188 499.108L258.692 489.495L264.412 484.843L263.459 476.161L273.311 483.913L280.302 485.774L287.294 485.154L295.239 480.192L313.99 491.356H316.85L323.206 497.247L325.748 492.596L330.515 492.906L336.554 487.944L348.948 487.324L354.986 473.99L346.088 466.548L346.723 457.865L361.025 453.214L366.745 446.702L375.961 450.423V469.029L381.046 471.199L391.851 467.478L395.347 492.286L400.75 501.279L419.818 496.937L426.81 499.418L432.53 495.387L436.026 487.014L438.251 486.704L443.971 488.255L444.607 492.286L473.527 488.875H479.247L480.201 489.495L477.658 494.146L478.294 502.209L485.603 507.791L483.697 510.581V517.404L469.078 530.118L459.861 534.459L453.187 534.769L451.281 537.56L456.683 541.901L455.73 549.964L456.683 561.127L452.87 565.158L451.916 562.368L449.692 561.747L448.103 562.057L441.111 567.949L438.569 563.918L432.212 562.988L428.081 567.329L422.996 567.949L417.593 565.158L417.911 560.197L413.78 557.096L407.742 559.577L398.525 557.716L389.945 559.577L388.038 562.988V565.779L390.58 570.12L386.449 574.461L382.635 575.392L382.317 577.562L386.131 580.043V582.524L383.271 584.384L386.767 589.346L388.356 595.548L393.123 602.37L393.44 604.231L386.767 609.502L388.673 613.223L383.589 617.875L382.317 622.836L372.783 624.697L369.605 622.216H360.707L358.482 627.798H353.715L348.63 629.348L341.639 620.666L338.46 623.146L329.244 620.045L327.02 616.324L322.253 613.533L327.337 608.572L327.655 605.471L325.113 602.68L319.71 602.06L313.672 595.548L310.176 594.928L305.091 599.889H299.371L297.464 598.029L298.099 596.478L303.184 593.687L306.362 591.517L305.727 589.966L300.96 587.485H298.417L294.286 590.276L290.472 589.656L288.248 584.694L288.565 582.834L289.201 581.904L294.604 580.973L291.108 576.322L293.015 573.841L292.379 569.19L283.481 567.949L278.396 568.88L271.722 562.368L268.544 562.988L266.955 546.553L264.412 543.142L261.234 545.622L259.645 547.483H252.336L249.793 544.382L243.12 541.901H234.857L230.09 538.18L226.276 536.63Z" stroke="black" stroke-width="0.654819"/>
<path d="M501.494 290.413L486.239 305.918L485.603 320.183L481.79 322.663V329.485L470.349 331.656L460.815 340.029L457.319 336.618L451.598 335.997L446.514 333.207L439.522 325.764L432.848 323.283L432.212 321.423L434.119 320.493V316.771L432.53 313.05L433.801 298.476L436.026 295.065L431.895 289.483L431.577 285.762L430.306 283.901H428.399L427.445 281.11L425.221 281.731L419.818 277.699L419.183 274.288L416.004 269.327H408.695L405.517 264.365L398.207 264.675L394.712 261.264L379.775 260.334L377.868 255.683L373.737 253.202L368.97 251.031L368.652 234.596L375.643 233.666L378.821 232.735L381.682 228.394L380.411 223.122L376.279 217.851V215.37L382 216.61L386.449 209.168V201.106L384.542 192.113L380.093 188.082L383.271 185.911L388.991 187.151L395.029 190.872L398.525 193.663L404.564 191.493H407.424L415.051 196.454H422.678L426.492 200.175L433.801 192.423L435.073 194.904L438.886 196.764L446.196 189.012L450.009 188.082L457.001 179.709L459.544 181.57L501.494 290.413Z" stroke="black" stroke-width="0.654819"/>
<path d="M380.093 188.082L383.271 185.911L388.991 187.151L395.029 190.873L398.525 193.663L404.564 191.493H407.424L415.051 196.454H422.678L426.492 200.175L433.801 192.423L435.073 194.904L438.886 196.764L446.196 189.012L450.009 188.082L457.001 179.709L430.623 154.901L429.034 113.038L403.61 74.2764L362.296 41.7163L360.389 39.5457H343.227L326.066 37.375L326.702 51.3293L324.795 64.0433L329.562 67.1442L331.469 74.8966L326.384 81.0986L327.337 86.3702L334.647 95.363L334.965 100.014L339.414 105.286L340.049 109.627L337.825 111.798L321.299 111.488L317.803 127.923L329.244 141.877L336.554 147.769L331.151 154.901L321.935 155.212L321.617 162.654L323.841 166.995L334.011 180.019L336.871 179.089L341.956 175.058L346.723 178.469L347.041 186.841L341.321 190.252L341.638 194.284L343.227 196.454L348.312 196.764L348.63 199.865L362.613 200.175L368.97 196.764L372.148 191.493L380.093 188.082Z" stroke="black" stroke-width="0.654819"/>
<path d="M368.97 251.031L373.737 253.202L377.868 255.683L379.775 260.334L394.712 261.264L398.207 264.675L405.517 264.365L408.695 269.327H416.004L419.182 274.288L419.818 277.699L425.221 281.731L427.445 281.11L428.399 283.901H430.306L431.577 285.762L431.895 289.483L436.026 295.065L433.801 298.476L432.53 313.05L434.119 316.771V320.493L432.212 321.423L432.848 323.283L439.522 325.764L446.514 333.207L451.598 335.997L457.319 336.618L460.815 340.029L461.768 343.44L459.861 345.3L455.094 345.92L450.009 350.882L447.467 349.021L441.429 349.642L439.84 353.983H435.708L432.848 357.084L430.306 358.324L432.53 361.425V367.007L429.67 369.178L422.996 364.526L418.865 367.627L409.966 364.216L405.517 368.247L402.339 367.317L401.385 362.976L399.479 358.324L404.564 351.502L404.881 347.471L406.153 343.75L402.975 340.649L405.517 335.687L395.029 335.377L389.627 349.332L392.169 353.983V356.774L386.449 357.394L379.139 349.642L382 345.92L383.271 337.238L386.767 331.656L379.139 330.106L378.186 326.695H368.97L365.792 323.904L359.753 323.283L356.575 320.183L350.855 320.493L342.592 318.322V311.81L334.647 307.469L344.181 304.368L376.597 319.252L394.712 318.322L402.975 309.639V306.848L396.936 301.887L400.75 297.856L400.432 296.305L373.419 290.723L366.427 273.048L367.698 263.125L366.745 261.264L356.575 255.372L333.376 249.481L329.88 249.171L314.625 255.062L310.494 250.101L311.129 247L317.803 241.728H327.337L334.011 238.317L346.088 238.627L351.808 241.108L356.893 246.07L362.296 247.31L368.97 251.031Z" fill="#A0A0A0" stroke="black" stroke-width="0.654819"/>
<path d="M354.669 296.615L344.817 283.901L331.787 281.42L337.19 288.243L345.135 294.755L354.669 296.615Z" fill="#A0A0A0" stroke="black" stroke-width="0.654819"/>
<path d="M426.107 447.61L427.15 441.797H428.782L429.805 447.61H428.526L428.349 446.537H427.504L427.336 447.61H426.107ZM427.523 445.967H428.34L427.936 442.81L427.523 445.967Z" fill="#0E5072"/>
<path d="M422.244 447.61V441.797H423.385V444.325H423.759L424.743 441.797H425.972L424.792 444.59L426.001 447.61H424.762L423.808 445.082H423.385V447.61H422.244Z" fill="#0E5072"/>
<path d="M418.21 447.61V441.797H419.213V445.328L420.423 441.797H421.426V447.61H420.413V444.315L419.213 447.61H418.21Z" fill="#0E5072"/>
<path d="M415.659 447.61V442.603H414.755V441.797H417.705V442.603H416.8V447.61H415.659Z" fill="#0E5072"/>
<path d="M410.893 447.61L411.936 441.797H413.568L414.591 447.61H413.313L413.136 446.537H412.29L412.123 447.61H410.893ZM412.31 445.967H413.126L412.723 442.81L412.31 445.967Z" fill="#0E5072"/>
<path d="M405.955 447.61V441.797H407.381L408.178 445.554L408.984 441.797H410.4V447.61H409.397V443.262L408.561 447.61H407.784L406.958 443.262V447.61H405.955Z" fill="#0E5072"/>
<path d="M402.795 447.61V441.797H405.48V442.603H403.985V447.61H402.795Z" fill="#0E5072"/>
<path d="M398.609 447.61L399.651 441.797H401.284L402.307 447.61H401.028L400.851 446.537H400.005L399.838 447.61H398.609ZM400.025 445.967H400.841L400.438 442.81L400.025 445.967Z" fill="#0E5072"/>
<path d="M395.082 447.61V441.797H397.147C397.534 441.797 397.826 441.885 398.023 442.062C398.226 442.233 398.328 442.472 398.328 442.78L398.328 443.784C398.328 444.046 398.295 444.292 398.229 444.521C398.164 444.744 398.046 444.924 397.875 445.062C397.705 445.2 397.459 445.269 397.138 445.269H396.272V447.61H395.082ZM396.272 444.639H396.715C396.872 444.639 396.99 444.564 397.069 444.413C397.147 444.262 397.187 444.013 397.187 443.666V443.272C397.187 442.964 397.154 442.744 397.088 442.613C397.023 442.482 396.928 442.416 396.803 442.416H396.272V444.639Z" fill="#0E5072"/>
<path d="M391 447.61V441.797H394.255V447.61H393.065L393.065 442.603H392.19V447.61H391Z" fill="#0E5072"/>
<path d="M426.354 440.311L427.197 434.378H429.938L429.817 435.201H428.291L427.568 440.311H426.354Z" fill="#25282A"/>
<path d="M423.91 440.432C423.582 440.432 423.294 440.392 423.046 440.311C422.805 440.238 422.631 440.08 422.524 439.839C422.417 439.592 422.397 439.224 422.464 438.735L422.615 437.671H421.791L421.42 440.311H420.255L421.089 434.378H422.253L421.922 436.808H422.735L422.896 435.633C422.949 435.285 423.06 435.014 423.227 434.82C423.394 434.619 423.612 434.482 423.88 434.408C424.147 434.328 424.448 434.288 424.783 434.288C425.118 434.288 425.399 434.328 425.626 434.408C425.861 434.489 426.031 434.626 426.138 434.82C426.252 435.014 426.282 435.285 426.229 435.633L425.797 438.735C425.73 439.224 425.613 439.592 425.446 439.839C425.278 440.08 425.064 440.238 424.803 440.311C424.549 440.392 424.251 440.432 423.91 440.432ZM424.01 439.749C424.104 439.749 424.187 439.736 424.261 439.709C424.335 439.675 424.398 439.619 424.452 439.538C424.505 439.458 424.542 439.341 424.562 439.187L425.074 435.573C425.094 435.412 425.088 435.292 425.054 435.211C425.027 435.131 424.98 435.078 424.914 435.051C424.847 435.024 424.766 435.011 424.673 435.011C424.586 435.011 424.502 435.024 424.422 435.051C424.348 435.078 424.284 435.131 424.231 435.211C424.184 435.292 424.147 435.412 424.12 435.573L423.619 439.187C423.598 439.341 423.602 439.458 423.629 439.538C423.655 439.619 423.702 439.675 423.769 439.709C423.836 439.736 423.916 439.749 424.01 439.749Z" fill="#25282A"/>
<path d="M416.686 431.608V434.52L413.659 432.704L413.272 432.472V432.923V433.605V433.75L413.396 433.824L416.686 435.798V435.885L413.659 434.069L413.272 433.837V434.288V434.971V435.115L413.396 435.189L416.686 437.163V437.25L413.659 435.434L413.272 435.202V435.653V436.336V436.48L413.396 436.555L416.686 438.528V438.616L413.659 436.8L413.272 436.568V437.019V437.57V437.71L413.39 437.785L416.686 439.889V440.176H413.1V429.295L416.686 431.608Z" fill="#25282A" stroke="#25282A" stroke-width="0.510669"/>
<path d="M411.48 440.005H412.59V440.177H410.028V425.538L412.36 427.024V429.852L411.321 430.675L411.224 430.751V430.875V439.749V440.005H411.48Z" fill="#25282A" stroke="#25282A" stroke-width="0.510669"/>
<path fill-rule="evenodd" clip-rule="evenodd" d="M402.264 440.432H403.288V422L399.875 424.2V440.432H400.898V424.509L402.264 423.577V440.432Z" fill="#0E5072"/>
<path d="M399.192 427.461V440.424L397.144 440.431V425.413L399.192 427.461Z" fill="#25282A"/>
<path d="M396.803 426.437V440.431L395.779 440.427V427.461V427.12L396.803 426.437Z" fill="#25282A"/>
<path d="M395.437 427.328V440.431L394.741 440.428V427.765L395.437 427.328Z" fill="#25282A"/>
<path d="M394.413 427.989V440.428L392.699 440.43V432.902V432.373V430.434L392.188 430.081V429.419L394.413 427.989Z" fill="#25282A"/>
<path d="M392.365 430.875L392.285 440.43L391 440.431V431.76L392.365 430.875Z" fill="#25282A"/>
<path fill-rule="evenodd" clip-rule="evenodd" d="M403.97 422V440.432H404.994V433.376H405.677V440.432H409.09V425.31L405.677 423.101V432.597L404.994 432.581V422.656L403.97 422ZM406.701 424.527V439.749H408.066V425.413L406.701 424.527Z" fill="#0E5072"/>
</g>
<path d="M397.1 402.833C397.1 409.539 388.949 419.199 383.71 425.886C379.053 419.199 370.32 409.539 370.32 402.833C370.32 396.127 376.315 390.69 383.71 390.69C391.105 390.69 397.1 396.127 397.1 402.833Z" fill="#F4AE3F"/>
<circle cx="383.71" cy="402.55" r="5.73843" fill="white"/>
<path d="M238.088 335V318.2H253.4V335H249.536V320.48L250.424 321.368H241.064L241.952 320.48V335H238.088ZM257.565 335V318.2H264.837C266.341 318.2 267.637 318.448 268.725 318.944C269.813 319.424 270.653 320.12 271.245 321.032C271.837 321.944 272.133 323.032 272.133 324.296C272.133 325.544 271.837 326.624 271.245 327.536C270.653 328.448 269.813 329.152 268.725 329.648C267.637 330.128 266.341 330.368 264.837 330.368H259.725L261.453 328.616V335H257.565ZM261.453 329.048L259.725 327.2H264.621C265.821 327.2 266.717 326.944 267.309 326.432C267.901 325.92 268.197 325.208 268.197 324.296C268.197 323.368 267.901 322.648 267.309 322.136C266.717 321.624 265.821 321.368 264.621 321.368H259.725L261.453 319.52V329.048ZM282.972 335.288C281.644 335.288 280.412 335.072 279.276 334.64C278.156 334.208 277.18 333.6 276.348 332.816C275.532 332.032 274.892 331.112 274.428 330.056C273.98 329 273.756 327.848 273.756 326.6C273.756 325.352 273.98 324.2 274.428 323.144C274.892 322.088 275.54 321.168 276.372 320.384C277.204 319.6 278.18 318.992 279.3 318.56C280.42 318.128 281.636 317.912 282.948 317.912C284.276 317.912 285.492 318.128 286.596 318.56C287.716 318.992 288.684 319.6 289.5 320.384C290.332 321.168 290.98 322.088 291.444 323.144C291.908 324.184 292.14 325.336 292.14 326.6C292.14 327.848 291.908 329.008 291.444 330.08C290.98 331.136 290.332 332.056 289.5 332.84C288.684 333.608 287.716 334.208 286.596 334.64C285.492 335.072 284.284 335.288 282.972 335.288ZM282.948 331.976C283.7 331.976 284.388 331.848 285.012 331.592C285.652 331.336 286.212 330.968 286.692 330.488C287.172 330.008 287.54 329.44 287.796 328.784C288.068 328.128 288.204 327.4 288.204 326.6C288.204 325.8 288.068 325.072 287.796 324.416C287.54 323.76 287.172 323.192 286.692 322.712C286.228 322.232 285.676 321.864 285.036 321.608C284.396 321.352 283.7 321.224 282.948 321.224C282.196 321.224 281.5 321.352 280.86 321.608C280.236 321.864 279.684 322.232 279.204 322.712C278.724 323.192 278.348 323.76 278.076 324.416C277.82 325.072 277.692 325.8 277.692 326.6C277.692 327.384 277.82 328.112 278.076 328.784C278.348 329.44 278.716 330.008 279.18 330.488C279.66 330.968 280.22 331.336 280.86 331.592C281.5 331.848 282.196 331.976 282.948 331.976ZM295.135 335V318.2H298.999V329.144L307.015 318.2H310.663V335H306.823V324.08L298.807 335H295.135ZM313.334 333.512L314.534 330.728C315.254 331.16 316.022 331.496 316.838 331.736C317.67 331.96 318.478 332.088 319.262 332.12C320.062 332.136 320.782 332.056 321.422 331.88C322.078 331.704 322.598 331.44 322.982 331.088C323.382 330.736 323.582 330.288 323.582 329.744C323.582 329.104 323.318 328.632 322.79 328.328C322.262 328.008 321.558 327.848 320.678 327.848H316.574V324.92H320.39C321.174 324.92 321.782 324.76 322.214 324.44C322.662 324.12 322.886 323.68 322.886 323.12C322.886 322.64 322.726 322.256 322.406 321.968C322.086 321.664 321.646 321.44 321.086 321.296C320.542 321.152 319.926 321.088 319.238 321.104C318.55 321.12 317.838 321.232 317.102 321.44C316.366 321.648 315.662 321.936 314.99 322.304L313.814 319.304C314.902 318.744 316.046 318.36 317.246 318.152C318.462 317.928 319.63 317.872 320.75 317.984C321.886 318.08 322.91 318.336 323.822 318.752C324.734 319.152 325.462 319.68 326.006 320.336C326.55 320.992 326.822 321.768 326.822 322.664C326.822 323.464 326.614 324.176 326.198 324.8C325.782 325.424 325.198 325.904 324.446 326.24C323.71 326.576 322.862 326.744 321.902 326.744L321.998 325.88C323.118 325.88 324.086 326.072 324.902 326.456C325.734 326.824 326.374 327.344 326.822 328.016C327.286 328.672 327.518 329.432 327.518 330.296C327.518 331.096 327.302 331.816 326.87 332.456C326.454 333.08 325.878 333.608 325.142 334.04C324.406 334.472 323.566 334.792 322.622 335C321.678 335.208 320.67 335.296 319.598 335.264C318.542 335.232 317.478 335.08 316.406 334.808C315.334 334.52 314.31 334.088 313.334 333.512ZM330.596 335V318.2H338.42C340.372 318.2 341.892 318.576 342.98 319.328C344.068 320.08 344.612 321.152 344.612 322.544C344.612 323.92 344.1 324.992 343.076 325.76C342.052 326.512 340.692 326.888 338.996 326.888L339.452 325.88C341.34 325.88 342.804 326.256 343.844 327.008C344.884 327.76 345.404 328.848 345.404 330.272C345.404 331.744 344.844 332.904 343.724 333.752C342.62 334.584 341.004 335 338.876 335H330.596ZM334.46 332.12H338.732C339.628 332.12 340.308 331.944 340.772 331.592C341.236 331.24 341.468 330.696 341.468 329.96C341.468 329.256 341.236 328.736 340.772 328.4C340.308 328.048 339.628 327.872 338.732 327.872H334.46V332.12ZM334.46 325.16H338.084C338.932 325.16 339.572 324.992 340.004 324.656C340.436 324.304 340.652 323.792 340.652 323.12C340.652 322.448 340.436 321.944 340.004 321.608C339.572 321.256 338.932 321.08 338.084 321.08H334.46V325.16ZM356.519 335.288C355.191 335.288 353.959 335.072 352.823 334.64C351.703 334.208 350.727 333.6 349.895 332.816C349.079 332.032 348.439 331.112 347.975 330.056C347.527 329 347.303 327.848 347.303 326.6C347.303 325.352 347.527 324.2 347.975 323.144C348.439 322.088 349.087 321.168 349.919 320.384C350.751 319.6 351.727 318.992 352.847 318.56C353.967 318.128 355.183 317.912 356.495 317.912C357.823 317.912 359.039 318.128 360.143 318.56C361.263 318.992 362.231 319.6 363.047 320.384C363.879 321.168 364.527 322.088 364.991 323.144C365.455 324.184 365.687 325.336 365.687 326.6C365.687 327.848 365.455 329.008 364.991 330.08C364.527 331.136 363.879 332.056 363.047 332.84C362.231 333.608 361.263 334.208 360.143 334.64C359.039 335.072 357.831 335.288 356.519 335.288ZM356.495 331.976C357.247 331.976 357.935 331.848 358.559 331.592C359.199 331.336 359.759 330.968 360.239 330.488C360.719 330.008 361.087 329.44 361.343 328.784C361.615 328.128 361.751 327.4 361.751 326.6C361.751 325.8 361.615 325.072 361.343 324.416C361.087 323.76 360.719 323.192 360.239 322.712C359.775 322.232 359.223 321.864 358.583 321.608C357.943 321.352 357.247 321.224 356.495 321.224C355.743 321.224 355.047 321.352 354.407 321.608C353.783 321.864 353.231 322.232 352.751 322.712C352.271 323.192 351.895 323.76 351.623 324.416C351.367 325.072 351.239 325.8 351.239 326.6C351.239 327.384 351.367 328.112 351.623 328.784C351.895 329.44 352.263 330.008 352.727 330.488C353.207 330.968 353.767 331.336 354.407 331.592C355.047 331.848 355.743 331.976 356.495 331.976ZM379.349 333.272V321.368H373.589L373.517 323.816C373.469 324.856 373.397 325.84 373.301 326.768C373.221 327.696 373.093 328.544 372.917 329.312C372.741 330.064 372.509 330.704 372.221 331.232C371.949 331.76 371.605 332.136 371.189 332.36L367.037 331.832C367.613 331.848 368.085 331.648 368.453 331.232C368.837 330.816 369.141 330.232 369.365 329.48C369.589 328.712 369.749 327.816 369.845 326.792C369.957 325.768 370.037 324.656 370.085 323.456L370.277 318.2H383.189V333.272H379.349ZM366.485 338.48L366.509 331.832H385.541V338.48H381.941V335H370.085V338.48H366.485ZM396.102 335.288C394.806 335.288 393.598 335.08 392.478 334.664C391.374 334.232 390.414 333.624 389.598 332.84C388.782 332.056 388.142 331.136 387.678 330.08C387.23 329.024 387.006 327.864 387.006 326.6C387.006 325.336 387.23 324.176 387.678 323.12C388.142 322.064 388.782 321.144 389.598 320.36C390.43 319.576 391.398 318.976 392.502 318.56C393.606 318.128 394.814 317.912 396.126 317.912C397.582 317.912 398.894 318.168 400.062 318.68C401.246 319.176 402.238 319.912 403.038 320.888L400.542 323.192C399.966 322.536 399.326 322.048 398.622 321.728C397.918 321.392 397.15 321.224 396.318 321.224C395.534 321.224 394.814 321.352 394.158 321.608C393.502 321.864 392.934 322.232 392.454 322.712C391.974 323.192 391.598 323.76 391.326 324.416C391.07 325.072 390.942 325.8 390.942 326.6C390.942 327.4 391.07 328.128 391.326 328.784C391.598 329.44 391.974 330.008 392.454 330.488C392.934 330.968 393.502 331.336 394.158 331.592C394.814 331.848 395.534 331.976 396.318 331.976C397.15 331.976 397.918 331.816 398.622 331.496C399.326 331.16 399.966 330.656 400.542 329.984L403.038 332.288C402.238 333.264 401.246 334.008 400.062 334.52C398.894 335.032 397.574 335.288 396.102 335.288ZM409.032 335V320.48L409.92 321.368H403.68V318.2H418.248V321.368H412.008L412.872 320.48V335H409.032ZM420.69 335V318.2H428.514C430.466 318.2 431.986 318.576 433.074 319.328C434.162 320.08 434.706 321.152 434.706 322.544C434.706 323.92 434.194 324.992 433.17 325.76C432.146 326.512 430.786 326.888 429.09 326.888L429.546 325.88C431.434 325.88 432.898 326.256 433.938 327.008C434.978 327.76 435.498 328.848 435.498 330.272C435.498 331.744 434.938 332.904 433.818 333.752C432.714 334.584 431.098 335 428.97 335H420.69ZM424.554 332.12H428.826C429.722 332.12 430.402 331.944 430.866 331.592C431.33 331.24 431.562 330.696 431.562 329.96C431.562 329.256 431.33 328.736 430.866 328.4C430.402 328.048 429.722 327.872 428.826 327.872H424.554V332.12ZM424.554 325.16H428.178C429.026 325.16 429.666 324.992 430.098 324.656C430.53 324.304 430.746 323.792 430.746 323.12C430.746 322.448 430.53 321.944 430.098 321.608C429.666 321.256 429.026 321.08 428.178 321.08H424.554V325.16ZM446.612 335.288C445.284 335.288 444.052 335.072 442.916 334.64C441.796 334.208 440.82 333.6 439.988 332.816C439.172 332.032 438.532 331.112 438.068 330.056C437.62 329 437.396 327.848 437.396 326.6C437.396 325.352 437.62 324.2 438.068 323.144C438.532 322.088 439.18 321.168 440.012 320.384C440.844 319.6 441.82 318.992 442.94 318.56C444.06 318.128 445.276 317.912 446.588 317.912C447.916 317.912 449.132 318.128 450.236 318.56C451.356 318.992 452.324 319.6 453.14 320.384C453.972 321.168 454.62 322.088 455.084 323.144C455.548 324.184 455.78 325.336 455.78 326.6C455.78 327.848 455.548 329.008 455.084 330.08C454.62 331.136 453.972 332.056 453.14 332.84C452.324 333.608 451.356 334.208 450.236 334.64C449.132 335.072 447.924 335.288 446.612 335.288ZM446.588 331.976C447.34 331.976 448.028 331.848 448.652 331.592C449.292 331.336 449.852 330.968 450.332 330.488C450.812 330.008 451.18 329.44 451.436 328.784C451.708 328.128 451.844 327.4 451.844 326.6C451.844 325.8 451.708 325.072 451.436 324.416C451.18 323.76 450.812 323.192 450.332 322.712C449.868 322.232 449.316 321.864 448.676 321.608C448.036 321.352 447.34 321.224 446.588 321.224C445.836 321.224 445.14 321.352 444.5 321.608C443.876 321.864 443.324 322.232 442.844 322.712C442.364 323.192 441.988 323.76 441.716 324.416C441.46 325.072 441.332 325.8 441.332 326.6C441.332 327.384 441.46 328.112 441.716 328.784C441.988 329.44 442.356 330.008 442.82 330.488C443.3 330.968 443.86 331.336 444.5 331.592C445.14 331.848 445.836 331.976 446.588 331.976Z" fill="#2E2E30"/>
<path d="M238.088 364V347.2H253.4V364H249.536V349.48L250.424 350.368H241.064L241.952 349.48V364H238.088ZM257.565 364V347.2H264.837C266.341 347.2 267.637 347.448 268.725 347.944C269.813 348.424 270.653 349.12 271.245 350.032C271.837 350.944 272.133 352.032 272.133 353.296C272.133 354.544 271.837 355.624 271.245 356.536C270.653 357.448 269.813 358.152 268.725 358.648C267.637 359.128 266.341 359.368 264.837 359.368H259.725L261.453 357.616V364H257.565ZM261.453 358.048L259.725 356.2H264.621C265.821 356.2 266.717 355.944 267.309 355.432C267.901 354.92 268.197 354.208 268.197 353.296C268.197 352.368 267.901 351.648 267.309 351.136C266.717 350.624 265.821 350.368 264.621 350.368H259.725L261.453 348.52V358.048ZM271.958 364L279.446 347.2H283.286L290.798 364H286.718L280.574 349.168H282.11L275.942 364H271.958ZM275.702 360.4L276.734 357.448H285.374L286.43 360.4H275.702ZM293.026 364V347.2H304.882L304.858 350.368H295.978L296.866 349.48L296.89 364H293.026ZM307.252 364V347.2H310.468L317.62 359.056H315.916L322.948 347.2H326.164L326.188 364H322.54L322.516 352.792H323.212L317.572 362.224H315.844L310.084 352.792H310.9V364H307.252ZM328.465 364L335.953 347.2H339.793L347.305 364H343.225L337.081 349.168H338.617L332.449 364H328.465ZM332.209 360.4L333.241 357.448H341.881L342.937 360.4H332.209ZM352.314 364V349.48L353.202 350.368H346.962V347.2H361.53V350.368H355.29L356.154 349.48V364H352.314ZM363.971 364V347.2H367.835V358.144L375.851 347.2H379.499V364H375.659V353.08L367.643 364H363.971ZM394.554 364L389.322 355.912L392.466 354.016L398.97 364H394.554ZM383.634 364V347.2H387.498V364H383.634ZM386.37 357.232V353.992H392.226V357.232H386.37ZM392.826 356.032L389.25 355.6L394.698 347.2H398.802L392.826 356.032ZM398.544 364L406.032 347.2H409.872L417.384 364H413.304L407.16 349.168H408.696L402.528 364H398.544ZM402.288 360.4L403.32 357.448H411.96L413.016 360.4H402.288ZM426.408 364V347.2H430.272V353.8H434.616V357.16H430.272V364H426.408ZM441.24 364.288C439.96 364.288 438.776 364.072 437.688 363.64C436.616 363.208 435.68 362.608 434.88 361.84C434.08 361.056 433.456 360.136 433.008 359.08C432.576 358.008 432.36 356.848 432.36 355.6C432.36 354.336 432.576 353.176 433.008 352.12C433.456 351.064 434.08 350.152 434.88 349.384C435.68 348.6 436.616 347.992 437.688 347.56C438.776 347.128 439.96 346.912 441.24 346.912C442.504 346.912 443.68 347.128 444.768 347.56C445.856 347.992 446.792 348.6 447.576 349.384C448.376 350.152 449 351.072 449.448 352.144C449.896 353.2 450.12 354.352 450.12 355.6C450.12 356.848 449.896 358.008 449.448 359.08C449 360.136 448.376 361.056 447.576 361.84C446.792 362.608 445.856 363.208 444.768 363.64C443.68 364.072 442.504 364.288 441.24 364.288ZM441.24 360.976C441.944 360.976 442.592 360.848 443.184 360.592C443.776 360.336 444.296 359.976 444.744 359.512C445.192 359.032 445.544 358.464 445.8 357.808C446.056 357.152 446.184 356.416 446.184 355.6C446.184 354.784 446.056 354.048 445.8 353.392C445.544 352.736 445.192 352.176 444.744 351.712C444.296 351.232 443.776 350.864 443.184 350.608C442.592 350.352 441.944 350.224 441.24 350.224C440.552 350.224 439.904 350.352 439.296 350.608C438.704 350.864 438.184 351.232 437.736 351.712C437.288 352.176 436.936 352.736 436.68 353.392C436.424 354.048 436.296 354.784 436.296 355.6C436.296 356.416 436.424 357.152 436.68 357.808C436.936 358.464 437.288 359.032 437.736 359.512C438.184 359.976 438.704 360.336 439.296 360.592C439.904 360.848 440.552 360.976 441.24 360.976ZM453.151 364V347.2H465.007L464.983 350.368H456.103L456.991 349.48L457.015 364H453.151Z" fill="#F4AE3F"/>
<path d="M236.804 385.072C236.692 385.072 236.584 385.064 236.48 385.048C236.376 385.04 236.26 385.02 236.132 384.988L236.204 384.196C236.34 384.228 236.472 384.244 236.6 384.244C236.96 384.244 237.248 384.104 237.464 383.824C237.688 383.536 237.856 383.096 237.968 382.504C238.08 381.904 238.152 381.136 238.184 380.2L238.304 376.6H244.004V385H243.128V377.128L243.356 377.368H238.868L239.084 377.116L238.976 380.176C238.944 381.016 238.884 381.744 238.796 382.36C238.708 382.968 238.58 383.476 238.412 383.884C238.244 384.284 238.028 384.584 237.764 384.784C237.5 384.976 237.18 385.072 236.804 385.072ZM249.334 385.06C248.678 385.06 248.102 384.924 247.606 384.652C247.11 384.372 246.722 383.992 246.442 383.512C246.162 383.024 246.022 382.468 246.022 381.844C246.022 381.22 246.154 380.668 246.418 380.188C246.69 379.708 247.058 379.332 247.522 379.06C247.994 378.78 248.522 378.64 249.106 378.64C249.698 378.64 250.222 378.776 250.678 379.048C251.142 379.312 251.506 379.688 251.77 380.176C252.034 380.656 252.166 381.212 252.166 381.844C252.166 381.884 252.162 381.928 252.154 381.976C252.154 382.016 252.154 382.06 252.154 382.108H246.67V381.472H251.698L251.362 381.724C251.362 381.268 251.262 380.864 251.062 380.512C250.87 380.152 250.606 379.872 250.27 379.672C249.934 379.472 249.546 379.372 249.106 379.372C248.674 379.372 248.286 379.472 247.942 379.672C247.598 379.872 247.33 380.152 247.138 380.512C246.946 380.872 246.85 381.284 246.85 381.748V381.88C246.85 382.36 246.954 382.784 247.162 383.152C247.378 383.512 247.674 383.796 248.05 384.004C248.434 384.204 248.87 384.304 249.358 384.304C249.742 384.304 250.098 384.236 250.426 384.1C250.762 383.964 251.05 383.756 251.29 383.476L251.77 384.028C251.49 384.364 251.138 384.62 250.714 384.796C250.298 384.972 249.838 385.06 249.334 385.06ZM254.052 385V378.7H254.904V381.484H258.876V378.7H259.728V385H258.876V382.216H254.904V385H254.052ZM262.15 385V378.7H263.002V383.704L267.214 378.7H267.97V385H267.118V379.984L262.918 385H262.15ZM270.411 385V378.7H271.263V381.484H275.235V378.7H276.087V385H275.235V382.216H271.263V385H270.411ZM278.509 385V378.7H282.973V379.444H279.145L279.361 379.228V385H278.509ZM287.456 385.06C286.912 385.06 286.42 384.936 285.98 384.688C285.54 384.432 285.188 384.068 284.924 383.596C284.668 383.116 284.54 382.532 284.54 381.844C284.54 381.156 284.668 380.576 284.924 380.104C285.18 379.624 285.528 379.26 285.968 379.012C286.408 378.764 286.904 378.64 287.456 378.64C288.056 378.64 288.592 378.776 289.064 379.048C289.544 379.312 289.92 379.688 290.192 380.176C290.464 380.656 290.6 381.212 290.6 381.844C290.6 382.484 290.464 383.044 290.192 383.524C289.92 384.004 289.544 384.38 289.064 384.652C288.592 384.924 288.056 385.06 287.456 385.06ZM284.204 387.328V378.7H285.02V380.596L284.936 381.856L285.056 383.128V387.328H284.204ZM287.396 384.304C287.844 384.304 288.244 384.204 288.596 384.004C288.948 383.796 289.228 383.508 289.436 383.14C289.644 382.764 289.748 382.332 289.748 381.844C289.748 381.356 289.644 380.928 289.436 380.56C289.228 380.192 288.948 379.904 288.596 379.696C288.244 379.488 287.844 379.384 287.396 379.384C286.948 379.384 286.544 379.488 286.184 379.696C285.832 379.904 285.552 380.192 285.344 380.56C285.144 380.928 285.044 381.356 285.044 381.844C285.044 382.332 285.144 382.764 285.344 383.14C285.552 383.508 285.832 383.796 286.184 384.004C286.544 384.204 286.948 384.304 287.396 384.304ZM296.308 385V383.608L296.272 383.38V381.052C296.272 380.516 296.12 380.104 295.816 379.816C295.52 379.528 295.076 379.384 294.484 379.384C294.076 379.384 293.688 379.452 293.32 379.588C292.952 379.724 292.64 379.904 292.384 380.128L292 379.492C292.32 379.22 292.704 379.012 293.152 378.868C293.6 378.716 294.072 378.64 294.568 378.64C295.384 378.64 296.012 378.844 296.452 379.252C296.9 379.652 297.124 380.264 297.124 381.088V385H296.308ZM294.136 385.06C293.664 385.06 293.252 384.984 292.9 384.832C292.556 384.672 292.292 384.456 292.108 384.184C291.924 383.904 291.832 383.584 291.832 383.224C291.832 382.896 291.908 382.6 292.06 382.336C292.22 382.064 292.476 381.848 292.828 381.688C293.188 381.52 293.668 381.436 294.268 381.436H296.44V382.072H294.292C293.684 382.072 293.26 382.18 293.02 382.396C292.788 382.612 292.672 382.88 292.672 383.2C292.672 383.56 292.812 383.848 293.092 384.064C293.372 384.28 293.764 384.388 294.268 384.388C294.748 384.388 295.16 384.28 295.504 384.064C295.856 383.84 296.112 383.52 296.272 383.104L296.464 383.692C296.304 384.108 296.024 384.44 295.624 384.688C295.232 384.936 294.736 385.06 294.136 385.06ZM303.712 384.592V379.444H300.676L300.604 380.848C300.588 381.272 300.56 381.688 300.52 382.096C300.488 382.504 300.428 382.88 300.34 383.224C300.26 383.56 300.144 383.836 299.992 384.052C299.84 384.26 299.644 384.38 299.404 384.412L298.552 384.256C298.8 384.264 299.004 384.176 299.164 383.992C299.324 383.8 299.448 383.54 299.536 383.212C299.624 382.884 299.688 382.512 299.728 382.096C299.768 381.672 299.8 381.24 299.824 380.8L299.908 378.7H304.564V384.592H303.712ZM298.288 386.524V384.256H305.548V386.524H304.744V385H299.092V386.524H298.288ZM309.848 385.06C309.224 385.06 308.664 384.924 308.168 384.652C307.68 384.372 307.296 383.992 307.016 383.512C306.736 383.024 306.596 382.468 306.596 381.844C306.596 381.212 306.736 380.656 307.016 380.176C307.296 379.696 307.68 379.32 308.168 379.048C308.664 378.776 309.224 378.64 309.848 378.64C310.384 378.64 310.868 378.744 311.3 378.952C311.732 379.16 312.072 379.472 312.32 379.888L311.684 380.32C311.468 380 311.2 379.764 310.88 379.612C310.56 379.46 310.212 379.384 309.836 379.384C309.388 379.384 308.984 379.488 308.624 379.696C308.264 379.896 307.98 380.18 307.772 380.548C307.564 380.916 307.46 381.348 307.46 381.844C307.46 382.34 307.564 382.772 307.772 383.14C307.98 383.508 308.264 383.796 308.624 384.004C308.984 384.204 309.388 384.304 309.836 384.304C310.212 384.304 310.56 384.228 310.88 384.076C311.2 383.924 311.468 383.692 311.684 383.38L312.32 383.812C312.072 384.22 311.732 384.532 311.3 384.748C310.868 384.956 310.384 385.06 309.848 385.06ZM318.59 385L315.998 381.88L316.706 381.46L319.598 385H318.59ZM313.97 385V378.7H314.822V385H313.97ZM314.558 382.192V381.46H316.586V382.192H314.558ZM316.778 381.94L315.986 381.82L318.494 378.7H319.418L316.778 381.94ZM324.737 385V383.608L324.701 383.38V381.052C324.701 380.516 324.549 380.104 324.245 379.816C323.949 379.528 323.505 379.384 322.913 379.384C322.505 379.384 322.117 379.452 321.749 379.588C321.381 379.724 321.069 379.904 320.813 380.128L320.429 379.492C320.749 379.22 321.133 379.012 321.581 378.868C322.029 378.716 322.501 378.64 322.997 378.64C323.813 378.64 324.441 378.844 324.881 379.252C325.329 379.652 325.553 380.264 325.553 381.088V385H324.737ZM322.565 385.06C322.093 385.06 321.681 384.984 321.329 384.832C320.985 384.672 320.721 384.456 320.537 384.184C320.353 383.904 320.261 383.584 320.261 383.224C320.261 382.896 320.337 382.6 320.489 382.336C320.649 382.064 320.905 381.848 321.257 381.688C321.617 381.52 322.097 381.436 322.697 381.436H324.869V382.072H322.721C322.113 382.072 321.689 382.18 321.449 382.396C321.217 382.612 321.101 382.88 321.101 383.2C321.101 383.56 321.241 383.848 321.521 384.064C321.801 384.28 322.193 384.388 322.697 384.388C323.177 384.388 323.589 384.28 323.933 384.064C324.285 383.84 324.541 383.52 324.701 383.104L324.893 383.692C324.733 384.108 324.453 384.44 324.053 384.688C323.661 384.936 323.165 385.06 322.565 385.06ZM331.889 385V382.732L332.045 382.912H329.909C329.101 382.912 328.469 382.736 328.013 382.384C327.557 382.032 327.329 381.52 327.329 380.848C327.329 380.128 327.573 379.592 328.061 379.24C328.549 378.88 329.201 378.7 330.017 378.7H332.669V385H331.889ZM327.281 385L329.009 382.576H329.897L328.205 385H327.281ZM331.889 382.48V379.192L332.045 379.444H330.041C329.457 379.444 329.001 379.556 328.673 379.78C328.353 380.004 328.193 380.368 328.193 380.872C328.193 381.808 328.789 382.276 329.981 382.276H332.045L331.889 382.48ZM340.831 385.06C340.223 385.06 339.675 384.924 339.187 384.652C338.707 384.372 338.327 383.992 338.047 383.512C337.767 383.024 337.627 382.468 337.627 381.844C337.627 381.212 337.767 380.656 338.047 380.176C338.327 379.696 338.707 379.32 339.187 379.048C339.667 378.776 340.215 378.64 340.831 378.64C341.455 378.64 342.007 378.776 342.487 379.048C342.975 379.32 343.355 379.696 343.627 380.176C343.907 380.656 344.047 381.212 344.047 381.844C344.047 382.468 343.907 383.024 343.627 383.512C343.355 383.992 342.975 384.372 342.487 384.652C341.999 384.924 341.447 385.06 340.831 385.06ZM340.831 384.304C341.287 384.304 341.691 384.204 342.043 384.004C342.395 383.796 342.671 383.508 342.871 383.14C343.079 382.764 343.183 382.332 343.183 381.844C343.183 381.348 343.079 380.916 342.871 380.548C342.671 380.18 342.395 379.896 342.043 379.696C341.691 379.488 341.291 379.384 340.843 379.384C340.395 379.384 339.995 379.488 339.643 379.696C339.291 379.896 339.011 380.18 338.803 380.548C338.595 380.916 338.491 381.348 338.491 381.844C338.491 382.332 338.595 382.764 338.803 383.14C339.011 383.508 339.291 383.796 339.643 384.004C339.995 384.204 340.391 384.304 340.831 384.304ZM348.7 385.072C348.188 385.072 347.732 384.988 347.332 384.82C346.94 384.652 346.604 384.396 346.324 384.052C346.044 383.708 345.832 383.284 345.688 382.78C345.544 382.268 345.472 381.676 345.472 381.004C345.472 380.404 345.528 379.88 345.64 379.432C345.752 378.976 345.908 378.584 346.108 378.256C346.308 377.928 346.54 377.652 346.804 377.428C347.076 377.196 347.368 377.012 347.68 376.876C348 376.732 348.328 376.624 348.664 376.552L351.496 375.892L351.64 376.684L348.976 377.284C348.808 377.324 348.604 377.38 348.364 377.452C348.132 377.524 347.892 377.632 347.644 377.776C347.404 377.92 347.18 378.12 346.972 378.376C346.764 378.632 346.596 378.964 346.468 379.372C346.348 379.772 346.288 380.272 346.288 380.872C346.288 381 346.292 381.104 346.3 381.184C346.308 381.256 346.316 381.336 346.324 381.424C346.34 381.504 346.352 381.624 346.36 381.784L345.988 381.472C346.076 380.984 346.256 380.56 346.528 380.2C346.8 379.832 347.14 379.548 347.548 379.348C347.964 379.14 348.424 379.036 348.928 379.036C349.512 379.036 350.032 379.164 350.488 379.42C350.944 379.668 351.3 380.016 351.556 380.464C351.82 380.912 351.952 381.432 351.952 382.024C351.952 382.608 351.816 383.132 351.544 383.596C351.28 384.06 350.904 384.424 350.416 384.688C349.928 384.944 349.356 385.072 348.7 385.072ZM348.796 384.364C349.244 384.364 349.64 384.264 349.984 384.064C350.328 383.856 350.596 383.576 350.788 383.224C350.988 382.872 351.088 382.476 351.088 382.036C351.088 381.604 350.988 381.22 350.788 380.884C350.596 380.548 350.328 380.284 349.984 380.092C349.64 379.892 349.24 379.792 348.784 379.792C348.336 379.792 347.94 379.888 347.596 380.08C347.252 380.264 346.98 380.524 346.78 380.86C346.588 381.196 346.492 381.584 346.492 382.024C346.492 382.464 346.588 382.86 346.78 383.212C346.98 383.564 347.252 383.844 347.596 384.052C347.948 384.26 348.348 384.364 348.796 384.364ZM352.591 384.988L352.651 384.256C352.707 384.264 352.759 384.276 352.807 384.292C352.863 384.3 352.911 384.304 352.951 384.304C353.207 384.304 353.411 384.208 353.563 384.016C353.723 383.824 353.843 383.568 353.923 383.248C354.003 382.928 354.059 382.568 354.091 382.168C354.123 381.76 354.151 381.352 354.175 380.944L354.283 378.7H358.903V385H358.051V379.192L358.267 379.444H354.835L355.039 379.18L354.943 381.004C354.919 381.548 354.875 382.068 354.811 382.564C354.755 383.06 354.663 383.496 354.535 383.872C354.415 384.248 354.247 384.544 354.031 384.76C353.815 384.968 353.539 385.072 353.203 385.072C353.107 385.072 353.007 385.064 352.903 385.048C352.807 385.032 352.703 385.012 352.591 384.988ZM365.237 385V383.608L365.201 383.38V381.052C365.201 380.516 365.049 380.104 364.745 379.816C364.449 379.528 364.005 379.384 363.413 379.384C363.005 379.384 362.617 379.452 362.249 379.588C361.881 379.724 361.569 379.904 361.313 380.128L360.929 379.492C361.249 379.22 361.633 379.012 362.081 378.868C362.529 378.716 363.001 378.64 363.497 378.64C364.313 378.64 364.941 378.844 365.381 379.252C365.829 379.652 366.053 380.264 366.053 381.088V385H365.237ZM363.065 385.06C362.593 385.06 362.181 384.984 361.829 384.832C361.485 384.672 361.221 384.456 361.037 384.184C360.853 383.904 360.761 383.584 360.761 383.224C360.761 382.896 360.837 382.6 360.989 382.336C361.149 382.064 361.405 381.848 361.757 381.688C362.117 381.52 362.597 381.436 363.197 381.436H365.369V382.072H363.221C362.613 382.072 362.189 382.18 361.949 382.396C361.717 382.612 361.601 382.88 361.601 383.2C361.601 383.56 361.741 383.848 362.021 384.064C362.301 384.28 362.693 384.388 363.197 384.388C363.677 384.388 364.089 384.28 364.433 384.064C364.785 383.84 365.041 383.52 365.201 383.104L365.393 383.692C365.233 384.108 364.953 384.44 364.553 384.688C364.161 384.936 363.665 385.06 363.065 385.06ZM370.961 385.06C370.337 385.06 369.777 384.924 369.281 384.652C368.793 384.372 368.409 383.992 368.129 383.512C367.849 383.024 367.709 382.468 367.709 381.844C367.709 381.212 367.849 380.656 368.129 380.176C368.409 379.696 368.793 379.32 369.281 379.048C369.777 378.776 370.337 378.64 370.961 378.64C371.497 378.64 371.981 378.744 372.413 378.952C372.845 379.16 373.185 379.472 373.433 379.888L372.797 380.32C372.581 380 372.313 379.764 371.993 379.612C371.673 379.46 371.325 379.384 370.949 379.384C370.501 379.384 370.097 379.488 369.737 379.696C369.377 379.896 369.093 380.18 368.885 380.548C368.677 380.916 368.573 381.348 368.573 381.844C368.573 382.34 368.677 382.772 368.885 383.14C369.093 383.508 369.377 383.796 369.737 384.004C370.097 384.204 370.501 384.304 370.949 384.304C371.325 384.304 371.673 384.228 371.993 384.076C372.313 383.924 372.581 383.692 372.797 383.38L373.433 383.812C373.185 384.22 372.845 384.532 372.413 384.748C371.981 384.956 371.497 385.06 370.961 385.06ZM376.166 385V379.216L376.382 379.444H373.778V378.7H379.406V379.444H376.802L377.018 379.216V385H376.166ZM383.35 380.92C384.142 380.928 384.742 381.104 385.15 381.448C385.566 381.792 385.774 382.288 385.774 382.936C385.774 383.608 385.55 384.124 385.102 384.484C384.662 384.844 384.022 385.02 383.182 385.012L380.638 385V378.7H381.49V380.896L383.35 380.92ZM383.134 384.364C383.718 384.372 384.158 384.256 384.454 384.016C384.758 383.768 384.91 383.408 384.91 382.936C384.91 382.464 384.762 382.12 384.466 381.904C384.17 381.68 383.726 381.564 383.134 381.556L381.49 381.532V384.34L383.134 384.364ZM237.416 400V391.6H242.756V392.368H238.052L238.28 392.14L238.292 400H237.416ZM247.991 400V398.608L247.955 398.38V396.052C247.955 395.516 247.803 395.104 247.499 394.816C247.203 394.528 246.759 394.384 246.167 394.384C245.759 394.384 245.371 394.452 245.003 394.588C244.635 394.724 244.323 394.904 244.067 395.128L243.683 394.492C244.003 394.22 244.387 394.012 244.835 393.868C245.283 393.716 245.755 393.64 246.251 393.64C247.067 393.64 247.695 393.844 248.135 394.252C248.583 394.652 248.807 395.264 248.807 396.088V400H247.991ZM245.819 400.06C245.347 400.06 244.935 399.984 244.583 399.832C244.239 399.672 243.975 399.456 243.791 399.184C243.607 398.904 243.515 398.584 243.515 398.224C243.515 397.896 243.591 397.6 243.743 397.336C243.903 397.064 244.159 396.848 244.511 396.688C244.871 396.52 245.351 396.436 245.951 396.436H248.123V397.072H245.975C245.367 397.072 244.943 397.18 244.703 397.396C244.471 397.612 244.355 397.88 244.355 398.2C244.355 398.56 244.495 398.848 244.775 399.064C245.055 399.28 245.447 399.388 245.951 399.388C246.431 399.388 246.843 399.28 247.187 399.064C247.539 398.84 247.795 398.52 247.955 398.104L248.147 398.692C247.987 399.108 247.707 399.44 247.307 399.688C246.915 399.936 246.419 400.06 245.819 400.06ZM252.275 400V394.216L252.491 394.444H249.887V393.7H255.515V394.444H252.911L253.127 394.216V400H252.275ZM260.731 397.336C260.363 397.496 259.991 397.624 259.615 397.72C259.247 397.808 258.879 397.852 258.511 397.852C257.767 397.852 257.179 397.684 256.747 397.348C256.315 397.004 256.099 396.476 256.099 395.764V393.7H256.939V395.716C256.939 396.196 257.095 396.556 257.407 396.796C257.719 397.036 258.139 397.156 258.667 397.156C258.987 397.156 259.323 397.116 259.675 397.036C260.027 396.948 260.383 396.824 260.743 396.664L260.731 397.336ZM260.659 400V393.7H261.511V400H260.659ZM263.931 400V393.7H264.783V398.704L268.995 393.7H269.751V400H268.899V394.984L264.699 400H263.931ZM272.192 400V393.7H273.044V396.484H277.016V393.7H277.868V400H277.016V397.216H273.044V400H272.192ZM282.93 400.06C282.306 400.06 281.746 399.924 281.25 399.652C280.762 399.372 280.378 398.992 280.098 398.512C279.818 398.024 279.678 397.468 279.678 396.844C279.678 396.212 279.818 395.656 280.098 395.176C280.378 394.696 280.762 394.32 281.25 394.048C281.746 393.776 282.306 393.64 282.93 393.64C283.466 393.64 283.95 393.744 284.382 393.952C284.814 394.16 285.154 394.472 285.402 394.888L284.766 395.32C284.55 395 284.282 394.764 283.962 394.612C283.642 394.46 283.294 394.384 282.918 394.384C282.47 394.384 282.066 394.488 281.706 394.696C281.346 394.896 281.062 395.18 280.854 395.548C280.646 395.916 280.542 396.348 280.542 396.844C280.542 397.34 280.646 397.772 280.854 398.14C281.062 398.508 281.346 398.796 281.706 399.004C282.066 399.204 282.47 399.304 282.918 399.304C283.294 399.304 283.642 399.228 283.962 399.076C284.282 398.924 284.55 398.692 284.766 398.38L285.402 398.812C285.154 399.22 284.814 399.532 284.382 399.748C283.95 399.956 283.466 400.06 282.93 400.06ZM291.672 400L289.08 396.88L289.788 396.46L292.68 400H291.672ZM287.052 400V393.7H287.904V400H287.052ZM287.64 397.192V396.46H289.668V397.192H287.64ZM289.86 396.94L289.068 396.82L291.576 393.7H292.5L289.86 396.94ZM294.025 400V393.7H294.877V398.704L299.089 393.7H299.845V400H298.993V394.984L294.793 400H294.025ZM302.286 400V393.7H303.138V398.704L307.35 393.7H308.106V400H307.254V394.984L303.054 400H302.286ZM305.142 392.788C304.614 392.788 304.186 392.656 303.858 392.392C303.538 392.12 303.37 391.732 303.354 391.228H303.966C303.974 391.548 304.086 391.8 304.302 391.984C304.518 392.168 304.798 392.26 305.142 392.26C305.486 392.26 305.766 392.168 305.982 391.984C306.206 391.8 306.322 391.548 306.33 391.228H306.942C306.934 391.732 306.766 392.12 306.438 392.392C306.11 392.656 305.678 392.788 305.142 392.788ZM316.281 400.06C315.673 400.06 315.125 399.924 314.637 399.652C314.157 399.372 313.777 398.992 313.497 398.512C313.217 398.024 313.077 397.468 313.077 396.844C313.077 396.212 313.217 395.656 313.497 395.176C313.777 394.696 314.157 394.32 314.637 394.048C315.117 393.776 315.665 393.64 316.281 393.64C316.905 393.64 317.457 393.776 317.937 394.048C318.425 394.32 318.805 394.696 319.077 395.176C319.357 395.656 319.497 396.212 319.497 396.844C319.497 397.468 319.357 398.024 319.077 398.512C318.805 398.992 318.425 399.372 317.937 399.652C317.449 399.924 316.897 400.06 316.281 400.06ZM316.281 399.304C316.737 399.304 317.141 399.204 317.493 399.004C317.845 398.796 318.121 398.508 318.321 398.14C318.529 397.764 318.633 397.332 318.633 396.844C318.633 396.348 318.529 395.916 318.321 395.548C318.121 395.18 317.845 394.896 317.493 394.696C317.141 394.488 316.741 394.384 316.293 394.384C315.845 394.384 315.445 394.488 315.093 394.696C314.741 394.896 314.461 395.18 314.253 395.548C314.045 395.916 313.941 396.348 313.941 396.844C313.941 397.332 314.045 397.764 314.253 398.14C314.461 398.508 314.741 398.796 315.093 399.004C315.445 399.204 315.841 399.304 316.281 399.304ZM325.937 400L323.345 396.88L324.053 396.46L326.945 400H325.937ZM321.317 400V393.7H322.169V400H321.317ZM321.905 397.192V396.46H323.933V397.192H321.905ZM324.125 396.94L323.333 396.82L325.841 393.7H326.765L324.125 396.94ZM331.542 400.06C330.998 400.06 330.506 399.936 330.066 399.688C329.626 399.432 329.274 399.068 329.01 398.596C328.754 398.116 328.626 397.532 328.626 396.844C328.626 396.156 328.754 395.576 329.01 395.104C329.266 394.624 329.614 394.26 330.054 394.012C330.494 393.764 330.99 393.64 331.542 393.64C332.142 393.64 332.678 393.776 333.15 394.048C333.63 394.312 334.006 394.688 334.278 395.176C334.55 395.656 334.686 396.212 334.686 396.844C334.686 397.484 334.55 398.044 334.278 398.524C334.006 399.004 333.63 399.38 333.15 399.652C332.678 399.924 332.142 400.06 331.542 400.06ZM328.29 402.328V393.7H329.106V395.596L329.022 396.856L329.142 398.128V402.328H328.29ZM331.482 399.304C331.93 399.304 332.33 399.204 332.682 399.004C333.034 398.796 333.314 398.508 333.522 398.14C333.73 397.764 333.834 397.332 333.834 396.844C333.834 396.356 333.73 395.928 333.522 395.56C333.314 395.192 333.034 394.904 332.682 394.696C332.33 394.488 331.93 394.384 331.482 394.384C331.034 394.384 330.63 394.488 330.27 394.696C329.918 394.904 329.638 395.192 329.43 395.56C329.23 395.928 329.13 396.356 329.13 396.844C329.13 397.332 329.23 397.764 329.43 398.14C329.638 398.508 329.918 398.796 330.27 399.004C330.63 399.204 331.034 399.304 331.482 399.304ZM336.449 402.388C336.153 402.388 335.869 402.34 335.597 402.244C335.333 402.148 335.105 402.004 334.913 401.812L335.309 401.176C335.469 401.328 335.641 401.444 335.825 401.524C336.017 401.612 336.229 401.656 336.461 401.656C336.741 401.656 336.981 401.576 337.181 401.416C337.389 401.264 337.585 400.992 337.769 400.6L338.177 399.676L338.273 399.544L340.865 393.7H341.705L338.549 400.756C338.373 401.164 338.177 401.488 337.961 401.728C337.753 401.968 337.525 402.136 337.277 402.232C337.029 402.336 336.753 402.388 336.449 402.388ZM338.129 400.18L335.225 393.7H336.113L338.681 399.484L338.129 400.18ZM343.032 400V393.7H347.496V394.444H343.668L343.884 394.228V400H343.032Z" fill="black"/>
</g>
<defs>
<clipPath id="clip0_394_2954">
<rect width="1400" height="645" fill="white"/>
</clipPath>
</defs>
</svg>
