<svg width="7" height="7" viewBox="0 0 7 7" fill="none" xmlns="http://www.w3.org/2000/svg">
<circle cx="3.29749" cy="3.29749" r="3.25915" stroke="black" stroke-width="0.0766868"/>
<path d="M1.56665 1.9549V2.39322M2.87222 2.39322V2.84268" stroke="black" stroke-width="0.0236135"/>
<line x1="0.820557" y1="1.94309" x2="5.50568" y2="1.94309" stroke="black" stroke-width="0.0236135"/>
<line x1="0.820557" y1="2.39054" x2="5.50568" y2="2.39054" stroke="black" stroke-width="0.0236135"/>
<line x1="0.820557" y1="2.83829" x2="5.50568" y2="2.83829" stroke="black" stroke-width="0.0236135"/>
<line x1="0.820557" y1="3.28604" x2="5.50568" y2="3.28604" stroke="black" stroke-width="0.0236135"/>
<path d="M2.15625 2.8501V3.29026" stroke="black" stroke-width="0.0236135"/>
<path d="M1.48462 2.8501V3.29026" stroke="black" stroke-width="0.0236135"/>
<path d="M0.880615 2.8501V3.29026" stroke="black" stroke-width="0.0236135"/>
<path d="M1.38013 2.40234V2.84251" stroke="black" stroke-width="0.0236135"/>
<path d="M1.05933 1.9549V2.39506" stroke="black" stroke-width="0.0236135"/>
<path d="M1.98462 2.40234V2.84251" stroke="black" stroke-width="0.0236135"/>
<path d="M2.45435 1.94739L2.45435 2.39501" stroke="black" stroke-width="0.0236135"/>
<path d="M3.29761 1.94739L3.29761 2.39501" stroke="black" stroke-width="0.0236135"/>
<path d="M3.15552 2.84259L3.15552 3.29767" stroke="black" stroke-width="0.0236135"/>
<path d="M4.1333 2.84259L4.1333 3.29767" stroke="black" stroke-width="0.0236135"/>
<path d="M4.85718 2.84259L4.85718 3.29767" stroke="black" stroke-width="0.0236135"/>
<path d="M3.66309 2.40234V2.84251" stroke="black" stroke-width="0.0236135"/>
<path d="M4.46118 2.40234V2.84251" stroke="black" stroke-width="0.0236135"/>
<path d="M5.2002 2.40234V2.84251" stroke="black" stroke-width="0.0236135"/>
<path d="M4.7373 1.9549V2.39506" stroke="black" stroke-width="0.0236135"/>
<path d="M4.17749 1.9549V2.39506" stroke="black" stroke-width="0.0236135"/>
<path d="M1.56665 3.29785V3.73617M2.87222 3.73617V4.18564" stroke="black" stroke-width="0.0236135"/>
<line x1="0.820557" y1="3.28604" x2="5.50568" y2="3.28604" stroke="black" stroke-width="0.0236135"/>
<line x1="0.820557" y1="3.73349" x2="5.50568" y2="3.73349" stroke="black" stroke-width="0.0236135"/>
<line x1="0.820557" y1="4.18125" x2="5.50568" y2="4.18125" stroke="black" stroke-width="0.0236135"/>
<line x1="0.820557" y1="4.6287" x2="5.50568" y2="4.6287" stroke="black" stroke-width="0.0236135"/>
<path d="M2.15625 4.19275V4.63291" stroke="black" stroke-width="0.0236135"/>
<path d="M1.48462 4.19275V4.63291" stroke="black" stroke-width="0.0236135"/>
<path d="M0.880615 4.19305V4.63322" stroke="black" stroke-width="0.0236135"/>
<path d="M1.38013 3.7453V4.18546" stroke="black" stroke-width="0.0236135"/>
<path d="M1.05933 3.29785V3.73801" stroke="black" stroke-width="0.0236135"/>
<path d="M1.98462 3.7453V4.18546" stroke="black" stroke-width="0.0236135"/>
<path d="M2.45435 3.29034L2.45435 3.73797" stroke="black" stroke-width="0.0236135"/>
<path d="M3.29761 3.29034L3.29761 3.73797" stroke="black" stroke-width="0.0236135"/>
<path d="M3.15552 4.18555L3.15552 4.64063" stroke="black" stroke-width="0.0236135"/>
<path d="M4.1333 4.18555L4.1333 4.64063" stroke="black" stroke-width="0.0236135"/>
<path d="M4.85718 4.18555L4.85718 4.64063" stroke="black" stroke-width="0.0236135"/>
<path d="M3.66309 3.7453V4.18546" stroke="black" stroke-width="0.0236135"/>
<path d="M4.46118 3.7453V4.18546" stroke="black" stroke-width="0.0236135"/>
<path d="M5.2002 3.7453V4.18546" stroke="black" stroke-width="0.0236135"/>
<path d="M4.7373 3.29785V3.73801" stroke="black" stroke-width="0.0236135"/>
<path d="M4.17749 3.29785V3.73801" stroke="black" stroke-width="0.0236135"/>
<path d="M2.3793 3.14099C2.4672 3.40698 2.53612 3.55652 2.70456 3.78025C2.78403 3.88581 2.83327 3.94243 2.92951 4.03291C3.04755 4.1439 3.26085 4.28253 3.26085 4.28253C3.26085 4.28253 3.48974 4.14766 3.61347 4.03291C3.70975 3.94363 3.75854 3.88677 3.83538 3.78025C3.99561 3.55814 4.04923 3.40452 4.12417 3.14099C4.19539 2.89052 4.21536 2.48041 4.21536 2.48041C4.21536 2.48041 3.92322 2.3794 3.72899 2.34647C3.53076 2.31286 3.21525 2.31299 3.21525 2.31299C3.21525 2.31299 2.92024 2.31443 2.73496 2.34647C2.54535 2.37927 2.26074 2.48041 2.26074 2.48041C2.26074 2.48041 2.29706 2.89216 2.3793 3.14099Z" stroke="black" stroke-width="0.236135"/>
</svg>
