<svg width="396" height="452" viewBox="0 0 396 452" fill="none" xmlns="http://www.w3.org/2000/svg">
<g clip-path="url(#clip0_447_7065)">
<path fill-rule="evenodd" clip-rule="evenodd" d="M337.96 270.255L340.069 263.437L350.85 258.446L350.951 275.751C347.204 275.705 344.942 275.659 340.573 273.995C339.092 273.432 338.476 271.7 337.96 270.255Z" fill="#D20000" stroke="black"/>
<path d="M372.403 276.711L372.379 276.554L372.325 261.729C378.41 263.772 388.329 265.255 391.131 269.434C393.943 274.564 384.408 283.133 378.175 282.532L372.403 276.711Z" fill="#005BB9" stroke="black"/>
<path d="M373.255 270.895C378.32 272.006 384.133 273.434 383.672 276.389L386.027 280.457H373.397L373.255 270.895Z" fill="white"/>
<path fill-rule="evenodd" clip-rule="evenodd" d="M57.7534 270.255L55.6436 263.437L44.8626 258.446L44.7625 275.751C48.5089 275.705 50.771 275.659 55.1398 273.995C56.6214 273.432 57.2372 271.7 57.7534 270.255Z" fill="#D20000" stroke="black"/>
<path d="M23.31 276.711L23.3343 276.554L23.3879 261.729C17.3027 263.772 7.38384 265.255 4.5823 269.434C1.76994 274.564 11.3045 283.133 17.5385 282.532L23.31 276.711Z" fill="#005BB9" stroke="black"/>
<path d="M22.4585 270.895C17.3929 272.006 11.5797 273.434 12.0406 276.389L9.68591 280.457H22.3158L22.4585 270.895Z" fill="white"/>
<path fill-rule="evenodd" clip-rule="evenodd" d="M18.6202 54.772H50.2627V393.651H18.6202V54.772Z" fill="white" stroke="black" stroke-width="2"/>
<path fill-rule="evenodd" clip-rule="evenodd" d="M13.126 50.1655H55.7568V61.4332H13.126V50.1655Z" fill="white" stroke="black" stroke-width="2"/>
<path fill-rule="evenodd" clip-rule="evenodd" d="M18.6203 386.833H50.2617C56.014 386.833 60.6793 391.498 60.6793 397.251V401.027L8.20267 400.897V397.251C8.20267 391.498 12.868 386.833 18.6203 386.833Z" fill="white" stroke="black" stroke-width="2"/>
<path fill-rule="evenodd" clip-rule="evenodd" d="M42.8173 74.6066C42.8932 80.1696 47.4574 84.8542 53.0275 85.4229C59.9597 86.1293 66.0419 80.6362 66.6764 73.8213C67.397 66.0784 61.246 59.3081 53.6215 58.6533H15.2614C7.63691 59.3081 1.48492 66.0784 2.20547 73.8213C2.84 80.6362 8.92217 86.1293 15.8554 85.4229C21.4245 84.8542 25.9897 80.1696 26.0666 74.6066H42.8173Z" fill="white" stroke="black" stroke-width="2" stroke-linecap="round"/>
<path d="M34.4409 93.0078V375.867M26.7112 93.0078V375.867M42.1716 93.0078V375.867" stroke="black" stroke-width="2" stroke-linecap="round"/>
<path d="M15.1966 74.051C14.8201 74.0915 14.3121 73.8688 14.1037 73.5571C13.3153 72.3781 14.3799 70.9421 15.5255 70.5505C17.5718 69.8481 19.5918 71.4693 20.0532 73.4256C20.7283 76.2966 18.4887 78.9704 15.7229 79.4733C12.0371 80.1443 8.6904 77.2651 8.15505 73.6897C7.48004 69.1903 11.0089 65.1645 15.3929 64.6009C20.7029 63.9178 25.4128 68.0984 26.0008 73.293C26.6961 79.4156 21.8587 84.8096 15.8554 85.4229C8.92217 86.1293 2.84 80.6361 2.20547 73.8213C1.48492 66.0784 7.63691 59.3081 15.2614 58.6533C23.8138 57.9165 31.2744 64.7263 31.9504 73.1614V74.5317M53.6863 74.051C54.0618 74.0915 54.5708 73.8688 54.7793 73.5571C55.5666 72.3781 54.502 70.9421 53.3574 70.5505C51.3111 69.8481 49.2901 71.4693 48.8297 73.4256C48.1537 76.2966 50.3942 78.9704 53.1591 79.4733C56.8458 80.1443 60.1915 77.2651 60.7278 73.6897C61.4028 69.1903 57.874 65.1645 53.49 64.6009C48.1789 63.9178 43.4701 68.0984 42.8811 73.293C42.1869 79.4156 47.0243 84.8096 53.0275 85.4229C59.9597 86.1293 66.0419 80.6361 66.6764 73.8213C67.397 66.0784 61.246 59.3081 53.6215 58.6533C45.068 57.9165 37.6085 64.7263 36.9325 73.1614V74.5317" stroke="black" stroke-width="2" stroke-linecap="round"/>
<path fill-rule="evenodd" clip-rule="evenodd" d="M257.123 94.2408L307.446 69.1501C305.849 65.9552 304.12 62.8393 302.261 59.8113L246.076 94.2408H257.123ZM197.857 1.34766C199.647 1.34766 201.426 1.3932 203.197 1.47011L199.146 94.2408H196.567L192.516 1.47011C194.288 1.3932 196.067 1.34766 197.857 1.34766ZM211.11 2.06416C214.679 2.44973 218.201 2.98508 221.672 3.67123L203.715 94.2408H201.074L211.11 2.06416ZM229.405 5.46147C232.866 6.38239 236.268 7.445 239.6 8.65536L208.57 94.2408H205.736L229.405 5.46147ZM246.968 11.6084C250.241 13.0434 253.441 14.6131 256.556 16.3193L213.997 94.2408H210.793L246.968 11.6084ZM263.389 20.3552C266.4 22.2689 269.321 24.3101 272.146 26.4707L220.414 94.2408H216.578L263.389 20.3552ZM278.294 31.4883C280.978 33.8301 283.56 36.2872 286.03 38.8516L228.532 94.2408H223.608L278.294 31.4883ZM291.348 44.7436C293.648 47.4608 295.834 50.2742 297.892 53.1857L239.724 94.2408H232.806L291.348 44.7436ZM88.2667 69.1512C89.8637 65.9562 91.5932 62.8393 93.4533 59.8113L149.637 94.2408H138.59L88.2667 69.1512ZM97.8211 53.1857C99.8795 50.2742 102.066 47.4608 104.365 44.7446L162.907 94.2408H155.989L97.8211 53.1857ZM109.683 38.8527C112.153 36.2882 114.735 33.8301 117.42 31.4883L172.105 94.2408H167.181L109.683 38.8527ZM123.567 26.4718C126.392 24.3111 129.313 22.2689 132.324 20.3562L179.135 94.2408H175.299L123.567 26.4718ZM139.158 16.3193C142.273 14.6131 145.472 13.0444 148.745 11.6094L184.921 94.2408H181.718L139.158 16.3193ZM156.113 8.65536C159.445 7.44601 162.848 6.38239 166.308 5.46147L189.978 94.2408H187.143L156.113 8.65536ZM174.041 3.67123C177.512 2.9861 181.034 2.44973 184.603 2.06416L194.639 94.2408H191.999L174.041 3.67123Z" fill="#FFF500" stroke="#CC9933" stroke-width="1.5"/>
<path fill-rule="evenodd" clip-rule="evenodd" d="M197.857 55.6943C235.443 55.6943 265.952 86.2023 265.952 123.789C265.952 161.376 235.443 191.885 197.857 191.885C160.27 191.885 129.761 161.376 129.761 123.789C129.761 86.2023 160.27 55.6943 197.857 55.6943Z" fill="#FFF500" stroke="#CC9933" stroke-width="1.5"/>
<path fill-rule="evenodd" clip-rule="evenodd" d="M197.858 404.21C123.243 389.36 66.7909 320.438 66.7909 237.669V82.6592H328.922V237.669C328.922 320.438 272.472 389.36 197.858 404.21Z" fill="#D20000" stroke="black" stroke-width="2.02415"/>
<path fill-rule="evenodd" clip-rule="evenodd" d="M377.093 54.772H345.45V393.651H377.093V54.772Z" fill="white" stroke="black" stroke-width="2"/>
<path fill-rule="evenodd" clip-rule="evenodd" d="M382.587 50.1655H339.956V61.4332H382.587V50.1655Z" fill="white" stroke="black" stroke-width="2"/>
<path fill-rule="evenodd" clip-rule="evenodd" d="M377.093 386.833H345.451C339.699 386.833 335.034 391.498 335.034 397.251V401.027L387.51 400.897V397.251C387.51 391.498 382.845 386.833 377.093 386.833Z" fill="white" stroke="black" stroke-width="2"/>
<path fill-rule="evenodd" clip-rule="evenodd" d="M352.896 74.6066C352.82 80.1696 348.255 84.8542 342.685 85.4229C335.753 86.1293 329.671 80.6362 329.036 73.8213C328.316 66.0784 334.467 59.3081 342.091 58.6533H380.452C388.076 59.3081 394.228 66.0784 393.507 73.8213C392.873 80.6362 386.791 86.1293 379.857 85.4229C374.288 84.8542 369.723 80.1696 369.646 74.6066H352.896Z" fill="white" stroke="black" stroke-width="2" stroke-linecap="round"/>
<path d="M361.272 93.0078V375.867M369.002 93.0078V375.867M353.541 93.0078V375.867" stroke="black" stroke-width="2" stroke-linecap="round"/>
<path d="M380.516 74.051C380.893 74.0915 381.401 73.8688 381.609 73.5571C382.398 72.3781 381.333 70.9421 380.187 70.5505C378.141 69.8481 376.121 71.4693 375.66 73.4256C374.985 76.2966 377.224 78.9704 379.99 79.4733C383.676 80.1443 387.022 77.2651 387.558 73.6897C388.233 69.1903 384.704 65.1645 380.32 64.6009C375.01 63.9178 370.3 68.0984 369.712 73.293C369.017 79.4156 373.854 84.8096 379.857 85.4229C386.791 86.1293 392.873 80.6361 393.507 73.8213C394.228 66.0784 388.076 59.3081 380.452 58.6533C371.899 57.9165 364.439 64.7263 363.762 73.1614V74.5317M342.027 74.051C341.651 74.0915 341.142 73.8688 340.934 73.5571C340.146 72.3781 341.211 70.9421 342.356 70.5505C344.402 69.8481 346.423 71.4693 346.883 73.4256C347.559 76.2966 345.319 78.9704 342.554 79.4733C338.867 80.1443 335.521 77.2651 334.985 73.6897C334.31 69.1903 337.839 65.1645 342.223 64.6009C347.534 63.9178 352.243 68.0984 352.832 73.293C353.526 79.4156 348.689 84.8096 342.685 85.4229C335.753 86.1293 329.671 80.6361 329.036 73.8213C328.316 66.0784 334.467 59.3081 342.091 58.6533C350.645 57.9165 358.104 64.7263 358.78 73.1614V74.5317" stroke="black" stroke-width="2" stroke-linecap="round"/>
<path fill-rule="evenodd" clip-rule="evenodd" d="M121.145 185.264C128.664 182.261 142.982 182.299 152.187 187.228L150.116 192.974C140.826 187.844 131.204 185.922 121.145 185.264Z" fill="white" stroke="black" stroke-width="1.5"/>
<path fill-rule="evenodd" clip-rule="evenodd" d="M152.7 186.317L143.695 171.626C135.694 167.591 120.725 167.51 117.868 179.919C126.438 178.102 136.232 179.444 144.17 187.739C139.193 190.511 132.796 190.508 127.82 190.108C132.875 196.625 139.51 198.44 147.724 196.743L152.463 192.004L152.7 186.317Z" fill="white" stroke="black" stroke-width="2"/>
<path fill-rule="evenodd" clip-rule="evenodd" d="M208.25 307.766C205.551 309.632 203.774 312.801 203.774 316.395C203.774 317.252 203.876 318.084 204.067 318.881C201.128 317.062 199.161 313.753 199.161 309.971C199.161 308.956 199.303 307.975 199.567 307.048H207.229L208.25 307.766Z" fill="white" stroke="black" stroke-width="2"/>
<path fill-rule="evenodd" clip-rule="evenodd" d="M227.531 307.766C224.831 309.632 223.055 312.801 223.055 316.395C223.055 317.252 223.157 318.084 223.347 318.881C220.409 317.062 218.441 313.753 218.441 309.971C218.441 308.956 218.584 307.975 218.848 307.048H226.509L227.531 307.766Z" fill="white" stroke="black" stroke-width="2"/>
<path fill-rule="evenodd" clip-rule="evenodd" d="M217.891 307.766C215.191 309.632 213.415 312.801 213.415 316.395C213.415 317.252 213.517 318.084 213.707 318.881C210.768 317.062 208.801 313.753 208.801 309.971C208.801 308.956 208.944 307.975 209.208 307.048H216.87L217.891 307.766Z" fill="white" stroke="black" stroke-width="2"/>
<path fill-rule="evenodd" clip-rule="evenodd" d="M248.091 307.766C245.391 309.632 243.615 312.801 243.615 316.395C243.615 317.252 243.716 318.084 243.907 318.881C240.969 317.062 239.001 313.753 239.001 309.971C239.001 308.956 239.144 307.975 239.408 307.048H247.069L248.091 307.766Z" fill="white" stroke="black" stroke-width="2"/>
<path fill-rule="evenodd" clip-rule="evenodd" d="M267.371 307.766C264.672 309.632 262.895 312.801 262.895 316.395C262.895 317.252 262.997 318.084 263.187 318.881C260.248 317.062 258.282 313.753 258.282 309.971C258.282 308.956 258.425 307.975 258.688 307.048H266.35L267.371 307.766Z" fill="white" stroke="black" stroke-width="2"/>
<path fill-rule="evenodd" clip-rule="evenodd" d="M257.731 307.766C255.031 309.632 253.254 312.801 253.254 316.395C253.254 317.252 253.357 318.084 253.547 318.881C250.608 317.062 248.642 313.753 248.642 309.971C248.642 308.956 248.784 307.975 249.047 307.048H256.709L257.731 307.766Z" fill="white" stroke="black" stroke-width="2"/>
<path fill-rule="evenodd" clip-rule="evenodd" d="M123.987 307.766C121.288 309.632 119.51 312.801 119.51 316.395C119.51 317.252 119.613 318.084 119.803 318.881C116.864 317.062 114.898 313.753 114.898 309.971C114.898 308.956 115.04 307.975 115.304 307.048H122.965L123.987 307.766Z" fill="white" stroke="black" stroke-width="2"/>
<path fill-rule="evenodd" clip-rule="evenodd" d="M143.267 307.766C140.568 309.632 138.791 312.801 138.791 316.395C138.791 317.252 138.893 318.084 139.084 318.881C136.145 317.062 134.177 313.753 134.177 309.971C134.177 308.956 134.32 307.975 134.584 307.048H142.246L143.267 307.766Z" fill="white" stroke="black" stroke-width="2"/>
<path fill-rule="evenodd" clip-rule="evenodd" d="M133.627 307.766C130.928 309.632 129.151 312.801 129.151 316.395C129.151 317.252 129.253 318.084 129.443 318.881C126.504 317.062 124.538 313.753 124.538 309.971C124.538 308.956 124.681 307.975 124.944 307.048H132.606L133.627 307.766Z" fill="white" stroke="black" stroke-width="2"/>
<path fill-rule="evenodd" clip-rule="evenodd" d="M93.09 225.479C90.3909 223.613 88.6139 220.444 88.6139 216.849C88.6139 215.992 88.7161 215.16 88.9063 214.364C85.9675 216.182 84.0001 219.492 84.0001 223.274C84.0001 224.289 84.7369 225.566 85.001 226.493L92.0689 226.196L93.09 225.479Z" fill="white" stroke="black" stroke-width="2"/>
<path fill-rule="evenodd" clip-rule="evenodd" d="M112.371 225.479C109.671 223.613 107.895 220.444 107.895 216.849C107.895 215.992 107.997 215.16 108.187 214.364C105.248 216.182 103.281 219.492 103.281 223.274C103.281 224.289 103.424 225.269 103.688 226.196H111.349L112.371 225.479Z" fill="white" stroke="black" stroke-width="2"/>
<path fill-rule="evenodd" clip-rule="evenodd" d="M102.73 225.479C100.03 223.613 98.2542 220.444 98.2542 216.849C98.2542 215.992 98.3565 215.16 98.5467 214.364C95.6078 216.182 93.6405 219.492 93.6405 223.274C93.6405 224.289 93.7832 225.269 94.0473 226.196H101.709L102.73 225.479Z" fill="white" stroke="black" stroke-width="2"/>
<path fill-rule="evenodd" clip-rule="evenodd" d="M219.112 285.996C203.677 270.963 201.09 257.321 209.147 244.833L247.579 246.616C246.297 262.711 231.79 271.369 246.281 287.649C240.652 293.101 233.147 298.668 230.91 308.651H199.161C200.445 302.066 206.675 297.3 213.543 298.043C218.304 295.181 220.473 291.477 219.112 285.996Z" fill="white" stroke="black" stroke-width="2"/>
<path fill-rule="evenodd" clip-rule="evenodd" d="M209.712 186.844C221.613 188.234 233.665 185.818 245.914 178.417C261.695 168.349 269.304 191.74 250.354 201.258C235.972 208.48 220.386 206.328 203.659 200.402L209.712 186.844Z" fill="white" stroke="black" stroke-width="2"/>
<path fill-rule="evenodd" clip-rule="evenodd" d="M192.292 170.886C189.324 158.62 182.543 147.594 170.764 138.19C155.061 126.271 175.399 110.221 191.713 125.474C204.092 137.05 207.65 153.234 207.894 171.922L192.292 170.886Z" fill="white" stroke="black" stroke-width="2"/>
<path fill-rule="evenodd" clip-rule="evenodd" d="M147.387 256.318L134.536 265.91C127.085 249.602 116.768 238.07 102.259 233.521C94.7537 236.649 85.8167 232.068 84.2329 223.846H116.893C128.316 235.221 139.74 243.019 151.161 248.12L147.387 256.318Z" fill="white" stroke="black" stroke-width="2"/>
<path fill-rule="evenodd" clip-rule="evenodd" d="M174.705 217.605C173.806 206.002 173.863 194.271 172.113 182.839C171.181 176.748 169.405 171.076 164.597 166.922C167.862 166.092 169.529 163.664 170.967 161.007C167.023 161.997 163.075 162.779 159.138 161.918C146.506 159.154 139.771 162.091 139.046 170.085C145.516 179.325 153.595 189.309 143.44 198.77C138.085 216.827 134.818 237.446 141.362 251.251C147.108 263.373 167.908 272.969 180.774 268.838C193.86 264.634 207.025 258.863 219.325 251.627L219.808 254.413L230.099 249.085L229.792 247.294C231.36 259.639 241.85 271.837 260.569 276.11C263.065 278.526 264.293 281.17 264.578 283.891C265.428 292.015 257.417 294.128 253.181 298.043C246.313 297.3 240.083 302.066 238.799 308.651H270.549C272.366 300.54 277.862 295.191 283.914 290.257L284.622 263.366C265.401 257.516 270.59 244.353 265.883 230.847C272.806 230.524 279.754 229.642 286.316 227.675C288.769 229.629 290.69 231.68 291.758 234.379C290.811 236.548 290.279 238.99 290.279 241.574C290.279 247.43 293.013 252.563 297.116 255.425C301.217 252.563 303.954 247.43 303.954 241.574C303.954 238.621 303.258 235.852 302.041 233.466C301.072 229.133 299.14 225.976 296.567 223.298C301.363 220.771 305.546 217.456 308.364 213.203C314.441 204.036 312.96 191.487 305.173 183.702C300.893 179.421 294.962 176.772 288.398 176.769C282.32 176.766 276.243 179.078 271.618 183.702C265.116 190.204 263.185 199.581 265.827 207.789C267.644 213.437 270.962 216.77 275.018 219.767C269.44 220.644 263.561 220.812 258.045 220.431C252.473 216.793 244.555 216.114 235.12 217.259C225.278 218.454 217.214 222.749 207.642 224.809C199.458 226.57 175.664 229.95 174.705 217.605ZM287.72 216.333C292.456 214.481 296.895 211.953 299.545 208.278C303.424 202.898 302.801 195.527 298.074 190.8C292.748 185.474 284.062 185.457 278.717 190.8C274.872 194.646 273.79 200.2 275.472 205.007C277.383 210.467 282.56 212.804 287.043 215.87C287.27 216.025 287.496 216.179 287.72 216.333Z" fill="white" stroke="black" stroke-width="2"/>
<path fill-rule="evenodd" clip-rule="evenodd" d="M135.106 222.359L142.92 199.112H152.885C151.354 212.232 146.014 220.698 135.106 222.359Z" fill="white" stroke="black" stroke-width="2"/>
<path fill-rule="evenodd" clip-rule="evenodd" d="M152.181 170.764C154.158 170.764 155.761 171.68 155.761 172.808C155.761 173.937 154.158 174.853 152.181 174.853C150.204 174.853 148.601 173.937 148.601 172.808C148.601 171.68 150.204 170.764 152.181 170.764Z" fill="white" stroke="black" stroke-width="1.5"/>
<path fill-rule="evenodd" clip-rule="evenodd" d="M150.708 170.701C151.871 170.701 152.815 171.645 152.815 172.808C152.815 173.971 151.871 174.915 150.708 174.915C149.544 174.915 148.601 173.971 148.601 172.808C148.601 171.645 149.544 170.701 150.708 170.701Z" fill="black"/>
<path d="M287.72 216.333C290.802 218.442 293.938 220.582 296.541 223.281M275.018 219.767C278.712 222.497 282.719 224.81 286.316 227.675" stroke="black" stroke-width="2"/>
<path fill-rule="evenodd" clip-rule="evenodd" d="M163.209 211.227L169.459 211.229C169.459 214.654 168.208 217.657 166.334 219.332C164.459 217.657 163.209 214.654 163.209 211.227ZM154.539 211.227L160.79 211.229C160.79 214.654 159.539 217.657 157.664 219.332C155.789 217.657 154.539 214.654 154.539 211.227ZM156.613 199.449H162.863C162.863 202.874 161.612 205.877 159.737 207.552C157.863 205.877 156.613 202.874 156.613 199.449ZM141.535 223.007H147.785C147.785 226.434 146.534 229.437 144.66 231.111C142.785 229.437 141.535 226.434 141.535 223.007ZM150.205 223.007H156.455C156.455 226.434 155.204 229.437 153.329 231.111C151.455 229.437 150.205 226.434 150.205 223.007ZM158.875 223.007H165.125C165.125 226.434 163.874 229.437 161.999 231.111C160.124 229.437 158.875 226.434 158.875 223.007ZM165.283 199.449H171.533C171.533 202.874 170.282 205.877 168.407 207.552C166.532 205.877 165.283 202.874 165.283 199.449Z" fill="black" stroke="white" stroke-width="0.5"/>
<path fill-rule="evenodd" clip-rule="evenodd" d="M117.084 208.65C112.864 212.296 104.86 214.759 95.6797 214.759C86.4998 214.759 78.4958 212.297 74.2758 208.65C80.5735 209.671 87.8832 210.256 95.6807 210.256C103.477 210.256 110.787 209.671 117.084 208.65Z" fill="white" stroke="black" stroke-width="1.5"/>
<path fill-rule="evenodd" clip-rule="evenodd" d="M95.7303 209.814C102.65 209.814 115.436 205.584 117.316 197.94C117.153 195.683 114.433 193.765 112.3 195.152C113.2 191.822 107.973 189.804 106.268 192.556C106.131 188.997 101.086 188.216 99.4818 191.146C98.237 187.896 93.2246 187.896 91.9788 191.146C90.3747 188.216 85.3299 188.997 85.1923 192.556C83.488 189.804 78.261 191.822 79.1607 195.152C77.0284 193.765 74.3071 195.683 74.1442 197.94C76.0255 205.584 88.8112 209.814 95.7303 209.814Z" fill="white" stroke="black" stroke-width="1.5" stroke-linejoin="round"/>
<path fill-rule="evenodd" clip-rule="evenodd" d="M95.6797 197.251C98.569 197.251 100.914 199.596 100.914 202.485C100.914 205.374 98.569 207.72 95.6797 207.72C92.7904 207.72 90.4446 205.374 90.4446 202.485C90.4446 199.596 92.7904 197.251 95.6797 197.251Z" fill="#005BB9"/>
<path fill-rule="evenodd" clip-rule="evenodd" d="M201.904 166.757C203.906 154.458 201.963 141.826 194.849 128.754C185.131 111.889 209.787 105.08 218.785 125.215C225.613 140.491 222.647 156.581 215.704 173.681C211.104 171.374 206.504 169.065 201.904 166.757Z" fill="white" stroke="black" stroke-width="2"/>
<path fill-rule="evenodd" clip-rule="evenodd" d="M211.097 169.507C218.19 159.455 221.925 147.403 221.262 132.726C219.925 113.557 244.751 118.171 244.036 139.931C243.493 156.442 233.906 169.441 220.353 181.617C217.267 177.58 214.182 173.543 211.097 169.507Z" fill="white" stroke="black" stroke-width="2"/>
<path fill-rule="evenodd" clip-rule="evenodd" d="M215.861 176.401C226.816 171.164 235.844 162.584 242.348 149.622C250.439 132.468 269.597 148.412 258.49 166.808C250.062 180.767 235.537 187.34 217.994 191.294L205.115 187.132L215.861 176.401Z" fill="white" stroke="black" stroke-width="2"/>
<path fill-rule="evenodd" clip-rule="evenodd" d="M186.26 182.189C173.744 225.503 156.444 264.831 132.923 298.976C125.418 295.849 116.48 300.429 114.898 308.651H147.557C153.596 293.179 163.047 280.501 179.491 273.543L180.899 256.295C182.626 256.681 184.469 256.891 186.384 256.891C192.794 256.891 198.414 254.55 201.548 251.041C200.443 249.805 199.028 248.713 197.38 247.818C197.674 247.826 197.969 247.831 198.265 247.831C206.036 247.831 212.847 244.994 216.646 240.742C213.043 236.708 206.73 233.95 199.46 233.676C199.628 233.327 199.794 232.976 199.956 232.622C200.238 232.63 200.524 232.634 200.809 232.634C208.712 232.634 215.638 229.75 219.501 225.424C216.303 221.843 211.002 219.249 204.786 218.464C204.894 218.041 205 217.617 205.102 217.191C205.306 217.194 205.511 217.197 205.716 217.197C213.751 217.197 220.793 214.264 224.721 209.867C221.163 205.883 215.049 203.103 207.958 202.615L208.144 201.492C208.573 201.508 209.005 201.519 209.441 201.519C217.607 201.519 224.765 198.537 228.758 194.068C225.18 190.064 219.061 187.254 211.952 186.714C212.321 186.36 212.673 185.987 213.007 185.599L213.167 185.6C221.465 185.6 228.738 182.571 232.795 178.029C229.254 174.066 223.262 171.256 216.28 170.605C214.34 163.862 208.125 158.927 200.759 158.927C191.843 158.927 184.611 166.159 184.611 175.076C184.611 177.629 185.205 180.043 186.26 182.189Z" fill="white" stroke="black" stroke-width="2"/>
<path d="M2.19373 211.631C9.79896 219.352 17.5597 227.55 24.0062 235.756C16.9242 238.779 10.0734 242.498 3.44373 246.881C20.32 251.584 36.7606 258.029 51.9437 266.693C54.9383 268.4 58.3262 270.475 55.2922 273.961C59.239 271.926 58.212 264.981 57.6625 261.1C56.7699 254.794 58.4653 250.755 59.9125 244.318C61.6643 236.531 58.9439 232.019 51.9125 228.756C36.0007 221.372 19.2248 215.736 2.19373 211.631ZM5.10011 268.85C1.8121 271.416 3.92488 275.929 4.88123 281.725C5.7733 287.127 4.63476 292.237 3.47498 297.412C2.37216 301.853 1.35579 306.698 6.66248 308.443C18.8723 312.441 28.8664 319.118 38.1 327.912C46.6221 336.028 53.439 345.823 60.35 355.475C91.5411 399.028 135.737 432.87 189.381 440.912L188.069 407.443L187.631 406.506L186.912 405.881C145.614 396.681 111.932 369.812 87.3187 335.35C79.1478 323.911 71.2697 312.661 60.8187 302.943C48.0786 291.098 33.3996 282.649 17.5687 276.756C15.7927 276.095 13.98 275.484 12.1625 274.881C9.30861 273.936 2.27927 272.544 5.10011 268.85Z" fill="white"/>
<path fill-rule="evenodd" clip-rule="evenodd" d="M2.20557 211.63C19.2366 215.735 36.0066 221.36 51.9184 228.743C58.9498 232.006 61.6711 236.536 59.9194 244.323C59.8465 244.647 59.7767 244.971 59.7099 245.296C58.3426 241.225 55.7013 238.794 51.8081 236.916C43.8305 233.071 35.6129 229.69 27.2396 226.744C22.2767 224.998 17.2926 223.566 12.2669 222.129C8.9678 218.563 5.57252 215.049 2.20557 211.63ZM5.10002 268.85C2.29416 271.04 3.42728 274.643 4.41252 279.256C5.95262 280.456 7.94651 281.336 9.50627 281.85C13.6494 283.217 17.7105 284.755 21.6938 286.475C34.0969 291.829 45.6159 298.954 55.7563 308.381C65.1841 317.148 72.5645 327.509 80.1 338.069L81.2563 339.662V339.693H81.2874C85.3557 345.388 89.6699 350.896 94.2249 356.162C98.8073 361.459 103.616 366.493 108.631 371.225C125.937 387.554 145.954 400.5 168.475 408.35L169.631 410.444L188.662 425.662L188.162 408.037C188.002 406.309 187.441 406.161 185.881 405.662C145.047 396.251 111.73 369.529 87.3187 335.35C79.1478 323.911 71.2707 312.661 60.8187 302.944C46.6456 289.766 30.0619 280.817 12.1625 274.881C7.72905 273.581 2.80131 272.171 5.10002 268.85Z" fill="#005BB9"/>
<path fill-rule="evenodd" clip-rule="evenodd" d="M12.0375 241.631C9.133 243.25 6.26621 245.015 3.44372 246.881C20.32 251.584 36.7606 258.029 51.9437 266.693C54.8893 268.372 57.9067 270.558 55.5062 273.85C58.823 271.888 58.3395 266.24 57.8187 262.35C56.7148 261.051 55.2809 260.017 53.5687 259.068C40.4177 251.783 26.4029 246.054 12.0375 241.631ZM3.31872 298.006C3.10078 298.905 2.894 299.802 2.75622 300.693C2.75312 300.714 2.75932 300.736 2.75622 300.756C2.25386 304.074 2.68246 307.134 6.66247 308.443C7.36226 308.672 8.03945 308.915 8.72497 309.162V309.475C19.4397 313.778 29.404 319.704 38.1 327.912C46.6585 335.99 53.439 345.823 60.35 355.475C91.541 399.028 135.737 432.869 189.381 440.912L189.069 433.35C185.833 432.838 182.647 432.208 179.506 431.506C172.076 429.845 164.769 427.624 157.569 424.881C120.788 410.87 89.8465 383.853 66.4125 351.131L64.85 348.975C58.2466 339.728 51.6328 330.439 43.1937 322.475C34.1342 313.924 23.8405 307.683 12.8187 303.1C11.0598 302.368 9.30051 301.687 7.50622 301.037C5.53114 300.323 4.33361 299.504 3.31872 298.006Z" fill="#D20000"/>
<path d="M2.19373 211.631C9.79896 219.352 17.5597 227.55 24.0062 235.756C16.9242 238.779 10.0734 242.498 3.44373 246.881C20.32 251.584 36.7606 258.029 51.9437 266.693C54.9383 268.4 58.3262 270.475 55.2922 273.961C59.239 271.926 58.212 264.981 57.6625 261.1C56.7699 254.794 58.4653 250.755 59.9125 244.318C61.6643 236.531 58.9439 232.019 51.9125 228.756C36.0007 221.372 19.2248 215.736 2.19373 211.631ZM5.10011 268.85C1.8121 271.416 3.92488 275.929 4.88123 281.725C5.7733 287.127 4.63476 292.237 3.47498 297.412C2.37216 301.853 1.35579 306.698 6.66248 308.443C18.8723 312.441 28.8664 319.118 38.1 327.912C46.6221 336.028 53.439 345.823 60.35 355.475C91.5411 399.028 135.737 432.87 189.381 440.912L188.069 407.443C187.887 406.755 187.422 405.978 186.912 405.881C145.614 396.681 111.932 369.812 87.3187 335.35C79.1478 323.911 71.2697 312.661 60.8187 302.943C48.0786 291.098 33.3996 282.649 17.5687 276.756C15.7927 276.095 13.98 275.484 12.1625 274.881C9.30861 273.936 2.27927 272.544 5.10011 268.85Z" stroke="black"/>
<path d="M393.519 211.631C385.914 219.352 378.153 227.55 371.707 235.756C378.789 238.779 385.64 242.498 392.269 246.881C375.393 251.584 358.952 258.029 343.769 266.693C340.775 268.4 337.387 270.475 340.421 273.961C336.474 271.926 337.501 264.981 338.05 261.1C338.943 254.794 337.248 250.755 335.8 244.318C334.049 236.531 336.769 232.019 343.8 228.756C359.712 221.372 376.488 215.736 393.519 211.631ZM390.613 268.85C393.901 271.416 391.788 275.929 390.832 281.725C389.94 287.127 391.078 292.237 392.238 297.412C393.341 301.853 394.357 306.698 389.05 308.443C376.841 312.441 366.846 319.118 357.613 327.912C349.091 336.028 342.274 345.823 335.363 355.475C304.172 399.028 259.976 432.87 206.332 440.912L207.644 407.443L208.082 406.506L208.8 405.881C250.098 396.681 283.781 369.812 308.394 335.35C316.565 323.911 324.443 312.661 334.894 302.943C347.634 291.098 362.313 282.649 378.144 276.756C379.92 276.095 381.733 275.484 383.55 274.881C386.404 273.936 393.434 272.544 390.613 268.85Z" fill="white"/>
<path fill-rule="evenodd" clip-rule="evenodd" d="M393.507 211.63C376.476 215.735 359.706 221.36 343.794 228.743C336.763 232.006 334.042 236.536 335.794 244.323C335.866 244.647 335.936 244.971 336.003 245.296C337.37 241.225 340.012 238.794 343.905 236.916C351.882 233.071 360.1 229.69 368.473 226.744C373.436 224.998 378.42 223.566 383.446 222.129C386.745 218.563 390.14 215.049 393.507 211.63ZM390.613 268.85C393.419 271.04 392.286 274.643 391.3 279.256C389.76 280.456 387.766 281.336 386.207 281.85C382.063 283.217 378.002 284.755 374.019 286.475C361.616 291.829 350.097 298.954 339.957 308.381C330.529 317.148 323.148 327.509 315.613 338.069L314.457 339.662V339.693H314.425C310.357 345.388 306.043 350.896 301.488 356.162C296.906 361.459 292.097 366.493 287.082 371.225C269.776 387.554 249.759 400.5 227.238 408.35L226.082 410.444L207.05 425.662L207.55 408.037C207.711 406.309 208.272 406.161 209.832 405.662C250.666 396.251 283.983 369.529 308.394 335.35C316.565 323.911 324.442 312.661 334.894 302.944C349.067 289.766 365.651 280.817 383.55 274.881C387.984 273.581 392.912 272.171 390.613 268.85Z" fill="#005BB9"/>
<path fill-rule="evenodd" clip-rule="evenodd" d="M383.675 241.631C386.58 243.25 389.447 245.015 392.269 246.881C375.393 251.584 358.952 258.029 343.769 266.693C340.824 268.372 337.806 270.558 340.207 273.85C336.89 271.888 337.373 266.24 337.894 262.35C338.998 261.051 340.432 260.017 342.144 259.068C355.295 251.783 369.31 246.054 383.675 241.631ZM392.394 298.006C392.612 298.905 392.819 299.802 392.957 300.693C392.96 300.714 392.954 300.736 392.957 300.756C393.459 304.074 393.03 307.134 389.05 308.443C388.351 308.672 387.673 308.915 386.988 309.162V309.475C376.273 313.778 366.309 319.704 357.613 327.912C349.054 335.99 342.274 345.823 335.363 355.475C304.172 399.028 259.976 432.869 206.332 440.912L206.644 433.35C209.88 432.838 213.065 432.208 216.207 431.506C223.637 429.845 230.944 427.624 238.144 424.881C274.925 410.87 305.866 383.853 329.3 351.131L330.863 348.975C337.466 339.728 344.08 330.439 352.519 322.475C361.579 313.924 371.872 307.683 382.894 303.1C384.653 302.368 386.412 301.687 388.207 301.037C390.182 300.323 391.379 299.504 392.394 298.006Z" fill="#D20000"/>
<path d="M393.519 211.631C385.914 219.352 378.153 227.55 371.707 235.756C378.789 238.779 385.64 242.498 392.269 246.881C375.393 251.584 358.952 258.029 343.769 266.693C340.775 268.4 337.387 270.475 340.421 273.961C336.474 271.926 337.501 264.981 338.05 261.1C338.943 254.794 337.248 250.755 335.8 244.318C334.049 236.531 336.769 232.019 343.8 228.756C359.712 221.372 376.488 215.736 393.519 211.631ZM390.613 268.85C393.901 271.416 391.788 275.929 390.832 281.725C389.94 287.127 391.078 292.237 392.238 297.412C393.341 301.853 394.357 306.698 389.05 308.443C376.841 312.441 366.846 319.118 357.613 327.912C349.091 336.028 342.274 345.823 335.363 355.475C304.172 399.028 259.976 432.87 206.332 440.912L207.644 407.443C207.689 406.823 208.052 406.183 208.8 405.881C250.098 396.681 283.781 369.812 308.394 335.35C316.565 323.911 324.443 312.661 334.894 302.943C347.634 291.098 362.313 282.649 378.144 276.756C379.92 276.095 381.733 275.484 383.55 274.881C386.404 273.936 393.434 272.544 390.613 268.85Z" stroke="black"/>
<path d="M171.168 410.166C169.968 410.36 168.838 409.542 168.644 408.341C168.451 407.14 169.269 406.01 170.469 405.817C175.238 405.05 181.3 410.699 186.155 409.918C187.355 409.725 188.173 408.595 187.98 407.393C187.787 406.192 186.656 405.376 185.456 405.569" stroke="black"/>
<path d="M224.545 410.166C225.745 410.36 226.875 409.542 227.069 408.341C227.262 407.14 226.444 406.01 225.244 405.817C220.475 405.05 214.413 410.699 209.558 409.918C208.358 409.725 207.54 408.595 207.733 407.393C207.926 406.192 209.057 405.376 210.257 405.569" stroke="black"/>
<path fill-rule="evenodd" clip-rule="evenodd" d="M227.128 446.026C233.174 444.195 235.991 442.2 231.85 435.621C226.742 427.503 225.204 418.697 226.743 409.301C206.839 417.314 188.874 417.314 168.97 409.301C170.509 418.697 168.971 427.503 163.863 435.621C159.722 442.2 162.539 444.195 168.585 446.026C186.622 451.49 209.091 451.49 227.128 446.026Z" fill="white"/>
<path fill-rule="evenodd" clip-rule="evenodd" d="M227.128 446.026C233.174 444.195 235.991 442.2 231.85 435.621C231.118 434.458 230.458 433.279 229.871 432.086L229.717 432.137C231.129 435.854 228.557 437.646 224.93 438.75C209.095 443.546 186.619 443.546 170.783 438.75C167.156 437.646 164.251 436.186 165.996 432.137L165.842 432.086C165.255 433.279 164.595 434.458 163.863 435.621C159.722 442.2 162.539 444.195 168.585 446.026C186.622 451.49 209.091 451.49 227.128 446.026Z" fill="#D20000"/>
<path fill-rule="evenodd" clip-rule="evenodd" d="M169.612 416.134C169.674 413.599 169.4 411.931 168.97 409.301C188.874 417.314 206.839 417.314 226.743 409.301C226.313 411.931 226.205 413.432 226.268 415.968C224.96 419.329 221.39 419.702 218.318 420.498C203.634 424.3 190.451 424.143 175.643 420.027C173.163 419.338 170.635 418.896 169.612 416.134Z" fill="#005BB9"/>
<path d="M227.128 446.026C233.174 444.195 235.991 442.2 231.85 435.621C226.742 427.503 225.204 418.697 226.743 409.301C206.839 417.314 188.874 417.314 168.97 409.301C170.509 418.697 168.971 427.503 163.863 435.621C159.722 442.2 162.539 444.195 168.585 446.026C186.622 451.49 209.091 451.49 227.128 446.026Z" stroke="black"/>
<path fill-rule="evenodd" clip-rule="evenodd" d="M263.733 393.562L271.322 388.248L273.766 391.353L273.333 391.656C272.447 390.758 271.674 390.238 271.016 390.093C270.359 389.95 269.73 390.088 269.131 390.507L267.252 391.822C267.102 391.927 267.015 392.048 266.994 392.183C266.974 392.32 267.023 392.474 267.14 392.642L269.53 396.055L270.353 395.479C270.792 395.171 271.041 394.763 271.093 394.255C271.148 393.749 270.957 393.162 270.522 392.494L270.969 392.181L274.075 396.618L273.629 396.931C273.094 396.212 272.575 395.791 272.075 395.671C271.573 395.547 271.084 395.653 270.604 395.989L269.852 396.515L272.519 400.324C272.615 400.461 272.736 400.535 272.88 400.543C273.026 400.553 273.205 400.479 273.422 400.328L274.902 399.291C276.514 398.162 276.723 396.485 275.531 394.259L275.996 393.932L278.334 397.613L270.439 403.141L270.099 402.654L270.751 402.197C271.007 402.018 271.156 401.848 271.198 401.687C271.24 401.526 271.2 401.362 271.083 401.194L265.768 393.603C265.649 393.434 265.516 393.341 265.367 393.323C265.219 393.305 265.05 393.365 264.856 393.5L264.074 394.049L263.733 393.562ZM289.218 388.074L291.422 390.796L290.961 391.17C290.548 390.737 290.14 390.408 289.73 390.177C289.32 389.95 288.818 389.926 288.22 390.105C287.622 390.284 287.096 390.556 286.641 390.925L283.036 393.844C282.359 394.393 281.927 395 281.733 395.667C281.542 396.336 281.787 397.113 282.474 398L282.013 398.374L279.887 395.561C280.393 395.122 280.73 394.694 280.899 394.272C281.066 393.852 281.07 393.21 280.909 392.346C280.752 391.482 280.397 390.595 279.856 389.686C279.311 388.777 278.602 387.781 277.726 386.699C277.189 386.037 276.717 385.659 276.311 385.566C275.904 385.475 275.507 385.585 275.124 385.896L274.993 386.001L274.655 385.584L282.233 379.448L282.607 379.91L281.93 380.458C281.697 380.647 281.58 380.821 281.582 380.982C281.584 381.144 281.733 381.409 282.033 381.777L287.326 388.315C287.748 388.835 288.199 388.9 288.684 388.507L289.218 388.074ZM286.627 390.102L280.05 381.979L278.49 383.243C277.989 383.649 277.696 384 277.612 384.304C277.527 384.606 277.568 384.913 277.733 385.224C277.898 385.536 278.309 386.137 278.969 387.025C280.342 388.875 281.175 390.396 281.457 391.591C281.744 392.786 281.694 393.723 281.313 394.406L286.627 390.102ZM292.17 382.195L291.28 373.089L291.145 372.944C290.929 372.713 290.752 372.598 290.617 372.599C290.481 372.601 290.297 372.71 290.059 372.931L289.436 373.513L289.031 373.079L292.633 369.72L293.037 370.154L292.402 370.747C292.229 370.909 292.126 371.068 292.091 371.225C292.057 371.382 292.227 371.659 292.597 372.056L298.334 378.208C298.564 378.455 298.725 378.603 298.817 378.65C298.907 378.7 299.028 378.7 299.179 378.652C299.332 378.605 299.484 378.507 299.642 378.36L300.202 377.838L300.607 378.271L297.005 381.63L296.601 381.196L297.224 380.615C297.471 380.385 297.581 380.186 297.551 380.019C297.521 379.852 297.363 379.612 297.071 379.3L292.019 373.882L292.95 383.032C293.171 383.269 293.329 383.429 293.425 383.517C293.52 383.604 293.65 383.635 293.809 383.612C293.97 383.587 294.133 383.497 294.299 383.343L294.97 382.716L295.375 383.151L291.726 386.554L291.321 386.12L292.021 385.467C292.21 385.292 292.289 385.121 292.261 384.952C292.231 384.785 292.071 384.546 291.78 384.234L286.021 378.058C285.734 377.75 285.515 377.582 285.367 377.554C285.219 377.527 285.02 377.63 284.77 377.864L284.156 378.436L283.751 378.002L287.4 374.599L287.805 375.033L287.134 375.659C286.895 375.882 286.78 376.066 286.79 376.216C286.8 376.365 286.953 376.6 287.247 376.915L292.17 382.195ZM294.119 368.179L297.522 364.529L297.957 364.934L297.33 365.606C297.112 365.84 297.01 366.033 297.026 366.182C297.043 366.33 297.211 366.553 297.531 366.851L300.167 369.31L303.817 365.397L301.18 362.937C300.849 362.629 300.612 362.47 300.473 362.466C300.333 362.461 300.147 362.586 299.913 362.836L299.331 363.461L298.897 363.055L302.283 359.424L302.717 359.829L302.098 360.494C301.943 360.659 301.854 360.794 301.835 360.902C301.811 361.01 301.837 361.133 301.9 361.272C301.942 361.357 302.105 361.527 302.383 361.786L308.535 367.523C308.833 367.8 309.033 367.943 309.143 367.95C309.366 367.973 309.602 367.85 309.851 367.584L310.401 366.994L310.836 367.398L307.449 371.031L307.014 370.625L307.596 370.001C307.827 369.754 307.916 369.525 307.864 369.311C307.839 369.192 307.668 368.987 307.356 368.696L304.384 365.925L300.734 369.838L303.752 372.653C304.053 372.934 304.255 373.078 304.361 373.091C304.577 373.112 304.795 373.005 305.013 372.77L305.64 372.099L306.074 372.504L302.671 376.154L302.237 375.748L302.89 375.048C303.005 374.926 303.072 374.805 303.09 374.684C303.108 374.565 303.089 374.444 303.027 374.324C302.984 374.247 302.83 374.084 302.563 373.836L296.388 368.076C296.068 367.779 295.834 367.626 295.685 367.62C295.535 367.614 295.349 367.731 295.126 367.97L294.553 368.585L294.119 368.179ZM309.914 351.75L309.397 350.606L309.717 350.226L313.454 353.09L313.112 353.497C311.875 352.914 310.848 352.622 310.028 352.621C309.007 352.617 308.205 352.963 307.622 353.657C306.991 354.41 306.814 355.301 307.087 356.336C307.361 357.369 308.296 358.56 309.894 359.9C311.24 361.03 312.493 361.62 313.654 361.671C314.639 361.711 315.478 361.316 316.175 360.485C316.786 359.758 317.065 358.953 317.012 358.069C316.957 357.185 316.525 356.272 315.709 355.334L316.07 354.905C317.031 355.926 317.544 356.977 317.609 358.063C317.675 359.151 317.32 360.153 316.546 361.075C315.92 361.821 315.159 362.352 314.26 362.658C313.361 362.967 312.402 363.012 311.384 362.795C310.365 362.577 309.437 362.117 308.598 361.412C307.704 360.663 307.029 359.768 306.57 358.724C306.108 357.682 305.934 356.693 306.047 355.762C306.157 354.829 306.505 354.016 307.087 353.321C307.412 352.935 307.793 352.614 308.232 352.365C308.67 352.112 309.232 351.908 309.914 351.75ZM311.591 348.215L317.299 340.639L320.968 343.116L320.64 343.551C318.348 342.274 316.746 342.239 315.832 343.452C315.648 343.696 315.565 343.897 315.58 344.05C315.596 344.204 315.699 344.353 315.894 344.5L323.357 350.123C323.508 350.238 323.655 350.276 323.792 350.242C323.932 350.208 324.076 350.09 324.227 349.888L324.936 348.949L325.41 349.306L322.143 353.641L321.668 353.284L322.477 352.211C322.584 352.069 322.633 351.933 322.616 351.802C322.602 351.674 322.536 351.563 322.42 351.476L314.848 345.77C314.689 345.649 314.531 345.608 314.374 345.642C314.221 345.675 314.061 345.801 313.9 346.015C313.439 346.627 313.344 347.354 313.616 348.196C313.834 348.892 314.403 349.698 315.316 350.616L314.968 351.078L311.591 348.215ZM318.8 338.612L322.384 333.68C323.086 332.713 323.84 332.126 324.638 331.923C325.437 331.719 326.158 331.85 326.803 332.318C327.339 332.708 327.666 333.219 327.782 333.849C327.897 334.48 327.802 335.236 327.494 336.113C328.329 335.358 329.111 334.906 329.837 334.752C330.565 334.6 331.236 334.748 331.849 335.193C332.318 335.534 332.641 335.962 332.819 336.479C332.998 336.996 332.997 337.642 332.821 338.415C332.641 339.189 332.281 339.951 331.738 340.7L328.26 345.485L327.78 345.136L328.348 344.355C328.517 344.121 328.605 343.922 328.607 343.759C328.608 343.593 328.56 343.475 328.462 343.404L320.884 337.897C320.705 337.768 320.532 337.722 320.362 337.763C320.193 337.802 320.034 337.925 319.885 338.129L319.281 338.961L318.8 338.612ZM325.203 338.945L326.504 337.155C326.904 336.604 327.061 336.048 326.975 335.489C326.887 334.924 326.475 334.375 325.737 333.839C325.282 333.507 324.868 333.327 324.5 333.297C324.13 333.268 323.779 333.357 323.446 333.568C323.114 333.782 322.684 334.249 322.154 334.978C321.778 335.496 321.584 335.841 321.568 336.02C321.552 336.198 321.639 336.355 321.826 336.491L325.203 338.945ZM325.678 339.289L329.324 341.938C329.494 342.062 329.659 342.105 329.817 342.067C329.976 342.028 330.147 341.88 330.337 341.618L331.169 340.473C331.72 339.713 331.96 339.034 331.887 338.428C331.816 337.821 331.427 337.262 330.719 336.748C330.071 336.276 329.425 336.091 328.779 336.195C328.133 336.299 327.57 336.685 327.09 337.344L325.678 339.289ZM326.804 327.384L332.508 320.083L335.753 322.339L335.427 322.755C334.317 322.155 333.427 321.883 332.755 321.937C332.085 321.993 331.523 322.307 331.073 322.884L329.661 324.692C329.548 324.836 329.5 324.977 329.52 325.113C329.54 325.248 329.632 325.381 329.793 325.507L333.076 328.073L333.695 327.281C334.026 326.858 334.144 326.396 334.046 325.895C333.95 325.395 333.596 324.889 332.984 324.378L333.32 323.948L337.588 327.282L337.253 327.713C336.53 327.182 335.911 326.931 335.398 326.962C334.882 326.99 334.445 327.234 334.084 327.695L333.52 328.419L337.183 331.281C337.316 331.384 337.452 331.42 337.592 331.385C337.735 331.352 337.884 331.229 338.047 331.022L339.161 329.597C340.372 328.046 340.081 326.381 338.289 324.601L338.64 324.152L341.952 326.989L336.018 334.583L335.55 334.218L336.041 333.59C336.233 333.343 336.325 333.138 336.318 332.972C336.311 332.805 336.226 332.66 336.065 332.534L328.762 326.828C328.6 326.703 328.444 326.652 328.298 326.677C328.15 326.704 328.006 326.81 327.86 326.997L327.272 327.75L326.804 327.384Z" fill="black" stroke="black" stroke-width="0.1"/>
<path fill-rule="evenodd" clip-rule="evenodd" d="M192.639 425.997H198.735C199.931 425.997 200.849 426.262 201.482 426.787C202.117 427.315 202.434 427.976 202.434 428.772C202.434 429.436 202.214 430 201.771 430.464C201.328 430.928 200.662 431.295 199.771 431.562C200.872 431.794 201.698 432.161 202.248 432.657C202.799 433.157 203.074 433.786 203.074 434.545C203.074 435.124 202.918 435.637 202.604 436.085C202.292 436.533 201.768 436.914 201.04 437.224C200.308 437.534 199.479 437.691 198.554 437.691H192.639V437.097H193.605C193.893 437.097 194.107 437.051 194.239 436.956C194.374 436.86 194.442 436.752 194.442 436.63V427.263C194.442 427.042 194.377 426.874 194.244 426.761C194.112 426.648 193.92 426.591 193.667 426.591H192.639V425.997ZM196.134 431.373H198.346C199.026 431.373 199.569 431.174 199.971 430.774C200.376 430.372 200.578 429.716 200.578 428.804C200.578 428.24 200.481 427.8 200.289 427.484C200.095 427.169 199.817 426.936 199.45 426.79C199.083 426.648 198.451 426.575 197.55 426.575C196.911 426.575 196.516 426.62 196.363 426.713C196.21 426.805 196.134 426.967 196.134 427.198V431.373ZM196.134 431.959V436.465C196.134 436.676 196.195 436.836 196.32 436.941C196.443 437.046 196.665 437.097 196.989 437.097H198.404C199.342 437.097 200.033 436.891 200.481 436.476C200.929 436.064 201.153 435.419 201.153 434.545C201.153 433.743 200.923 433.112 200.459 432.65C199.995 432.188 199.353 431.959 198.538 431.959H196.134Z" fill="black" stroke="black" stroke-width="0.1"/>
<path fill-rule="evenodd" clip-rule="evenodd" d="M47.8552 304.393L56.6111 312.558L56.2053 312.992L55.5698 312.399C55.3532 312.197 55.167 312.105 55.0091 312.123C54.8512 312.142 54.6073 312.328 54.2764 312.683L48.5394 318.835C48.3025 319.089 48.1649 319.265 48.1234 319.356C48.0849 319.449 48.0951 319.568 48.1558 319.717C48.2175 319.864 48.3248 320.007 48.4746 320.147L49.0403 320.675L48.6355 321.109L45.0216 317.739L45.4274 317.305L46.0508 317.887C46.2978 318.117 46.5032 318.213 46.6702 318.173C46.8382 318.135 47.0649 317.959 47.3563 317.646L53.7461 310.794L49.8145 307.128L43.3822 314.026C43.1332 314.293 42.9925 314.464 42.9622 314.539C42.9328 314.614 42.9369 314.722 42.9723 314.861C43.0077 314.998 43.1059 315.141 43.2637 315.288L43.9347 315.914L43.5299 316.348L39.8806 312.946L40.2854 312.511L40.9857 313.164C41.1365 313.304 41.2681 313.373 41.3824 313.369C41.4988 313.367 41.5939 313.351 41.6678 313.324C41.7407 313.301 41.9188 313.138 42.1991 312.837L47.9574 306.662C48.2448 306.354 48.3987 306.126 48.4189 305.978C48.4361 305.828 48.3187 305.637 48.0647 305.4L47.4504 304.827L47.8552 304.393ZM58.4924 314.786L62.2743 319.137C63.1295 320.121 63.5596 321.063 63.5626 321.969C63.5667 322.873 63.2074 323.636 62.4858 324.263C61.7673 324.888 61.0103 325.128 60.2189 324.978C59.128 324.776 58.1625 324.192 57.3266 323.231L55.9564 321.654L52.9436 324.273C52.7685 324.425 52.6795 324.578 52.6774 324.726C52.6774 324.92 52.7614 325.111 52.9224 325.297L53.7957 326.301L53.3474 326.691L49.6677 322.457L50.1161 322.068L50.8842 322.952C51.037 323.127 51.1827 323.225 51.3224 323.247C51.463 323.268 51.5946 323.227 51.712 323.123L58.7475 317.008C58.9266 316.852 59.0126 316.688 59.0015 316.515C58.9904 316.342 58.8598 316.113 58.6119 315.828L58.0451 315.176L58.4924 314.786ZM56.3925 321.275L57.4349 322.475C58.0947 323.235 58.7303 323.645 59.3385 323.706C59.9457 323.768 60.6166 323.482 61.3433 322.85C61.8533 322.407 62.1782 321.992 62.3188 321.602C62.4585 321.216 62.4686 320.817 62.3462 320.412C62.2217 320.005 61.8705 319.466 61.2896 318.798C60.9061 318.357 60.6207 318.114 60.4365 318.071C60.2503 318.026 60.054 318.092 59.8465 318.273L56.3925 321.275ZM69.7591 328.329C70.3512 329.115 70.7003 330.008 70.8035 331.011C70.9088 332.011 70.7347 332.986 70.2874 333.936C69.836 334.884 69.1479 335.71 68.2168 336.411C67.2858 337.113 66.2991 337.548 65.2537 337.722C64.2093 337.897 63.2195 337.797 62.2865 337.43C61.3524 337.06 60.5974 336.493 60.0186 335.726C59.4559 334.978 59.131 334.121 59.045 333.154C58.961 332.187 59.1513 331.22 59.6158 330.245C60.0783 329.271 60.7755 328.434 61.7066 327.732C62.6255 327.041 63.599 326.611 64.6272 326.438C65.6554 326.268 66.633 326.36 67.554 326.712C68.48 327.066 69.2137 327.604 69.7591 328.329ZM69.3482 328.797C68.7289 327.976 67.8869 327.566 66.8233 327.571C65.7566 327.577 64.4532 328.157 62.9119 329.318C61.24 330.579 60.2827 331.712 60.0358 332.716C59.7878 333.72 59.9568 334.607 60.5357 335.377C60.9425 335.915 61.4445 336.28 62.0416 336.469C62.6417 336.659 63.3481 336.637 64.1617 336.402C64.9744 336.168 65.8953 335.663 66.9215 334.89C68.0418 334.046 68.8311 333.276 69.2875 332.572C69.747 331.872 69.9686 331.195 69.9544 330.547C69.9413 329.898 69.7379 329.314 69.3482 328.797ZM72.3762 350.962L69.6215 353.037L69.2663 352.565C70.7691 351.399 70.8835 349.968 69.6093 348.276L64.527 341.532L65.0017 341.174L65.5259 341.871C65.706 342.11 65.876 342.232 66.037 342.235C66.1989 342.239 66.4681 342.099 66.8476 341.814L73.5663 336.751C73.8436 336.542 74.0096 336.394 74.0652 336.311C74.1188 336.226 74.131 336.106 74.0966 335.949C74.0612 335.794 73.9812 335.635 73.8527 335.464L73.3912 334.851L73.8659 334.494L76.8391 338.441L76.3655 338.798L75.8524 338.117C75.652 337.852 75.4668 337.722 75.2938 337.73C75.1207 337.739 74.8677 337.869 74.5317 338.122L67.0287 343.775L70.2499 348.05L77.7955 342.364C78.1082 342.128 78.2792 341.975 78.3086 341.902C78.3399 341.831 78.35 341.729 78.344 341.599C78.3349 341.47 78.262 341.315 78.1254 341.134L77.5789 340.408L78.0525 340.051L81.0551 344.035L80.5815 344.394L80.0067 343.631C79.8782 343.46 79.7598 343.371 79.6464 343.354C79.5351 343.34 79.438 343.338 79.358 343.348C79.2811 343.358 79.0807 343.486 78.7579 343.73L72.0068 348.817C71.6708 349.07 71.5149 349.316 71.5433 349.555C71.5706 349.794 71.6668 350.019 71.8236 350.229L72.3762 350.962ZM81.7545 345.335L85.591 350.073C86.3439 351.002 86.7153 351.882 86.7052 352.705C86.6961 353.53 86.3824 354.193 85.764 354.694C85.2479 355.112 84.67 355.295 84.0305 355.243C83.3919 355.191 82.6865 354.904 81.9184 354.38C82.4315 355.382 82.6663 356.254 82.6268 356.995C82.5853 357.737 82.2696 358.347 81.6796 358.824C81.2292 359.189 80.7323 359.39 80.1868 359.429C79.6424 359.468 79.017 359.3 78.3167 358.929C77.6153 358.556 76.9727 358.01 76.3898 357.292L72.6676 352.694L73.1291 352.321L73.7373 353.072C73.9185 353.295 74.0885 353.432 74.2454 353.475C74.4053 353.52 74.5317 353.504 74.6259 353.428L81.9052 347.533C82.0773 347.393 82.1674 347.237 82.1714 347.063C82.1765 346.889 82.0995 346.705 81.9407 346.508L81.293 345.709L81.7545 345.335ZM79.776 351.434L81.1695 353.154C81.5976 353.683 82.0935 353.978 82.6572 354.039C83.2239 354.101 83.8614 353.846 84.5698 353.272C85.008 352.917 85.2894 352.565 85.4139 352.217C85.5373 351.867 85.5424 351.505 85.425 351.128C85.3046 350.753 84.9645 350.216 84.3968 349.515C83.994 349.019 83.7107 348.741 83.5427 348.68C83.3747 348.618 83.2016 348.661 83.0205 348.807L79.776 351.434ZM79.3216 351.803L75.819 354.639C75.6551 354.772 75.5711 354.921 75.567 355.082C75.563 355.245 75.6632 355.45 75.8666 355.701L76.7561 356.8C77.3471 357.53 77.9412 357.938 78.5464 358.024C79.1495 358.112 79.7912 357.881 80.4712 357.331C81.0936 356.826 81.4407 356.25 81.5065 355.6C81.5733 354.948 81.3476 354.305 80.8345 353.672L79.3216 351.803ZM89.1907 354.619L95.2688 361.611L92.4372 364.367L92.0901 363.967C92.8906 362.992 93.3268 362.17 93.4027 361.5C93.4755 360.832 93.2731 360.22 92.7934 359.668L91.2886 357.937C91.1681 357.799 91.0396 357.725 90.903 357.719C90.7654 357.713 90.6176 357.777 90.4628 357.912L87.3175 360.645L87.9763 361.404C88.3285 361.808 88.7606 362.013 89.2706 362.012C89.7797 362.013 90.3444 361.762 90.9627 361.26L91.321 361.672L87.2335 365.225L86.8752 364.813C87.534 364.205 87.8984 363.645 87.9662 363.136C88.036 362.624 87.8801 362.148 87.4966 361.706L86.8944 361.014L83.3848 364.064C83.2583 364.174 83.1986 364.302 83.2057 364.446C83.2097 364.591 83.3018 364.762 83.4749 364.962L84.6619 366.327C85.9522 367.812 87.6423 367.844 89.7311 366.425L90.1045 366.855L86.688 369.563L80.366 362.29L80.8143 361.9L81.3365 362.502C81.5419 362.738 81.7261 362.868 81.8911 362.892C82.055 362.917 82.2139 362.862 82.3687 362.727L89.3627 356.647C89.5176 356.512 89.5965 356.369 89.5995 356.22C89.6026 356.071 89.5257 355.908 89.3698 355.729L88.7434 355.009L89.1907 354.619ZM96.548 362.947L103.137 369.771L100.116 373.006L99.7378 372.615C101.358 370.55 101.643 368.973 100.588 367.88C100.376 367.661 100.191 367.547 100.036 367.539C99.8825 367.53 99.7186 367.609 99.5435 367.778L92.8208 374.27C92.6851 374.402 92.6234 374.539 92.6366 374.681C92.6477 374.825 92.7418 374.985 92.9179 375.167L93.7356 376.013L93.3085 376.426L89.5368 372.52L89.9639 372.107L90.8969 373.074C91.0214 373.202 91.1479 373.271 91.2795 373.275C91.409 373.281 91.5284 373.234 91.6326 373.133L98.4526 366.548C98.5963 366.409 98.6621 366.259 98.653 366.098C98.6449 365.942 98.5447 365.764 98.3584 365.572C97.8271 365.021 97.1238 364.814 96.2494 364.95C95.5279 365.057 94.6424 365.492 93.5929 366.251L93.1922 365.835L96.548 362.947ZM107.645 373.615L108.031 373.977L103.806 384.664C103.634 385.094 103.739 385.487 104.121 385.842L104.387 386.09L103.982 386.526L100.572 383.345L100.977 382.911L101.247 383.163C101.602 383.494 101.888 383.691 102.106 383.75C102.258 383.788 102.384 383.752 102.487 383.64C102.55 383.574 102.603 383.494 102.643 383.394L103.626 380.916L100.249 377.768L98.8786 378.438C98.5163 378.617 98.2562 378.788 98.1054 378.95C97.9314 379.137 97.8687 379.382 97.9172 379.681C97.9678 379.98 98.1601 380.285 98.4961 380.597L98.7835 380.866L98.3787 381.301L95.2799 378.41L95.6857 377.976C96.0167 378.286 96.3456 378.46 96.6755 378.494C97.0003 378.528 97.4345 378.419 97.9729 378.165L107.645 373.615ZM105.939 375.107L100.852 377.488L103.878 380.31L105.939 375.107ZM111.935 378.301L115.813 381.441L115.438 381.903L114.726 381.326C114.476 381.123 114.276 381.034 114.13 381.062C113.983 381.089 113.771 381.272 113.497 381.612L111.228 384.414L115.387 387.781L117.655 384.979C117.941 384.627 118.081 384.38 118.076 384.24C118.072 384.101 117.934 383.924 117.668 383.708L117.005 383.172L117.379 382.71L121.238 385.834L120.863 386.296L120.157 385.724C119.981 385.581 119.84 385.502 119.732 385.49C119.623 385.475 119.501 385.51 119.367 385.58C119.286 385.629 119.128 385.803 118.888 386.1L113.594 392.636C113.338 392.953 113.211 393.162 113.211 393.274C113.204 393.496 113.342 393.724 113.626 393.953L114.252 394.461L113.879 394.922L110.02 391.797L110.393 391.336L111.056 391.873C111.318 392.086 111.554 392.158 111.765 392.092C111.882 392.058 112.073 391.873 112.341 391.542L114.9 388.384L110.74 385.016L108.144 388.223C107.883 388.544 107.754 388.754 107.748 388.86C107.743 389.078 107.864 389.287 108.114 389.49L108.827 390.068L108.453 390.529L104.575 387.389L104.949 386.927L105.693 387.531C105.823 387.635 105.95 387.695 106.071 387.704C106.19 387.714 106.311 387.686 106.426 387.617C106.5 387.568 106.651 387.403 106.881 387.12L112.195 380.557C112.469 380.218 112.605 379.973 112.6 379.824C112.596 379.674 112.467 379.496 112.213 379.291L111.56 378.762L111.935 378.301ZM119.701 395.618L128.423 392.854L128.535 392.693C128.718 392.434 128.793 392.236 128.764 392.104C128.735 391.971 128.588 391.813 128.323 391.627L127.625 391.138L127.965 390.652L132 393.477L131.659 393.963L130.947 393.465C130.753 393.328 130.576 393.261 130.415 393.261C130.254 393.259 130.018 393.483 129.707 393.927L124.882 400.818C124.689 401.094 124.577 401.283 124.55 401.382C124.521 401.481 124.545 401.6 124.624 401.737C124.701 401.877 124.829 402.005 125.006 402.13L125.633 402.569L125.292 403.055L121.258 400.23L121.598 399.743L122.297 400.233C122.574 400.427 122.79 400.493 122.948 400.429C123.105 400.364 123.307 400.159 123.552 399.81L127.801 393.742L119.044 396.556C118.859 396.821 118.734 397.007 118.669 397.12C118.604 397.232 118.6 397.364 118.655 397.515C118.714 397.668 118.835 397.809 119.021 397.939L119.773 398.465L119.432 398.952L115.345 396.09L115.685 395.603L116.47 396.153C116.68 396.3 116.864 396.343 117.023 396.28C117.181 396.216 117.38 396.01 117.625 395.66L122.469 388.744C122.71 388.399 122.829 388.149 122.826 387.999C122.822 387.848 122.68 387.675 122.399 387.479L121.712 386.997L122.052 386.511L126.139 389.373L125.799 389.86L125.047 389.334C124.78 389.146 124.575 389.072 124.431 389.113C124.287 389.154 124.089 389.351 123.842 389.704L119.701 395.618ZM132.891 394.436L140.832 399.207L138.991 402.704L138.537 402.431C138.998 401.256 139.159 400.339 139.023 399.679C138.886 399.021 138.505 398.502 137.878 398.125L135.912 396.944C135.755 396.849 135.609 396.819 135.477 396.855C135.344 396.893 135.224 396.999 135.119 397.175L132.972 400.746L133.832 401.263C134.293 401.54 134.766 401.601 135.252 401.443C135.736 401.287 136.195 400.873 136.629 400.205L137.096 400.485L134.306 405.128L133.839 404.847C134.278 404.066 134.451 403.42 134.359 402.914C134.268 402.406 133.972 402.002 133.469 401.701L132.683 401.228L130.288 405.213C130.202 405.357 130.184 405.498 130.236 405.632C130.285 405.769 130.425 405.903 130.652 406.039L132.201 406.97C133.888 407.983 135.505 407.492 137.054 405.498L137.541 405.79L135.13 409.422L126.869 404.459L127.174 403.95L127.857 404.36C128.126 404.521 128.34 404.588 128.505 404.561C128.669 404.533 128.803 404.431 128.909 404.256L133.682 396.312C133.788 396.136 133.818 395.975 133.775 395.832C133.731 395.69 133.608 395.56 133.404 395.437L132.586 394.945L132.891 394.436Z" fill="black" stroke="black" stroke-width="0.1"/>
</g>
<defs>
<clipPath id="clip0_447_7065">
<rect width="395.713" height="451.224" fill="white"/>
</clipPath>
</defs>
</svg>
