<svg width="404" height="441" viewBox="0 0 404 441" fill="none" xmlns="http://www.w3.org/2000/svg">
<g clip-path="url(#clip0_447_7173)">
<path d="M403.214 394.475C403.214 404.853 397.22 413.839 388.52 418.207C387.435 418.754 386.31 419.232 385.144 419.627C382.47 420.532 379.619 421.045 376.643 421.045H299.235H295.597H273.49H233.008C224.043 421.045 215.867 424.42 209.619 429.928L206.441 433.104C204.733 435.043 203.26 437.181 202 439.458C200.739 437.181 199.266 435.043 197.559 433.104L194.382 429.928C188.133 424.42 179.956 421.045 170.989 421.045H125.614H108.403H104.767H27.3554C24.381 421.045 21.5307 420.532 18.859 419.627C17.692 419.232 16.5654 418.754 15.4774 418.207C6.78198 413.839 0.785522 404.853 0.785522 394.475V1.26855C134.929 1.26855 269.072 1.26855 403.214 1.26855V394.475Z" fill="white"/>
<path d="M61.7134 229.673C61.2663 231.387 59.1744 231.641 58.4273 230.064C58.4273 230.064 52.8168 220.156 49.8882 213.978C48.3274 224.307 22.1127 397.887 18.859 419.431C21.5307 420.463 24.3811 421.045 27.3554 421.045H104.767C102.825 409.44 71.7005 223.339 69.2155 208.495C66.7829 217.848 61.7134 229.673 61.7134 229.673Z" fill="#1F1A16"/>
<path d="M41.3604 152.007C41.3604 160.746 56.2429 164.963 56.2429 172.915C56.2429 181.981 40.8155 178.189 40.1191 189.396C39.4228 200.604 57.2951 205.982 60.3089 212.401C62.1467 216.315 59.4645 220.484 56.819 221.545C65.3156 220.608 66.9664 211.999 61.9325 205.871C56.8985 199.744 54.2967 200.632 54.2036 194.161C54.1106 187.688 72.5124 186.088 72.5124 176.722C72.5124 167.597 57.8775 162.653 57.2412 153.548C56.6786 145.505 71.6308 145.629 71.6308 136.783C71.6308 130.26 62.9813 123.455 55.2362 123.311C69.1143 141.627 41.3604 140.595 41.3604 152.007Z" fill="#DA241D"/>
<path d="M125.614 1.26855V421.045H170.989C179.956 421.045 188.133 424.42 194.382 429.928L197.559 433.104C199.266 435.042 200.739 437.181 202 439.458C203.26 437.181 204.733 435.042 206.441 433.104L209.619 429.928C215.867 424.42 224.043 421.045 233.008 421.045H273.49V1.26855C224.198 1.26855 174.906 1.26855 125.614 1.26855Z" fill="#005CA1"/>
<path d="M184.202 301.126L185.711 301.122C185.461 300.853 185.203 300.602 184.959 300.322C184.714 300.605 184.455 300.858 184.202 301.126Z" fill="#FFF500"/>
<path d="M213.483 301.026L214.804 301.019C214.586 300.785 214.356 300.568 214.145 300.322C213.931 300.568 213.702 300.789 213.483 301.026Z" fill="#FFF500"/>
<path d="M154.919 301.229L156.619 301.221C156.336 300.923 156.045 300.64 155.771 300.322C155.496 300.64 155.203 300.927 154.919 301.229Z" fill="#FFF500"/>
<path d="M167.719 274.31L165.868 285.443L170.856 284.649L171.132 273.793L167.719 274.31Z" fill="#FFF500"/>
<path d="M191.881 284.681L196.918 285.507L213.477 272.857L209.204 271.546L191.881 284.681Z" fill="#FFF500"/>
<path d="M185.133 270.358L184.282 270.506L181.075 270.761V286.285H185.084L185.133 270.358Z" fill="#FFF500"/>
<path d="M179.853 287.087L175.993 273.37H171.984L171.834 287.087H179.853Z" fill="#FFF500"/>
<path d="M133.43 298.605C135.397 300.436 138.281 301.594 140.694 302.129C138.058 288.618 136.353 283.818 133.455 282.61L133.43 298.605Z" fill="#FFF500"/>
<path d="M218.526 275.691L212.356 281.993L157.885 284.952L157.401 279.068L150.505 279.073L149.085 264.872L129.089 262.132L131.955 279.942L137.469 284.009L142.877 302.148L142.989 302.15C146.945 302.15 150.576 300.602 153.453 298.037C154.891 296.751 156.137 295.213 157.139 293.48C158.144 295.213 159.39 296.751 160.829 298.037C163.706 300.602 167.335 302.15 171.291 302.15C175.242 302.15 178.872 300.602 181.75 298.037C183.189 296.751 184.436 295.213 185.44 293.48C186.443 295.213 187.689 296.751 189.124 298.037C192.003 300.602 195.634 302.15 199.588 302.15C203.542 302.15 207.173 300.602 210.051 298.037C211.487 296.751 212.732 295.213 213.737 293.48C214.738 295.213 215.989 296.751 217.427 298.037C220.306 300.602 223.929 302.15 227.883 302.15C228.384 302.15 228.879 302.125 229.369 302.076C230.201 301.924 231.038 301.768 231.877 301.609C234.276 300.949 236.474 299.71 238.351 298.037C239.785 296.751 241.032 295.213 242.037 293.48C243.406 295.847 245.334 297.882 247.473 299.574C258.969 291.352 267.622 271.792 269.663 263.031L239.914 269.748C268.866 243.761 268.531 180.823 224.324 172.251C200.627 167.656 171.674 162.565 148.581 157.185C185.8 201.929 178.351 238.849 153.559 278.035L188.674 271.049C199.008 269.156 210.691 271.949 218.526 275.691Z" fill="#FFF500"/>
<path d="M156.446 287.087L163.74 273.37H166.876L164.465 287.087H156.446Z" fill="#FFF500"/>
<path d="M180.656 99.8647H183.111V166.059H180.656V99.8647Z" fill="#FFF500"/>
<path d="M147.869 153.484L224.396 168.318L225.795 171.055L148.345 155.824L147.869 153.484Z" fill="#FFF500"/>
<path d="M176.121 146.98H187.872L185.66 153.977H178.109L176.121 146.98Z" fill="#FFF500"/>
<path d="M182.289 107.114L181.232 106.943L153.096 280.26L154.153 280.432L182.289 107.114Z" fill="#FFF500"/>
<path d="M163.625 157.677L179.98 152.189L180.329 153.228L163.973 158.715L163.625 157.677Z" fill="#FFF500"/>
<path d="M193.728 113.741C197.341 114.777 198.22 119.276 202.038 119.826C205.181 120.28 208.576 117.692 211.167 116.202C215.55 113.687 217.598 118.911 221.707 118.933C225.693 118.948 229.973 116.56 229.675 112.051C222.371 118.856 215.458 102.934 207.239 108.434C205.894 109.334 203.949 111.81 202.184 110.434C200.418 109.056 199.081 107.1 197.974 105.913C196.867 104.727 194.28 103.341 191.332 103.674C188.384 104.007 184.258 108.152 182.154 107.618V117.338C187.167 118.941 187.457 111.955 193.728 113.741Z" fill="#FFF500"/>
<path d="M270.333 295.373C269.331 297.106 268.085 298.644 266.646 299.929C263.768 302.495 260.137 304.042 256.183 304.042C253.275 304.042 250.549 303.194 248.161 301.726C247.304 301.201 246.484 300.607 245.723 299.929C244.284 298.644 243.039 297.106 242.037 295.373C241.032 297.106 239.785 298.644 238.35 299.929C235.471 302.495 231.841 304.042 227.883 304.042C223.929 304.042 220.306 302.495 217.427 299.929C215.989 298.644 214.739 297.106 213.737 295.373C212.732 297.106 211.487 298.644 210.051 299.929C207.173 302.495 203.542 304.042 199.588 304.042C195.634 304.042 192.003 302.495 189.124 299.929C187.689 298.644 186.443 297.106 185.44 295.373C184.437 297.106 183.189 298.644 181.75 299.929C178.872 302.495 175.242 304.042 171.291 304.042C167.335 304.042 163.706 302.495 160.829 299.929C159.39 298.644 158.144 297.106 157.138 295.373C156.137 297.106 154.891 298.644 153.453 299.929C150.576 302.495 146.945 304.042 142.989 304.042C141.728 304.042 140.518 303.833 139.34 303.537C136.816 302.901 134.489 301.676 132.53 299.929C131.091 298.644 129.846 297.106 128.842 295.373L128.84 305.878C132.688 309.462 137.617 311.613 142.989 311.613C147.992 311.613 152.598 309.734 156.313 306.586C156.59 306.35 156.873 306.126 157.14 305.878C157.406 306.126 157.687 306.346 157.962 306.58C161.678 309.731 166.285 311.613 171.29 311.613C176.333 311.613 180.972 309.702 184.706 306.505C184.95 306.296 185.202 306.099 185.44 305.878C185.676 306.096 185.926 306.293 186.168 306.502C189.9 309.702 194.542 311.613 199.588 311.613C204.674 311.613 209.349 309.671 213.095 306.427C213.306 306.242 213.53 306.069 213.737 305.878C213.941 306.069 214.164 306.239 214.376 306.422C218.121 309.668 222.794 311.613 227.883 311.613C233.261 311.613 238.191 309.462 242.037 305.878C245.882 309.462 250.809 311.613 256.183 311.613C261.564 311.613 266.486 309.462 270.337 305.878L270.333 295.373Z" fill="white"/>
<path d="M343.538 229.772C343.986 231.487 346.077 231.742 346.824 230.163C346.824 230.163 352.428 220.158 355.357 213.98C356.917 224.309 383.139 397.987 386.393 419.532C383.721 420.562 380.87 421.144 377.896 421.144H300.484C302.426 409.54 333.569 223.329 336.055 208.484C338.487 217.837 343.538 229.772 343.538 229.772Z" fill="#1F1A16"/>
<path d="M327.311 152.057C327.311 160.795 342.195 165.013 342.195 172.964C342.195 182.03 326.766 178.238 326.071 189.446C325.374 200.654 343.246 206.031 346.26 212.451C348.098 216.365 345.415 220.535 342.771 221.595C351.267 220.658 352.918 212.049 347.884 205.921C342.85 199.793 340.248 200.683 340.155 194.21C340.062 187.739 358.464 186.137 358.464 176.772C358.464 167.647 343.829 162.704 343.193 153.597C342.63 145.555 357.582 145.679 357.582 136.833C357.582 130.309 348.932 123.505 341.187 123.36C355.066 141.676 327.311 140.645 327.311 152.057Z" fill="#DA241D"/>
<path d="M403.214 394.475C403.214 404.853 397.22 413.839 388.52 418.207C387.435 418.754 386.31 419.232 385.144 419.627C382.47 420.532 379.619 421.045 376.643 421.045H299.235H295.597H273.49H233.008C224.043 421.045 215.867 424.42 209.619 429.928L206.441 433.104C204.733 435.042 203.26 437.181 202 439.458C200.739 437.181 199.266 435.042 197.559 433.104L194.382 429.928C188.133 424.42 179.956 421.045 170.989 421.045H125.614H108.403H104.767H27.3554C24.381 421.045 21.5307 420.532 18.859 419.627C17.692 419.232 16.5654 418.754 15.4774 418.207C6.78199 413.839 0.785522 404.853 0.785522 394.475V1.26855C134.929 1.26855 269.072 1.26855 403.214 1.26855V394.475Z" stroke="#1F1A16" stroke-width="1.06849"/>
</g>
<defs>
<clipPath id="clip0_447_7173">
<rect width="404" height="440.727" fill="white"/>
</clipPath>
</defs>
</svg>
