<svg width="26" height="26" viewBox="0 0 26 26" fill="none" xmlns="http://www.w3.org/2000/svg">
<path d="M25.9942 13.3867C25.8989 16.5896 24.6241 19.6444 22.4143 21.965L18.1371 17.8919C19.3429 16.6257 20.0386 14.9587 20.0906 13.211L25.9942 13.3867Z" fill="#00A66C"/>
<path d="M21.9049 22.4711C19.5967 24.6414 16.5753 25.894 13.4086 25.9936L13.223 20.0902C14.9509 20.0359 16.5996 19.3523 17.8591 18.1681L21.9049 22.4711Z" fill="#59C36A"/>
<path d="M12.6928 25.9964C9.47187 25.9202 6.39395 24.6508 4.05586 22.4341L8.11946 18.1479C9.39529 19.3575 11.0748 20.0502 12.8324 20.0917L12.6928 25.9964Z" fill="#4895FF"/>
<path d="M3.51718 21.8925C1.31332 19.5423 0.0606844 16.4575 0.00214597 13.2362L5.90747 13.1289C5.93942 14.8867 6.62294 16.5699 7.82552 17.8523L3.51718 21.8925Z" fill="#6AA9FF"/>
<path d="M0.00501459 12.639C0.0944938 9.41836 1.3767 6.34574 3.60303 4.01685L7.87236 8.09818C6.65753 9.36897 5.95787 11.0456 5.90904 12.803L0.00501459 12.639Z" fill="#AE2538"/>
<path d="M3.97939 3.63898C6.29937 1.40337 9.36686 0.108896 12.5871 0.00655961L12.7747 5.90988C11.0175 5.96572 9.34367 6.67208 8.07773 7.89198L3.97939 3.63898Z" fill="#E63950"/>
<path d="M13.3236 0.00402908C16.5445 0.0842369 19.6208 1.3576 21.9561 3.57722L17.8871 7.85828C16.6128 6.64711 14.9341 5.95227 13.1766 5.9085L13.3236 0.00402908Z" fill="#FF641A"/>
<path d="M22.3769 3.9959C24.6084 6.31982 25.8975 9.38959 25.9941 12.61L20.0905 12.7872C20.0378 11.0299 19.3344 9.35483 18.1167 8.08674L22.3769 3.9959Z" fill="#FF9F00"/>
</svg>
