<svg width="275" height="314" viewBox="0 0 275 314" fill="none" xmlns="http://www.w3.org/2000/svg">
<g clip-path="url(#clip0_447_4536)">
<path fill-rule="evenodd" clip-rule="evenodd" d="M273.594 1.3623V236.055C273.594 264.702 254.43 285.542 228.059 285.542H168.594C149.134 285.542 139.257 300.556 137.48 312.508C135.703 300.556 125.825 285.542 106.264 285.542H46.8971C20.5221 285.542 1.36218 264.698 1.36218 236.055V1.3623H273.594Z" fill="#157DC1"/>
<path fill-rule="evenodd" clip-rule="evenodd" d="M273.594 57.7633H1.36218V1.3623H273.594V57.7633Z" fill="#E42913"/>
<path fill-rule="evenodd" clip-rule="evenodd" d="M92.1382 74.7519H46.7001V57.7632H92.1382V74.7519Z" fill="white" stroke="black" stroke-width="1.55575" stroke-miterlimit="22.93" stroke-linecap="round"/>
<path fill-rule="evenodd" clip-rule="evenodd" d="M137.476 74.7519H92.1382V57.7632H137.476V74.7519Z" fill="white" stroke="black" stroke-width="1.55575" stroke-miterlimit="22.93" stroke-linecap="round"/>
<path fill-rule="evenodd" clip-rule="evenodd" d="M182.814 74.7519H137.476V57.7632H182.814V74.7519Z" fill="white" stroke="black" stroke-width="1.55575" stroke-miterlimit="22.93" stroke-linecap="round"/>
<path fill-rule="evenodd" clip-rule="evenodd" d="M228.155 74.7519H182.814V57.7632H228.155V74.7519Z" fill="white" stroke="black" stroke-width="1.55575" stroke-miterlimit="22.93" stroke-linecap="round"/>
<path fill-rule="evenodd" clip-rule="evenodd" d="M273.593 74.7519H228.155V57.7632H273.593V74.7519Z" fill="white" stroke="black" stroke-width="1.55575" stroke-miterlimit="22.93" stroke-linecap="round"/>
<path fill-rule="evenodd" clip-rule="evenodd" d="M46.7001 74.7519H1.36218V57.7632H46.7001V74.7519Z" fill="white" stroke="black" stroke-width="1.55575" stroke-miterlimit="22.93" stroke-linecap="round"/>
<path fill-rule="evenodd" clip-rule="evenodd" d="M114.759 57.7633H69.4174V40.6743H114.759V57.7633Z" fill="white" stroke="black" stroke-width="1.55575" stroke-miterlimit="22.93" stroke-linecap="round"/>
<path fill-rule="evenodd" clip-rule="evenodd" d="M160.197 57.7633H114.759V40.6743H160.197V57.7633Z" fill="white" stroke="black" stroke-width="1.55575" stroke-miterlimit="22.93" stroke-linecap="round"/>
<path fill-rule="evenodd" clip-rule="evenodd" d="M205.535 57.7633H160.197V40.6743H205.535V57.7633Z" fill="white" stroke="black" stroke-width="1.55575" stroke-miterlimit="22.93" stroke-linecap="round"/>
<path fill-rule="evenodd" clip-rule="evenodd" d="M250.873 57.7633H205.535V40.6743H250.873V57.7633Z" fill="white" stroke="black" stroke-width="1.55575" stroke-miterlimit="22.93" stroke-linecap="round"/>
<path fill-rule="evenodd" clip-rule="evenodd" d="M273.593 57.7633H250.873V40.6743H273.593V57.7633Z" fill="white" stroke="black" stroke-width="1.55575" stroke-miterlimit="22.93" stroke-linecap="round"/>
<path fill-rule="evenodd" clip-rule="evenodd" d="M24.0795 57.7633H1.36218V40.6743H24.0795V57.7633Z" fill="white" stroke="black" stroke-width="1.55575" stroke-miterlimit="22.93" stroke-linecap="round"/>
<path fill-rule="evenodd" clip-rule="evenodd" d="M35.3397 40.6738H12.7191V23.6851H35.3397V40.6738Z" fill="white" stroke="black" stroke-width="1.55575" stroke-miterlimit="22.93" stroke-linecap="round"/>
<path fill-rule="evenodd" clip-rule="evenodd" d="M69.4174 57.7633H24.0795V40.6743H69.4174V57.7633Z" fill="white" stroke="black" stroke-width="1.55575" stroke-miterlimit="22.93" stroke-linecap="round"/>
<path fill-rule="evenodd" clip-rule="evenodd" d="M80.7778 40.6738H58.0604V23.6851H80.7778V40.6738Z" fill="white" stroke="black" stroke-width="1.55575" stroke-miterlimit="22.93" stroke-linecap="round"/>
<path fill-rule="evenodd" clip-rule="evenodd" d="M126.116 40.6738H103.398V23.6851H126.116V40.6738Z" fill="white" stroke="black" stroke-width="1.55575" stroke-miterlimit="22.93" stroke-linecap="round"/>
<path fill-rule="evenodd" clip-rule="evenodd" d="M171.457 40.6738H148.836V23.6851H171.457V40.6738Z" fill="white" stroke="black" stroke-width="1.55575" stroke-miterlimit="22.93" stroke-linecap="round"/>
<path fill-rule="evenodd" clip-rule="evenodd" d="M216.895 40.6738H194.174V23.6851H216.895V40.6738Z" fill="white" stroke="black" stroke-width="1.55575" stroke-miterlimit="22.93" stroke-linecap="round"/>
<path fill-rule="evenodd" clip-rule="evenodd" d="M262.233 40.6738H239.512V23.6851H262.233V40.6738Z" fill="white" stroke="black" stroke-width="1.55575" stroke-miterlimit="22.93" stroke-linecap="round"/>
<path d="M273.594 1.3623V236.055C273.594 264.702 254.43 285.542 228.059 285.542H168.594C149.134 285.542 139.257 300.556 137.48 312.508C135.703 300.556 125.825 285.542 106.264 285.542H46.8971C20.5221 285.542 1.36218 264.698 1.36218 236.055V1.3623H273.594Z" stroke="black" stroke-width="2.72083" stroke-linecap="round" stroke-linejoin="round"/>
<path fill-rule="evenodd" clip-rule="evenodd" d="M35.7372 99.4466C38.1345 96.3685 41.6563 94.3689 45.5279 93.8875C49.3996 93.4061 53.3039 94.4824 56.382 96.8796C59.46 99.2769 61.4597 102.799 61.9411 106.67C62.4225 110.542 61.3462 114.446 58.9489 117.524C53.9118 123.944 44.6257 125.13 38.3059 120.093C36.7766 118.91 35.4963 117.436 34.5388 115.757C33.5813 114.077 32.9654 112.225 32.7267 110.306C32.4879 108.387 32.631 106.44 33.1477 104.577C33.6644 102.714 34.5444 100.972 35.7372 99.4501V99.4466ZM32.4771 127.498C36.2279 130.429 40.7634 132.181 45.51 132.533C50.2567 132.886 55.0013 131.823 59.1438 129.479C63.2864 127.135 66.6409 123.616 68.7831 119.365C70.9254 115.115 71.7591 110.325 71.1789 105.6C70.5987 100.876 68.6306 96.4301 65.5236 92.8244C62.4165 89.2186 58.3101 86.6152 53.7234 85.3434C49.1368 84.0715 44.276 84.1883 39.7557 85.679C35.2354 87.1696 31.2587 89.9672 28.3284 93.718C26.3819 96.2081 24.945 99.0573 24.1 102.103C23.255 105.148 23.0184 108.331 23.4037 111.468C23.7889 114.605 24.7885 117.635 26.3454 120.386C27.9022 123.136 29.9858 125.553 32.4771 127.498Z" fill="white" stroke="black" stroke-width="1.55575" stroke-miterlimit="22.93" stroke-linecap="round"/>
<path fill-rule="evenodd" clip-rule="evenodd" d="M171.851 271.716C169.974 270.233 168.591 268.653 168.097 265.493C173.628 265.887 180.346 268.653 191.606 267.865C206.62 266.679 209.583 261.939 217.189 256.307C222.62 252.356 228.352 252.456 233.587 254.036C230.721 249.493 229.241 243.861 231.81 237.739C235.367 228.947 239.315 224.899 236.75 210.081C234.873 198.918 230.527 193.092 228.847 187.758C232.007 187.561 233.884 188.549 235.761 189.932C234.772 187.066 226.772 175.412 220.055 170.966C221.932 175.706 218.97 190.427 220.646 194.772C222.721 192.007 224.103 189.635 225.88 188.944C226.869 191.215 232.204 208.501 226.966 216.702C221.632 225.196 211.855 226.281 200.691 218.876C192.097 213.148 95.5919 141.829 76.6257 127.308C80.0829 120.691 78.2056 112.591 72.0829 107.848C65.2687 102.416 55.2912 103.699 49.9567 110.513C47.3659 113.815 46.1914 118.011 46.6911 122.178C47.1909 126.345 49.3241 130.144 52.6222 132.74C58.745 137.48 67.0423 137.383 72.5738 132.442C91.343 147.26 183.796 223.713 191.402 230.727C201.379 239.816 202.565 249.497 195.651 256.705C188.933 263.816 170.859 262.828 168.487 262.337C168.684 260.459 170.662 258.582 172.833 255.917C168.19 255.326 154.658 261.746 149.621 261.054C155.45 266.485 168.785 271.426 171.848 271.723L171.851 271.716ZM70.1088 126.316C68.5107 128.36 66.1662 129.684 63.5913 129.999C61.0164 130.314 58.4218 129.593 56.3785 127.995C54.3352 126.396 53.0104 124.052 52.6956 121.477C52.3809 118.902 53.1019 116.308 54.7 114.264C57.9602 109.919 64.1832 109.227 68.4286 112.584C69.4434 113.373 70.2922 114.355 70.9263 115.473C71.5603 116.591 71.9671 117.823 72.1233 119.099C72.2794 120.375 72.1818 121.669 71.8361 122.907C71.4904 124.145 70.9034 125.302 70.1088 126.313V126.316Z" fill="white" stroke="black" stroke-width="1.55575" stroke-miterlimit="22.93" stroke-linecap="round"/>
<path fill-rule="evenodd" clip-rule="evenodd" d="M46.8971 123.153C43.5995 123.044 40.4346 121.828 37.9129 119.7C35.3912 117.572 33.6596 114.657 32.9974 111.425C32.3352 108.193 32.7809 104.831 34.2628 101.883C35.7446 98.9356 38.1762 96.5727 41.1654 95.1758C44.1545 93.779 47.527 93.4297 50.739 94.1842C53.951 94.9387 56.8153 96.753 58.8699 99.3347C60.9245 101.916 62.0497 105.115 62.064 108.414C62.0784 111.713 60.981 114.922 58.949 117.521C57.3185 119.588 55.1721 121.19 52.726 122.164C53.1935 124.487 54.4929 126.56 56.3802 127.993C57.1647 128.655 58.0699 129.158 59.0458 129.476C61.8561 127.969 64.3142 125.882 66.2575 123.353C69.7368 118.906 71.5427 113.377 71.3597 107.733C71.1766 102.09 69.0162 96.6896 65.2559 92.4769C61.4956 88.2643 56.3747 85.5069 50.7878 84.6867C45.201 83.8664 39.5035 85.0353 34.6911 87.9893C29.8786 90.9432 26.2571 95.4943 24.4594 100.847C22.6618 106.2 22.8022 112.015 24.8563 117.274C26.9103 122.534 30.7473 126.905 35.6968 129.623C40.6463 132.342 46.3935 133.234 51.9343 132.145C49.2868 129.805 47.5111 126.636 46.8971 123.156V123.153Z" fill="white" stroke="black" stroke-width="1.55575" stroke-miterlimit="22.93" stroke-linecap="round"/>
<path fill-rule="evenodd" clip-rule="evenodd" d="M99.8409 150.416C87.6922 164.048 64.1832 180.542 64.1832 180.542L59.0458 173.234L88.5807 140.342L118.116 107.35L125.919 111.599C125.919 111.599 112.09 136.788 99.8409 150.42V150.416Z" fill="white" stroke="black" stroke-width="1.55575" stroke-miterlimit="22.93" stroke-linecap="round"/>
<path fill-rule="evenodd" clip-rule="evenodd" d="M111.893 114.264L121.476 119.402L111.893 114.264Z" fill="white"/>
<path d="M111.893 114.264L121.476 119.402" stroke="black" stroke-width="1.55575" stroke-miterlimit="22.93" stroke-linecap="round"/>
<path fill-rule="evenodd" clip-rule="evenodd" d="M109.521 116.93L119.599 122.364L109.521 116.93Z" fill="white"/>
<path d="M109.521 116.93L119.599 122.364" stroke="black" stroke-width="1.55575" stroke-miterlimit="22.93" stroke-linecap="round"/>
<path fill-rule="evenodd" clip-rule="evenodd" d="M107.153 119.499L117.818 125.327L107.153 119.499Z" fill="white"/>
<path d="M107.153 119.499L117.818 125.327" stroke="black" stroke-width="1.55575" stroke-miterlimit="22.93" stroke-linecap="round"/>
<path fill-rule="evenodd" clip-rule="evenodd" d="M65.2688 166.32L71.395 175.208L65.2688 166.32Z" fill="white"/>
<path d="M65.2688 166.32L71.395 175.208" stroke="black" stroke-width="1.55575" stroke-miterlimit="22.93" stroke-linecap="round"/>
<path fill-rule="evenodd" clip-rule="evenodd" d="M67.6404 163.654L74.1607 173.134L67.6404 163.654Z" fill="white"/>
<path d="M67.6404 163.654L74.1607 173.134" stroke="black" stroke-width="1.55575" stroke-miterlimit="22.93" stroke-linecap="round"/>
<path fill-rule="evenodd" clip-rule="evenodd" d="M70.012 161.085L76.9264 171.06L70.012 161.085Z" fill="white"/>
<path d="M70.012 161.085L76.9264 171.06" stroke="black" stroke-width="1.55575" stroke-miterlimit="22.93" stroke-linecap="round"/>
<path fill-rule="evenodd" clip-rule="evenodd" d="M46.7001 254.43L50.4546 251.367L47.7891 247.91L43.9378 250.873C42.7866 250.176 41.4495 249.851 40.1072 249.939C38.7649 250.027 37.4821 250.526 36.4322 251.367C35.0941 252.449 34.2365 254.015 34.045 255.725C33.8536 257.435 34.3438 259.152 35.4094 260.503C36.475 261.854 38.0302 262.731 39.7379 262.944C41.4456 263.156 43.1682 262.687 44.5324 261.638C45.5908 260.804 46.3671 259.665 46.7561 258.375C47.1451 257.085 47.128 255.706 46.707 254.427L46.7001 254.43Z" fill="#EA9B00" stroke="black" stroke-width="1.55575" stroke-linecap="round" stroke-linejoin="round"/>
<path fill-rule="evenodd" clip-rule="evenodd" d="M241.389 134.811C240.435 131.928 238.848 129.296 236.746 127.105C239.02 126.403 241.134 125.262 242.969 123.748C251.958 116.733 253.441 103.796 246.427 94.8073C243.037 90.5266 238.091 87.7606 232.669 87.1129C227.247 86.4652 221.789 87.9884 217.486 91.3501C215.658 92.8241 214.089 94.5932 212.843 96.5843C211.167 94.0521 208.981 91.8982 206.423 90.2611C196.843 84.2351 184.1 87.198 177.974 96.7814C171.948 106.361 174.911 119.105 184.494 125.231C188.015 127.411 192.112 128.478 196.249 128.294L192.494 131.257L187.063 132.245L186.866 135.602L184.791 137.283C183.111 136.491 181.531 136.394 180.446 137.182C179.457 137.974 179.163 139.554 179.557 141.331L44.8262 247.122L50.5548 254.531L185.386 148.74C186.966 149.532 188.646 149.729 189.635 148.84C190.721 148.048 191.018 146.468 190.524 144.691L192.698 143.011L196.055 143.703L198.326 138.565L201.981 135.699C201.1 138.805 200.96 142.074 201.573 145.244C202.186 148.414 203.535 151.395 205.51 153.949C207.486 156.502 210.033 158.556 212.947 159.945C215.861 161.335 219.061 162.021 222.289 161.948C225.516 161.875 228.682 161.046 231.53 159.526C234.379 158.007 236.831 155.84 238.689 153.201C240.548 150.561 241.76 147.522 242.23 144.327C242.7 141.133 242.413 137.874 241.393 134.811H241.389ZM226.278 154.762C224.52 155.346 222.664 155.576 220.816 155.44C218.969 155.304 217.166 154.805 215.512 153.971C213.843 153.137 212.354 151.982 211.133 150.571C209.911 149.161 208.979 147.523 208.392 145.752C207.804 143.981 207.572 142.111 207.709 140.25C207.846 138.389 208.349 136.574 209.189 134.908C209.486 134.316 209.78 133.822 210.078 133.328L206.817 128.982L211.46 125.328C212.646 126.065 214.029 126.422 215.424 126.352C216.818 126.281 218.158 125.786 219.263 124.933C222.226 122.562 222.821 118.216 220.449 115.253C219.308 113.834 217.658 112.916 215.85 112.695C214.042 112.473 212.219 112.966 210.769 114.067C209.693 114.956 208.903 116.142 208.499 117.477C208.095 118.812 208.095 120.237 208.498 121.573L203.855 125.227L200.498 120.978C199.906 121.175 199.312 121.373 198.62 121.57C196.806 121.981 194.929 122.027 193.097 121.705C191.265 121.383 189.516 120.698 187.951 119.692C184.777 117.699 182.508 114.544 181.628 110.901C180.836 107.146 181.431 103.395 183.505 100.232C184.481 98.6509 185.759 97.2787 187.267 96.194C188.774 95.1092 190.482 94.3334 192.29 93.9112C194.099 93.489 195.974 93.4287 197.806 93.7337C199.638 94.0388 201.392 94.7033 202.966 95.6889C204.554 96.6805 205.93 97.9763 207.015 99.5017C208.1 101.027 208.873 102.752 209.289 104.577C209.476 105.524 209.607 106.481 209.683 107.443L216.103 107.246C216.165 104.323 217.129 101.489 218.863 99.135C220.598 96.7806 223.018 95.0204 225.793 94.0957C228.567 93.171 231.56 93.127 234.36 93.9698C237.16 94.8126 239.631 96.5009 241.434 98.8032C243.238 101.106 244.284 103.909 244.432 106.83C244.579 109.751 243.819 112.645 242.256 115.117C240.693 117.589 238.404 119.517 235.703 120.637C233.001 121.757 230.02 122.014 227.167 121.373L225.486 127.596C226.375 127.893 227.263 128.187 228.152 128.584C230.659 129.846 232.737 131.821 234.123 134.261C235.509 136.702 236.142 139.498 235.941 142.298C235.74 145.097 234.715 147.774 232.995 149.992C231.274 152.21 228.936 153.868 226.275 154.759L226.278 154.762Z" fill="#EA9B00"/>
<path d="M241.389 134.811C240.435 131.928 238.848 129.296 236.746 127.105C239.02 126.403 241.134 125.262 242.969 123.748C251.958 116.733 253.441 103.796 246.427 94.8073C243.037 90.5266 238.091 87.7606 232.669 87.1129C227.247 86.4652 221.789 87.9884 217.486 91.3501C215.658 92.8241 214.089 94.5932 212.843 96.5843C211.167 94.0521 208.981 91.8982 206.423 90.2611C196.843 84.2351 184.1 87.198 177.974 96.7814C171.948 106.361 174.911 119.105 184.494 125.231C188.015 127.411 192.112 128.478 196.249 128.294L192.494 131.257L187.063 132.245L186.866 135.602L184.791 137.283C183.111 136.491 181.531 136.394 180.446 137.182C179.457 137.974 179.163 139.554 179.557 141.331L44.8262 247.122L50.5548 254.531L185.386 148.74C186.966 149.532 188.646 149.729 189.635 148.84C190.721 148.048 191.018 146.468 190.524 144.691L192.698 143.011L196.055 143.703L198.326 138.565L201.981 135.699C201.1 138.805 200.96 142.074 201.573 145.244C202.186 148.414 203.535 151.395 205.51 153.949C207.486 156.502 210.033 158.556 212.947 159.945C215.861 161.335 219.061 162.021 222.289 161.948C225.516 161.875 228.682 161.046 231.53 159.526C234.379 158.007 236.831 155.84 238.689 153.201C240.548 150.561 241.76 147.522 242.23 144.327C242.7 141.133 242.413 137.874 241.393 134.811H241.389ZM226.278 154.762C224.52 155.346 222.664 155.576 220.816 155.44C218.969 155.304 217.166 154.805 215.512 153.971C213.843 153.137 212.354 151.982 211.133 150.571C209.911 149.161 208.979 147.523 208.392 145.752C207.804 143.981 207.572 142.111 207.709 140.25C207.846 138.389 208.349 136.574 209.189 134.908C209.486 134.316 209.78 133.822 210.078 133.328L206.817 128.982L211.46 125.328C212.646 126.065 214.029 126.422 215.424 126.352C216.818 126.281 218.158 125.786 219.263 124.933C222.226 122.562 222.821 118.216 220.449 115.253C219.308 113.834 217.658 112.916 215.85 112.695C214.042 112.473 212.219 112.966 210.769 114.067C209.693 114.956 208.903 116.142 208.499 117.477C208.095 118.812 208.095 120.237 208.498 121.573L203.855 125.227L200.498 120.978C199.906 121.175 199.312 121.373 198.62 121.57C196.806 121.981 194.929 122.027 193.097 121.705C191.265 121.383 189.516 120.698 187.951 119.692C184.777 117.699 182.508 114.544 181.628 110.901C180.836 107.146 181.431 103.395 183.505 100.232C184.481 98.6509 185.759 97.2787 187.267 96.194C188.774 95.1092 190.482 94.3334 192.29 93.9112C194.099 93.489 195.974 93.4287 197.806 93.7337C199.638 94.0388 201.392 94.7033 202.966 95.6889C204.554 96.6805 205.93 97.9763 207.015 99.5017C208.1 101.027 208.873 102.752 209.289 104.577C209.524 105.516 209.656 106.477 209.683 107.443L216.103 107.246C216.165 104.323 217.129 101.489 218.863 99.135C220.598 96.7806 223.018 95.0204 225.793 94.0957C228.567 93.171 231.56 93.127 234.36 93.9698C237.16 94.8126 239.631 96.5009 241.434 98.8032C243.238 101.106 244.284 103.909 244.432 106.83C244.579 109.751 243.819 112.645 242.256 115.117C240.693 117.589 238.404 119.517 235.703 120.637C233.001 121.757 230.02 122.014 227.167 121.373L225.486 127.596C226.375 127.893 227.263 128.187 228.152 128.584C230.659 129.846 232.737 131.821 234.123 134.261C235.509 136.702 236.142 139.498 235.941 142.298C235.74 145.097 234.715 147.774 232.995 149.992C231.274 152.21 228.936 153.868 226.275 154.759L226.278 154.762Z" stroke="black" stroke-width="1.55575" stroke-linecap="round" stroke-linejoin="round"/>
<path fill-rule="evenodd" clip-rule="evenodd" d="M48.3802 235.858L52.5289 241.096L62.503 233.193L58.4546 227.958L48.3802 235.858Z" fill="#EA9B00" stroke="black" stroke-width="1.55575" stroke-linecap="round" stroke-linejoin="round"/>
<path fill-rule="evenodd" clip-rule="evenodd" d="M66.3578 219.955L62.6033 219.461L62.2092 214.524L54.503 204.743L48.8747 209.189L56.083 218.375L50.6517 222.624L43.44 213.438L37.8116 217.784L45.0199 227.066L39.5886 231.215L32.3769 222.029L26.7485 226.475L34.4512 236.256L39.0942 237.836L38.7001 241.587L40.083 242.378L66.7519 221.438L66.3578 219.955Z" fill="#EA9B00" stroke="black" stroke-width="1.55575" stroke-linecap="round" stroke-linejoin="round"/>
</g>
<defs>
<clipPath id="clip0_447_4536">
<rect width="274.952" height="313.87" fill="white"/>
</clipPath>
</defs>
</svg>
