<svg width="135" height="122" viewBox="0 0 135 122" fill="none" xmlns="http://www.w3.org/2000/svg">
<path d="M0 0L134.798 60.1073L0 120.561V0Z" fill="#191B1E"/>
<path d="M43.236 94.9974L30.8334 100.537L20.8202 73.1848V105.038L6.23735 111.573V8.83618L20.8202 15.3641V44.1013L29.3029 19.1582L42.8895 25.2101L50.9245 76.2648L57.9272 31.9111L89.1794 45.8686V52.3171L71.124 44.26L70.3732 49.0279L89.1794 57.4457V74.3966L64.6194 85.4544L66.8574 71.2733L79.1158 65.7264L64.6194 59.2417L60.1652 87.4091L43.6259 94.8171L33.5839 42.8895L28.6676 56.9552L43.236 94.9974Z" fill="white"/>
<path d="M94.3845 48.1985L121.074 60.093L94.3845 72.0308V48.1985Z" fill="#F4691B"/>
</svg>
