<svg width="20" height="24" viewBox="0 0 20 24" fill="none" xmlns="http://www.w3.org/2000/svg">
<path fill-rule="evenodd" clip-rule="evenodd" d="M12.3713 0.298171C12.3713 0.219091 12.3387 0.14325 12.2807 0.0873324C12.2227 0.0314144 12.144 0 12.062 0H3.40211C2.49981 0 1.63447 0.345558 0.996454 0.960656C0.358435 1.57575 0 2.41 0 3.27988V19.9775C0 20.8474 0.358435 21.6816 0.996454 22.2967C1.63447 22.9118 2.49981 23.2574 3.40211 23.2574H15.7734C16.6757 23.2574 17.541 22.9118 18.1791 22.2967C18.8171 21.6816 19.1755 20.8474 19.1755 19.9775V8.22595C19.1755 8.14687 19.1429 8.07103 19.0849 8.01511C19.0269 7.95919 18.9483 7.92778 18.8662 7.92778H13.2991C13.0531 7.92778 12.8171 7.83353 12.6431 7.66578C12.4691 7.49803 12.3713 7.2705 12.3713 7.03326V0.298171ZM12.1004 13.017C12.2926 12.8686 12.5382 12.8 12.7829 12.8261C13.0277 12.8523 13.2517 12.9711 13.4055 13.1565C13.5594 13.3419 13.6306 13.5786 13.6035 13.8145C13.5763 14.0505 13.4531 14.2664 13.2608 14.4148L10.1754 16.7942C10.0103 16.9245 9.80357 16.9957 9.59023 16.9958H9.58033C9.37084 16.9945 9.168 16.9247 9.00507 16.7978L5.91595 14.4148C5.72368 14.2666 5.60035 14.0508 5.57309 13.815C5.54583 13.5791 5.61687 13.3425 5.77059 13.1571C5.92431 12.9717 6.14811 12.8528 6.39276 12.8266C6.63741 12.8003 6.88287 12.8688 7.07514 13.017L8.65991 14.2407V10.1378C8.65991 10.0204 8.68391 9.90403 8.73054 9.79551C8.77716 9.68698 8.84551 9.58837 8.93167 9.50531C9.01783 9.42224 9.12011 9.35635 9.23268 9.3114C9.34525 9.26645 9.46591 9.24331 9.58775 9.24331C9.7096 9.24331 9.83025 9.26645 9.94283 9.3114C10.0554 9.35635 10.1577 9.42224 10.2438 9.50531C10.33 9.58837 10.3983 9.68698 10.445 9.79551C10.4916 9.90403 10.5156 10.0204 10.5156 10.1378V14.2407L12.1004 13.017Z" fill="white"/>
<path d="M14.227 0.684514C14.227 0.46506 14.4658 0.325516 14.6427 0.462675C14.7924 0.579558 14.9272 0.715524 15.0423 0.870573L18.7697 5.87627C18.8539 5.99077 18.7623 6.13866 18.6163 6.13866H14.5363C14.4542 6.13866 14.3756 6.10725 14.3176 6.05133C14.2596 5.99541 14.227 5.91957 14.227 5.84049V0.684514Z" fill="white"/>
</svg>
