<svg width="180" height="181" viewBox="0 0 180 181" fill="none" xmlns="http://www.w3.org/2000/svg">
<rect y="0.5" width="180" height="180" rx="90" fill="#F4AE3F"/>
<path d="M49.0001 45.6762L78.1081 31.9218V150.647H73.0438V38.932V35.3808L69.8168 36.8633L55.3906 43.4907L54.0644 44.1V45.5595V150.647H49.0001V45.6762Z" fill="#0E5072" stroke="#0E5072" stroke-width="4.55316"/>
<mask id="path-3-inside-1_286_516" fill="white">
<path fill-rule="evenodd" clip-rule="evenodd" d="M85.1893 28.3281V152.924L94.8068 152.924V105.426H99.6156V152.924L133.277 152.924V43.4162L99.6156 32.8613V100.149H94.8068V31.5419L85.1893 28.3281ZM109.223 42.171V149.462H123.649V47.0464L109.223 42.171Z"/>
</mask>
<path fill-rule="evenodd" clip-rule="evenodd" d="M85.1893 28.3281V152.924L94.8068 152.924V105.426H99.6156V152.924L133.277 152.924V43.4162L99.6156 32.8613V100.149H94.8068V31.5419L85.1893 28.3281ZM109.223 42.171V149.462H123.649V47.0464L109.223 42.171Z" fill="#0E5072"/>
<path d="M85.1893 152.924H80.6362V157.477L85.1893 157.477L85.1893 152.924ZM85.1893 28.3281L86.6324 24.0097L80.6362 22.006V28.3281H85.1893ZM94.8068 152.924L94.8068 157.477L99.36 157.477V152.924H94.8068ZM94.8068 105.426V100.873H90.2537V105.426H94.8068ZM99.6156 105.426H104.169V100.873H99.6156V105.426ZM99.6156 152.924H95.0624V157.477L99.6155 157.477L99.6156 152.924ZM133.277 152.924L133.277 157.477L137.83 157.477V152.924H133.277ZM133.277 43.4162H137.83V40.0722L134.639 39.0716L133.277 43.4162ZM99.6156 32.8613L100.978 28.5167L95.0624 26.6618V32.8613H99.6156ZM99.6156 100.149V104.702H104.169V100.149H99.6156ZM94.8068 100.149H90.2537V104.702H94.8068V100.149ZM94.8068 31.5419H99.36V28.2628L96.2499 27.2235L94.8068 31.5419ZM109.223 149.462H104.67V154.015H109.223V149.462ZM109.223 42.171L110.681 37.8575L104.67 35.8261V42.171H109.223ZM123.649 149.462V154.015H128.203V149.462H123.649ZM123.649 47.0464H128.203V43.779L125.107 42.7329L123.649 47.0464ZM89.7425 152.924V28.3281H80.6362V152.924H89.7425ZM94.8069 148.37L85.1894 148.37L85.1893 157.477L94.8068 157.477L94.8069 148.37ZM90.2537 105.426V152.924H99.36V105.426H90.2537ZM99.6156 100.873H94.8068V109.979H99.6156V100.873ZM104.169 152.924V105.426H95.0624V152.924H104.169ZM133.277 148.371L99.6156 148.37L99.6155 157.477L133.277 157.477L133.277 148.371ZM128.724 43.4162V152.924H137.83V43.4162H128.724ZM98.2532 37.2059L131.914 47.7608L134.639 39.0716L100.978 28.5167L98.2532 37.2059ZM104.169 100.149V32.8613H95.0624V100.149H104.169ZM94.8068 104.702H99.6156V95.5958H94.8068V104.702ZM90.2537 31.5419V100.149H99.36V31.5419H90.2537ZM83.7463 32.6466L93.3638 35.8603L96.2499 27.2235L86.6324 24.0097L83.7463 32.6466ZM113.776 149.462V42.171H104.67V149.462H113.776ZM123.649 144.909H109.223V154.015H123.649V144.909ZM119.096 47.0464V149.462H128.203V47.0464H119.096ZM107.765 46.4844L122.192 51.3599L125.107 42.7329L110.681 37.8575L107.765 46.4844Z" fill="#0E5072" mask="url(#path-3-inside-1_286_516)"/>
</svg>
