<svg class="product-icon" width="40" height="60" viewBox="0 0 46 66" xmlns="http://www.w3.org/2000/svg">
<path fill-rule="evenodd" clip-rule="evenodd" d="M22.2114 0.881211C22.704 0.67584 23.2582 0.67584 23.7507 0.881212L44.5347 9.54699C46.1752 10.231 46.1752 12.555 44.5347 13.2389L22.9811 22.2256L1.42738 13.2389C-0.213063 12.555 -0.213064 10.231 1.42738 9.547L22.2114 0.881211ZM22.9811 43.891L44.5347 34.9043C46.1752 34.2203 46.1752 31.8963 44.5347 31.2123L22.9811 22.2256L1.42738 31.2123C-0.213063 31.8963 -0.213064 34.2203 1.42738 34.9043L22.9811 43.891ZM22.9811 43.891L1.42738 52.8777C-0.213063 53.5616 -0.213064 55.8856 1.42738 56.5696L22.2114 65.2354C22.704 65.4408 23.2582 65.4408 23.7507 65.2354L44.5347 56.5696C46.1752 55.8856 46.1752 53.5616 44.5347 52.8777L22.9811 43.891Z" />
</svg>
