<svg width="18" height="17" viewBox="0 0 18 17" fill="none" xmlns="http://www.w3.org/2000/svg">
<path d="M13.663 5.66663C14.8366 5.66663 15.788 4.71523 15.788 3.54163C15.788 2.36802 14.8366 1.41663 13.663 1.41663C12.4894 1.41663 11.538 2.36802 11.538 3.54163C11.538 4.71523 12.4894 5.66663 13.663 5.66663Z" stroke="#0E5072" stroke-width="2"/>
<path d="M13.663 15.5833C14.8366 15.5833 15.788 14.6319 15.788 13.4583C15.788 12.2846 14.8366 11.3333 13.663 11.3333C12.4894 11.3333 11.538 12.2846 11.538 13.4583C11.538 14.6319 12.4894 15.5833 13.663 15.5833Z" stroke="#0E5072" stroke-width="2"/>
<path d="M5.16302 10.625C6.33663 10.625 7.28802 9.6736 7.28802 8.5C7.28802 7.32639 6.33663 6.375 5.16302 6.375C3.98942 6.375 3.03802 7.32639 3.03802 8.5C3.03802 9.6736 3.98942 10.625 5.16302 10.625Z" stroke="#0E5072" stroke-width="2"/>
<path d="M11.827 4.61267L7.00043 7.4283M11.827 12.3873L7.00043 9.57171" stroke="#0E5072" stroke-width="2" stroke-linecap="round" stroke-linejoin="round"/>
</svg>
