<svg width="41" height="41" viewBox="0 0 41 41" fill="none" xmlns="http://www.w3.org/2000/svg">
<path d="M27.3202 14.2077L20.6076 12.0393C20.5266 12.0131 20.4179 12 20.3093 12C20.2006 12 20.092 12.0131 20.011 12.0393L13.2983 14.2077C13.1343 14.2602 13 14.4399 13 14.6047V23.6379C13 23.8027 13.1126 24.0199 13.2489 24.1229L20.0584 29.1525C20.1275 29.2031 20.2164 29.2293 20.3073 29.2293C20.3982 29.2293 20.489 29.2031 20.5562 29.1525L27.3657 24.1229C27.502 24.0218 27.6146 23.8045 27.6146 23.6379V14.6047C27.6185 14.4399 27.4842 14.262 27.3202 14.2077ZM23.9145 17.406L19.7146 22.887C19.6851 22.9253 19.6465 22.9565 19.6018 22.9779C19.5572 22.9994 19.5079 23.0106 19.4578 23.0106C19.4078 23.0106 19.3584 22.9994 19.3138 22.9779C19.2692 22.9565 19.2305 22.9253 19.201 22.887L16.704 19.6288C16.6289 19.5295 16.704 19.3909 16.8324 19.3909H17.9229C18.0236 19.3909 18.1204 19.4378 18.1797 19.5145L19.4578 21.1811L22.4388 17.2899C22.4981 17.2132 22.5929 17.1664 22.6956 17.1664H23.7861C23.9145 17.1682 23.9896 17.3068 23.9145 17.406Z" fill="#F4AE3F"/>
<path fill-rule="evenodd" clip-rule="evenodd" d="M11.25 0H2C0.89543 0 0 0.895431 0 2V11.25H0.759259V2C0.759259 1.31476 1.31476 0.759259 2 0.759259H11.25V0ZM0 29.75V39C0 40.1046 0.895431 41 2 41H11.25V40.2407H2C1.31476 40.2407 0.759259 39.6852 0.759259 39V29.75H0ZM29.75 0V0.759259H39C39.6852 0.759259 40.2407 1.31476 40.2407 2V11.25H41V2C41 0.89543 40.1046 0 39 0H29.75ZM41 29.75H40.2407V39C40.2407 39.6852 39.6852 40.2407 39 40.2407H29.75V41H39C40.1046 41 41 40.1046 41 39V29.75Z" fill="#F4AE3F"/>
</svg>
