<svg width="60" height="66" viewBox="0 0 60 66" fill="none" xmlns="http://www.w3.org/2000/svg">
<path fill-rule="evenodd" clip-rule="evenodd" d="M3.47006 53.0443C2.23539 54.3828 0 53.5092 0 51.6882V35.9223C0 35.4198 0.189195 34.9356 0.529942 34.5662L16.9876 16.7252L31.3827 1.12012C31.7613 0.709663 32.2943 0.476196 32.8527 0.476196H47.3962C49.1394 0.476196 50.0482 2.55097 48.8663 3.83227L26.9803 27.5579L3.47006 53.0443ZM59.9563 30.0261C59.9563 30.5286 59.7671 31.0128 59.4264 31.3821L42.9687 49.2232L28.5736 64.8283C28.195 65.2387 27.662 65.4722 27.1035 65.4722H12.5601C10.8169 65.4722 9.90807 63.3974 11.09 62.1161L32.976 38.3905L56.4862 12.9041C57.7209 11.5656 59.9563 12.4392 59.9563 14.2601V30.0261ZM13.421 0.476196C15.1642 0.476196 16.073 2.55097 14.891 3.83227L3.47006 16.2133C2.23539 17.5517 0 16.6781 0 14.8572V2.4762C0 1.37163 0.895431 0.476196 2 0.476196H13.421ZM59.9563 51.0912C59.9563 49.2702 57.7209 48.3967 56.4862 49.7351L45.0653 62.1161C43.8833 63.3974 44.7921 65.4722 46.5353 65.4722H57.9563C59.0609 65.4722 59.9563 64.5768 59.9563 63.4722V51.0912Z" fill="white"/>
</svg>
