<svg class="product-icon" width="54" height="60" viewBox="0 0 54 60" xmlns="http://www.w3.org/2000/svg">
<path fill-rule="evenodd" clip-rule="evenodd" d="M13.3958 1.20423C13.7744 0.793772 14.3074 0.560303 14.8659 0.560303H25.9796C27.0842 0.560303 27.9796 1.45573 27.9796 2.5603V15.726L20.9847 23.3089L13.9898 30.8918H2C0.895429 30.8918 0 29.9963 0 28.8918V16.5076C0 16.0051 0.189195 15.5209 0.529942 15.1515L6.9949 8.14317L13.3958 1.20423ZM27.9796 30.8918H13.9898L6.9949 38.4746L0.529943 45.483C0.189196 45.8524 0 46.3365 0 46.8391V59.2232C0 60.3278 0.895431 61.2232 2 61.2232H13.1137C13.6722 61.2232 14.2052 60.9897 14.5838 60.5793L20.9847 53.6404L27.9796 46.0575V59.2232C27.9796 60.3278 28.875 61.2232 29.9796 61.2232H41.0933C41.6518 61.2232 42.1848 60.9897 42.5634 60.5793L48.9643 53.6404L55.4293 46.632C55.77 46.2626 55.9592 45.7785 55.9592 45.2759V32.8918C55.9592 31.7872 55.0638 30.8918 53.9592 30.8918H41.9694L48.9643 23.3089L55.4293 16.3005C55.77 15.9311 55.9592 15.447 55.9592 14.9444V2.5603C55.9592 1.45573 55.0638 0.560303 53.9592 0.560303H42.8455C42.287 0.560303 41.754 0.793771 41.3754 1.20423L34.9745 8.14317L27.9796 15.726V30.8918ZM27.9796 30.8918H41.9694L34.9745 38.4746L27.9796 46.0575V30.8918Z" />
</svg>
