<svg width="16" height="12" viewBox="0 0 16 12" fill="none" xmlns="http://www.w3.org/2000/svg">
<path d="M13.8747 2.40777L8.14125 6.62743L2.40777 2.40777M1.73131 1.01097C1.53735 1.01097 1.35134 1.08802 1.2142 1.22517C1.07705 1.36231 1 1.54832 1 1.74228L1 10.0097C1 10.2037 1.07705 10.3897 1.2142 10.5269C1.35134 10.664 1.53735 10.7411 1.73131 10.7411L14.5512 10.7411C14.7451 10.7411 14.9311 10.664 15.0683 10.5269C15.2054 10.3897 15.2825 10.2037 15.2825 10.0097L15.2825 1.73131C15.2825 1.53735 15.2054 1.35134 15.0683 1.2142C14.9311 1.07705 14.7451 1 14.5512 1L1.73131 1L1.73131 1.01097Z" stroke="black" stroke-width="0.7" stroke-linecap="round" stroke-linejoin="round"/>
</svg>
