<svg width="16" height="16" viewBox="0 0 16 16" fill="none" xmlns="http://www.w3.org/2000/svg">
<path d="M6.95175 3.95075L4.59797 1.23378C4.32662 0.920687 3.82915 0.922079 3.51397 1.23796L1.57834 3.17706C1.00225 3.75385 0.837352 4.61034 1.17062 5.29706C3.16164 9.41946 6.48631 12.7488 10.6059 14.7456C11.2919 15.0788 12.1477 14.9139 12.7238 14.3372L14.6775 12.38C14.9941 12.0634 14.9948 11.5631 14.6789 11.2918L11.9515 8.95053C11.6663 8.70562 11.2231 8.73763 10.9371 9.02428L9.98808 9.9747C9.93949 10.0256 9.87554 10.0592 9.80603 10.0702C9.73652 10.0813 9.66531 10.0693 9.60332 10.0359C8.05207 9.14263 6.76528 7.85416 5.87401 6.30175C5.84063 6.23965 5.82854 6.16832 5.8396 6.09869C5.85066 6.02907 5.88426 5.96499 5.93524 5.91629L6.88148 4.96935C7.16813 4.68131 7.19944 4.23671 6.95175 3.95075Z" stroke="black" stroke-width="0.7" stroke-linecap="round" stroke-linejoin="round"/>
</svg>
