<svg width="118" height="78" viewBox="0 0 118 78" fill="none" xmlns="http://www.w3.org/2000/svg">
<path d="M106.391 77.6097L109.551 59.9945H114.499L117.598 77.6097H113.724L113.187 74.3608H110.624L110.117 77.6097H106.391ZM110.683 72.6321H113.157L111.935 63.0645L110.683 72.6321Z" fill="#0E5072"/>
<path d="M94.6858 77.6097V59.9945H98.1433V67.6546H99.2759L102.256 59.9945H105.982L102.405 68.4593L106.072 77.6097H102.316L99.4249 69.9496H98.1433V77.6097H94.6858Z" fill="#0E5072"/>
<path d="M82.46 77.6097V59.9945H85.5001V70.6947L89.1662 59.9945H92.2064V77.6097H89.1364V67.6248L85.5001 77.6097H82.46Z" fill="#0E5072"/>
<path d="M74.73 77.6097V62.4386H71.9879V59.9945H80.9296V62.4386H78.1875V77.6097H74.73Z" fill="#0E5072"/>
<path d="M60.2864 77.6097L63.4458 59.9945H68.3935L71.4933 77.6097H67.6186L67.0821 74.3608H64.5188L64.0121 77.6097H60.2864ZM64.5784 72.6321H67.0523L65.8302 63.0645L64.5784 72.6321Z" fill="#0E5072"/>
<path d="M45.3202 77.6097V59.9945H49.642L52.0563 71.3803L54.5003 59.9945H58.7924V77.6097H55.7522V64.4356L53.2187 77.6097H50.864L48.3604 64.4356V77.6097H45.3202Z" fill="#0E5072"/>
<path d="M35.7439 77.6097V59.9945H43.8808V62.4386H39.3504V77.6097H35.7439Z" fill="#0E5072"/>
<path d="M23.0585 77.6097L26.2179 59.9945H31.1656L34.2654 77.6097H30.3907L29.8542 74.3608H27.2909L26.7842 77.6097H23.0585ZM27.3505 72.6321H29.8244L28.6023 63.0645L27.3505 72.6321Z" fill="#0E5072"/>
<path d="M12.3702 77.6097L12.3702 59.9945H18.6294C19.8018 59.9945 20.686 60.2628 21.2821 60.7993C21.8981 61.3159 22.2061 62.0412 22.2061 62.9751V66.0153C22.2061 66.8101 22.1068 67.5552 21.9081 68.2507C21.7094 68.9263 21.3517 69.4727 20.8351 69.89C20.3184 70.3073 19.5733 70.5159 18.5996 70.5159H15.9767L15.9767 77.6097H12.3702ZM15.9767 68.6083H17.318C17.7949 68.6083 18.1525 68.3798 18.391 67.9228C18.6294 67.4658 18.7487 66.7107 18.7487 65.6576V64.4654C18.7487 63.5314 18.6493 62.8658 18.4506 62.4684C18.2519 62.071 17.9638 61.8723 17.5862 61.8723H15.9767L15.9767 68.6083Z" fill="#0E5072"/>
<path d="M0 77.6097L0 59.9945H9.86568L9.86568 77.6097H6.25919L6.25919 62.4386H3.60649L3.60649 77.6097H0Z" fill="#0E5072"/>
<path d="M107.139 55.4902L109.695 37.5101H118L117.635 40.0048H113.011L110.82 55.4902H107.139Z" fill="#25282A"/>
<path d="M99.7324 55.8569C98.7385 55.8569 97.8664 55.7352 97.116 55.4918C96.3858 55.2687 95.8585 54.7921 95.534 54.0619C95.2094 53.3115 95.1486 52.196 95.3514 50.7154L95.8078 47.4905H93.3131L92.1874 55.4918H88.6583L91.1834 37.5117H94.7125L93.7086 44.8741H96.1728L96.6596 41.3146C96.8219 40.2599 97.1565 39.4385 97.6636 38.8503C98.1706 38.2419 98.8298 37.8261 99.6411 37.603C100.452 37.3596 101.365 37.2379 102.379 37.2379C103.393 37.2379 104.245 37.3596 104.935 37.603C105.645 37.8464 106.162 38.2622 106.486 38.8503C106.831 39.4385 106.922 40.2599 106.76 41.3146L105.452 50.7154C105.249 52.196 104.894 53.3115 104.387 54.0619C103.88 54.7921 103.231 55.2687 102.44 55.4918C101.669 55.7352 100.767 55.8569 99.7324 55.8569ZM100.037 53.7881C100.321 53.7881 100.574 53.7475 100.797 53.6664C101.02 53.565 101.213 53.3926 101.375 53.1492C101.537 52.9058 101.649 52.5509 101.71 52.0844L103.261 41.1321C103.322 40.6453 103.302 40.2802 103.201 40.0368C103.119 39.7935 102.977 39.6312 102.775 39.5501C102.572 39.4689 102.328 39.4284 102.045 39.4284C101.781 39.4284 101.527 39.4689 101.284 39.5501C101.061 39.6312 100.868 39.7935 100.706 40.0368C100.564 40.2802 100.452 40.6453 100.371 41.1321L98.8501 52.0844C98.7892 52.5509 98.7994 52.9058 98.8805 53.1492C98.9616 53.3926 99.1036 53.565 99.3064 53.6664C99.5092 53.7475 99.7526 53.7881 100.037 53.7881Z" fill="#25282A"/>
<path d="M77.8397 29.1178V37.9401L68.6677 32.4369L67.4958 31.7337V33.1004V35.1692V35.6073L67.8715 35.8327L77.8397 41.8136V42.0776L68.6677 36.5744L67.4958 35.8713V37.2379V39.3067V39.7448L67.8715 39.9702L77.8397 45.9511V46.2152L68.6677 40.712L67.4958 40.0088V41.3755V43.4443V43.8824L67.8715 44.1078L77.8397 50.0887V50.3527L68.6677 44.8495L67.4958 44.1464V45.513V47.1839V47.6079L67.8532 47.8361L77.8397 54.2121V55.0833H66.9746V22.1078L77.8397 29.1178Z" fill="#25282A" stroke="#25282A" stroke-width="1.54757"/>
<path d="M61.2894 53.7892V54.563H62.0632H65.4269V55.0842H57.665L57.665 10.7201L64.7322 15.2236V23.7965L61.583 26.2884L61.2894 26.5207V26.8952L61.2894 53.7892Z" fill="#25282A" stroke="#25282A" stroke-width="1.54757"/>
<path fill-rule="evenodd" clip-rule="evenodd" d="M34.1348 55.8569H37.2379L37.2379 0L26.894 6.66695L26.894 55.8569H29.9972L29.9972 7.60436L34.1348 4.78005L34.1348 55.8569Z" fill="#0E5072"/>
<path d="M24.8253 16.5488L24.8253 55.8327L18.619 55.8555L18.619 10.3439L24.8253 16.5488Z" fill="#25282A"/>
<path d="M17.5846 13.447L17.5846 55.8555L14.4814 55.8422L14.4814 16.5502L14.4814 15.5158L17.5846 13.447Z" fill="#25282A"/>
<path d="M13.447 16.1461L13.447 55.8555L11.3382 55.8451L11.3382 17.4714L13.447 16.1461Z" fill="#25282A"/>
<path d="M10.3439 18.1503L10.3439 55.846L5.1479 55.8508L5.1479 33.0382V31.4354L5.1479 25.5583L3.60033 24.4897L3.60033 22.4818L10.3439 18.1503Z" fill="#25282A"/>
<path d="M4.13755 26.8941L3.89467 55.8519L0 55.8555L0 29.577L4.13755 26.8941Z" fill="#25282A"/>
<path fill-rule="evenodd" clip-rule="evenodd" d="M39.3066 0L39.3066 55.8569H42.4098V34.4743H44.4786V55.8569H54.8224L54.8224 10.0301L44.4786 3.33706L44.4786 32.1145L42.4098 32.066L42.4098 1.98796L39.3066 0ZM47.5817 7.65764L47.5817 53.7881H51.7193L51.7193 10.3439L47.5817 7.65764Z" fill="#0E5072"/>
</svg>
