<svg width="7" height="7" viewBox="0 0 7 7" fill="none" xmlns="http://www.w3.org/2000/svg">
<circle cx="3.30356" cy="3.30356" r="3.26515" stroke="black" stroke-width="0.0768281"/>
<path d="M3.81787 1.63437L3.81787 5.20311" stroke="black" stroke-width="0.297399"/>
<path d="M2.74756 1.63437L2.74756 5.20311" stroke="black" stroke-width="0.297399"/>
<path d="M4.78695 3.34254L4.78437 3.40196L4.78695 3.34254ZM4.16288 3.39354C4.1387 3.3713 4.13713 3.33368 4.15936 3.3095L4.52171 2.91545C4.54394 2.89127 4.58157 2.8897 4.60575 2.91193C4.62993 2.93417 4.63151 2.97179 4.60927 2.99597L4.28719 3.34623L4.63745 3.66832C4.66163 3.69056 4.66321 3.72818 4.64097 3.75236C4.61873 3.77654 4.58111 3.77812 4.55693 3.75589L4.16288 3.39354ZM5.05811 3.34184C5.06046 3.40127 5.06046 3.40127 5.06046 3.40127C5.06045 3.40127 5.06045 3.40127 5.06045 3.40127C5.06044 3.40127 5.06043 3.40127 5.06042 3.40127C5.0604 3.40127 5.06036 3.40127 5.06032 3.40127C5.06024 3.40128 5.06012 3.40128 5.05996 3.40129C5.05965 3.4013 5.0592 3.40132 5.05862 3.40134C5.05744 3.40138 5.05572 3.40145 5.0535 3.40152C5.04906 3.40168 5.04262 3.4019 5.03452 3.40214C5.01833 3.40262 4.99549 3.40321 4.96883 3.40363C4.91571 3.40447 4.84657 3.40466 4.78437 3.40196L4.78953 3.28311C4.84829 3.28566 4.91474 3.28551 4.96695 3.28468C4.99296 3.28427 5.01523 3.2837 5.03098 3.28323C5.03885 3.283 5.04508 3.28279 5.04933 3.28264C5.05145 3.28256 5.05308 3.2825 5.05416 3.28246C5.0547 3.28244 5.05511 3.28243 5.05538 3.28242C5.05551 3.28241 5.05561 3.28241 5.05567 3.28241C5.0557 3.2824 5.05572 3.2824 5.05574 3.2824C5.05574 3.2824 5.05575 3.2824 5.05575 3.2824C5.05575 3.2824 5.05575 3.2824 5.05575 3.2824C5.05575 3.2824 5.05575 3.2824 5.05811 3.34184ZM4.78437 3.40196C4.68556 3.39767 4.5414 3.39942 4.42071 3.40232C4.36063 3.40376 4.30682 3.40548 4.26803 3.40684C4.24864 3.40752 4.23302 3.4081 4.22225 3.40852C4.21687 3.40873 4.2127 3.4089 4.20988 3.40901C4.20848 3.40907 4.20741 3.40911 4.20669 3.40914C4.20634 3.40916 4.20607 3.40917 4.20589 3.40917C4.2058 3.40918 4.20574 3.40918 4.20569 3.40918C4.20567 3.40918 4.20566 3.40918 4.20565 3.40918C4.20564 3.40918 4.20564 3.40918 4.20564 3.40918C4.20563 3.40918 4.20563 3.40918 4.20314 3.34976C4.20065 3.29033 4.20066 3.29033 4.20066 3.29033C4.20066 3.29033 4.20067 3.29033 4.20068 3.29033C4.20069 3.29033 4.20071 3.29033 4.20073 3.29033C4.20078 3.29032 4.20086 3.29032 4.20095 3.29032C4.20114 3.29031 4.20143 3.2903 4.2018 3.29028C4.20254 3.29025 4.20364 3.29021 4.20508 3.29015C4.20795 3.29003 4.21219 3.28986 4.21764 3.28965C4.22854 3.28923 4.24432 3.28864 4.26387 3.28795C4.30298 3.28658 4.35724 3.28485 4.41785 3.28339C4.53857 3.28049 4.68631 3.27863 4.78953 3.28311L4.78437 3.40196Z" fill="black"/>
<path d="M1.64029 3.34686L1.64288 3.28743L1.64029 3.34686ZM2.26436 3.29585C2.28854 3.31809 2.29012 3.35572 2.26788 3.3799L1.90554 3.77394C1.8833 3.79812 1.84567 3.7997 1.82149 3.77746C1.79731 3.75523 1.79574 3.7176 1.81797 3.69342L2.14006 3.34316L1.7898 3.02107C1.76562 2.99884 1.76404 2.96121 1.78628 2.93703C1.80851 2.91285 1.84614 2.91127 1.87032 2.93351L2.26436 3.29585ZM1.36914 3.34756C1.36678 3.28812 1.36679 3.28812 1.36679 3.28812C1.36679 3.28812 1.3668 3.28812 1.3668 3.28812C1.36681 3.28812 1.36682 3.28812 1.36683 3.28812C1.36685 3.28812 1.36688 3.28812 1.36693 3.28812C1.36701 3.28811 1.36713 3.28811 1.36728 3.2881C1.36759 3.28809 1.36804 3.28807 1.36863 3.28805C1.3698 3.28801 1.37152 3.28795 1.37374 3.28787C1.37818 3.28771 1.38463 3.2875 1.39273 3.28725C1.40892 3.28677 1.43176 3.28618 1.45842 3.28576C1.51154 3.28492 1.58067 3.28473 1.64288 3.28743L1.63771 3.40628C1.57895 3.40373 1.51251 3.40388 1.4603 3.40471C1.43429 3.40512 1.41202 3.40569 1.39627 3.40616C1.3884 3.4064 1.38217 3.4066 1.37792 3.40675C1.3758 3.40683 1.37417 3.40689 1.37308 3.40693C1.37254 3.40695 1.37213 3.40696 1.37187 3.40697C1.37173 3.40698 1.37164 3.40698 1.37157 3.40699C1.37154 3.40699 1.37152 3.40699 1.37151 3.40699C1.3715 3.40699 1.3715 3.40699 1.3715 3.40699C1.37149 3.40699 1.3715 3.40699 1.37149 3.40699C1.3715 3.40699 1.3715 3.40699 1.36914 3.34756ZM1.64288 3.28743C1.74169 3.29173 1.88585 3.28998 2.00653 3.28707C2.06661 3.28563 2.12042 3.28391 2.15921 3.28255C2.1786 3.28188 2.19423 3.28129 2.205 3.28087C2.21038 3.28066 2.21455 3.2805 2.21736 3.28038C2.21877 3.28032 2.21984 3.28028 2.22055 3.28025C2.22091 3.28024 2.22118 3.28023 2.22136 3.28022C2.22144 3.28021 2.22151 3.28021 2.22155 3.28021C2.22157 3.28021 2.22159 3.28021 2.2216 3.28021C2.2216 3.28021 2.22161 3.28021 2.22161 3.28021C2.22161 3.28021 2.22161 3.28021 2.2241 3.33964C2.22659 3.39906 2.22659 3.39906 2.22659 3.39906C2.22658 3.39906 2.22658 3.39906 2.22657 3.39906C2.22656 3.39906 2.22654 3.39907 2.22651 3.39907C2.22646 3.39907 2.22639 3.39907 2.22629 3.39908C2.2261 3.39908 2.22582 3.39909 2.22545 3.39911C2.2247 3.39914 2.22361 3.39919 2.22217 3.39924C2.21929 3.39936 2.21506 3.39953 2.20961 3.39974C2.19871 3.40016 2.18293 3.40076 2.16337 3.40144C2.12427 3.40281 2.07001 3.40454 2.00939 3.406C1.88868 3.4089 1.74094 3.41076 1.63771 3.40628L1.64288 3.28743Z" fill="black"/>
</svg>
