<svg width="662" height="700" viewBox="0 0 662 700" fill="none" xmlns="http://www.w3.org/2000/svg">
<path d="M220.228 690.347L165.793 610.296L122.566 589.482L82.5394 543.053L10.4943 382.95L13.6951 267.677L90.5453 120.383L165.793 51.5383L242.641 21.1205L340.304 11.5135L404.345 16.317L458.78 32.3272L508.412 67.5499L572.453 120.383L612.477 182.822L633.291 229.252L646.099 296.495L642.897 363.738L620.483 445.39L596.467 495.022L572.453 547.856L550.038 568.668L522.821 592.684L495.604 605.494L485.997 618.301L471.588 639.114L453.977 672.735L389.936 642.316L327.496 639.114L263.455 650.32L220.228 690.347Z" fill="white"/>
<path d="M282.336 610.229C276.251 650.51 207.859 632.885 195.166 672.749C190.236 663.622 179.116 651.979 177.018 642.117C174.606 598.795 288.525 569.843 282.336 610.229Z" fill="url(#paint0_linear_447_7404)"/>
<path d="M250.238 561.241C224.852 554.211 118.065 552.01 115.443 595.333C108.415 589.039 98.1344 582.535 94.5679 574.039C102.435 521.378 226.636 547.919 259.049 559.667C256.95 559.667 252.334 560.611 250.238 561.241Z" fill="url(#paint1_linear_447_7404)"/>
<path d="M392.217 605.741C391.063 567.453 495.228 594.622 482.953 642.141C479.388 649.169 472.568 660.392 469.107 667.42C461.554 628.295 393.371 643.925 392.217 605.741Z" fill="url(#paint2_linear_447_7404)"/>
<path d="M539.074 598.503C539.074 570.179 520.507 563.99 493.235 558.956C465.856 555.388 436.483 549.199 409.734 556.858C406.064 556.858 403.756 557.173 403.756 555.285L414.454 550.669C439.525 541.857 558.9 520.983 562.047 567.243C560.579 578.992 546.627 589.796 539.074 598.503Z" fill="url(#paint3_linear_447_7404)"/>
<path fill-rule="evenodd" clip-rule="evenodd" d="M308.157 415.645C340.069 409.686 375.528 417.02 407.508 442.6L401.301 443.437H401.303L301.031 456.995L296.71 454.897L294.227 457.916L262.059 462.264L258.177 456.892L252.278 461.422L250.423 463.837L227.408 466.949C246.55 441.226 276.244 421.604 308.157 415.645Z" fill="#FFF200"/>
<path fill-rule="evenodd" clip-rule="evenodd" d="M581.274 540.607C577.311 534.651 573.541 532.127 567.352 527.998C574.536 520.814 575.425 506.37 575.425 497.118C611.255 471.598 578.122 453.1 572.002 470.378C564.849 460.903 566.352 445.178 578.599 441.698C572.967 430.871 581.284 419.29 595.345 420.306C587.615 430.749 598.409 442.062 609.499 437.894C620.591 433.727 617.607 404.462 611.969 394.125C619.691 385.699 627.443 377.494 624.634 362.75C623.23 358.539 623.605 352.988 615.559 351.775C607.514 350.561 600.472 357.12 603.216 365.343C587.669 359.941 591.369 344.656 597.413 336.933C590.433 330.445 594.672 309.9 605.586 313.366C605.586 331.786 622.591 333.744 627.122 316.969C627.122 301.522 620.032 295.644 610.244 285.13C614.456 277.407 619.918 267.257 617.81 256.728C615.82 243.283 591.213 238.21 594.777 260.01C584.558 262.29 576.533 248.261 581.487 236.947C578.225 238.491 566.368 217.685 582.642 209.932C580.862 222.389 596.19 223.234 601.808 211.997C606.022 204.275 602.473 196.392 597.557 190.777C591.942 183.052 582.961 178.511 574.537 174.299C576.644 158.852 577.463 144.05 566.231 137.032C548.017 131.52 539.766 148.518 555.896 157.736C555.197 159.842 546.824 164.556 544.016 163.854C535.592 162.45 528.047 149.579 526.383 144.253C524.783 139.13 498.448 134.385 510.581 114.267C519.269 119.865 527.349 120.806 529.748 107.077C532.148 93.3473 509.854 90.7482 498.94 89.536C495.429 77.2847 489.33 64.656 475.294 60.1512C466.867 59.4475 463.066 64.219 459.555 69.834C457.517 80.0281 462.365 80.8411 469.385 84.3494C458.385 100.925 444.527 84.2445 441.037 79.5197C431.413 80.0369 414.719 81.622 417.201 61.8617C432.114 66.7395 440.35 48.2132 426.267 40.6736C415.034 35.0571 403.698 41.7357 393.167 44.5446C384.039 34.7147 373.494 23.642 355.242 27.8555C341.493 33.992 345.352 54.1662 360.278 51.1736C359.295 64.3865 343.519 65.9032 333.12 58.1698C325.909 65.3802 304.608 65.7531 305.974 50.6316C318.24 50.6914 323.004 31.983 311.567 30.0278C300.13 28.074 286.189 37.9855 280.396 47.9159C271.269 43.0017 259.061 38.3877 246.424 40.4915C240.807 42.5982 234.623 48.2539 236.566 57.2607C238.511 66.2674 246.224 61.8384 251.134 61.8879C253.334 77.2906 239.55 79.7295 228.154 78.9559C223.308 95.2837 206.772 92.6481 201.397 84.5068C209.534 83.1504 215.47 76.9991 211.594 69.2424C208.784 64.3282 206.804 62.3716 201.187 62.3716C186.525 63.4949 178.668 77.9739 176.892 90.4525C162.848 88.3458 144.335 88.2088 136.612 98.7395C125.123 110.481 142.89 126.571 155.43 112.69C167.391 133.063 148.25 134.819 139.68 137.642C138.477 150.933 129.021 167.265 115 153.714C129.067 142.265 111.394 127.342 100.486 137.899C89.5779 148.457 91.5214 161.137 91.4471 171.668C81.2632 174.479 69.4824 179.467 63.8456 187.149C56.7154 203.796 74.8687 219.357 84.4539 200.177C96.8378 205.767 84.9594 228.514 78.6538 228.546C82.3136 237.264 81.6915 257.628 64.1719 254.343C71.4318 235.267 46.7864 224.104 40.9776 244.67C36.7671 256.605 40.3074 268.867 45.9239 277.292C35.2752 287.072 24.1792 299.928 28.7846 316.403C30.8898 318.509 35.4398 321.522 38.2473 322.926C47.9752 325.164 50.7769 311.992 51.6554 305.418C71.9053 315.086 56.4997 331.461 59.2344 335.899C65.4875 343.195 66.2116 362.176 54.3071 365.152C53.6077 360.237 52.8312 352.199 45.1765 351.122C37.5218 350.045 28.7627 356.049 31.7917 367.652C34.8206 379.252 36.8443 379.067 45.5728 386.987C43.01 395.532 37.1444 403.386 39.3152 417.497C44.2295 422.411 44.9667 428.661 55.4974 425.852C59.9614 423.756 64.306 421.329 61.9035 409.516C67.52 408.814 74.656 416.391 76.7613 420.604C79.5688 426.221 76.9565 429.945 84.247 437.157C88.459 440.666 91.2956 445.975 91.2956 452.294C91.2956 455.102 89.6099 460.948 88.9077 463.055C83.7327 460.505 76.5267 453.393 67.7647 462.778C59.0027 472.164 76.3082 493.512 91.4661 493.761C89.3593 504.293 93.1284 517.189 95.9388 527.019C90.5671 530.241 79.799 533.399 77.6209 539.934C47.8937 498.104 27.9162 473.493 10.9852 403.427C-10.6589 313.865 10.0776 226.061 55.5717 153.019C117.437 53.6883 237.638 -7.78542 362.598 4.07399C550.191 23.8154 677.117 183.712 654.961 370.093C647.693 425.22 620.853 498.673 581.274 540.607Z" fill="#FBBD09"/>
<path fill-rule="evenodd" clip-rule="evenodd" d="M563.753 93.8488C657.128 184.416 688.018 334.656 636.766 455.409C624.128 486.299 607.28 513.679 586.218 540.358C584.815 541.061 584.112 543.868 582.709 543.868C582.006 541.76 581.305 540.358 580.601 538.252C582.709 536.145 584.815 533.336 586.92 531.232C621.322 486.299 645.191 433.644 653.617 369.758C665.55 269.365 633.257 188.626 584.112 124.739C546.902 76.2985 494.25 44.0028 436.68 22.2392C413.512 14.516 388.941 8.89953 362.261 6.09202C329.266 3.28306 291.355 5.38975 261.869 12.4107C185.343 30.6631 122.158 71.3828 75.823 130.358C66.6953 143.695 56.1646 156.332 48.4429 170.374C14.0419 231.454 -7.72173 319.211 13.3396 402.754C21.7636 444.877 40.016 481.385 61.7826 515.084C66.6953 522.805 73.014 529.826 78.6305 538.252C76.8312 540.052 76.5413 542.448 75.1208 543.868C74.5249 540.058 57.6449 520.202 54.7616 515.084C21.7636 461.728 0 401.35 0 334.656C0 228.645 50.5482 132.463 122.158 74.8927C182.536 24.3445 268.187 -6.54537 360.857 1.17782C439.489 8.19731 507.587 41.1953 563.753 93.8488Z" fill="#E08517"/>
<path fill-rule="evenodd" clip-rule="evenodd" d="M569.75 527.631C568.344 526.932 566.972 526.961 565.566 526.258C571.307 514.784 570.969 508.019 572.177 494.723C579.899 490.513 591.117 486.209 590.125 473.662C589.136 461.116 575.2 463.258 573.807 474.88C568.332 472.678 558.537 452.022 574.763 440.563C572.155 424.853 588.251 412.701 598.988 419.085C593.24 423.816 593.977 437.715 607.467 435.933C620.955 434.148 615.575 401.037 608.168 392.696C613.333 387.205 625.54 381.957 621.322 360.63C618.438 346.061 600.099 354.113 606.087 367.007C589.028 365.899 585.971 343.736 594.908 338.21C584.191 318.346 602.047 305.856 609.638 309.711C604.811 325.588 618.697 330.88 623.856 319.364C629.016 307.849 615.394 291.305 606.578 286.213C611.186 278.155 618.949 264.42 614.192 254.78C609.435 245.139 591.723 245.329 599.107 262.215C582.769 264.369 576.159 248.702 578.271 238.847C569.234 229.148 569.587 209.953 585.332 205.189C582.447 216.03 596.742 223.39 600.79 208.062C604.834 192.735 578.601 178.329 571.475 176.693C570.945 171.088 576.989 142.574 563.692 138.461C550.395 134.347 544.366 151.438 560.243 155.073C553.295 176.4 524.438 163.554 524.438 145.472C500.783 142.515 499.776 112.665 512.503 107.891C512.503 119.74 528.662 118.723 528.81 105.509C528.956 92.2958 504.315 91.6722 495.653 94.5511C495.03 80.3417 488.229 67.8703 475.211 64.1318C462.195 60.3963 453.729 80.2076 473.52 81.3076C467.341 96.7554 451.377 96.4248 440.23 82.9059C425.935 83.6722 410.094 75.6431 416.893 57.3659C425.428 65.8161 436.789 55.6846 431.104 46.9357C425.419 38.1883 400.95 42.9918 392.49 48.6374C386.755 39.2431 367.12 26.2022 356.093 31.1018C345.067 36 350.091 54.5146 361.077 46.3646C368.09 62.6545 349.279 69.7994 333.464 61.4162C324.112 67.2847 299.833 66.4076 303.841 45.6974C318.131 53.1816 323.319 28.2958 303.304 31.8157C295.174 33.245 288.273 42.495 281.252 52.3234C273.734 48.0036 251.623 35.0079 240.698 48.0882C234.802 55.1455 242.681 66.2808 252.211 57.0395C259.956 69.9319 246.361 84.3905 230.003 81.787C226.634 94.7507 203.248 99.6256 198.38 82.3158C216.868 80.8458 210.806 63.8171 200.06 65.0759C189.313 66.3362 179.884 81.0308 178.627 94.5628C168.797 91.7888 156.477 92.6192 146.223 95.1032C135.971 97.5859 132.623 109.929 139.355 114.367C146.089 118.805 152.063 112.882 154.165 108.007C160.345 110.647 162.908 120.436 161.212 127.549C159.492 134.773 150.406 138.091 143.221 139.484C142.518 146.505 138.461 156.143 132.592 159.546C126.724 162.95 117.676 161.809 111.971 153.906C117.979 150.461 121.82 139.377 113.457 137.217C105.094 135.058 101.019 139.277 97.8765 145.526C94.7339 151.775 91.5739 165.447 94.7776 174.449C87.5542 174.063 70.731 180.434 67.1018 188.175C63.4726 195.917 65.9596 204.739 72.8304 206.51C79.7028 208.281 81.7192 199.084 82.42 194.872C96.5332 202.437 94.5737 217.466 82.1402 229.346C85.6718 241.446 80.3278 262.145 60.7496 256.728C63.5775 250.887 65.2282 237.186 54.8665 237.109C44.5063 237.03 43.3262 247.198 42.8264 254.621C42.3267 262.044 46.5926 274.188 50.6297 278.582C38.1103 284.851 21.8933 310.34 36.8851 318.662C47.8412 324.743 51.9891 307.377 45.6339 303.766C52.3096 302.196 59.249 304.661 63.0195 311.422C66.7915 318.183 62.9306 329.641 61.1634 333.929C62.7791 337.726 66.8672 345.372 66.3952 351.88C65.9231 358.389 60.8268 366.72 52.228 369.054C54.2182 360.002 46.2313 349.699 37.8598 355.384C29.4868 361.067 36.0269 378.307 51.2504 385.203C45.2683 393.585 39.3823 407.038 43.5942 416.021C50.5962 430.958 69.1182 421.731 55.4638 406.264C61.0789 404.861 69.5422 406.827 75.297 411.699C81.0519 416.571 82.2903 422.757 82.2903 431.883C93.6791 440.715 99.2956 453.517 87.9097 469.215C86.0535 459.738 68.9463 452.156 67.9512 470.811C70.6684 488.482 92.904 489.707 96.1836 491.247C91.2679 501.778 95.3313 514.829 98.1388 525.361C96.5682 526.932 94.9787 526.754 93.3746 527.019C90.5657 517.189 87.7567 505.255 89.8649 494.723C77.7243 493.732 60.0459 485.97 62.9481 466.37C64.7634 454.103 82.0557 448.592 88.0976 461.157C92.8443 447.698 86.361 440.722 76.7001 435.435C78.3741 428.168 77.3367 414.662 64.1253 411.416C70.7893 430.937 43.8419 436.223 37.9734 414.662C35.5986 405.935 42.4141 388.819 44.9317 387.308C35.4646 382.446 24.3671 367.197 31.965 355.302C39.5629 343.406 55.1288 347.212 56.0291 361.956C68.3329 352.294 57.4598 337.395 56.2695 334.417C57.3681 331.189 67.0581 313.284 52.5966 307.831C53.8423 313.71 50.4651 322.511 44.7073 323.822C34.4476 326.159 25.4016 318.774 26.535 305.784C27.4937 294.843 35.5228 283.835 44.2163 277.431C38.9291 268.678 37.0235 258.642 38.5256 248.704C40.0291 238.765 46.3012 232.866 54.2007 232.607C62.0987 232.345 70.1264 238.525 66.1592 253.676C80.8377 252.542 80.3467 235.085 76.3868 227.516C80.0379 226.785 93.8802 211.717 84.786 201.835C83.179 207.542 79.6955 212.176 71.1652 210.789C62.6363 209.401 57.862 195.056 63.3866 186.269C68.9099 177.483 78.2298 173.31 89.5749 170.234C87.4609 159.704 90.6123 148.497 94.6247 141.461C98.6371 134.427 108.12 130.073 117.063 134.375C126.007 138.677 121.518 151.242 117.517 154.387C121.157 157.877 126.329 158.714 131.243 155.216C136.156 151.717 138.43 143.433 139.131 135.711C144.195 134.808 154.022 133.198 156.451 127.319C158.878 121.439 156.697 115.624 155.43 114.209C150.728 122.629 135.634 121.59 132.69 114.209C129.744 106.829 132.158 99.3983 137.849 94.4578C143.541 89.5188 160.192 86.9925 175.516 89.2143C177.419 78.3063 186.321 61.7236 201.187 60.8523C216.055 59.984 220.847 82.9947 203.736 85.2879C214.494 96.1377 226.118 83.8601 227.604 77.1597C235.9 80.4043 251.892 73.7942 250.994 62.5788C239.672 69.741 233.472 58.2182 234.368 52.15C235.264 46.0819 239.977 41.5378 248.348 38.6953C256.718 35.8543 270.869 41.5174 280.121 46.8118C285.037 38.3879 293.471 29.1087 301.608 27.5775C327.506 22.6997 324.283 54.6239 307.077 51.0457C307.772 62.7769 326.52 62.0426 333.257 56.2367C343.264 62.3019 357.81 62.7317 358.196 52.6279C342.07 55.3669 340.623 29.6201 355.759 26.0608C370.499 22.5933 384.727 32.212 393.853 42.0405C404.142 37.6959 426.419 33.5232 434.194 43.646C441.97 53.7702 433.215 69.3827 419.186 63.3786C417.201 73.5757 432.324 80.4335 442.149 77.8445C446.453 84.6251 457.15 94.6487 468.088 84.1632C449.62 81.159 457.995 56.6782 473.996 59.219C489.999 61.7614 496.354 74.8927 499.865 88.2324C508.869 87.7691 529.788 87.8565 532.903 102.8C536.018 117.744 520.445 126.51 510.766 115.57C503.269 133.225 522.771 142.915 529.351 141.09C525.411 152.227 543.35 169.386 554.044 157.737C536.65 146.878 550.09 127.893 565.858 133.868C577.091 140.887 578.496 157.737 576.391 173.183C596.369 183.116 607.809 197.477 604.404 208.649C598.749 227.208 582.832 223.098 581.711 211.422C572.231 219.159 576.774 233.67 583.41 235.665C580.266 245.214 583.665 257.363 593.942 258.453C590.355 238.738 614.29 241.209 618.553 253.192C622.816 265.174 617.456 274.944 613.599 284.81C623.986 295.437 631.719 307.361 628.728 320.142C625.737 332.925 602.856 335.571 604.473 314.297C593.345 316.328 593.826 331.632 600.934 338.051C593.501 343.296 590.247 355.063 601.094 361.433C600.318 346.497 621.264 342.873 624.813 358.54C628.364 374.206 624.488 386.43 614.816 393.485C620.76 404.95 624.309 432.82 610.961 439.073C597.611 445.324 585.612 430.031 593.121 421.425C581.242 422.066 577.547 432.661 579.529 443.186C573.657 445.107 565.129 453.061 572.071 467.256C578.886 454.222 593.766 460.509 594.643 472.96C595.522 485.412 586.218 493.32 577.091 498.234C576.618 506.36 575.251 520.037 569.75 527.631Z" fill="#E08517"/>
<path fill-rule="evenodd" clip-rule="evenodd" d="M242.21 203.372C240.105 204.775 238 208.987 234.489 207.583C231.681 194.947 225.362 183.714 226.065 170.374C228.17 165.46 230.275 173.183 231.681 175.287C235.892 184.416 235.191 195.649 242.21 203.372ZM292.059 196.351C287.142 197.754 289.951 194.245 290.653 191.436C296.27 185.819 292.758 194.245 292.059 196.351ZM279.422 199.861C275.911 200.562 275.911 205.478 273.103 206.18C272.399 204.775 273.802 203.372 271.697 203.372C271.697 202.669 272.399 201.966 272.399 201.264C275.208 200.562 276.611 198.457 279.422 197.754C280.121 198.457 279.422 199.159 279.422 199.861ZM294.867 200.562C294.163 202.669 290.653 201.264 288.546 201.264C287.844 200.562 285.739 200.562 287.142 199.159C289.951 199.159 293.461 199.159 294.867 200.562ZM289.951 204.775C289.951 206.18 287.142 205.478 286.44 206.882C287.844 208.987 291.355 208.987 289.951 213.199C289.951 214.604 285.037 213.199 287.142 216.01C286.44 216.711 282.229 218.115 285.037 219.518C285.037 221.625 281.526 218.115 279.422 218.115C277.314 218.115 275.911 214.604 276.611 212.499C278.016 209.691 278.718 215.306 281.526 213.199C281.526 209.691 281.526 205.478 284.334 202.669C286.44 201.966 288.546 204.073 289.951 204.775ZM400.172 281.301C398.341 281.301 397.133 280.757 395.599 279.682C397.891 279.682 398.973 281.301 400.172 281.301ZM401.577 282.003C403.683 281.301 405.79 282.003 405.79 283.406C403.683 282.702 401.577 283.406 401.577 282.003ZM341.902 291.833C346.116 298.851 354.54 299.553 356.645 307.978C353.836 310.085 348.923 312.19 347.517 316.404C350.326 317.106 351.732 313.595 354.54 314.297H358.752C366.473 319.914 367.177 330.444 376.303 334.656C376.303 343.784 385.429 347.292 385.429 356.418C386.834 359.928 388.237 362.737 388.237 365.545C382.622 369.758 383.324 359.226 379.111 357.823C374.196 355.015 367.879 352.206 362.962 350.1C365.771 335.36 351.732 334.656 346.116 323.425C343.305 320.613 342.604 315.7 338.391 313.595C337.689 313.595 338.391 312.894 338.391 312.894C341.902 312.894 345.413 311.488 348.923 310.786C347.517 307.276 343.305 305.872 340.498 303.064C336.986 300.957 334.179 308.679 329.968 303.766C328.564 304.469 328.564 305.169 327.159 305.872C325.756 304.469 324.352 301.658 323.651 299.553C323.651 290.427 334.881 292.532 338.391 286.916C341.902 286.213 339.797 290.427 341.902 291.833ZM378.408 299.553C379.111 303.766 375.599 298.851 374.897 299.553C373.494 298.851 373.494 296.746 370.687 296.746C368.579 295.34 365.771 293.234 363.666 291.129C369.281 289.021 376.303 293.937 378.408 299.553Z" fill="#FFFFFA"/>
<path fill-rule="evenodd" clip-rule="evenodd" d="M537.778 217.411L539.881 221.624L474.381 313.124L473.212 309.99L537.778 217.411ZM470.685 306.317L468.738 302.784L533.102 208.034L535.272 213.104L470.685 306.317ZM544.255 230.618L477.736 319.521L476.332 316.714L542.386 225.919L544.255 230.618ZM539.176 264.456L473.412 349.395L472.498 344.933L537.55 259.749L539.176 264.456ZM543.865 278.957L476.222 360.419L475.769 356.173L541.532 274.254L543.865 278.957ZM547.138 293.95L472.012 379.586L469.676 376.076L545.74 289.007L547.138 293.95Z" fill="#FFF200"/>
<path fill-rule="evenodd" clip-rule="evenodd" d="M303.993 301.658C304.695 305.871 298.376 300.255 299.779 305.169C297.674 305.169 296.972 303.766 296.972 302.362C296.972 300.255 299.779 300.255 301.185 299.553C302.588 298.85 303.993 300.957 303.993 301.658ZM442.296 331.146C441.593 332.551 440.892 332.551 440.19 332.551C439.489 333.251 438.785 333.251 438.785 333.954C438.083 333.954 437.384 334.656 436.68 334.656C437.384 334.656 437.384 333.954 438.083 333.251C438.785 333.251 439.489 332.551 440.19 332.551C441.593 331.146 441.593 331.146 442.296 331.146ZM435.274 335.36C434.575 336.761 433.871 336.761 433.871 336.761V335.36C434.575 335.36 435.274 334.656 435.274 335.36ZM433.17 336.761C432.468 338.166 431.764 338.166 431.065 337.465C432.468 336.761 432.468 336.761 433.17 336.761ZM272.399 352.206C275.208 355.015 274.506 359.226 274.506 362.737C269.592 367.653 275.208 374.671 273.103 380.288C268.187 386.607 266.783 393.627 266.081 401.35C265.378 402.052 264.676 404.861 262.571 404.157C260.466 399.945 261.869 394.329 260.466 390.118C256.954 391.52 258.357 397.138 255.55 399.245C254.147 394.329 249.933 387.308 243.615 383.8C240.105 382.395 234.489 380.989 233.083 376.779H233.786C238 378.182 242.21 379.586 247.126 380.989C249.933 380.288 257.658 389.416 254.846 380.989C252.742 369.054 241.509 365.544 232.383 361.334C230.275 359.928 227.468 357.823 226.765 355.015C233.786 358.525 243.615 358.525 250.636 363.439C253.445 359.928 248.529 356.418 248.529 352.907C247.126 350.802 245.721 350.099 244.317 347.993C243.615 347.993 242.912 347.993 242.21 347.292C242.21 347.292 241.509 345.889 242.21 345.889C243.615 345.188 243.615 347.292 245.018 347.292C245.721 347.993 247.126 348.696 247.828 349.396C261.869 351.505 258.357 368.352 264.676 377.481C268.187 371.162 270.995 364.844 268.187 357.12C264.676 351.505 262.571 344.484 259.763 338.869C265.378 342.379 266.783 348.696 272.399 352.206ZM460.549 368.352C459.848 370.46 459.146 372.565 457.741 373.971H457.039C457.039 371.863 456.338 369.758 456.338 366.949C457.741 367.652 460.549 366.248 460.549 368.352ZM454.23 378.884C453.529 380.989 453.529 382.395 452.827 384.5C452.126 386.607 450.019 387.308 447.913 387.308C448.615 384.5 452.126 382.395 453.529 378.884H454.23Z" fill="#FFFFFA"/>
<path fill-rule="evenodd" clip-rule="evenodd" d="M313.119 262.345C309.609 264.45 308.906 270.068 303.289 270.768C301.885 271.471 301.185 274.982 299.077 273.576C298.376 270.068 301.185 270.068 301.185 267.257C304.695 267.257 305.396 263.747 306.8 260.939C308.203 260.939 315.224 257.43 313.119 262.345ZM426.851 329.742C420.533 330.444 418.427 337.465 412.109 338.166C408.599 340.975 401.577 339.569 397.365 339.569V337.465C404.385 338.87 409.298 336.062 413.512 333.954C416.321 329.742 421.235 327.635 426.851 327.635C427.554 329.041 426.149 328.338 426.851 329.742Z" fill="#FBBD0B"/>
<path fill-rule="evenodd" clip-rule="evenodd" d="M316.468 87.4801L319.344 227.943H314.429L311.079 88.2319L316.468 87.4801ZM328.801 87.8721L328.561 238.957L324.348 239.174L323.651 87.4365L328.801 87.8721ZM343.076 88.905L337.928 238.511L333.719 238.711L337.689 88.2319L343.076 88.905ZM356.177 91.0409L346.576 238.009L343.066 237.765L351.732 89.6379L356.177 91.0409ZM233.552 114.675L248.529 181.605L245.018 182.307L228.872 116.314L233.552 114.675ZM437.383 117.016L411.876 215.298L407.656 215.786L432.463 114.911L437.383 117.016ZM286.734 115.803L291.795 173.647L287.342 174.587L281.116 116.314L286.734 115.803ZM379.111 117.72L364.84 235.665L360.624 235.452L374.196 117.72H379.111ZM271.994 117.72L279.484 175.99L274.557 176.921L266.375 118.421L271.994 117.72ZM224.66 132.463L221.149 133.165L216.935 119.123L221.383 117.94L224.66 132.463ZM377.706 226.538L372.785 227.241L387.535 119.123L392.45 119.825L377.706 226.538ZM422.409 212.95L418.473 213.391L443.468 118.638L448.184 121.845L422.409 212.95ZM405.083 124.199L387.535 220.922L383.784 221.653L400.399 123.791L405.083 124.199ZM214.346 131.835L211.32 134.568L207.344 124.496L211.162 122.208L214.346 131.835ZM256.959 123.567L266.081 177.395L261.165 179.5L251.57 124.738L256.959 123.567ZM458.92 129.374L432.254 211.801L428.728 211.583L454.466 126.121L458.92 129.374ZM202.18 127.955L206.183 140.176L202.679 142.335L197.739 131.067L202.18 127.955ZM468.039 135.98L441.593 213.199L438.785 212.498L463.358 133.867L468.039 135.98ZM205.002 204.058L202.902 209.239L186.738 169.221L190.647 166.297L205.002 204.058ZM481.858 175.029L462.657 216.71L459.14 214.39L476.697 172.479L481.858 175.029ZM179.622 176.399L208.194 242.94L205.598 246.606L175.411 179.911L179.622 176.399ZM492.151 182.774L474.592 219.517L470.609 217.663L488.171 179.264L492.151 182.774ZM502.673 190.032L485.353 223.729L482.547 221.624L498.459 187.924L502.673 190.032ZM225.368 307.755L221.851 310.777L164.282 192.137L167.8 186.734L225.368 307.755ZM209.912 314.977L205.7 315.679L138.618 205.302L142.061 199.86L209.912 314.977ZM530.053 204.072L497.76 251.812L496.099 248.331L526.543 201.263L530.053 204.072ZM134.555 210.148L200.79 317.806L197.28 319.913L131.055 215.075L134.555 210.148ZM193.067 323.424L189.552 325.758L123.79 229.333L126.623 223.715L193.067 323.424ZM120.75 236.59L185.343 329.041L181.835 331.847L118.186 242.229L120.75 236.59ZM240.577 300.649L237.3 302.067L231.93 286.156L235.481 283.912L240.577 300.649ZM225.824 283.563L233.563 303.945L229.813 305.602L220.447 285.019L225.824 283.563ZM123.087 288.073L169.198 341.677L165.928 344.255L121.457 293.936L123.087 288.073ZM162.873 349.62L160.303 353.61L117.7 308.679L118.874 303.049L162.873 349.62ZM565.822 311.348L468.731 401.349L465.926 398.527L564.291 305.673L565.822 311.348ZM568.36 322.709L473.632 405.342L471.062 402.793L567.267 316.858L568.36 322.709ZM157.963 358.525L156.337 362.744L115.13 323.412L115.367 317.082L157.963 358.525ZM570.05 334.254L478.326 409.552L475.736 407.011L569.252 328.282L570.05 334.254ZM571.484 345.47L482.991 413.544L480.408 410.751L570.934 339.581L571.484 345.47ZM98.7318 338.583L199.393 422.884L198.221 427.338L97.8081 345.162L98.7318 338.583ZM200.321 435.743L198.683 439.963L96.1836 361.333V354.999L200.321 435.743ZM97.0694 375.077L201.252 445.337L199.388 449.8L98.2889 381.212L97.0694 375.077ZM339.093 387.331L337.689 401.76L334.881 401.045L335.583 387.006L339.093 387.331ZM326.677 386.817L326.778 401.288L324.209 401.345L323.651 386.85L326.677 386.817ZM345.193 388.974L343.305 402.605L340.597 402.241L341.902 388.035L345.193 388.974ZM301.854 387.998L304.729 403.318L301.091 404.272L297.362 388.62L301.854 387.998ZM315.202 387.207L316.448 402.026L313.217 402.034L311.515 387.525L315.202 387.207ZM308.288 387.44L310.585 402.359L307.195 402.933L304.997 388.01L308.288 387.44ZM320.905 387.086L321.847 401.387L319.04 401.481L317.636 387.016L320.905 387.086ZM294.244 389.499L298.585 405.155L294.485 406.198L289.846 390.118L294.244 389.499ZM351.972 391.808L349.602 403.771L346.091 402.946L348.221 390.118L351.972 391.808ZM382.727 413.33L392.453 389.951L396.148 391.635L386.454 415.196L382.727 413.33ZM389.069 388.297L379.513 412.74L375.862 411.144L385.915 386.699L389.069 388.297ZM389.751 416.828L399.993 393.686L403.527 396.39L392.612 418.403L389.751 416.828ZM292.157 407.161L288.657 408.372L282.541 393.626L286.255 391.754L292.157 407.161ZM358.194 394.929L355.755 404.795L352.264 403.987L354.583 393.335L358.194 394.929ZM536.372 397.838L499.383 425.234L496.56 422.683L534.451 394.018L536.372 397.838ZM101.058 393.599L199.618 453.767L197.981 458.216L102.502 400.647L101.058 393.599ZM363.908 399.096L361.549 406.213L358.872 405.39L360.879 396.193L363.908 399.096ZM369.182 402.241L367.439 408.009L364.734 406.637L366.059 400.477L369.182 402.241ZM409.807 401.855L398.769 422.22L395.864 420.427L406.998 399.046L409.807 401.855ZM374.196 406.264L372.914 410.324L369.984 409.143L371.389 404.157L374.196 406.264ZM539.422 406.264L504.651 429.1L502.111 426.522L537.757 401.993L539.422 406.264ZM282.652 411.024L285.649 409.457L280.206 395.472L276.814 397.749L282.652 411.024ZM416.63 408.799L405.056 425.679L402.188 423.82L413.8 405.559L416.63 408.799ZM271.945 408.299L275.584 414.468L273.607 415.754L269.802 410.353L271.945 408.299ZM422.565 415.218L411.262 429.821L408.452 427.717L419.999 412.046L422.565 415.218ZM535.403 417.932L509.429 432.675L507.287 430.535L533.127 414.823L535.403 417.932ZM426.752 422.074L417.243 433.671L414.916 431.537L424.427 419.239L426.752 422.074ZM431.548 426.601L420.994 437.639L419.127 435.751L429.516 424.49L431.548 426.601ZM174.511 465.736L172.89 469.149L136.395 452.298L134.607 445.987L174.511 465.736ZM171.795 473.462L170.605 476.467L141.854 464.942L138.923 459.026L171.795 473.462ZM169.093 480.784L168.396 483.491L146.835 476.569L144.307 470.962L169.093 480.784Z" fill="#FFF200"/>
<path fill-rule="evenodd" clip-rule="evenodd" d="M328.82 401.152L329.161 387.017L332.777 387.027L332.075 401.456L328.82 401.152ZM280.127 411.493L277.423 413.193L272.644 403.623L275.91 402.052L280.127 411.493Z" fill="#FFF200"/>
<path fill-rule="evenodd" clip-rule="evenodd" d="M431.528 614.56L437.375 616.709L434.987 624.102L438.785 625.499L444.336 608.304L440.538 606.908L438.451 613.368L432.606 611.221L434.69 604.762L430.891 603.367L425.342 620.558L429.142 621.954L431.528 614.56ZM414.316 611.132L417.96 604.911L418.633 612.197L414.316 611.132ZM416.969 599.79L406.916 615.973L411.047 616.993L412.808 613.935L418.835 615.417L419.182 618.996L423.337 620.018L420.932 600.764L416.969 599.79ZM399.378 599.613L397.228 614.084L401.199 614.754L403.344 600.284L408.42 601.142L408.935 597.654L394.799 595.263L394.282 598.752L399.378 599.613ZM387.363 605.655C387.154 606.493 386.822 607.162 386.33 607.682C385.591 608.461 384.654 608.775 383.467 608.641C382.067 608.483 381.056 607.768 380.447 606.499C379.899 605.367 379.717 603.987 379.881 602.31C380.034 600.759 380.38 599.491 380.916 598.508C381.749 597.006 382.939 596.357 384.538 596.536C385.406 596.66 386.094 596.893 386.593 597.29C387.366 597.899 387.739 598.828 387.763 600.084L391.685 600.524C391.869 598.664 391.435 597.1 390.389 595.783C389.149 594.207 387.258 593.289 384.689 593.002C381.687 592.69 379.425 593.507 377.864 595.474C376.576 597.08 375.827 599.242 375.557 601.98C375.244 605.393 375.894 607.975 377.534 609.725C378.822 611.071 380.627 611.878 382.951 612.139C385.74 612.424 387.858 611.796 389.334 610.237C390.341 609.203 390.989 607.836 391.331 606.101L387.363 605.655ZM363.519 606.803C362.302 606.733 361.373 606.292 360.708 605.475C359.833 604.411 359.452 602.752 359.562 600.493C359.696 598.315 360.159 596.781 360.985 595.84C361.759 594.973 362.802 594.589 364.116 594.661C365.33 594.756 366.261 595.174 366.928 595.964C367.825 597.027 368.207 598.69 368.095 600.97C367.952 603.409 367.333 605.09 366.191 606.015C365.48 606.598 364.587 606.863 363.519 606.803ZM363.345 610.335C366.313 610.476 368.573 609.633 370.153 607.771C371.549 606.13 372.288 603.964 372.423 601.213C372.536 598.438 372.01 596.197 370.808 594.44C369.371 592.381 367.206 591.296 364.288 591.133C361.103 590.956 358.738 591.966 357.142 594.169C355.964 595.792 355.331 597.813 355.21 600.25C355.114 602.691 355.548 604.77 356.56 606.518C357.955 608.885 360.208 610.159 363.345 610.335ZM343.901 594.207L343.662 608.855L347.679 608.931L347.921 594.281L353.055 594.377L353.112 590.846L338.799 590.578L338.741 594.111L343.901 594.207ZM326.333 594.256L329.473 594.2L329.813 594.192C330.521 594.205 331.058 594.297 331.425 594.501C332.065 594.851 332.367 595.522 332.384 596.51C332.372 597.444 332.141 598.097 331.637 598.497C331.154 598.872 330.477 599.038 329.552 599.057L326.414 599.114L326.333 594.256ZM322.258 590.801L322.556 608.98L326.572 608.904L326.47 602.647L330.29 602.575C332.483 602.51 334.103 601.982 335.158 600.95C336.236 599.892 336.748 598.377 336.715 596.401C336.689 594.845 336.329 593.63 335.633 592.705C334.562 591.271 332.75 590.604 330.194 590.652L322.258 590.801ZM310.211 606.849C308.996 606.942 308.024 606.623 307.268 605.896C306.279 604.955 305.712 603.356 305.565 601.102C305.447 598.926 305.734 597.341 306.445 596.298C307.114 595.336 308.104 594.819 309.418 594.721C310.634 594.656 311.602 594.948 312.357 595.648C313.37 596.586 313.939 598.187 314.089 600.464C314.223 602.902 313.799 604.654 312.772 605.721C312.133 606.394 311.277 606.77 310.211 606.849ZM310.443 610.377C313.403 610.131 315.549 609.003 316.907 606.949C318.105 605.14 318.591 602.892 318.411 600.144C318.207 597.374 317.427 595.218 316.033 593.63C314.373 591.775 312.101 590.981 309.187 591.197C306.005 591.436 303.771 592.748 302.44 595.138C301.458 596.902 301.056 598.991 301.217 601.427C301.399 603.86 302.068 605.865 303.272 607.471C304.928 609.639 307.31 610.61 310.443 610.377ZM285.692 612.439L289.68 611.916L288.715 603.094L295.722 611.126L300.604 610.485L292.299 601.628L298.14 592.489L293.449 593.104L288.477 601.448L287.604 593.87L280.428 594.81L280.829 598.315L284.02 597.899L285.692 612.439ZM260.635 613.703L258.014 599.322L254.048 600.145L257.3 617.994L279.62 613.365L276.367 595.515L272.402 596.337L275.023 610.721L269.81 611.801L267.189 597.419L263.224 598.243L265.845 612.624L260.635 613.703ZM243.194 616.01L243.434 608.676L247.43 614.627L243.194 616.01ZM240.175 604.77L239.055 624.148L243.109 622.825L243.201 619.237L249.116 617.309L251.096 620.22L255.17 618.893L244.063 603.502L240.175 604.77ZM225.174 622.167L228.246 620.778C229.195 620.375 229.936 620.238 230.492 620.379C231.084 620.535 231.496 620.972 231.78 621.687C232.042 622.416 231.997 623.029 231.62 623.538C231.272 624.004 230.671 624.421 229.775 624.826L226.774 626.185L225.174 622.167ZM222.703 615.95L231.194 612.104L229.901 608.85L217.711 614.374L224.369 631.114L231.856 627.721C233.3 627.039 234.416 626.251 235.179 625.311C236.415 623.764 236.616 622.008 235.808 619.976C235.157 618.408 234.282 617.339 233.135 616.785C231.662 616.07 229.841 616.217 227.669 617.202L223.882 618.918L222.703 615.95Z" fill="#231F20"/>
<path d="M431.528 614.56L437.375 616.709L434.987 624.102L438.785 625.499L444.336 608.304L440.538 606.908L438.451 613.368L432.606 611.221L434.69 604.762L430.891 603.367L425.342 620.558L429.142 621.954L431.528 614.56ZM414.316 611.132L417.96 604.911L418.633 612.197L414.316 611.132ZM416.969 599.79L406.916 615.973L411.047 616.993L412.808 613.935L418.835 615.417L419.182 618.996L423.337 620.018L420.932 600.764L416.969 599.79ZM399.378 599.613L397.228 614.084L401.199 614.754L403.344 600.284L408.42 601.142L408.935 597.654L394.799 595.263L394.282 598.752L399.378 599.613ZM387.363 605.655C387.154 606.493 386.822 607.162 386.33 607.682C385.591 608.461 384.654 608.775 383.467 608.641C382.067 608.483 381.056 607.768 380.447 606.499C379.899 605.367 379.717 603.987 379.881 602.31C380.034 600.759 380.38 599.491 380.916 598.508C381.749 597.006 382.939 596.357 384.538 596.536C385.406 596.66 386.094 596.893 386.593 597.29C387.366 597.899 387.739 598.828 387.763 600.084L391.685 600.524C391.869 598.664 391.435 597.1 390.389 595.783C389.149 594.207 387.258 593.289 384.689 593.002C381.687 592.69 379.425 593.507 377.864 595.474C376.576 597.08 375.827 599.242 375.557 601.98C375.244 605.393 375.894 607.975 377.534 609.725C378.822 611.071 380.627 611.878 382.951 612.139C385.74 612.424 387.858 611.796 389.334 610.237C390.341 609.203 390.989 607.836 391.331 606.101L387.363 605.655ZM363.519 606.803C362.302 606.733 361.373 606.292 360.708 605.475C359.833 604.411 359.452 602.752 359.562 600.493C359.696 598.315 360.159 596.781 360.985 595.84C361.759 594.973 362.802 594.589 364.116 594.661C365.33 594.756 366.261 595.174 366.928 595.964C367.825 597.027 368.207 598.69 368.095 600.97C367.952 603.409 367.333 605.09 366.191 606.015C365.48 606.598 364.587 606.863 363.519 606.803ZM363.345 610.335C366.313 610.476 368.573 609.633 370.153 607.771C371.549 606.13 372.288 603.964 372.423 601.213C372.536 598.438 372.01 596.197 370.808 594.44C369.371 592.381 367.206 591.296 364.288 591.133C361.103 590.956 358.738 591.966 357.142 594.169C355.964 595.792 355.331 597.813 355.21 600.25C355.114 602.691 355.548 604.77 356.56 606.518C357.955 608.885 360.208 610.159 363.345 610.335ZM343.901 594.207L343.662 608.855L347.679 608.931L347.921 594.281L353.055 594.377L353.112 590.846L338.799 590.578L338.741 594.111L343.901 594.207ZM326.333 594.256L329.473 594.2L329.813 594.192C330.521 594.205 331.058 594.297 331.425 594.501C332.065 594.851 332.367 595.522 332.384 596.51C332.372 597.444 332.141 598.097 331.637 598.497C331.154 598.872 330.477 599.038 329.552 599.057L326.414 599.114L326.333 594.256ZM322.258 590.801L322.556 608.98L326.572 608.904L326.47 602.647L330.29 602.575C332.483 602.51 334.103 601.982 335.158 600.95C336.236 599.892 336.748 598.377 336.715 596.401C336.689 594.845 336.329 593.63 335.633 592.705C334.562 591.271 332.75 590.604 330.194 590.652L322.258 590.801ZM310.211 606.849C308.996 606.942 308.024 606.623 307.268 605.896C306.279 604.955 305.712 603.356 305.565 601.102C305.447 598.926 305.734 597.341 306.445 596.298C307.114 595.336 308.104 594.819 309.418 594.721C310.634 594.656 311.602 594.948 312.357 595.648C313.37 596.586 313.939 598.187 314.089 600.464C314.223 602.902 313.799 604.654 312.772 605.721C312.133 606.394 311.277 606.77 310.211 606.849ZM310.443 610.377C313.403 610.131 315.549 609.003 316.907 606.949C318.105 605.14 318.591 602.892 318.411 600.144C318.207 597.374 317.427 595.218 316.033 593.63C314.373 591.775 312.101 590.981 309.187 591.197C306.005 591.436 303.771 592.748 302.44 595.138C301.458 596.902 301.056 598.991 301.217 601.427C301.399 603.86 302.068 605.865 303.272 607.471C304.928 609.639 307.31 610.61 310.443 610.377ZM285.692 612.439L289.68 611.916L288.715 603.094L295.722 611.126L300.604 610.485L292.299 601.628L298.14 592.489L293.449 593.104L288.477 601.448L287.604 593.87L280.428 594.81L280.829 598.315L284.02 597.899L285.692 612.439ZM260.635 613.703L258.014 599.322L254.048 600.145L257.3 617.994L279.62 613.365L276.367 595.515L272.402 596.337L275.023 610.721L269.81 611.801L267.189 597.419L263.224 598.243L265.845 612.624L260.635 613.703ZM243.194 616.01L243.434 608.676L247.43 614.627L243.194 616.01ZM240.175 604.77L239.055 624.148L243.109 622.825L243.201 619.237L249.116 617.309L251.096 620.22L255.17 618.893L244.063 603.502L240.175 604.77ZM225.174 622.167L228.246 620.778C229.195 620.375 229.936 620.238 230.492 620.379C231.084 620.535 231.496 620.972 231.78 621.687C232.042 622.416 231.997 623.029 231.62 623.538C231.272 624.004 230.671 624.421 229.775 624.826L226.774 626.185L225.174 622.167ZM222.703 615.95L231.194 612.104L229.901 608.85L217.711 614.374L224.369 631.114L231.856 627.721C233.3 627.039 234.416 626.251 235.179 625.311C236.415 623.764 236.616 622.008 235.808 619.976C235.157 618.408 234.282 617.339 233.135 616.785C231.662 616.07 229.841 616.217 227.669 617.202L223.882 618.918L222.703 615.95Z" stroke="white" stroke-width="0.145693" stroke-miterlimit="2.613"/>
<path fill-rule="evenodd" clip-rule="evenodd" d="M582.709 549.915C568.898 569.57 555.443 585.99 538.478 600.735C538.478 599.629 539.459 597.628 539.985 596.571C544.198 591.657 549.009 586.693 553.221 581.779C557.434 577.567 559.54 572.654 560.243 567.035C555.466 518.403 416.95 547.952 404.386 555.804C407.082 557.151 414.718 557.909 417.724 557.909C447.913 563.527 473.888 572.654 493.547 591.609C498.459 597.928 499.865 606.352 499.163 616.182C493.547 626.712 487.932 637.944 482.312 648.477C478.804 654.795 473.524 663.921 468.611 670.24C469.312 667.432 469.426 665.717 470.128 663.611C473.638 656.59 478.102 649.178 481.613 642.159C497.252 589.434 353.47 579.157 328.3 579.672C299.402 580.264 178.349 596.402 180.943 643.234C183.05 653.064 190.575 659.352 195.488 668.478C195.488 670.583 195.658 672.316 195.658 674.422C184.503 659.838 166.55 636.092 161.71 610.016C161.419 584.509 225.952 562.89 258.357 559.313C246.424 553.698 231.681 550.889 216.935 548.783C189.851 543.498 103.674 532.147 96.1836 573.354C96.6149 577.991 108.82 587.397 115.839 593.716C116.541 595.12 116.541 597.225 117.245 598.628C100.755 586.265 87.7392 570.622 75.1208 554.398C68.0969 528.429 102.945 520.648 124.266 522.805C174.11 527.019 220.447 538.252 263.974 557.909C306.098 547.38 352.778 548.783 396.304 555.101C437.854 530.728 593.38 494.32 582.709 549.915Z" fill="#1082CF"/>
<path fill-rule="evenodd" clip-rule="evenodd" d="M471.688 665.77C466.417 676.21 460.936 685.727 450.72 692.706C436.441 658.376 382.632 645.495 332.431 645.399C282.229 645.304 202.567 673.476 218.341 699.725C210.175 699.725 197.168 678.99 194.851 673.43C194.532 635.032 298.69 617.03 331.538 617.081C364.385 617.132 456.089 624.55 471.688 665.77Z" fill="#00A870"/>
<path fill-rule="evenodd" clip-rule="evenodd" d="M396.936 653.645C416.106 654.218 463.321 674.771 451.833 690.996C440.344 707.222 402.745 658.948 396.936 653.645ZM216.59 699.621C196.142 680.23 253.606 657.942 265.587 656.879C253.366 673.178 238.778 703.733 216.59 699.621Z" fill="#6B5F52"/>
<path fill-rule="evenodd" clip-rule="evenodd" d="M252.024 560.225C249.78 560.55 248.574 561.114 246.424 561.42C239.401 562.122 231.681 562.824 224.66 563.527C197.981 567.035 174.11 572.654 155.156 585.991C150.243 590.907 144.624 595.819 146.03 604.246C149.539 610.565 156.047 610.126 162.365 612.935C158.855 613.636 157.261 614.075 153.75 614.075C140.413 612.67 125.668 608.457 117.245 598.628C116.541 597.225 116.541 595.12 115.839 593.716C114.436 585.991 119.35 579.672 124.967 575.46C155.392 553.195 216.753 551.402 252.024 560.225Z" fill="#00A870"/>
<path fill-rule="evenodd" clip-rule="evenodd" d="M248.715 561.018C219.909 566.11 156.305 587.709 162.318 612.933C157.007 611.935 145.569 609.397 145.543 602.47C143.955 571.761 223.867 561.618 248.715 561.018Z" fill="#6B5F52"/>
<path fill-rule="evenodd" clip-rule="evenodd" d="M538.478 600.735C530.253 613.065 513.512 616.935 499.163 616.181C499.865 606.352 498.459 597.928 493.547 591.609C473.888 572.654 448.021 564.357 417.834 558.739C414.555 558.319 409.869 557.445 407.059 556.743C433.62 549.862 564.719 551.137 538.478 600.735Z" fill="#00A870"/>
<path fill-rule="evenodd" clip-rule="evenodd" d="M416.682 558.64C432.034 563.008 454.838 566.208 473.359 577.496C486.875 585.735 500.166 589.912 499.118 615.667C504.095 615.667 514.097 613.447 516.237 606.989C525.518 574.83 438.891 558.949 416.682 558.64Z" fill="#6B5F52"/>
<path fill-rule="evenodd" clip-rule="evenodd" d="M334.514 526.647L346.978 505.062C347.568 505.2 348.189 505.266 348.82 505.266C353.297 505.266 356.955 501.607 356.955 497.13C356.955 492.651 353.297 488.995 348.82 488.995C346.663 489 344.597 489.858 343.072 491.383C341.548 492.908 340.689 494.974 340.684 497.13C340.684 498.98 341.305 500.694 342.354 502.066L329.82 523.777V499.197C332.951 498.063 335.206 495.06 335.206 491.547C335.206 487.069 331.548 483.412 327.069 483.412C322.592 483.412 318.934 487.069 318.934 491.547C318.934 495.058 321.187 498.061 324.317 499.197V524.382L311.601 502.355C313.087 500.837 313.919 498.798 313.919 496.674C313.914 494.518 313.055 492.452 311.531 490.927C310.006 489.402 307.939 488.544 305.783 488.539C301.306 488.539 297.648 492.195 297.648 496.674C297.648 501.151 301.306 504.81 305.783 504.81C306.072 504.81 306.359 504.795 306.639 504.767L319.344 526.771L298.369 514.66C298.531 514.019 298.614 513.346 298.614 512.654C298.614 508.177 294.955 504.518 290.478 504.518C286 504.518 282.343 508.177 282.343 512.654C282.348 514.81 283.207 516.876 284.731 518.401C286.256 519.925 288.322 520.784 290.478 520.789C292.263 520.789 293.925 520.211 295.272 519.227L316.088 531.246H292.795C292.276 529.589 291.242 528.141 289.844 527.112C288.446 526.083 286.757 525.526 285.021 525.523C280.543 525.523 276.885 529.181 276.885 533.658C276.885 538.135 280.543 541.794 285.021 541.794C288.405 541.794 291.322 539.702 292.546 536.748H324.317V544.451H329.82V536.748H361.906C363.13 539.702 366.048 541.794 369.431 541.794C373.908 541.794 377.566 538.135 377.566 533.658C377.566 529.181 373.908 525.523 369.431 525.523C367.695 525.526 366.005 526.082 364.607 527.111C363.21 528.141 362.176 529.589 361.658 531.246H337.556L359.175 518.764C360.568 519.784 362.251 520.334 363.977 520.332C368.456 520.332 372.113 516.675 372.113 512.198C372.108 510.041 371.25 507.975 369.725 506.45C368.2 504.925 366.134 504.067 363.977 504.062C359.5 504.062 355.842 507.718 355.842 512.198C355.842 512.882 355.924 513.554 356.085 514.194L334.514 526.647Z" fill="#00A870"/>
<path fill-rule="evenodd" clip-rule="evenodd" d="M258.283 216.419C258.918 211.939 262.226 206.603 265.378 204.073C269.592 201.966 268.187 195.649 273.103 193.542C278.718 192.137 282.229 190.734 286.44 187.924C289.249 186.521 294.867 184.416 297.674 187.924C297.674 191.435 293.461 196.351 296.972 199.158C296.27 203.372 296.27 206.179 292.059 206.882C290.653 208.987 294.163 216.71 289.249 216.71C283.632 223.729 292.059 226.538 296.27 230.048C304.695 232.857 306.098 241.283 310.312 247.601C319.438 250.409 327.862 254.621 337.689 251.812C340.498 253.218 344.71 253.218 345.413 256.728C347.517 259.536 347.517 262.344 346.116 265.151C343.305 265.854 339.797 268.663 336.986 265.854C334.179 264.449 333.478 260.239 329.266 262.344C327.862 263.747 328.564 266.556 326.459 266.556C331.373 269.365 335.583 271.47 338.391 277.087C344.007 272.876 350.326 266.556 353.134 259.536C358.049 255.323 365.771 253.92 368.579 246.899C371.389 244.092 375.6 244.791 379.813 244.791C384.727 239.878 388.237 229.346 396.662 231.454C401.577 227.943 407.193 224.432 413.512 227.943C414.916 225.135 418.427 225.135 420.533 225.135C424.746 225.838 431.764 222.328 435.978 227.241C438.785 225.135 443.701 226.538 447.212 226.538C449.317 231.454 454.23 229.346 458.445 230.75C461.955 231.454 464.06 234.964 466.167 237.773C473.186 235.665 480.207 235.665 487.228 236.367C487.932 241.283 481.613 241.983 479.505 245.493C481.613 250.409 487.228 253.218 487.228 258.131C485.121 258.834 481.613 257.43 480.911 260.239C482.312 263.046 484.421 267.959 481.613 270.067C477.398 271.47 474.592 276.384 471.783 279.894C470.379 280.598 468.273 280.598 467.57 278.491C466.867 283.405 462.657 286.915 457.741 289.724C454.932 293.936 452.827 299.553 447.913 302.361C447.614 304.162 431.109 314.097 430.361 305.871C428.957 300.255 436.68 302.361 436.68 297.447C435.274 296.043 433.17 296.745 431.764 296.745C428.957 298.85 428.957 305.871 424.042 302.361H424.012C423.34 300.645 422.419 298.203 423.264 296.942C426.312 292.402 437.784 285.984 432.468 278.491C425.445 279.193 428.957 292.532 419.83 289.02C419.127 290.426 421.235 290.426 421.937 291.129C423.34 293.234 421.235 293.936 419.83 293.234C420.38 294.88 421.283 299.672 421.991 302.361H421.937C422.636 307.276 422.636 311.488 422.636 316.403C432.449 318.854 457.644 311.188 461.251 313.594C464.06 316.403 466.167 319.211 467.57 322.018C467.57 326.232 467.57 331.146 465.464 333.954C463.358 345.188 467.57 355.015 469.676 365.544C461.251 372.565 462.657 388.714 449.317 390.118C448.615 391.52 446.508 391.52 444.402 391.52C443.701 383.8 444.402 377.481 444.402 370.46C446.508 367.652 452.126 368.352 452.827 364.141C445.807 357.822 453.529 351.505 452.827 344.484C452.827 339.569 452.827 335.359 452.126 330.444C449.317 333.251 444.402 332.551 443.701 336.062C433.17 340.974 427.554 347.292 417.021 353.61C410.703 355.015 408.599 358.525 402.279 359.928C404.386 365.544 410.002 368.352 414.214 372.565C414.916 371.162 414.916 369.758 414.916 369.054C418.427 368.352 418.427 373.971 423.34 371.863C422.636 365.544 416.321 362.737 412.808 358.525C411.405 355.714 415.618 357.12 416.321 357.822C419.83 360.63 415.618 352.907 419.83 354.311C423.34 362.033 428.256 369.758 433.17 376.779C435.274 383.799 441.593 387.308 442.296 394.329C448.615 404.861 457.039 412.581 465.464 420.306C470.379 425.922 480.911 420.306 484.421 427.327C486.615 429.081 487.145 433.915 487.487 435.893L492.63 435.169C494.737 439.383 492.142 444.877 492.844 449.793L446.508 458.919L503.375 456.111C508.291 463.833 513.207 471.556 516.713 479.278C512.503 489.809 510.396 500.341 506.184 510.168C465.464 518.595 426.851 530.53 391.747 551.591C389.643 550.889 387.535 550.889 386.132 550.188C391.747 530.53 384.727 509.467 370.687 494.723C354.54 477.875 331.373 471.556 308.906 478.574C288.546 483.491 273.103 504.551 268.89 523.507C266.783 532.635 267.485 543.166 268.89 551.591C268.187 552.292 267.485 552.292 266.081 552.292C229.573 538.954 193.77 521.402 153.051 517.892C155.858 509.467 161.474 501.744 166.387 493.32C174.814 492.618 183.94 491.915 192.364 491.213C193.77 486.299 192.452 481.491 192.452 475.876L244.279 468.868C242.815 467.698 242.49 464.119 241.849 461.707C241.007 458.295 239.629 455.581 233.786 458.919C232.383 456.812 230.979 455.409 228.872 453.304C226.065 445.581 222.553 437.157 215.534 430.134C209.897 425.694 207.487 423.456 211.32 417.497C215.152 411.539 227.468 404.861 229.573 395.032C221.851 383.799 213.427 373.267 210.618 359.225C208.082 356.69 202.251 359.636 201.491 363.439C202.193 368.352 201.491 373.971 200.088 378.884C197.981 380.989 194.473 378.884 192.364 380.989C195.874 384.5 197.28 389.416 196.578 395.032C192.364 395.733 186.748 397.838 182.536 395.733C180.429 394.329 180.429 398.542 178.324 398.542C176.919 398.542 175.516 397.838 174.11 397.838C170.601 391.52 175.516 388.01 178.324 382.395C177.622 382.395 177.622 381.691 176.919 381.691C174.11 383.096 169.198 382.395 165.686 383.799C161.839 381.875 167.269 373.267 168.494 373.267C163.125 359.85 181.684 339.695 193.77 346.589C195.874 348.696 200.088 348.696 203.599 348.696C205.704 345.188 214.128 350.099 212.023 343.08C217.638 328.337 228.872 320.612 242.913 314.997C243.615 314.297 243.615 314.297 244.317 314.297C247.126 313.594 249.231 312.894 252.039 312.19C265.378 310.785 277.314 309.381 287.844 303.064C287.844 300.957 284.335 301.658 283.632 300.255C277.314 298.85 273.802 299.553 267.485 300.255C266.783 300.255 266.081 300.255 265.378 299.552H263.273C262.571 297.447 262.571 293.936 259.763 294.64C256.954 291.832 254.846 289.02 254.846 286.213C263.273 283.405 266.081 273.575 270.995 266.556C270.293 265.151 268.187 267.257 266.783 265.854C263.974 258.131 279.422 263.046 272.399 256.025C268.068 254.171 260.967 247.601 258.057 245.997C257.355 247.402 255.55 249.004 254.846 250.409C250.636 253.92 248.529 259.536 245.721 263.046C244.317 263.046 242.913 262.344 242.913 260.938C242.913 257.43 246.424 256.025 247.126 252.516C248.529 247.601 252.039 242.686 252.039 237.773C248.529 239.174 246.424 231.454 243.615 236.367C238.702 239.174 233.786 241.983 228.872 245.493C228.872 246.195 228.872 248.302 227.468 247.601C226.065 246.899 223.956 244.791 225.362 243.388C231.681 239.878 235.191 234.262 242.21 230.75C243.615 229.346 242.913 227.943 242.21 226.538C237.298 225.838 233.786 225.135 230.979 220.22C233.786 213.199 226.765 207.582 226.765 200.561C226.065 195.649 224.66 190.734 223.956 186.521C220.447 190.032 222.553 195.649 221.149 200.561C219.744 206.179 212.725 201.966 210.618 207.582C210.618 215.306 217.638 220.22 219.044 227.241C217.638 239.878 216.935 253.218 224.66 263.046C225.362 265.151 225.362 267.959 224.66 269.365C223.254 270.768 220.447 270.768 219.044 269.365C217.638 267.959 217.638 264.449 219.044 263.046C219.044 262.344 219.744 261.642 220.447 261.642C214.83 252.516 215.534 240.58 216.236 229.346C214.83 220.22 201.491 208.987 213.427 201.264C214.128 201.264 216.236 201.264 216.935 199.861C217.638 189.33 217.638 178.798 220.447 169.67C217.638 166.863 213.427 164.055 212.725 159.141C213.427 153.523 213.427 147.907 215.534 143.695C216.236 143.695 217.638 142.994 218.341 143.695C221.149 147.907 221.149 153.523 223.254 158.439C223.956 154.929 226.065 152.824 225.362 148.61C227.468 147.906 228.17 149.312 230.275 150.715C229.573 156.332 228.872 162.652 231.681 167.566C230.275 170.374 233.786 171.778 233.786 173.885C238.702 183.713 240.807 194.244 247.828 203.372C248.223 204.291 248.316 204.95 248.223 205.416C248.149 205.792 254.709 209.539 255.532 211.047C255.345 212.035 258.247 216.685 258.283 216.419ZM255.03 212.041C253.739 213.123 253.158 213.353 252.742 214.603C248.529 213.901 247.126 216.71 245.018 218.817C245.018 219.518 243.615 220.922 245.018 221.624C247.828 223.027 251.336 217.411 252.039 222.328C250.636 222.328 249.933 223.027 249.933 224.432C251.336 225.838 253.445 228.645 255.55 227.943C256.954 227.241 255.55 223.73 258.357 224.432C262.571 227.241 259.061 232.857 261.165 237.071C263.974 239.878 256.252 238.475 260.466 241.983C265.378 244.092 269.592 248.302 274.506 247.601C273.103 242.686 266.081 244.092 263.974 239.878C272.399 239.878 277.314 247.601 286.44 246.899C291.355 249.004 296.972 252.516 301.885 249.004C304.695 246.195 301.185 242.686 300.482 239.174C299.077 237.071 295.566 236.367 294.867 234.262C287.844 232.857 287.844 221.624 278.718 222.328C274.506 222.328 274.506 211.094 270.293 218.817C270.995 220.922 274.506 221.624 276.611 223.729C279.422 225.135 282.929 227.241 282.229 230.75C283.632 232.155 285.037 232.857 284.334 234.964C280.825 234.964 280.121 230.75 277.314 228.645C270.995 224.432 264.676 220.922 258.357 217.411C258.078 217.147 255.99 214.294 255.03 212.041ZM384.727 370.46C391.747 368.352 395.258 377.481 401.577 380.288C416.321 386.607 419.127 403.455 434.575 409.073C444.402 415.392 442.999 432.943 457.741 432.241C459.848 434.348 459.848 437.157 460.549 439.963L305.335 460.613C304.634 457.102 302.588 454.003 299.779 451.899C286.44 449.09 275.911 441.366 264.676 436.453C263.974 435.047 263.273 434.348 263.273 432.943C262.571 432.241 261.869 431.537 261.165 430.134V419.604C264.676 409.775 270.995 401.35 271.697 389.416C273.104 385.195 280.804 378.182 285.037 378.182C289.951 378.182 294.867 378.884 299.779 378.884C314.522 378.884 329.266 376.076 344.007 376.779C346.116 376.076 348.923 375.373 350.326 376.076C350.326 378.182 350.326 380.989 351.732 382.395C361.561 383.096 364.368 392.926 372.09 397.838C373.494 397.838 376.303 398.542 377.005 396.435C377.005 386.607 367.177 379.586 366.473 369.758C369.281 366.949 373.494 367.652 377.005 364.843C380.515 364.843 381.216 369.758 384.727 370.46ZM319.438 260.938C320.292 263.504 322.477 265.383 324.352 267.257C326.459 269.365 325.756 271.47 327.862 272.876C331.373 273.575 332.777 277.087 335.583 278.491C341.2 282.702 333.478 284.108 332.075 286.915C322.949 285.512 323.651 302.361 314.522 296.043C312.417 296.043 311.715 290.426 310.312 293.936C311.014 297.447 314.522 298.149 314.522 302.361C310.312 301.658 306.098 300.957 304.695 297.447C306.8 294.64 308.203 291.129 311.014 289.02C316.63 289.724 318.033 284.81 320.841 281.3C322.949 281.3 325.053 279.894 325.756 277.789C326.459 277.087 327.159 274.981 325.756 273.575C323.651 279.193 315.224 274.279 314.522 281.3C311.014 282.002 306.8 283.405 305.396 287.617C303.993 293.936 296.27 294.64 290.653 294.64C289.249 296.745 286.44 294.64 285.037 294.64C287.844 290.426 295.566 294.64 299.077 291.129C303.289 286.213 306.8 278.491 312.417 274.279C313.821 270.768 311.715 271.47 310.312 273.575C306.8 277.087 298.376 276.384 296.972 283.405L296.27 284.108C293.461 284.81 290.653 285.512 287.844 285.512C283.632 286.213 280.825 283.405 278.016 281.3C280.121 278.491 284.334 277.789 286.44 274.981C288.546 272.172 290.653 269.365 291.355 266.556C289.951 265.151 289.249 266.556 287.844 267.257C285.037 267.959 282.929 270.067 280.825 270.067C282.929 264.449 285.037 258.131 292.758 258.131C296.972 256.025 303.993 256.727 306.8 251.11C312.417 253.92 313.821 259.536 319.438 260.938ZM272.399 352.206C275.208 355.015 274.506 359.225 274.506 362.737C269.592 367.652 275.208 374.67 273.103 380.288C268.187 386.607 266.783 393.626 266.081 401.35C265.378 402.052 264.676 404.861 262.571 404.157C260.466 399.945 261.869 394.329 260.466 390.118C256.954 391.52 258.357 397.138 255.55 399.244C254.147 394.329 249.933 387.308 243.615 383.799C240.105 382.395 234.489 380.989 233.083 376.779H233.786C238 378.182 242.21 379.586 247.126 380.989C249.933 380.288 257.658 389.416 254.846 380.989C252.742 369.054 241.509 365.544 232.383 361.334C230.275 359.928 227.468 357.822 226.765 355.015C233.786 358.525 243.615 358.525 250.636 363.439C253.445 359.928 248.529 356.418 248.529 352.907C247.865 351.909 241.225 345.889 242.21 345.889C242.864 345.561 247.161 348.731 247.828 349.396C261.869 351.505 258.357 368.352 264.676 377.481C268.187 371.162 270.995 364.843 268.187 357.12C264.676 351.505 262.571 344.484 259.763 338.869C265.378 342.379 266.783 348.696 272.399 352.206ZM415.618 373.267C419.127 376.076 422.636 379.586 427.554 380.288C432.468 383.799 438.083 388.714 437.384 395.032C445.807 405.563 454.23 415.392 464.06 424.519C467.57 426.623 471.081 427.327 475.995 426.623C475.294 430.838 468.976 428.029 466.167 429.432C461.955 428.73 458.445 423.113 453.529 426.623C451.422 413.285 438.083 404.157 428.957 395.032C428.957 389.416 422.636 387.308 420.533 383.096C420.533 379.586 415.618 377.481 415.618 373.267ZM440.892 230.75C445.807 228.645 445.807 234.964 450.019 234.964C453.529 234.262 458.445 234.964 459.848 238.475C463.358 249.707 472.484 237.773 479.505 239.174C479.505 241.983 474.592 242.686 474.592 245.493C478.102 247.601 480.207 251.11 482.312 253.92C482.312 256.025 480.207 254.621 479.505 255.323C475.995 257.43 478.804 262.344 479.505 265.854C477.398 265.151 475.294 262.344 475.294 259.536C475.294 258.834 474.592 258.131 473.888 257.43C472.484 257.43 471.081 258.834 471.783 260.239C472.484 263.747 477.398 266.556 473.888 269.365C472.484 265.854 469.676 262.344 466.867 259.536C466.167 256.025 471.081 247.601 465.464 250.409C463.358 257.43 461.251 267.257 468.273 272.172C465.464 278.491 462.657 284.108 456.338 286.915C455.636 287.617 456.338 288.32 455.636 289.02C452.827 289.724 450.019 294.64 445.808 293.234C445.808 287.617 453.529 286.213 452.827 280.598C457.039 277.087 454.932 286.915 458.445 281.3C460.549 276.384 454.932 274.279 456.338 270.067C454.23 268.663 454.23 270.768 453.529 272.172C453.529 275.684 452.126 279.894 447.913 281.3C444.402 281.3 448.615 278.491 447.212 275.684C445.104 272.876 446.508 270.067 447.212 266.556C444.402 266.556 444.402 269.365 442.999 270.067C441.593 269.365 442.999 267.257 442.999 265.854C444.402 265.151 445.807 263.747 446.508 262.344C445.104 261.642 445.104 259.536 446.508 259.536C449.317 253.92 457.039 255.323 461.251 251.11C453.529 248.302 445.104 250.409 438.083 253.92C436.68 250.409 441.593 249.004 444.402 246.899C446.508 246.899 448.615 244.791 449.317 242.686C448.615 235.665 445.104 244.092 441.593 242.686C436.68 245.493 432.468 245.493 427.554 248.302C426.851 244.092 434.575 239.174 431.764 234.262C429.659 243.388 417.021 240.58 414.214 249.004C407.895 246.899 415.618 241.983 415.618 237.773C414.916 237.071 416.321 234.262 414.214 234.964C412.808 239.878 407.193 242.686 406.489 246.899C402.981 247.601 399.471 249.707 398.769 253.218C394.556 251.812 400.172 247.601 400.172 244.791C400.172 243.388 400.874 241.983 399.471 240.58C397.365 241.283 398.065 243.388 396.662 244.791C388.941 248.302 388.237 256.025 386.132 263.046C381.918 261.642 380.515 258.834 377.005 258.834C374.196 258.834 372.09 260.938 369.985 258.834C365.771 259.536 371.389 261.642 370.687 263.046C372.09 263.747 373.494 263.747 374.897 264.449C374.897 265.854 372.09 267.257 369.985 266.556C365.771 265.151 363.666 267.257 360.155 265.854C359.452 267.959 361.561 268.663 363.666 270.067C366.473 269.365 367.177 275.684 371.389 273.575C376.303 277.789 382.622 274.279 388.237 277.087C385.429 279.193 381.918 278.491 379.813 280.598C373.494 278.491 367.177 278.491 360.155 276.384C356.645 279.894 351.028 280.598 344.71 282.002C342.604 272.876 355.242 272.876 353.836 263.747C359.452 263.046 365.07 260.938 367.879 256.025C368.579 253.218 371.389 251.812 373.494 249.707C384.028 251.11 386.132 238.475 394.556 236.367C396.662 237.071 400.172 237.071 402.279 234.964C402.981 232.155 405.088 231.454 407.193 231.454C411.405 229.346 415.618 237.071 419.127 230.75C421.937 230.048 425.445 233.559 427.554 230.048C433.17 227.241 435.978 236.367 440.892 230.75ZM341.902 291.832C346.116 298.85 354.54 299.553 356.645 307.978C353.836 310.085 348.923 312.19 347.517 316.403C349.432 315.644 355.374 312.232 358.752 314.297C366.473 319.913 367.177 330.444 376.303 334.656C376.303 343.783 385.429 347.292 385.429 356.418C386.834 359.928 388.237 362.737 388.237 365.544C382.622 369.758 383.324 359.225 379.111 357.822C374.196 355.015 367.879 352.206 362.962 350.099C365.771 335.359 351.732 334.656 346.116 323.424C343.305 320.612 342.604 315.7 338.391 313.594C337.689 313.594 338.391 312.894 338.391 312.894C341.902 312.894 345.413 311.488 348.923 310.785C347.517 307.276 343.305 305.871 340.498 303.064C336.986 300.957 334.179 308.679 329.968 303.766C328.564 304.468 328.564 305.169 327.159 305.871C325.756 304.468 324.352 301.658 323.651 299.552C323.651 290.426 334.881 292.532 338.391 286.915C341.902 286.213 339.797 290.426 341.902 291.832ZM341.902 340.272C339.797 345.188 337.689 350.801 332.777 352.907C332.075 353.61 332.075 354.311 331.373 354.311C329.968 355.015 330.669 353.61 330.669 353.61C330.669 352.907 331.373 352.907 332.075 352.907C333.478 350.099 334.881 347.993 336.986 345.188C338.391 341.677 339.093 338.166 340.498 334.656C342.604 335.359 342.604 338.166 341.902 340.272ZM343.305 353.61C339.797 359.928 333.478 365.544 325.053 366.248C326.459 363.439 330.669 362.033 333.478 359.928C336.286 354.311 339.797 348.696 344.007 343.783C345.413 346.589 344.71 350.801 343.305 353.61ZM378.408 299.552C379.111 303.766 375.599 298.85 374.897 299.552C373.494 298.85 373.494 296.745 370.687 296.745C368.579 295.339 365.771 293.234 363.666 291.129C369.281 289.02 376.303 293.936 378.408 299.552ZM401.577 282.002C403.683 281.3 405.79 282.002 405.79 283.405C403.683 282.702 401.577 283.405 401.577 282.002ZM303.993 301.658C304.695 305.871 298.376 300.255 299.779 305.169C297.674 305.169 296.972 303.766 296.972 302.361C296.972 300.255 299.779 300.255 301.185 299.552C302.588 298.85 303.993 300.957 303.993 301.658ZM279.422 199.861C275.911 200.561 275.911 205.477 273.103 206.179C272.399 204.775 273.802 203.372 271.697 203.372C271.697 202.668 272.399 201.966 272.399 201.264C275.208 200.561 276.611 198.456 279.422 197.754C280.121 198.456 279.422 199.158 279.422 199.861ZM242.21 203.372C240.105 204.775 238 208.987 234.489 207.582C231.681 194.946 225.362 183.713 226.065 170.374C228.17 165.46 230.275 173.183 231.681 175.287C235.892 184.416 235.191 195.649 242.21 203.372ZM289.951 204.775C289.951 206.179 287.142 205.477 286.44 206.882C287.844 208.987 291.355 208.987 289.951 213.199C289.951 214.603 285.037 213.199 287.142 216.009C286.44 216.71 282.229 218.114 285.037 219.518C285.037 221.624 281.526 218.115 279.422 218.115C277.314 218.115 275.911 214.603 276.611 212.498C278.016 209.691 278.718 215.306 281.526 213.199C281.526 209.691 281.526 205.477 284.334 202.668C286.44 201.966 288.546 204.073 289.951 204.775ZM292.059 196.351C287.142 197.754 289.951 194.244 290.653 191.435C296.27 185.819 292.758 194.244 292.059 196.351ZM294.867 200.561C294.163 202.668 290.653 201.264 288.546 201.264C287.844 200.561 285.739 200.561 287.142 199.158C289.951 199.158 293.461 199.158 294.867 200.561ZM242.21 411.882C240.105 408.372 241.509 403.455 238 400.647C237.297 399.244 238 396.435 239.401 399.244C242.913 402.052 242.913 406.966 242.21 411.882ZM260.466 461.728C259.763 464.535 254.846 463.833 252.039 463.833C252.039 461.728 255.55 460.322 257.658 459.622C259.061 458.919 259.763 460.322 260.466 461.728ZM300.974 459.657C299.991 462.261 294.182 461.021 291.355 461.728C290.653 459.623 296.27 460.322 296.972 456.111C298.376 456.111 300.272 458.253 300.974 459.657ZM240.807 437.856C245.018 439.262 249.231 438.56 252.742 441.366C259.334 444.313 274.285 459.322 276.096 457.386C277.499 459.496 280.252 461.387 278.851 464.194L266.4 465.879C264.292 459.56 260.466 454.707 256.252 451.196C252.742 449.793 246.424 451.899 245.018 449.09C244.317 448.388 243.615 448.388 242.21 448.388C237.298 440.666 227.468 432.241 233.083 422.411C235.191 423.113 235.191 418.9 237.298 420.306C237.298 423.628 232.536 439.695 240.807 437.856ZM260.466 432.943C261.165 433.644 261.869 434.348 261.869 435.047C258.357 435.751 256.954 432.943 255.55 430.838C254.147 426.623 254.846 423.816 254.846 419.604C259.061 416.795 257.658 421.008 257.658 423.113C257.658 429.546 260.466 428.402 260.466 432.943ZM237.298 412.581C230.979 417.497 222.553 419.604 220.447 428.029C219.044 425.219 218.341 422.411 218.341 419.604C224.66 416.795 230.275 413.987 234.489 409.073C237.298 404.861 238 411.18 237.298 412.581ZM409.298 300.957C410.703 307.276 413.512 313.594 412.808 320.612C411.405 322.018 409.298 319.913 407.895 321.316C405.79 322.018 403.683 321.316 401.577 323.424C403.683 326.931 408.599 324.827 412.109 325.528C424.746 317.806 441.593 324.125 454.932 316.403C461.251 314.297 461.251 322.018 464.06 325.528C461.251 338.166 460.549 350.801 463.358 363.439C462.657 364.843 461.955 366.248 459.848 365.544C456.338 364.843 460.549 363.439 459.848 361.334C457.741 358.525 454.932 356.418 457.039 352.907C459.848 345.889 458.445 336.761 457.039 329.742C454.23 326.232 450.72 328.337 448.615 326.931C435.978 329.041 424.042 332.551 415.618 341.677C412.109 345.889 406.489 347.292 400.874 347.292C395.962 343.783 396.662 337.465 391.747 334.656C387.535 334.656 384.028 331.146 381.216 329.041C381.216 326.931 380.515 325.528 379.813 324.125C385.429 325.528 392.45 324.827 396.662 329.041C397.365 329.742 398.065 328.337 398.065 327.635C397.365 318.509 388.941 316.403 384.028 310.785C391.747 311.488 398.769 314.997 405.088 319.913C407.895 314.297 408.599 307.978 407.895 300.957H409.298ZM481.613 435.751V437.157C478.102 437.157 474.592 438.56 471.081 438.56C471.783 435.047 476.697 435.047 478.804 432.943C480.911 432.943 480.207 435.047 481.613 435.751ZM252.75 209.261C251.285 208.222 248.93 206.306 247.868 206.076C245.762 208.181 238 212.498 237.298 215.306C237.298 216.009 237.297 217.411 238 217.411C241.509 211.094 247.476 210.943 252.75 209.261Z" fill="#FBBD09"/>
<defs>
<linearGradient id="paint0_linear_447_7404" x1="168.7" y1="655.768" x2="284.892" y2="593.988" gradientUnits="userSpaceOnUse">
<stop stop-color="#A4D3E8"/>
<stop offset="0.2" stop-color="#A9D4E8"/>
<stop offset="0.3" stop-color="white"/>
<stop offset="1" stop-color="white"/>
</linearGradient>
<linearGradient id="paint1_linear_447_7404" x1="105.986" y1="617.024" x2="239.686" y2="512.566" gradientUnits="userSpaceOnUse">
<stop stop-color="#A4D3E8"/>
<stop offset="0.13" stop-color="#B0D9E9"/>
<stop offset="0.28" stop-color="white"/>
<stop offset="1" stop-color="white"/>
</linearGradient>
<linearGradient id="paint2_linear_447_7404" x1="388.656" y1="598.084" x2="492.142" y2="646.34" gradientUnits="userSpaceOnUse">
<stop stop-color="white"/>
<stop offset="0.8" stop-color="#ABD7EB"/>
<stop offset="1" stop-color="#A4D3E8"/>
</linearGradient>
<linearGradient id="paint3_linear_447_7404" x1="422.096" y1="509.168" x2="555.038" y2="613.034" gradientUnits="userSpaceOnUse">
<stop stop-color="white"/>
<stop offset="0.83" stop-color="#AED8EB"/>
<stop offset="1" stop-color="#A4D3E8"/>
</linearGradient>
</defs>
</svg>
