<svg width="888" height="631" viewBox="0 0 888 631" fill="none" xmlns="http://www.w3.org/2000/svg">
<path opacity="0.05" d="M878.483 328.618V428.185L774.97 366.077L761.744 358.142V373.565V396.913V401.858L765.984 404.401L878.483 471.901V474.881L774.97 412.773L761.744 404.837V420.261V443.609V448.553L765.984 451.097L878.483 518.597V521.576L774.97 459.468L761.744 451.533V466.957V490.304V495.249L765.984 497.793L878.483 565.292V568.272L774.97 506.164L761.744 498.228V513.652V532.509V537.294L765.777 539.87L878.483 611.829V621.66H755.862L755.862 249.505L878.483 328.618Z" fill="#0E5072" stroke="#0E5072" stroke-width="17.4656"/>
<path opacity="0.05" d="M700.434 615.789H738.397V621.671H650.797L650.797 120.986L730.556 171.812V268.563L695.015 296.686L691.701 299.309V303.535L691.701 607.056V615.789H700.434Z" fill="#0E5072" stroke="#0E5072" stroke-width="17.4656"/>
<path opacity="0.05" fill-rule="evenodd" clip-rule="evenodd" d="M385.239 630.391H420.261L420.261 0L303.521 75.2419L303.521 630.391H338.543L338.543 85.8214L385.239 53.9468L385.239 630.391Z" fill="#0E5072"/>
<g opacity="0.05">
<path d="M280.174 186.767L280.174 630.118L210.13 630.375L210.13 116.739L280.174 186.767Z" fill="#0E5072"/>
<path d="M198.456 151.761L198.456 630.375L163.435 630.225L163.435 186.783V175.109L198.456 151.761Z" fill="#0E5072"/>
<path d="M151.761 182.223L151.761 630.375L127.961 630.258L127.961 197.18L151.761 182.223Z" fill="#0E5072"/>
<path d="M116.739 204.841L116.739 630.268L58.0983 630.322L58.0983 372.864L58.0983 354.774L58.0983 288.446L40.6326 276.387L40.6326 253.725L116.739 204.841Z" fill="#0E5072"/>
<path d="M46.6956 303.522L43.9546 630.335L0 630.375L0 333.801L46.6956 303.522Z" fill="#0E5072"/>
</g>
<path opacity="0.05" fill-rule="evenodd" clip-rule="evenodd" d="M443.608 0L443.608 630.391H478.629L478.629 389.07H501.977L501.977 630.391H618.716L618.716 113.198L501.977 37.6614L501.977 362.439L478.629 361.891L478.629 22.4358L443.608 0ZM536.999 86.4227L536.999 607.043H583.695L583.695 116.739L536.999 86.4227Z" fill="#0E5072"/>
</svg>
