<svg width="8" height="7" viewBox="0 0 8 7" fill="none" xmlns="http://www.w3.org/2000/svg">
<circle cx="4.19126" cy="3.30356" r="3.26515" stroke="black" stroke-width="0.0768281"/>
<path d="M3.1749 4.24165C2.94356 4.442 2.84917 4.5925 2.73145 4.91653C2.73145 4.91653 2.77727 4.65246 2.84231 4.49473C2.90192 4.35017 2.95052 4.27462 3.0394 4.14524C3.14041 3.99821 3.20441 3.91845 3.33504 3.79576C3.45374 3.68427 3.53249 3.63452 3.66763 3.54268C3.81128 3.44505 3.89484 3.39362 4.0495 3.3137C4.23047 3.2202 4.52991 3.10883 4.52991 3.10883C4.3264 3.15516 4.00023 3.27755 4.00023 3.27755L3.69227 3.42217L3.4459 3.57883C3.4459 3.57883 3.28212 3.68335 3.19954 3.7596C3.11696 3.83585 2.89158 4.03678 2.89158 4.03678C2.88461 3.99954 2.91622 3.65114 2.91622 3.65114C2.91622 3.65114 2.96477 3.3378 3.05172 3.15704C3.13126 2.99167 3.19554 2.90526 3.32272 2.7714C3.41793 2.67119 3.47564 2.6157 3.59372 2.54242C3.67547 2.49169 3.81545 2.43396 3.81545 2.43396C3.81545 2.43396 3.70109 2.53666 3.643 2.61473C3.5847 2.69308 3.51981 2.83165 3.51981 2.83165L3.42127 3.08473C3.42127 3.08473 3.49796 2.90787 3.56909 2.80755C3.63899 2.70896 3.68526 2.65653 3.7785 2.57857C3.882 2.49204 3.94874 2.4497 4.07414 2.3978C4.21494 2.33954 4.30611 2.34289 4.456 2.31345C4.59015 2.2871 4.66777 2.28403 4.80091 2.25319C4.97265 2.2134 5.07192 2.19322 5.23205 2.12062C5.33762 2.07276 5.39649 2.04276 5.49074 1.97601C5.55709 1.92901 5.65087 1.84344 5.65087 1.84344C5.65087 1.84344 5.62951 2.16175 5.58928 2.36165C5.55953 2.50949 5.55311 2.59748 5.49074 2.73524C5.43291 2.86296 5.38766 2.93139 5.29364 3.03652C5.19469 3.14718 4.99801 3.27755 4.99801 3.27755C4.99801 3.27755 5.26259 3.13953 5.40451 3.02447C5.36586 3.14383 5.33819 3.215 5.24437 3.37396C5.10308 3.5907 5.02171 3.68524 4.87482 3.83191C4.69068 4.04152 4.50389 4.14029 4.00023 4.27781C3.68813 4.31185 3.50811 4.30813 3.1749 4.24165Z" fill="black" stroke="black" stroke-width="0.0337136"/>
</svg>
