<svg width="58" height="38" viewBox="0 0 58 38" fill="none" xmlns="http://www.w3.org/2000/svg">
<path d="M51.4277 37.5148L52.9549 29H55.3465L56.8449 37.5148H54.972L54.7126 35.9444H53.4736L53.2287 37.5148H51.4277ZM53.5024 35.1087H54.6982L54.1075 30.484L53.5024 35.1087Z" fill="white"/>
<path d="M45.7695 37.5148V29H47.4408V32.7027H47.9883L49.429 29H51.2299L49.5011 33.0917L51.2732 37.5148H49.4578L48.0603 33.8121H47.4408V37.5148H45.7695Z" fill="white"/>
<path d="M39.8594 37.5148V29H41.3289V34.1723L43.101 29H44.5706V37.5148H43.0866V32.6883L41.3289 37.5148H39.8594Z" fill="white"/>
<path d="M36.1224 37.5148V30.1814H34.7969V29H39.1191V30.1814H37.7936V37.5148H36.1224Z" fill="white"/>
<path d="M29.1406 37.5148L30.6678 29H33.0594L34.5578 37.5148H32.6848L32.4255 35.9444H31.1865L30.9416 37.5148H29.1406ZM31.2153 35.1087H32.4111L31.8204 30.484L31.2153 35.1087Z" fill="white"/>
<path d="M21.9062 37.5148V29H23.9953L25.1623 34.5036L26.3437 29H28.4184V37.5148H26.9488V31.1467L25.7242 37.5148H24.586L23.3758 31.1467V37.5148H21.9062Z" fill="white"/>
<path d="M17.2773 37.5148V29H21.2106V30.1814H19.0206V37.5148H17.2773Z" fill="white"/>
<path d="M11.1465 37.5148L12.6737 29H15.0653L16.5637 37.5148H14.6907L14.4314 35.9444H13.1923L12.9474 37.5148H11.1465ZM13.2212 35.1087H14.417L13.8263 30.484L13.2212 35.1087Z" fill="white"/>
<path d="M5.98047 37.5148L5.98047 29H9.00603C9.57272 29 10.0001 29.1297 10.2883 29.389C10.586 29.6387 10.7349 29.9893 10.7349 30.4407V31.9103C10.7349 32.2945 10.6869 32.6547 10.5908 32.9909C10.4948 33.3174 10.3219 33.5816 10.0722 33.7833C9.82245 33.985 9.46226 34.0858 8.99162 34.0858H7.72377L7.72377 37.5148H5.98047ZM7.72377 33.1637H8.3721C8.60262 33.1637 8.77551 33.0533 8.89077 32.8324C9.00603 32.6115 9.06366 32.2465 9.06366 31.7374V31.1611C9.06366 30.7097 9.01563 30.3879 8.91958 30.1958C8.82353 30.0037 8.68426 29.9077 8.50177 29.9077H7.72377L7.72377 33.1637Z" fill="white"/>
<path d="M0 37.5148L0 29H4.76885L4.76885 37.5148H3.02556L3.02556 30.1814H1.7433L1.7433 37.5148H0Z" fill="white"/>
<path d="M51.7891 26.822L53.0244 18.1309H57.0391L56.8626 19.3367H54.6273L53.5685 26.822H51.7891Z" fill="#F4AE3F"/>
<path d="M48.2084 27C47.728 27 47.3064 26.9412 46.9437 26.8235C46.5908 26.7157 46.3359 26.4853 46.179 26.1324C46.0221 25.7696 45.9927 25.2304 46.0908 24.5147L46.3114 22.9559H45.1055L44.5614 26.8235H42.8555L44.0761 18.1324H45.7819L45.2966 21.6912H46.4878L46.7231 19.9706C46.8015 19.4608 46.9633 19.0637 47.2084 18.7794C47.4535 18.4853 47.7721 18.2843 48.1643 18.1765C48.5564 18.0588 48.9976 18 49.4878 18C49.978 18 50.3898 18.0588 50.7231 18.1765C51.0663 18.2941 51.3163 18.4951 51.4731 18.7794C51.6398 19.0637 51.6839 19.4608 51.6055 19.9706L50.9731 24.5147C50.8751 25.2304 50.7035 25.7696 50.4584 26.1324C50.2133 26.4853 49.8996 26.7157 49.5172 26.8235C49.1447 26.9412 48.7084 27 48.2084 27ZM48.3555 26C48.4927 26 48.6153 25.9804 48.7231 25.9412C48.831 25.8922 48.9241 25.8088 49.0025 25.6912C49.081 25.5735 49.1349 25.402 49.1643 25.1765L49.9143 19.8824C49.9437 19.6471 49.9339 19.4706 49.8849 19.3529C49.8457 19.2353 49.777 19.1569 49.679 19.1176C49.581 19.0784 49.4633 19.0588 49.3261 19.0588C49.1986 19.0588 49.0761 19.0784 48.9584 19.1176C48.8506 19.1569 48.7574 19.2353 48.679 19.3529C48.6104 19.4706 48.5564 19.6471 48.5172 19.8824L47.7819 25.1765C47.7525 25.402 47.7574 25.5735 47.7966 25.6912C47.8359 25.8088 47.9045 25.8922 48.0025 25.9412C48.1006 25.9804 48.2182 26 48.3555 26Z" fill="#F4AE3F"/>
<path d="M37.626 14.0749V18.3394L33.1924 15.6793L32.626 15.3394V16V17V17.2118L32.8076 17.3207L37.626 20.2118V20.3394L33.1924 17.6793L32.626 17.3394V18V19V19.2118L32.8076 19.3207L37.626 22.2118V22.3394L33.1924 19.6793L32.626 19.3394V20V21V21.2118L32.8076 21.3207L37.626 24.2118V24.3394L33.1924 21.6793L32.626 21.3394V22V22.8077V23.0126L32.7987 23.1229L37.626 26.205V26.626H32.374V10.6864L37.626 14.0749Z" fill="#F4AE3F" stroke="#F4AE3F" stroke-width="0.748064"/>
<path d="M30 26.3746H31.626V26.6265H27.874L27.874 5.18187L31.2901 7.35878V11.5027L29.7679 12.7072L29.626 12.8195V13.0005L29.626 26.0005V26.3746H30Z" fill="#F4AE3F" stroke="#F4AE3F" stroke-width="0.748064"/>
<path fill-rule="evenodd" clip-rule="evenodd" d="M16.5 27H18L18 0L13 3.22266L13 27H14.5L14.5 3.67578L16.5 2.31057L16.5 27Z" fill="white"/>
<path d="M12 7.99931L12 26.9883L9 26.9993L9 5L12 7.99931Z" fill="#F4AE3F"/>
<path d="M8.5 6.5L8.5 26.9993L7 26.9929L7 8L7 7.5L8.5 6.5Z" fill="#F4AE3F"/>
<path d="M6.5 7.80469L6.5 26.9993L5.48064 26.9943L5.48064 8.44531L6.5 7.80469Z" fill="#F4AE3F"/>
<path d="M5 8.77344L5 26.9947L2.48838 26.997L2.48838 15.97V15.1952L2.48838 12.3543L1.74032 11.8378L1.74032 10.8672L5 8.77344Z" fill="#F4AE3F"/>
<path d="M2 13L1.8826 26.9976L0 26.9993L0 14.2969L2 13Z" fill="#F4AE3F"/>
<path fill-rule="evenodd" clip-rule="evenodd" d="M19 0L19 27H20.5V16.6641H21.5V27H26.5L26.5 4.84833L21.5 1.61306L21.5 15.5235L20.5 15.5L20.5 0.960938L19 0ZM23 3.70153L23 26H25L25 5L23 3.70153Z" fill="white"/>
</svg>
