<svg width="7" height="7" viewBox="0 0 7 7" fill="none" xmlns="http://www.w3.org/2000/svg">
<circle cx="3.30356" cy="3.30356" r="3.26515" stroke="black" stroke-width="0.0768281"/>
<path d="M1.58228 3.0817H5.15102" stroke="black" stroke-width="0.297399"/>
<path d="M2.47469 2.21923L2.43265 2.17715L2.47469 2.21923ZM3.06046 2.01285C3.07788 1.985 3.06941 1.9483 3.04156 1.93089L2.58763 1.64713C2.55978 1.62971 2.52308 1.63818 2.50567 1.66603C2.48826 1.69389 2.49672 1.73058 2.52458 1.748L2.92806 2.00023L2.67583 2.40372C2.65842 2.43157 2.66688 2.46827 2.69474 2.48568C2.72259 2.50309 2.75929 2.49463 2.7767 2.46677L3.06046 2.01285ZM2.38567 2.60577C2.44515 2.60575 2.44515 2.60576 2.44515 2.60576C2.44515 2.60576 2.44515 2.60577 2.44515 2.60577C2.44515 2.60577 2.44515 2.60577 2.44515 2.60577C2.44515 2.60575 2.44515 2.60572 2.44515 2.60567C2.44515 2.60558 2.44515 2.60541 2.44515 2.60518C2.44515 2.60471 2.44515 2.60397 2.44516 2.60298C2.44518 2.60098 2.44522 2.59796 2.4453 2.59404C2.44546 2.58619 2.44579 2.57475 2.44645 2.5607C2.44779 2.53252 2.45045 2.49425 2.45574 2.45357C2.46106 2.41262 2.46885 2.37075 2.47999 2.33481C2.49159 2.2974 2.50476 2.27327 2.51673 2.2613L2.43265 2.17715C2.40006 2.20972 2.37982 2.25618 2.36636 2.29959C2.35246 2.34447 2.34356 2.39367 2.33777 2.43823C2.33194 2.48305 2.32906 2.52472 2.32763 2.55509C2.32691 2.57032 2.32655 2.58282 2.32637 2.59159C2.32628 2.59598 2.32623 2.59943 2.32621 2.60184C2.3262 2.60305 2.32619 2.60399 2.32619 2.60465C2.32619 2.60498 2.32619 2.60524 2.32619 2.60544C2.32619 2.60553 2.32619 2.60561 2.32619 2.60567C2.32619 2.6057 2.32619 2.60572 2.32619 2.60574C2.32619 2.60575 2.32619 2.60577 2.32619 2.60577C2.32619 2.60578 2.32619 2.60579 2.38567 2.60577ZM2.51673 2.2613C2.58079 2.19729 2.70296 2.14139 2.81808 2.10055C2.87404 2.08069 2.92561 2.06531 2.9632 2.0549C2.98197 2.0497 2.99718 2.04575 3.00763 2.04313C3.01285 2.04182 3.01688 2.04084 3.01956 2.04019C3.0209 2.03987 3.0219 2.03963 3.02254 2.03948C3.02287 2.0394 3.0231 2.03935 3.02325 2.03932C3.02332 2.0393 3.02337 2.03929 3.02339 2.03928C3.0234 2.03928 3.02341 2.03928 3.02341 2.03928C3.02341 2.03928 3.02341 2.03928 3.02341 2.03928C3.0234 2.03928 3.0234 2.03928 3.01003 1.98132C2.99666 1.92336 2.99665 1.92337 2.99664 1.92337C2.99663 1.92337 2.99662 1.92337 2.99661 1.92338C2.99659 1.92338 2.99656 1.92339 2.99652 1.9234C2.99646 1.92341 2.99636 1.92343 2.99625 1.92346C2.99602 1.92351 2.9957 1.92359 2.99529 1.92369C2.99446 1.92388 2.99327 1.92416 2.99175 1.92453C2.98869 1.92526 2.98427 1.92634 2.97864 1.92776C2.96737 1.93059 2.95123 1.93477 2.93144 1.94025C2.89192 1.9512 2.83756 1.96741 2.7783 1.98843C2.66297 2.02935 2.51747 2.0924 2.43265 2.17715L2.51673 2.2613Z" fill="black"/>
<path d="M1.46362 4.92484C1.85676 4.92484 2.27094 4.45534 2.32607 4.21109C2.37901 3.97652 2.43325 3.69184 2.41224 3.31891" stroke="black" stroke-width="0.11896"/>
<path d="M2.41553 4.95304C2.80866 4.95304 3.22285 4.48354 3.27797 4.23929C3.33091 4.00472 3.38515 3.72004 3.36414 3.34711" stroke="black" stroke-width="0.11896"/>
<path d="M3.42611 2.24743L3.38407 2.20535L3.42611 2.24743ZM4.01188 2.04105C4.02929 2.01319 4.02083 1.9765 3.99297 1.95908L3.53905 1.67532C3.5112 1.65791 3.4745 1.66638 3.45709 1.69423C3.43967 1.72209 3.44814 1.75878 3.47599 1.7762L3.87948 2.02843L3.62725 2.43191C3.60983 2.45977 3.6183 2.49647 3.64615 2.51388C3.67401 2.53129 3.71071 2.52283 3.72812 2.49497L4.01188 2.04105ZM3.33708 2.63397C3.39656 2.63395 3.39656 2.63396 3.39656 2.63396C3.39656 2.63396 3.39656 2.63397 3.39656 2.63397C3.39656 2.63397 3.39656 2.63397 3.39656 2.63396C3.39656 2.63395 3.39656 2.63392 3.39656 2.63387C3.39656 2.63378 3.39656 2.63361 3.39656 2.63338C3.39657 2.63291 3.39657 2.63217 3.39658 2.63117C3.3966 2.62918 3.39664 2.62616 3.39672 2.62224C3.39688 2.61439 3.39721 2.60295 3.39787 2.5889C3.3992 2.56071 3.40186 2.52245 3.40715 2.48176C3.41248 2.44082 3.42027 2.39895 3.43141 2.36301C3.443 2.3256 3.45618 2.30147 3.46815 2.2895L3.38407 2.20535C3.35147 2.23792 3.33124 2.28438 3.31778 2.32779C3.30387 2.37267 3.29498 2.42187 3.28919 2.46643C3.28336 2.51125 3.28048 2.55292 3.27904 2.58329C3.27832 2.59852 3.27796 2.61102 3.27778 2.61979C3.27769 2.62417 3.27765 2.62763 3.27762 2.63004C3.27761 2.63124 3.27761 2.63218 3.2776 2.63285C3.2776 2.63318 3.2776 2.63344 3.2776 2.63363C3.2776 2.63373 3.2776 2.63381 3.2776 2.63387C3.2776 2.6339 3.2776 2.63392 3.2776 2.63394C3.2776 2.63395 3.2776 2.63396 3.2776 2.63397C3.2776 2.63398 3.2776 2.63399 3.33708 2.63397ZM3.46815 2.2895C3.53221 2.22549 3.65438 2.16959 3.76949 2.12874C3.82545 2.10889 3.87702 2.09351 3.91461 2.08309C3.93338 2.07789 3.94859 2.07395 3.95904 2.07133C3.96426 2.07002 3.96829 2.06903 3.97097 2.06839C3.97231 2.06807 3.97331 2.06783 3.97396 2.06768C3.97428 2.0676 3.97452 2.06755 3.97466 2.06751C3.97473 2.0675 3.97478 2.06749 3.97481 2.06748C3.97482 2.06748 3.97483 2.06747 3.97483 2.06747C3.97483 2.06747 3.97482 2.06748 3.97482 2.06748C3.97482 2.06748 3.97481 2.06748 3.96144 2.00952C3.94807 1.95156 3.94807 1.95156 3.94805 1.95157C3.94805 1.95157 3.94804 1.95157 3.94803 1.95157C3.948 1.95158 3.94797 1.95159 3.94794 1.95159C3.94787 1.95161 3.94778 1.95163 3.94767 1.95166C3.94744 1.95171 3.94711 1.95179 3.9467 1.95188C3.94588 1.95208 3.94469 1.95236 3.94316 1.95273C3.94011 1.95346 3.93569 1.95454 3.93005 1.95595C3.91879 1.95879 3.90264 1.96297 3.88285 1.96845C3.84333 1.9794 3.78898 1.99561 3.72972 2.01663C3.61438 2.05755 3.46888 2.1206 3.38407 2.20535L3.46815 2.2895Z" fill="black"/>
<path d="M3.3667 4.95304C3.75984 4.95304 4.17402 4.48354 4.22914 4.23929C4.28209 4.00472 4.33632 3.72004 4.31532 3.34711" stroke="black" stroke-width="0.11896"/>
<path d="M4.37801 2.24743L4.33597 2.20535L4.37801 2.24743ZM4.96378 2.04105C4.9812 2.01319 4.97273 1.9765 4.94488 1.95908L4.49096 1.67532C4.4631 1.65791 4.4264 1.66638 4.40899 1.69423C4.39158 1.72209 4.40004 1.75878 4.4279 1.7762L4.83138 2.02843L4.57915 2.43191C4.56174 2.45977 4.5702 2.49647 4.59806 2.51388C4.62591 2.53129 4.66261 2.52283 4.68002 2.49497L4.96378 2.04105ZM4.28899 2.63397C4.34847 2.63395 4.34847 2.63396 4.34847 2.63396C4.34847 2.63396 4.34847 2.63397 4.34847 2.63397C4.34847 2.63397 4.34847 2.63397 4.34847 2.63396C4.34847 2.63395 4.34847 2.63392 4.34847 2.63387C4.34847 2.63378 4.34847 2.63361 4.34847 2.63338C4.34847 2.63291 4.34847 2.63217 4.34848 2.63117C4.3485 2.62918 4.34854 2.62616 4.34862 2.62224C4.34878 2.61439 4.34911 2.60295 4.34978 2.5889C4.35111 2.56071 4.35377 2.52245 4.35906 2.48176C4.36438 2.44082 4.37217 2.39895 4.38331 2.36301C4.39491 2.3256 4.40808 2.30147 4.42005 2.2895L4.33597 2.20535C4.30338 2.23792 4.28314 2.28438 4.26968 2.32779C4.25578 2.37267 4.24688 2.42187 4.24109 2.46643C4.23526 2.51125 4.23238 2.55292 4.23095 2.58329C4.23023 2.59852 4.22987 2.61102 4.22969 2.61979C4.2296 2.62417 4.22955 2.62763 4.22953 2.63004C4.22952 2.63124 4.22951 2.63218 4.22951 2.63285C4.22951 2.63318 4.22951 2.63344 4.22951 2.63363C4.22951 2.63373 4.22951 2.63381 4.22951 2.63387C4.22951 2.6339 4.22951 2.63392 4.22951 2.63394C4.22951 2.63395 4.22951 2.63396 4.22951 2.63397C4.22951 2.63398 4.22951 2.63399 4.28899 2.63397ZM4.42005 2.2895C4.48411 2.22549 4.60628 2.16959 4.7214 2.12874C4.77736 2.10889 4.82893 2.09351 4.86652 2.08309C4.88529 2.07789 4.9005 2.07395 4.91095 2.07133C4.91617 2.07002 4.9202 2.06903 4.92288 2.06839C4.92422 2.06807 4.92522 2.06783 4.92587 2.06768C4.92619 2.0676 4.92642 2.06755 4.92657 2.06751C4.92664 2.0675 4.92669 2.06749 4.92671 2.06748C4.92672 2.06748 4.92673 2.06747 4.92673 2.06747C4.92673 2.06747 4.92673 2.06748 4.92673 2.06748C4.92672 2.06748 4.92672 2.06748 4.91335 2.00952C4.89998 1.95156 4.89997 1.95156 4.89996 1.95157C4.89995 1.95157 4.89994 1.95157 4.89993 1.95157C4.89991 1.95158 4.89988 1.95159 4.89984 1.95159C4.89978 1.95161 4.89968 1.95163 4.89957 1.95166C4.89934 1.95171 4.89902 1.95179 4.89861 1.95188C4.89778 1.95208 4.8966 1.95236 4.89507 1.95273C4.89201 1.95346 4.88759 1.95454 4.88196 1.95595C4.87069 1.95879 4.85455 1.96297 4.83476 1.96845C4.79524 1.9794 4.74088 1.99561 4.68162 2.01663C4.56629 2.05755 4.42079 2.1206 4.33597 2.20535L4.42005 2.2895Z" fill="black"/>
</svg>
