<svg width="238" height="118" viewBox="0 0 238 118" fill="none" xmlns="http://www.w3.org/2000/svg">
<path d="M58.2731 51.6043V2H27.9326V34.7485M27.9326 34.7485V90.6135H38.0461V40.5276L27.9326 34.7485Z" stroke="#25466B" stroke-width="2.88957"/>
<path d="M0 90.613H15.411V46.7879L23.1166 39.564" stroke="#25466B" stroke-width="2.88957"/>
<path d="M237.908 90.1313H89.0951V66.5331L69.3497 48.7141L58.5138 57.6236M58.5138 57.6236L47.6779 66.5331V90.1313H58.7546L58.5138 57.6236Z" stroke="#B2871B" stroke-width="2.88957"/>
<path d="M81.8712 59.7912V52.0857" stroke="#B2871B" stroke-width="2.88957"/>
<path d="M7.86731 108.534H3.67969V105.893H7.86731C8.51445 105.893 9.0412 105.788 9.44754 105.577C9.85389 105.359 10.1511 105.058 10.3392 104.674C10.5274 104.29 10.6214 103.857 10.6214 103.376C10.6214 102.887 10.5274 102.431 10.3392 102.01C10.1511 101.589 9.85389 101.25 9.44754 100.994C9.0412 100.738 8.51445 100.61 7.86731 100.61H4.85358V114.392H1.46736V97.9579H7.86731C9.15407 97.9579 10.2565 98.1912 11.1745 98.6577C12.1001 99.1167 12.8074 99.7526 13.2965 100.565C13.7857 101.378 14.0302 102.307 14.0302 103.353C14.0302 104.414 13.7857 105.332 13.2965 106.107C12.8074 106.882 12.1001 107.481 11.1745 107.902C10.2565 108.323 9.15407 108.534 7.86731 108.534ZM21.3824 97.9579V114.392H17.9962V97.9579H21.3824ZM31.0669 97.9579L24.7686 107.609H20.6261L20.1972 104.595H22.9626L26.9583 97.9579H31.0669ZM27.5791 114.392L22.9739 107.044L25.3217 104.629L31.5975 114.392H27.5791ZM43.7129 108.941H47.0878C47.0201 110.047 46.7153 111.029 46.1735 111.887C45.6393 112.744 44.8905 113.414 43.9273 113.896C42.9717 114.377 41.8204 114.618 40.4734 114.618C39.4199 114.618 38.4755 114.437 37.6403 114.076C36.805 113.708 36.0901 113.181 35.4957 112.496C34.9087 111.811 34.461 110.984 34.1525 110.013C33.8439 109.042 33.6897 107.955 33.6897 106.751V105.611C33.6897 104.407 33.8477 103.319 34.1638 102.349C34.4873 101.37 34.9463 100.539 35.5408 99.8542C36.1428 99.1694 36.8614 98.6427 37.6967 98.2739C38.532 97.9052 39.4651 97.7209 40.496 97.7209C41.8655 97.7209 43.0206 97.9692 43.9612 98.4658C44.9093 98.9625 45.643 99.6472 46.1622 100.52C46.689 101.393 47.005 102.386 47.1104 103.5H43.7242C43.6865 102.838 43.5549 102.277 43.3291 101.818C43.1034 101.352 42.761 101.002 42.302 100.768C41.8505 100.528 41.2485 100.407 40.496 100.407C39.9316 100.407 39.4387 100.513 39.0173 100.723C38.5959 100.934 38.2423 101.254 37.9563 101.683C37.6704 102.112 37.4559 102.653 37.3129 103.308C37.1775 103.955 37.1098 104.715 37.1098 105.588V106.751C37.1098 107.601 37.1737 108.35 37.3016 108.997C37.4296 109.637 37.6252 110.178 37.8886 110.622C38.1595 111.059 38.5056 111.39 38.927 111.616C39.356 111.834 39.8714 111.943 40.4734 111.943C41.1807 111.943 41.7639 111.83 42.2229 111.604C42.682 111.379 43.0319 111.044 43.2727 110.6C43.521 110.156 43.6677 109.603 43.7129 108.941ZM57.1376 106.062V108.613H50.7603V106.062H57.1376ZM73.5527 104.651V107.293H64.9743V104.651H73.5527ZM65.9788 97.9579V114.392H62.5926V97.9579H65.9788ZM75.9682 97.9579V114.392H72.5932V97.9579H75.9682ZM94.9567 105.791V106.57C94.9567 107.819 94.7874 108.941 94.4488 109.934C94.1102 110.927 93.6323 111.774 93.0153 112.473C92.3982 113.166 91.6608 113.696 90.803 114.065C89.9526 114.434 89.0083 114.618 87.9698 114.618C86.9389 114.618 85.9945 114.434 85.1367 114.065C84.2864 113.696 83.5489 113.166 82.9244 112.473C82.2998 111.774 81.8144 110.927 81.4683 109.934C81.1297 108.941 80.9604 107.819 80.9604 106.57V105.791C80.9604 104.535 81.1297 103.413 81.4683 102.428C81.8069 101.434 82.2847 100.588 82.9018 99.888C83.5264 99.1882 84.2638 98.654 85.1141 98.2852C85.972 97.9165 86.9163 97.7322 87.9472 97.7322C88.9857 97.7322 89.9301 97.9165 90.7804 98.2852C91.6382 98.654 92.3757 99.1882 92.9927 99.888C93.6173 100.588 94.0989 101.434 94.4375 102.428C94.7836 103.413 94.9567 104.535 94.9567 105.791ZM91.5366 106.57V105.769C91.5366 104.896 91.4576 104.128 91.2996 103.466C91.1416 102.804 90.9083 102.247 90.5998 101.796C90.2913 101.344 89.915 101.005 89.471 100.78C89.0271 100.546 88.5191 100.43 87.9472 100.43C87.3754 100.43 86.8674 100.546 86.4234 100.78C85.987 101.005 85.6145 101.344 85.306 101.796C85.005 102.247 84.7755 102.804 84.6175 103.466C84.4594 104.128 84.3804 104.896 84.3804 105.769V106.57C84.3804 107.436 84.4594 108.203 84.6175 108.873C84.7755 109.535 85.0088 110.096 85.3173 110.555C85.6258 111.006 86.0021 111.349 86.446 111.582C86.89 111.815 87.3979 111.932 87.9698 111.932C88.5417 111.932 89.0496 111.815 89.4936 111.582C89.9376 111.349 90.3101 111.006 90.6111 110.555C90.9121 110.096 91.1416 109.535 91.2996 108.873C91.4576 108.203 91.5366 107.436 91.5366 106.57ZM106.371 107.18H102.15L102.127 104.854H105.672C106.296 104.854 106.808 104.775 107.207 104.617C107.606 104.452 107.903 104.215 108.098 103.906C108.302 103.59 108.403 103.207 108.403 102.755C108.403 102.243 108.305 101.829 108.11 101.513C107.922 101.197 107.624 100.968 107.218 100.825C106.819 100.682 106.304 100.61 105.672 100.61H103.324V114.392H99.9376V97.9579H105.672C106.627 97.9579 107.481 98.0482 108.234 98.2288C108.994 98.4094 109.637 98.6841 110.164 99.0528C110.691 99.4215 111.093 99.888 111.372 100.452C111.65 101.009 111.789 101.671 111.789 102.439C111.789 103.116 111.635 103.741 111.327 104.313C111.026 104.885 110.548 105.351 109.893 105.712C109.246 106.074 108.399 106.273 107.353 106.311L106.371 107.18ZM106.225 114.392H101.224L102.545 111.751H106.225C106.819 111.751 107.305 111.657 107.681 111.469C108.057 111.273 108.335 111.01 108.516 110.679C108.697 110.348 108.787 109.968 108.787 109.539C108.787 109.057 108.704 108.64 108.539 108.286C108.381 107.932 108.125 107.661 107.771 107.473C107.417 107.278 106.951 107.18 106.371 107.18H103.109L103.132 104.854H107.195L107.974 105.769C108.975 105.754 109.78 105.931 110.39 106.299C111.007 106.66 111.455 107.131 111.733 107.71C112.019 108.29 112.162 108.91 112.162 109.573C112.162 110.626 111.932 111.514 111.473 112.236C111.014 112.951 110.341 113.489 109.453 113.851C108.572 114.212 107.496 114.392 106.225 114.392ZM130.744 105.791V106.57C130.744 107.819 130.575 108.941 130.236 109.934C129.897 110.927 129.42 111.774 128.803 112.473C128.186 113.166 127.448 113.696 126.59 114.065C125.74 114.434 124.796 114.618 123.757 114.618C122.726 114.618 121.782 114.434 120.924 114.065C120.074 113.696 119.336 113.166 118.712 112.473C118.087 111.774 117.602 110.927 117.256 109.934C116.917 108.941 116.748 107.819 116.748 106.57V105.791C116.748 104.535 116.917 103.413 117.256 102.428C117.594 101.434 118.072 100.588 118.689 99.888C119.314 99.1882 120.051 98.654 120.901 98.2852C121.759 97.9165 122.704 97.7322 123.735 97.7322C124.773 97.7322 125.717 97.9165 126.568 98.2852C127.426 98.654 128.163 99.1882 128.78 99.888C129.405 100.588 129.886 101.434 130.225 102.428C130.571 103.413 130.744 104.535 130.744 105.791ZM127.324 106.57V105.769C127.324 104.896 127.245 104.128 127.087 103.466C126.929 102.804 126.696 102.247 126.387 101.796C126.079 101.344 125.702 101.005 125.258 100.78C124.814 100.546 124.306 100.43 123.735 100.43C123.163 100.43 122.655 100.546 122.211 100.78C121.774 101.005 121.402 101.344 121.093 101.796C120.792 102.247 120.563 102.804 120.405 103.466C120.247 104.128 120.168 104.896 120.168 105.769V106.57C120.168 107.436 120.247 108.203 120.405 108.873C120.563 109.535 120.796 110.096 121.105 110.555C121.413 111.006 121.789 111.349 122.233 111.582C122.677 111.815 123.185 111.932 123.757 111.932C124.329 111.932 124.837 111.815 125.281 111.582C125.725 111.349 126.097 111.006 126.398 110.555C126.699 110.096 126.929 109.535 127.087 108.873C127.245 108.203 127.324 107.436 127.324 106.57ZM142.125 108.534H137.937V105.893H142.125C142.772 105.893 143.299 105.788 143.705 105.577C144.111 105.359 144.409 105.058 144.597 104.674C144.785 104.29 144.879 103.857 144.879 103.376C144.879 102.887 144.785 102.431 144.597 102.01C144.409 101.589 144.111 101.25 143.705 100.994C143.299 100.738 142.772 100.61 142.125 100.61H139.111V114.392H135.725V97.9579H142.125C143.412 97.9579 144.514 98.1912 145.432 98.6577C146.358 99.1167 147.065 99.7526 147.554 100.565C148.043 101.378 148.288 102.307 148.288 103.353C148.288 104.414 148.043 105.332 147.554 106.107C147.065 106.882 146.358 107.481 145.432 107.902C144.514 108.323 143.412 108.534 142.125 108.534ZM166.667 105.791V106.57C166.667 107.819 166.498 108.941 166.159 109.934C165.82 110.927 165.342 111.774 164.725 112.473C164.108 113.166 163.371 113.696 162.513 114.065C161.663 114.434 160.718 114.618 159.68 114.618C158.649 114.618 157.705 114.434 156.847 114.065C155.996 113.696 155.259 113.166 154.634 112.473C154.01 111.774 153.525 110.927 153.178 109.934C152.84 108.941 152.67 107.819 152.67 106.57V105.791C152.67 104.535 152.84 103.413 153.178 102.428C153.517 101.434 153.995 100.588 154.612 99.888C155.236 99.1882 155.974 98.654 156.824 98.2852C157.682 97.9165 158.626 97.7322 159.657 97.7322C160.696 97.7322 161.64 97.9165 162.49 98.2852C163.348 98.654 164.086 99.1882 164.703 99.888C165.327 100.588 165.809 101.434 166.148 102.428C166.494 103.413 166.667 104.535 166.667 105.791ZM163.247 106.57V105.769C163.247 104.896 163.168 104.128 163.01 103.466C162.852 102.804 162.618 102.247 162.31 101.796C162.001 101.344 161.625 101.005 161.181 100.78C160.737 100.546 160.229 100.43 159.657 100.43C159.085 100.43 158.578 100.546 158.134 100.78C157.697 101.005 157.325 101.344 157.016 101.796C156.715 102.247 156.486 102.804 156.328 103.466C156.17 104.128 156.091 104.896 156.091 105.769V106.57C156.091 107.436 156.17 108.203 156.328 108.873C156.486 109.535 156.719 110.096 157.027 110.555C157.336 111.006 157.712 111.349 158.156 111.582C158.6 111.815 159.108 111.932 159.68 111.932C160.252 111.932 160.76 111.815 161.204 111.582C161.648 111.349 162.02 111.006 162.321 110.555C162.622 110.096 162.852 109.535 163.01 108.873C163.168 108.203 163.247 107.436 163.247 106.57ZM181.174 108.941H184.549C184.481 110.047 184.177 111.029 183.635 111.887C183.101 112.744 182.352 113.414 181.389 113.896C180.433 114.377 179.282 114.618 177.935 114.618C176.881 114.618 175.937 114.437 175.102 114.076C174.266 113.708 173.552 113.181 172.957 112.496C172.37 111.811 171.922 110.984 171.614 110.013C171.305 109.042 171.151 107.955 171.151 106.751V105.611C171.151 104.407 171.309 103.319 171.625 102.349C171.949 101.37 172.408 100.539 173.002 99.8542C173.604 99.1694 174.323 98.6427 175.158 98.2739C175.993 97.9052 176.926 97.7209 177.957 97.7209C179.327 97.7209 180.482 97.9692 181.423 98.4658C182.371 98.9625 183.104 99.6472 183.624 100.52C184.15 101.393 184.466 102.386 184.572 103.5H181.186C181.148 102.838 181.016 102.277 180.791 101.818C180.565 101.352 180.222 101.002 179.763 100.768C179.312 100.528 178.71 100.407 177.957 100.407C177.393 100.407 176.9 100.513 176.479 100.723C176.057 100.934 175.704 101.254 175.418 101.683C175.132 102.112 174.917 102.653 174.774 103.308C174.639 103.955 174.571 104.715 174.571 105.588V106.751C174.571 107.601 174.635 108.35 174.763 108.997C174.891 109.637 175.087 110.178 175.35 110.622C175.621 111.059 175.967 111.39 176.388 111.616C176.817 111.834 177.333 111.943 177.935 111.943C178.642 111.943 179.225 111.83 179.684 111.604C180.143 111.379 180.493 111.044 180.734 110.6C180.982 110.156 181.129 109.603 181.174 108.941ZM198.842 108.941H202.217C202.149 110.047 201.845 111.029 201.303 111.887C200.769 112.744 200.02 113.414 199.057 113.896C198.101 114.377 196.95 114.618 195.603 114.618C194.549 114.618 193.605 114.437 192.77 114.076C191.934 113.708 191.219 113.181 190.625 112.496C190.038 111.811 189.59 110.984 189.282 110.013C188.973 109.042 188.819 107.955 188.819 106.751V105.611C188.819 104.407 188.977 103.319 189.293 102.349C189.617 101.37 190.076 100.539 190.67 99.8542C191.272 99.1694 191.991 98.6427 192.826 98.2739C193.661 97.9052 194.594 97.7209 195.625 97.7209C196.995 97.7209 198.15 97.9692 199.091 98.4658C200.039 98.9625 200.772 99.6472 201.292 100.52C201.818 101.393 202.134 102.386 202.24 103.5H198.853C198.816 102.838 198.684 102.277 198.458 101.818C198.233 101.352 197.89 101.002 197.431 100.768C196.98 100.528 196.378 100.407 195.625 100.407C195.061 100.407 194.568 100.513 194.147 100.723C193.725 100.934 193.372 101.254 193.086 101.683C192.8 102.112 192.585 102.653 192.442 103.308C192.307 103.955 192.239 104.715 192.239 105.588V106.751C192.239 107.601 192.303 108.35 192.431 108.997C192.559 109.637 192.755 110.178 193.018 110.622C193.289 111.059 193.635 111.39 194.056 111.616C194.485 111.834 195.001 111.943 195.603 111.943C196.31 111.943 196.893 111.83 197.352 111.604C197.811 111.379 198.161 111.044 198.402 110.6C198.65 110.156 198.797 109.603 198.842 108.941ZM210.246 109.065L216.849 97.9579H220.235V114.392H216.849V103.286L210.246 114.392H206.859V97.9579H210.246V109.065ZM234.449 108.421H229.979L228.839 107.947C227.552 107.541 226.567 106.931 225.882 106.119C225.205 105.306 224.866 104.271 224.866 103.015C224.866 101.908 225.11 100.983 225.6 100.238C226.096 99.4855 226.796 98.9173 227.699 98.5336C228.61 98.1498 229.689 97.9579 230.939 97.9579H236.673V114.392H233.275V100.61H230.939C230.013 100.61 229.332 100.84 228.896 101.299C228.459 101.758 228.241 102.409 228.241 103.252C228.241 103.869 228.342 104.377 228.546 104.775C228.749 105.167 229.046 105.46 229.437 105.656C229.829 105.844 230.322 105.938 230.916 105.938H234.438L234.449 108.421ZM231.187 107.056L227.541 114.392H223.873L227.53 107.056H231.187Z" fill="#25466B"/>
<path d="M106.865 75.3293V75.9784C106.865 77.0193 106.724 77.9537 106.442 78.7814C106.16 79.6091 105.761 80.3146 105.247 80.8978C104.733 81.4747 104.119 81.9168 103.404 82.224C102.695 82.5313 101.908 82.6849 101.043 82.6849C100.184 82.6849 99.3967 82.5313 98.6818 82.224C97.9732 81.9168 97.3587 81.4747 96.8382 80.8978C96.3177 80.3146 95.9132 79.6091 95.6248 78.7814C95.3426 77.9537 95.2015 77.0193 95.2015 75.9784V75.3293C95.2015 74.2821 95.3426 73.3478 95.6248 72.5263C95.907 71.6986 96.3052 70.9931 96.8194 70.4099C97.3398 69.8267 97.9544 69.3815 98.663 69.0742C99.3778 68.767 100.165 68.6133 101.024 68.6133C101.889 68.6133 102.676 68.767 103.385 69.0742C104.1 69.3815 104.714 69.8267 105.228 70.4099C105.749 70.9931 106.15 71.6986 106.432 72.5263C106.721 73.3478 106.865 74.2821 106.865 75.3293ZM104.015 75.9784V75.3105C104.015 74.5831 103.949 73.9435 103.818 73.3917C103.686 72.8398 103.491 72.3758 103.234 71.9996C102.977 71.6233 102.664 71.3411 102.294 71.153C101.924 70.9586 101.5 70.8614 101.024 70.8614C100.547 70.8614 100.124 70.9586 99.7541 71.153C99.3904 71.3411 99.08 71.6233 98.8229 71.9996C98.572 72.3758 98.3808 72.8398 98.2491 73.3917C98.1174 73.9435 98.0516 74.5831 98.0516 75.3105V75.9784C98.0516 76.6995 98.1174 77.3391 98.2491 77.8972C98.3808 78.449 98.5752 78.9162 98.8323 79.2987C99.0894 79.675 99.4029 79.9603 99.7729 80.1547C100.143 80.3491 100.566 80.4463 101.043 80.4463C101.519 80.4463 101.943 80.3491 102.313 80.1547C102.683 79.9603 102.993 79.675 103.244 79.2987C103.495 78.9162 103.686 78.449 103.818 77.8972C103.949 77.3391 104.015 76.6995 104.015 75.9784ZM121.11 75.3293V75.9784C121.11 77.0193 120.969 77.9537 120.687 78.7814C120.404 79.6091 120.006 80.3146 119.492 80.8978C118.978 81.4747 118.363 81.9168 117.648 82.224C116.94 82.5313 116.153 82.6849 115.287 82.6849C114.428 82.6849 113.641 82.5313 112.926 82.224C112.218 81.9168 111.603 81.4747 111.083 80.8978C110.562 80.3146 110.158 79.6091 109.869 78.7814C109.587 77.9537 109.446 77.0193 109.446 75.9784V75.3293C109.446 74.2821 109.587 73.3478 109.869 72.5263C110.152 71.6986 110.55 70.9931 111.064 70.4099C111.585 69.8267 112.199 69.3815 112.908 69.0742C113.623 68.767 114.41 68.6133 115.269 68.6133C116.134 68.6133 116.921 68.767 117.63 69.0742C118.344 69.3815 118.959 69.8267 119.473 70.4099C119.994 70.9931 120.395 71.6986 120.677 72.5263C120.966 73.3478 121.11 74.2821 121.11 75.3293ZM118.26 75.9784V75.3105C118.26 74.5831 118.194 73.9435 118.062 73.3917C117.931 72.8398 117.736 72.3758 117.479 71.9996C117.222 71.6233 116.908 71.3411 116.538 71.153C116.168 70.9586 115.745 70.8614 115.269 70.8614C114.792 70.8614 114.369 70.9586 113.999 71.153C113.635 71.3411 113.325 71.6233 113.068 71.9996C112.817 72.3758 112.625 72.8398 112.494 73.3917C112.362 73.9435 112.296 74.5831 112.296 75.3105V75.9784C112.296 76.6995 112.362 77.3391 112.494 77.8972C112.625 78.449 112.82 78.9162 113.077 79.2987C113.334 79.675 113.648 79.9603 114.018 80.1547C114.388 80.3491 114.811 80.4463 115.287 80.4463C115.764 80.4463 116.187 80.3491 116.557 80.1547C116.927 79.9603 117.238 79.675 117.488 79.2987C117.739 78.9162 117.931 78.449 118.062 77.8972C118.194 77.3391 118.26 76.6995 118.26 75.9784ZM135.354 75.3293V75.9784C135.354 77.0193 135.213 77.9537 134.931 78.7814C134.649 79.6091 134.251 80.3146 133.737 80.8978C133.222 81.4747 132.608 81.9168 131.893 82.224C131.184 82.5313 130.397 82.6849 129.532 82.6849C128.673 82.6849 127.886 82.5313 127.171 82.224C126.463 81.9168 125.848 81.4747 125.328 80.8978C124.807 80.3146 124.403 79.6091 124.114 78.7814C123.832 77.9537 123.691 77.0193 123.691 75.9784V75.3293C123.691 74.2821 123.832 73.3478 124.114 72.5263C124.396 71.6986 124.795 70.9931 125.309 70.4099C125.829 69.8267 126.444 69.3815 127.152 69.0742C127.867 68.767 128.654 68.6133 129.513 68.6133C130.379 68.6133 131.166 68.767 131.874 69.0742C132.589 69.3815 133.204 69.8267 133.718 70.4099C134.238 70.9931 134.64 71.6986 134.922 72.5263C135.21 73.3478 135.354 74.2821 135.354 75.3293ZM132.504 75.9784V75.3105C132.504 74.5831 132.439 73.9435 132.307 73.3917C132.175 72.8398 131.981 72.3758 131.724 71.9996C131.467 71.6233 131.153 71.3411 130.783 71.153C130.413 70.9586 129.99 70.8614 129.513 70.8614C129.037 70.8614 128.613 70.9586 128.243 71.153C127.88 71.3411 127.569 71.6233 127.312 71.9996C127.061 72.3758 126.87 72.8398 126.738 73.3917C126.607 73.9435 126.541 74.5831 126.541 75.3105V75.9784C126.541 76.6995 126.607 77.3391 126.738 77.8972C126.87 78.449 127.065 78.9162 127.322 79.2987C127.579 79.675 127.892 79.9603 128.262 80.1547C128.632 80.3491 129.056 80.4463 129.532 80.4463C130.009 80.4463 130.432 80.3491 130.802 80.1547C131.172 79.9603 131.482 79.675 131.733 79.2987C131.984 78.9162 132.175 78.449 132.307 77.8972C132.439 77.3391 132.504 76.6995 132.504 75.9784ZM143.931 72.6016V71.2C143.931 70.7924 144.009 70.3723 144.166 69.9396C144.323 69.5069 144.53 69.0993 144.787 68.7168C145.044 68.328 145.326 67.9988 145.634 67.7292L146.894 68.4628C146.668 68.8391 146.474 69.2436 146.311 69.6762C146.148 70.1089 146.066 70.6169 146.066 71.2V72.6016H143.931ZM147.129 72.6016V71.2C147.129 70.7924 147.208 70.3723 147.364 69.9396C147.521 69.5069 147.728 69.0993 147.985 68.7168C148.242 68.328 148.524 67.9988 148.832 67.7292L150.092 68.4628C149.866 68.8391 149.672 69.2436 149.509 69.6762C149.346 70.1089 149.264 70.6169 149.264 71.2V72.6016H147.129ZM158.176 77.615H154.686V75.414H158.176C158.715 75.414 159.154 75.3262 159.493 75.1506C159.831 74.9688 160.079 74.7179 160.236 74.3981C160.392 74.0783 160.471 73.7177 160.471 73.3164C160.471 72.9088 160.392 72.5294 160.236 72.1783C160.079 71.8271 159.831 71.5449 159.493 71.3317C159.154 71.1185 158.715 71.0119 158.176 71.0119H155.664V82.4968H152.842V68.8015H158.176C159.248 68.8015 160.167 68.9959 160.932 69.3846C161.703 69.7672 162.292 70.297 162.7 70.9743C163.108 71.6515 163.311 72.426 163.311 73.2976C163.311 74.1818 163.108 74.9468 162.7 75.5927C162.292 76.2386 161.703 76.7371 160.932 77.0883C160.167 77.4395 159.248 77.615 158.176 77.615ZM169.053 68.8015V82.4968H166.231V68.8015H169.053ZM177.123 68.8015L171.875 76.8437H168.423L168.065 74.3323H170.37L173.7 68.8015H177.123ZM174.217 82.4968L170.379 76.3734L172.336 74.3605L177.566 82.4968H174.217ZM187.276 77.9537H190.089C190.032 78.8755 189.779 79.6938 189.327 80.4087C188.882 81.1235 188.258 81.6816 187.455 82.083C186.659 82.4843 185.699 82.6849 184.577 82.6849C183.699 82.6849 182.912 82.5345 182.216 82.2335C181.52 81.9262 180.924 81.4872 180.429 80.9166C179.94 80.346 179.567 79.6562 179.309 78.8472C179.052 78.0383 178.924 77.1322 178.924 76.1289V75.1788C178.924 74.1755 179.055 73.2694 179.319 72.4605C179.589 71.6453 179.971 70.9523 180.466 70.3817C180.968 69.8111 181.567 69.3721 182.263 69.0648C182.959 68.7576 183.737 68.6039 184.596 68.6039C185.737 68.6039 186.7 68.8109 187.483 69.2247C188.274 69.6386 188.885 70.2093 189.318 70.9367C189.757 71.6641 190.02 72.4918 190.108 73.4199H187.286C187.255 72.8681 187.145 72.4009 186.957 72.0184C186.769 71.6296 186.483 71.338 186.101 71.1436C185.724 70.9429 185.223 70.8426 184.596 70.8426C184.125 70.8426 183.715 70.9304 183.364 71.106C183.012 71.2816 182.718 71.5481 182.479 71.9055C182.241 72.2629 182.062 72.7144 181.943 73.26C181.83 73.7993 181.774 74.4326 181.774 75.16V76.1289C181.774 76.8375 181.827 77.4614 181.934 78.0007C182.04 78.5337 182.203 78.9852 182.423 79.3552C182.649 79.7189 182.937 79.9948 183.288 80.1829C183.646 80.3648 184.075 80.4557 184.577 80.4557C185.166 80.4557 185.652 80.3616 186.035 80.1735C186.417 79.9854 186.709 79.7063 186.91 79.3364C187.117 78.9664 187.239 78.5055 187.276 77.9537ZM198.078 75.5551V77.6809H192.764V75.5551H198.078ZM210.602 74.3793V76.5804H203.453V74.3793H210.602ZM204.29 68.8015V82.4968H201.468V68.8015H204.29ZM212.615 68.8015V82.4968H209.802V68.8015H212.615ZM221.366 77.615H217.877V75.414H221.366C221.906 75.414 222.344 75.3262 222.683 75.1506C223.022 74.9688 223.269 74.7179 223.426 74.3981C223.583 74.0783 223.661 73.7177 223.661 73.3164C223.661 72.9088 223.583 72.5294 223.426 72.1783C223.269 71.8271 223.022 71.5449 222.683 71.3317C222.344 71.1185 221.906 71.0119 221.366 71.0119H218.855V82.4968H216.033V68.8015H221.366C222.439 68.8015 223.357 68.9959 224.122 69.3846C224.894 69.7672 225.483 70.297 225.891 70.9743C226.298 71.6515 226.502 72.426 226.502 73.2976C226.502 74.1818 226.298 74.9468 225.891 75.5927C225.483 76.2386 224.894 76.7371 224.122 77.0883C223.357 77.4395 222.439 77.615 221.366 77.615ZM231.839 68.049V69.4787C231.839 69.8863 231.761 70.3065 231.604 70.7391C231.453 71.1718 231.25 71.5826 230.993 71.9713C230.735 72.3539 230.453 72.6799 230.146 72.9496L228.876 72.2159C229.108 71.8459 229.306 71.4446 229.469 71.0119C229.632 70.573 229.713 70.065 229.713 69.4881V68.049H231.839ZM235.084 68.049V69.4787C235.084 69.8863 235.006 70.3065 234.849 70.7391C234.699 71.1718 234.495 71.5826 234.238 71.9713C233.981 72.3539 233.698 72.6799 233.391 72.9496L232.121 72.2159C232.353 71.8459 232.551 71.4446 232.714 71.0119C232.877 70.573 232.958 70.065 232.958 69.4881V68.049H235.084Z" fill="#25466B"/>
<path d="M106.865 75.3293V75.9784C106.865 77.0193 106.724 77.9537 106.442 78.7814C106.16 79.6091 105.762 80.3146 105.247 80.8978C104.733 81.4747 104.119 81.9168 103.404 82.224C102.695 82.5313 101.908 82.6849 101.043 82.6849C100.184 82.6849 99.3967 82.5313 98.6818 82.224C97.9732 81.9168 97.3587 81.4747 96.8382 80.8978C96.3177 80.3146 95.9133 79.6091 95.6248 78.7814C95.3426 77.9537 95.2015 77.0193 95.2015 75.9784V75.3293C95.2015 74.2821 95.3426 73.3478 95.6248 72.5263C95.907 71.6986 96.3052 70.9931 96.8194 70.4099C97.3399 69.8267 97.9544 69.3815 98.663 69.0742C99.3779 68.767 100.165 68.6133 101.024 68.6133C101.889 68.6133 102.676 68.767 103.385 69.0742C104.1 69.3815 104.714 69.8267 105.228 70.4099C105.749 70.9931 106.15 71.6986 106.432 72.5263C106.721 73.3478 106.865 74.2821 106.865 75.3293ZM104.015 75.9784V75.3105C104.015 74.5831 103.949 73.9435 103.818 73.3917C103.686 72.8398 103.491 72.3758 103.234 71.9996C102.977 71.6233 102.664 71.3411 102.294 71.153C101.924 70.9586 101.501 70.8614 101.024 70.8614C100.547 70.8614 100.124 70.9586 99.7541 71.153C99.3904 71.3411 99.08 71.6233 98.8229 71.9996C98.5721 72.3758 98.3808 72.8398 98.2491 73.3917C98.1174 73.9435 98.0516 74.5831 98.0516 75.3105V75.9784C98.0516 76.6995 98.1174 77.3391 98.2491 77.8972C98.3808 78.449 98.5752 78.9162 98.8323 79.2987C99.0894 79.675 99.403 79.9603 99.7729 80.1547C100.143 80.3491 100.566 80.4463 101.043 80.4463C101.519 80.4463 101.943 80.3491 102.313 80.1547C102.683 79.9603 102.993 79.675 103.244 79.2987C103.495 78.9162 103.686 78.449 103.818 77.8972C103.949 77.3391 104.015 76.6995 104.015 75.9784ZM121.11 75.3293V75.9784C121.11 77.0193 120.969 77.9537 120.687 78.7814C120.404 79.6091 120.006 80.3146 119.492 80.8978C118.978 81.4747 118.363 81.9168 117.648 82.224C116.94 82.5313 116.153 82.6849 115.287 82.6849C114.428 82.6849 113.641 82.5313 112.926 82.224C112.218 81.9168 111.603 81.4747 111.083 80.8978C110.562 80.3146 110.158 79.6091 109.869 78.7814C109.587 77.9537 109.446 77.0193 109.446 75.9784V75.3293C109.446 74.2821 109.587 73.3478 109.869 72.5263C110.152 71.6986 110.55 70.9931 111.064 70.4099C111.585 69.8267 112.199 69.3815 112.908 69.0742C113.623 68.767 114.41 68.6133 115.269 68.6133C116.134 68.6133 116.921 68.767 117.63 69.0742C118.344 69.3815 118.959 69.8267 119.473 70.4099C119.994 70.9931 120.395 71.6986 120.677 72.5263C120.966 73.3478 121.11 74.2821 121.11 75.3293ZM118.26 75.9784V75.3105C118.26 74.5831 118.194 73.9435 118.062 73.3917C117.931 72.8398 117.736 72.3758 117.479 71.9996C117.222 71.6233 116.908 71.3411 116.538 71.153C116.168 70.9586 115.745 70.8614 115.269 70.8614C114.792 70.8614 114.369 70.9586 113.999 71.153C113.635 71.3411 113.325 71.6233 113.068 71.9996C112.817 72.3758 112.625 72.8398 112.494 73.3917C112.362 73.9435 112.296 74.5831 112.296 75.3105V75.9784C112.296 76.6995 112.362 77.3391 112.494 77.8972C112.625 78.449 112.82 78.9162 113.077 79.2987C113.334 79.675 113.648 79.9603 114.018 80.1547C114.388 80.3491 114.811 80.4463 115.287 80.4463C115.764 80.4463 116.187 80.3491 116.557 80.1547C116.927 79.9603 117.238 79.675 117.488 79.2987C117.739 78.9162 117.931 78.449 118.062 77.8972C118.194 77.3391 118.26 76.6995 118.26 75.9784ZM135.355 75.3293V75.9784C135.355 77.0193 135.213 77.9537 134.931 78.7814C134.649 79.6091 134.251 80.3146 133.737 80.8978C133.222 81.4747 132.608 81.9168 131.893 82.224C131.184 82.5313 130.397 82.6849 129.532 82.6849C128.673 82.6849 127.886 82.5313 127.171 82.224C126.463 81.9168 125.848 81.4747 125.328 80.8978C124.807 80.3146 124.403 79.6091 124.114 78.7814C123.832 77.9537 123.691 77.0193 123.691 75.9784V75.3293C123.691 74.2821 123.832 73.3478 124.114 72.5263C124.396 71.6986 124.795 70.9931 125.309 70.4099C125.829 69.8267 126.444 69.3815 127.152 69.0742C127.867 68.767 128.654 68.6133 129.513 68.6133C130.379 68.6133 131.166 68.767 131.874 69.0742C132.589 69.3815 133.204 69.8267 133.718 70.4099C134.238 70.9931 134.64 71.6986 134.922 72.5263C135.21 73.3478 135.355 74.2821 135.355 75.3293ZM132.504 75.9784V75.3105C132.504 74.5831 132.439 73.9435 132.307 73.3917C132.175 72.8398 131.981 72.3758 131.724 71.9996C131.467 71.6233 131.153 71.3411 130.783 71.153C130.413 70.9586 129.99 70.8614 129.513 70.8614C129.037 70.8614 128.613 70.9586 128.243 71.153C127.88 71.3411 127.569 71.6233 127.312 71.9996C127.061 72.3758 126.87 72.8398 126.738 73.3917C126.607 73.9435 126.541 74.5831 126.541 75.3105V75.9784C126.541 76.6995 126.607 77.3391 126.738 77.8972C126.87 78.449 127.065 78.9162 127.322 79.2987C127.579 79.675 127.892 79.9603 128.262 80.1547C128.632 80.3491 129.056 80.4463 129.532 80.4463C130.009 80.4463 130.432 80.3491 130.802 80.1547C131.172 79.9603 131.482 79.675 131.733 79.2987C131.984 78.9162 132.175 78.449 132.307 77.8972C132.439 77.3391 132.504 76.6995 132.504 75.9784ZM143.931 72.6016V71.2C143.931 70.7924 144.009 70.3723 144.166 69.9396C144.323 69.5069 144.53 69.0993 144.787 68.7168C145.044 68.328 145.326 67.9988 145.634 67.7292L146.894 68.4628C146.668 68.8391 146.474 69.2436 146.311 69.6762C146.148 70.1089 146.066 70.6169 146.066 71.2V72.6016H143.931ZM147.129 72.6016V71.2C147.129 70.7924 147.208 70.3723 147.364 69.9396C147.521 69.5069 147.728 69.0993 147.985 68.7168C148.242 68.328 148.524 67.9988 148.832 67.7292L150.092 68.4628C149.866 68.8391 149.672 69.2436 149.509 69.6762C149.346 70.1089 149.264 70.6169 149.264 71.2V72.6016H147.129ZM158.176 77.615H154.686V75.414H158.176C158.715 75.414 159.154 75.3262 159.493 75.1506C159.831 74.9688 160.079 74.7179 160.236 74.3981C160.392 74.0783 160.471 73.7177 160.471 73.3164C160.471 72.9088 160.392 72.5294 160.236 72.1783C160.079 71.8271 159.831 71.5449 159.493 71.3317C159.154 71.1185 158.715 71.0119 158.176 71.0119H155.664V82.4968H152.842V68.8015H158.176C159.248 68.8015 160.167 68.9959 160.932 69.3846C161.703 69.7672 162.292 70.297 162.7 70.9743C163.108 71.6515 163.311 72.426 163.311 73.2976C163.311 74.1818 163.108 74.9468 162.7 75.5927C162.292 76.2386 161.703 76.7371 160.932 77.0883C160.167 77.4395 159.248 77.615 158.176 77.615ZM169.053 68.8015V82.4968H166.231V68.8015H169.053ZM177.123 68.8015L171.875 76.8437H168.423L168.065 74.3323H170.37L173.7 68.8015H177.123ZM174.217 82.4968L170.379 76.3734L172.336 74.3605L177.566 82.4968H174.217ZM187.277 77.9537H190.089C190.033 78.8755 189.779 79.6938 189.327 80.4087C188.882 81.1235 188.258 81.6816 187.455 82.083C186.659 82.4843 185.699 82.6849 184.577 82.6849C183.699 82.6849 182.912 82.5345 182.216 82.2335C181.52 81.9262 180.924 81.4872 180.429 80.9166C179.94 80.346 179.567 79.6562 179.309 78.8472C179.052 78.0383 178.924 77.1322 178.924 76.1289V75.1788C178.924 74.1755 179.056 73.2694 179.319 72.4605C179.589 71.6453 179.971 70.9523 180.466 70.3817C180.968 69.8111 181.567 69.3721 182.263 69.0648C182.959 68.7576 183.737 68.6039 184.596 68.6039C185.737 68.6039 186.7 68.8109 187.483 69.2247C188.274 69.6386 188.885 70.2093 189.318 70.9367C189.757 71.6641 190.02 72.4918 190.108 73.4199H187.286C187.255 72.8681 187.145 72.4009 186.957 72.0184C186.769 71.6296 186.483 71.338 186.101 71.1436C185.724 70.9429 185.223 70.8426 184.596 70.8426C184.125 70.8426 183.715 70.9304 183.364 71.106C183.012 71.2816 182.718 71.5481 182.479 71.9055C182.241 72.2629 182.062 72.7144 181.943 73.26C181.83 73.7993 181.774 74.4326 181.774 75.16V76.1289C181.774 76.8375 181.827 77.4614 181.934 78.0007C182.04 78.5337 182.203 78.9852 182.423 79.3552C182.649 79.7189 182.937 79.9948 183.288 80.1829C183.646 80.3648 184.075 80.4557 184.577 80.4557C185.166 80.4557 185.652 80.3616 186.035 80.1735C186.417 79.9854 186.709 79.7063 186.91 79.3364C187.117 78.9664 187.239 78.5055 187.277 77.9537ZM198.079 75.5551V77.6809H192.764V75.5551H198.079ZM210.602 74.3793V76.5804H203.453V74.3793H210.602ZM204.29 68.8015V82.4968H201.469V68.8015H204.29ZM212.615 68.8015V82.4968H209.802V68.8015H212.615ZM221.366 77.615H217.877V75.414H221.366C221.906 75.414 222.345 75.3262 222.683 75.1506C223.022 74.9688 223.269 74.7179 223.426 74.3981C223.583 74.0783 223.661 73.7177 223.661 73.3164C223.661 72.9088 223.583 72.5294 223.426 72.1783C223.269 71.8271 223.022 71.5449 222.683 71.3317C222.345 71.1185 221.906 71.0119 221.366 71.0119H218.855V82.4968H216.033V68.8015H221.366C222.439 68.8015 223.357 68.9959 224.122 69.3846C224.894 69.7672 225.483 70.297 225.891 70.9743C226.298 71.6515 226.502 72.426 226.502 73.2976C226.502 74.1818 226.298 74.9468 225.891 75.5927C225.483 76.2386 224.894 76.7371 224.122 77.0883C223.357 77.4395 222.439 77.615 221.366 77.615ZM231.839 68.049V69.4787C231.839 69.8863 231.761 70.3065 231.604 70.7391C231.453 71.1718 231.25 71.5826 230.993 71.9713C230.735 72.3539 230.453 72.6799 230.146 72.9496L228.876 72.2159C229.108 71.8459 229.306 71.4446 229.469 71.0119C229.632 70.573 229.713 70.065 229.713 69.4881V68.049H231.839ZM235.084 68.049V69.4787C235.084 69.8863 235.006 70.3065 234.849 70.7391C234.699 71.1718 234.495 71.5826 234.238 71.9713C233.981 72.3539 233.698 72.6799 233.391 72.9496L232.121 72.2159C232.353 71.8459 232.551 71.4446 232.714 71.0119C232.877 70.573 232.958 70.065 232.958 69.4881V68.049H235.084Z" fill="#25466B"/>
</svg>
