<svg width="7" height="7" viewBox="0 0 7 7" fill="none" xmlns="http://www.w3.org/2000/svg">
<circle cx="3.30356" cy="3.30356" r="3.26515" stroke="black" stroke-width="0.0768281"/>
<ellipse cx="1.40857" cy="5.15061" rx="0.059033" ry="0.838439" transform="rotate(-44.5242 1.40857 5.15061)" fill="black"/>
<ellipse cx="1.63636" cy="4.92329" rx="0.059033" ry="0.838439" transform="rotate(-44.5242 1.63636 4.92329)" fill="black"/>
<ellipse cx="1.99036" cy="4.68696" rx="0.059033" ry="0.838439" transform="rotate(-44.5242 1.99036 4.68696)" fill="black"/>
<ellipse cx="2.22669" cy="4.45094" rx="0.059033" ry="0.838439" transform="rotate(-44.5242 2.22669 4.45094)" fill="black"/>
<ellipse cx="2.46302" cy="4.21491" rx="0.059033" ry="0.838439" transform="rotate(-44.5242 2.46302 4.21491)" fill="black"/>
<ellipse cx="4.35975" cy="2.43525" rx="0.059033" ry="0.838439" transform="rotate(-44.5242 4.35975 2.43525)" fill="black"/>
<ellipse cx="4.58777" cy="2.20792" rx="0.059033" ry="0.838439" transform="rotate(-44.5242 4.58777 2.20792)" fill="black"/>
<ellipse cx="4.94153" cy="1.97163" rx="0.059033" ry="0.838439" transform="rotate(-44.5242 4.94153 1.97163)" fill="black"/>
<ellipse cx="5.17786" cy="1.7356" rx="0.059033" ry="0.838439" transform="rotate(-44.5242 5.17786 1.7356)" fill="black"/>
<ellipse cx="5.41419" cy="1.49958" rx="0.059033" ry="0.838439" transform="rotate(-44.5242 5.41419 1.49958)" fill="black"/>
<ellipse cx="1.52698" cy="2.31709" rx="0.059033" ry="0.838439" transform="rotate(-44.5242 1.52698 2.31709)" fill="black"/>
<ellipse cx="1.75501" cy="2.08976" rx="0.059033" ry="0.838439" transform="rotate(-44.5242 1.75501 2.08976)" fill="black"/>
<ellipse cx="2.10877" cy="1.85346" rx="0.059033" ry="0.838439" transform="rotate(-44.5242 2.10877 1.85346)" fill="black"/>
<ellipse cx="2.3451" cy="1.61744" rx="0.059033" ry="0.838439" transform="rotate(-44.5242 2.3451 1.61744)" fill="black"/>
<ellipse cx="2.58143" cy="1.38142" rx="0.059033" ry="0.838439" transform="rotate(-44.5242 2.58143 1.38142)" fill="black"/>
<ellipse cx="4.24378" cy="5.26865" rx="0.059033" ry="0.838439" transform="rotate(-44.5242 4.24378 5.26865)" fill="black"/>
<ellipse cx="4.47181" cy="5.04133" rx="0.059033" ry="0.838439" transform="rotate(-44.5242 4.47181 5.04133)" fill="black"/>
<ellipse cx="4.82557" cy="4.80503" rx="0.059033" ry="0.838439" transform="rotate(-44.5242 4.82557 4.80503)" fill="black"/>
<ellipse cx="5.06189" cy="4.56901" rx="0.059033" ry="0.838439" transform="rotate(-44.5242 5.06189 4.56901)" fill="black"/>
<ellipse cx="5.29822" cy="4.33299" rx="0.059033" ry="0.838439" transform="rotate(-44.5242 5.29822 4.33299)" fill="black"/>
<ellipse cx="2.97626" cy="2.798" rx="0.059033" ry="0.838439" transform="rotate(46.2872 2.97626 2.798)" fill="black"/>
<ellipse cx="3.20063" cy="3.02862" rx="0.059033" ry="0.838439" transform="rotate(46.2872 3.20063 3.02862)" fill="black"/>
<ellipse cx="3.43085" cy="3.38611" rx="0.059033" ry="0.838439" transform="rotate(46.2872 3.43085 3.38611)" fill="black"/>
<ellipse cx="3.66376" cy="3.62543" rx="0.059033" ry="0.838439" transform="rotate(46.2872 3.66376 3.62543)" fill="black"/>
<ellipse cx="3.89765" cy="3.86505" rx="0.059033" ry="0.838439" transform="rotate(46.2872 3.89765 3.86505)" fill="black"/>
<ellipse cx="3.00443" cy="5.31241" rx="0.040487" ry="0.575032" transform="rotate(46.2872 3.00443 5.31241)" fill="black"/>
<ellipse cx="3.15799" cy="5.47046" rx="0.040487" ry="0.575032" transform="rotate(46.2872 3.15799 5.47046)" fill="black"/>
<ellipse cx="3.31644" cy="5.71579" rx="0.040487" ry="0.575032" transform="rotate(46.2872 3.31644 5.71579)" fill="black"/>
<ellipse cx="3.47586" cy="5.88013" rx="0.040487" ry="0.575032" transform="rotate(46.2872 3.47586 5.88013)" fill="black"/>
<ellipse cx="3.63553" cy="6.04416" rx="0.040487" ry="0.575032" transform="rotate(46.2872 3.63553 6.04416)" fill="black"/>
<ellipse cx="5.36698" cy="3.0697" rx="0.040487" ry="0.575032" transform="rotate(46.2872 5.36698 3.0697)" fill="black"/>
<ellipse cx="5.52054" cy="3.22775" rx="0.040487" ry="0.575032" transform="rotate(46.2872 5.52054 3.22775)" fill="black"/>
<ellipse cx="5.67899" cy="3.47305" rx="0.040487" ry="0.575032" transform="rotate(46.2872 5.67899 3.47305)" fill="black"/>
<ellipse cx="5.83841" cy="3.63742" rx="0.040487" ry="0.575032" transform="rotate(46.2872 5.83841 3.63742)" fill="black"/>
<ellipse cx="5.99808" cy="3.80145" rx="0.040487" ry="0.575032" transform="rotate(46.2872 5.99808 3.80145)" fill="black"/>
<ellipse cx="3.12284" cy="0.590029" rx="0.040487" ry="0.575032" transform="rotate(46.2872 3.12284 0.590029)" fill="black"/>
<ellipse cx="3.2764" cy="0.748079" rx="0.040487" ry="0.575032" transform="rotate(46.2872 3.2764 0.748079)" fill="black"/>
<ellipse cx="3.43485" cy="0.993105" rx="0.040487" ry="0.575032" transform="rotate(46.2872 3.43485 0.993105)" fill="black"/>
<ellipse cx="3.59427" cy="1.15744" rx="0.040487" ry="0.575032" transform="rotate(46.2872 3.59427 1.15744)" fill="black"/>
<ellipse cx="3.75394" cy="1.32178" rx="0.040487" ry="0.575032" transform="rotate(46.2872 3.75394 1.32178)" fill="black"/>
<ellipse cx="0.644076" cy="2.83338" rx="0.040487" ry="0.575032" transform="rotate(46.2872 0.644076 2.83338)" fill="black"/>
<ellipse cx="0.797641" cy="2.99143" rx="0.040487" ry="0.575032" transform="rotate(46.2872 0.797641 2.99143)" fill="black"/>
<ellipse cx="0.955844" cy="3.23676" rx="0.040487" ry="0.575032" transform="rotate(46.2872 0.955844 3.23676)" fill="black"/>
<ellipse cx="1.11551" cy="3.40109" rx="0.040487" ry="0.575032" transform="rotate(46.2872 1.11551 3.40109)" fill="black"/>
<ellipse cx="1.27494" cy="3.56513" rx="0.040487" ry="0.575032" transform="rotate(46.2872 1.27494 3.56513)" fill="black"/>
</svg>
