<svg width="33" height="33" viewBox="0 0 33 33" fill="none" xmlns="http://www.w3.org/2000/svg">
<circle cx="16.7568" cy="16.1334" r="15.7836" stroke="black" stroke-width="0.371385"/>
<path d="M19.2394 8.22803L19.2394 25.4792" stroke="black" stroke-width="1.43762"/>
<path d="M14.0667 8.22803L14.0667 25.4792" stroke="black" stroke-width="1.43762"/>
<path d="M23.9245 16.4854L23.912 16.7726L23.912 16.7726L23.9245 16.4854ZM20.9077 16.7319C20.7909 16.6244 20.7832 16.4425 20.8907 16.3257L22.6423 14.4209C22.7498 14.304 22.9317 14.2964 23.0486 14.4038C23.1655 14.5113 23.1731 14.6932 23.0656 14.8101L21.5086 16.5033L23.2018 18.0602C23.3187 18.1677 23.3263 18.3496 23.2188 18.4665C23.1113 18.5834 22.9294 18.591 22.8125 18.4835L20.9077 16.7319ZM25.2352 16.482C25.2466 16.7693 25.2466 16.7693 25.2466 16.7693C25.2466 16.7693 25.2466 16.7693 25.2465 16.7693C25.2465 16.7693 25.2465 16.7693 25.2464 16.7693C25.2463 16.7693 25.2461 16.7693 25.2459 16.7693C25.2455 16.7693 25.245 16.7694 25.2442 16.7694C25.2427 16.7694 25.2405 16.7695 25.2377 16.7696C25.232 16.7698 25.2237 16.7701 25.213 16.7705C25.1915 16.7713 25.1604 16.7723 25.1212 16.7735C25.0429 16.7758 24.9326 16.7787 24.8037 16.7807C24.5469 16.7847 24.2127 16.7857 23.912 16.7726L23.937 16.1981C24.221 16.2105 24.5422 16.2097 24.7946 16.2057C24.9203 16.2037 25.028 16.201 25.1041 16.1987C25.1421 16.1976 25.1723 16.1966 25.1928 16.1958C25.2031 16.1955 25.2109 16.1952 25.2162 16.195C25.2188 16.1949 25.2208 16.1948 25.222 16.1948C25.2227 16.1947 25.2232 16.1947 25.2235 16.1947C25.2236 16.1947 25.2237 16.1947 25.2238 16.1947C25.2238 16.1947 25.2238 16.1947 25.2238 16.1947C25.2238 16.1947 25.2238 16.1947 25.2239 16.1947C25.2238 16.1947 25.2238 16.1947 25.2352 16.482ZM23.912 16.7726C23.4344 16.7519 22.7375 16.7603 22.1541 16.7744C21.8637 16.7813 21.6035 16.7896 21.416 16.7962C21.3223 16.7995 21.2468 16.8023 21.1947 16.8043C21.1687 16.8054 21.1486 16.8062 21.1349 16.8067C21.1281 16.807 21.123 16.8072 21.1195 16.8073C21.1178 16.8074 21.1165 16.8075 21.1156 16.8075C21.1152 16.8075 21.1149 16.8075 21.1147 16.8075C21.1146 16.8075 21.1145 16.8075 21.1145 16.8075C21.1144 16.8076 21.1144 16.8076 21.1144 16.8076C21.1144 16.8076 21.1144 16.8076 21.1024 16.5203C21.0903 16.233 21.0903 16.233 21.0904 16.233C21.0904 16.233 21.0904 16.233 21.0904 16.233C21.0905 16.233 21.0906 16.233 21.0907 16.233C21.091 16.233 21.0913 16.233 21.0918 16.2329C21.0927 16.2329 21.0941 16.2329 21.0959 16.2328C21.0995 16.2326 21.1048 16.2324 21.1117 16.2321C21.1256 16.2316 21.1461 16.2308 21.1724 16.2297C21.2251 16.2277 21.3014 16.2248 21.3959 16.2215C21.585 16.2149 21.8473 16.2065 22.1403 16.1995C22.7238 16.1854 23.438 16.1764 23.937 16.1981L23.912 16.7726Z" fill="black"/>
<path d="M8.7145 16.5061L8.72697 16.2188L8.72697 16.2188L8.7145 16.5061ZM11.7312 16.2595C11.8481 16.367 11.8557 16.5489 11.7483 16.6658L9.99668 18.5706C9.88919 18.6875 9.7073 18.6951 9.59041 18.5876C9.47353 18.4801 9.4659 18.2982 9.57339 18.1814L11.1303 16.4882L9.43719 14.9312C9.3203 14.8238 9.31268 14.6419 9.42017 14.525C9.52765 14.4081 9.70954 14.4005 9.82643 14.508L11.7312 16.2595ZM7.40375 16.5095C7.39236 16.2222 7.39237 16.2222 7.39239 16.2222C7.39239 16.2222 7.39241 16.2222 7.39243 16.2222C7.39246 16.2222 7.39251 16.2222 7.39257 16.2222C7.39268 16.2222 7.39284 16.2221 7.39304 16.2221C7.39344 16.2221 7.39402 16.2221 7.39476 16.2221C7.39626 16.222 7.39844 16.2219 7.40128 16.2218C7.40695 16.2216 7.41526 16.2213 7.42599 16.2209C7.44745 16.2202 7.47861 16.2191 7.51776 16.218C7.59603 16.2156 7.70642 16.2128 7.83531 16.2108C8.0921 16.2067 8.42629 16.2058 8.72697 16.2188L8.70202 16.7933C8.41798 16.781 8.0968 16.7818 7.84439 16.7857C7.71868 16.7877 7.61102 16.7905 7.53489 16.7928C7.49684 16.7939 7.46671 16.7949 7.44618 16.7956C7.43591 16.796 7.42805 16.7963 7.42281 16.7965C7.42019 16.7966 7.41822 16.7966 7.41693 16.7967C7.41629 16.7967 7.41581 16.7967 7.41551 16.7967C7.41536 16.7968 7.41526 16.7968 7.41519 16.7968C7.41516 16.7968 7.41514 16.7968 7.41513 16.7968C7.41513 16.7968 7.41513 16.7968 7.41513 16.7968C7.41513 16.7968 7.41514 16.7968 7.40375 16.5095ZM8.72697 16.2188C9.20462 16.2396 9.90151 16.2311 10.4849 16.2171C10.7753 16.2101 11.0354 16.2018 11.2229 16.1952C11.3167 16.192 11.3922 16.1891 11.4443 16.1871C11.4703 16.1861 11.4904 16.1853 11.504 16.1847C11.5108 16.1845 11.516 16.1843 11.5195 16.1841C11.5212 16.184 11.5225 16.184 11.5233 16.184C11.5238 16.1839 11.5241 16.1839 11.5243 16.1839C11.5244 16.1839 11.5245 16.1839 11.5245 16.1839C11.5245 16.1839 11.5246 16.1839 11.5246 16.1839C11.5246 16.1839 11.5246 16.1839 11.5366 16.4712C11.5486 16.7584 11.5486 16.7584 11.5486 16.7584C11.5486 16.7584 11.5486 16.7584 11.5485 16.7584C11.5485 16.7585 11.5484 16.7585 11.5483 16.7585C11.548 16.7585 11.5477 16.7585 11.5472 16.7585C11.5463 16.7585 11.5449 16.7586 11.5431 16.7587C11.5395 16.7588 11.5342 16.759 11.5273 16.7593C11.5134 16.7599 11.4929 16.7607 11.4665 16.7617C11.4139 16.7638 11.3376 16.7666 11.243 16.7699C11.054 16.7766 10.7917 16.7849 10.4987 16.792C9.91518 16.806 9.20101 16.815 8.70202 16.7933L8.72697 16.2188Z" fill="black"/>
</svg>
