<svg width="265" height="90" viewBox="0 0 265 90" fill="none" xmlns="http://www.w3.org/2000/svg">
<path d="M72.2712 43.2497H38.015C38.015 43.2497 38.3238 40.1486 38.7048 38.1918C39.0585 36.3749 39.167 35.1572 39.6244 33.3637C40.1518 31.2958 40.4767 30.3011 41.2337 28.3058C41.9383 26.4486 42.5111 25.464 43.5009 23.7626L43.5328 23.7076C44.5095 22.0287 45.1101 21.1109 46.2917 19.5693C47.453 18.0543 48.2029 17.2815 49.5104 15.8908C50.641 14.6881 51.2881 14.0236 52.4992 12.902C53.7138 11.7771 54.4068 11.154 55.7179 10.1431C57.0985 9.07863 57.8833 8.47992 59.3964 7.61412C60.8606 6.77634 61.7874 6.28177 63.3048 5.54494C64.7496 4.84339 65.4922 4.53232 66.9833 3.93561C68.3807 3.37644 69.2104 3.18422 70.6619 2.78607L70.675 2.78247C72.179 2.36992 73.0303 2.13639 74.5703 1.86644C76.0841 1.60109 76.9476 1.53948 78.4787 1.40663C80.1806 1.25896 81.1393 1.13234 82.8469 1.17672C84.5617 1.22129 85.5145 1.18316 87.2152 1.40663C88.9275 1.63163 89.8985 1.77053 91.5834 2.14954C93.4125 2.56098 94.6386 2.91923 96.4115 3.52899C98.8868 4.38036 100.037 4.85656 102.389 6.00476C104.811 7.18689 106.497 7.74264 108.367 9.68329C108.853 10.1882 109.193 10.4404 109.516 11.0627C109.817 11.6428 109.976 12.6721 109.976 12.6721V78.4255C109.976 78.4255 109.674 79.4714 109.286 80.0349C108.927 80.558 108.609 80.7599 108.137 81.1844C106.636 82.5335 105.538 82.9745 103.768 83.9433C102.113 84.8496 101.148 85.299 99.4003 86.0125C96.9555 87.0106 95.5282 87.4557 92.9629 88.0816C90.31 88.7288 88.7854 88.987 86.0656 89.2312C82.8464 89.5202 81.0024 89.5793 77.789 89.2312C74.8676 88.9146 73.221 88.4584 70.4599 87.6932L70.202 87.6218C67.7394 86.9398 66.326 86.5985 63.9946 85.5526C61.8303 84.5817 58.7067 82.5639 58.7067 82.5639C58.7067 82.5639 63.9737 76.1396 66.9833 71.7582C68.3793 69.7261 69.271 68.8752 70.432 66.7002C71.6255 64.4641 72.2291 62.8379 73.1908 60.4927C74.3991 57.5464 75.9497 52.9058 75.9497 52.9058C75.9497 52.9058 77.6631 54.2435 78.9385 54.7451C80.2167 55.2478 81.0137 55.4224 82.3871 55.4348C83.568 55.4455 84.2709 55.3917 85.3759 54.975C86.4713 54.5619 86.9692 54.299 87.9049 53.5955C89.0732 52.7173 89.8268 52.0349 90.6638 50.8367C91.4469 49.7155 92.0432 47.618 92.0432 47.618H80.318V43.2497H92.0432C92.0432 43.2497 91.373 41.2003 90.6638 40.031C89.8708 38.7237 89.376 37.935 88.1348 37.0422C87.0246 36.2437 86.2462 35.9807 84.9161 35.6628C83.6033 35.349 82.8119 35.313 81.4675 35.4329C80.2744 35.5393 79.5936 35.6846 78.4787 36.1226C77.3178 36.5787 76.6579 36.9098 75.7198 37.732C74.8551 38.4898 74.5105 39.0691 73.8806 40.031C73.1106 41.2067 72.2712 43.2497 72.2712 43.2497Z" fill="#DC9749" stroke="#040300" stroke-width="0.459814"/>
<path d="M1 79.3452V10.373C1 10.373 4.10614 7.94675 6.28786 6.6945C8.51769 5.41463 9.85889 4.84042 12.2654 3.93561C14.6321 3.04582 16.0029 2.63611 18.4729 2.09635C20.9539 1.55422 22.3778 1.36499 24.9103 1.17673C27.686 0.970382 29.2666 0.91351 32.0375 1.17673C34.8597 1.44483 36.4382 1.77916 39.1646 2.55617C41.8427 3.31941 43.3429 3.83622 45.8319 5.08515C48.1031 6.22478 51.3497 8.53375 51.3497 8.53375C51.3497 8.53375 47.8403 11.7597 45.8319 14.0515C43.6779 16.5095 42.4713 17.926 40.7739 20.7188C39.0218 23.6019 38.2148 25.353 37.0954 28.5357C35.9321 31.8433 35.0263 37.2721 35.0263 37.2721C35.0263 37.2721 32.8778 35.9956 30.658 35.6628C29.2346 35.4494 27.2433 35.1604 25.83 35.4329C24.6839 35.6539 24.1029 35.8069 23.0711 36.3525C21.9264 36.9577 21.2168 37.4952 20.3122 38.4217C19.3548 39.4023 19.0551 39.9398 18.4729 41.1805C17.8699 42.4657 17.6376 43.4419 17.5533 44.8591C17.4602 46.4243 17.6532 47.3146 18.243 48.7675C18.8338 50.2228 19.2322 51.0758 20.3122 52.2161C21.4252 53.3913 22.2734 54.1066 23.7608 54.7451C25.2821 55.398 26.2441 55.474 27.8991 55.4348C29.1843 55.4044 29.8926 55.3639 31.1178 54.975C32.2303 54.6218 32.922 54.267 33.8767 53.5956C35.0239 52.7887 35.4544 52.0394 36.1758 50.8367C36.9219 49.5928 37.5552 47.3881 37.5552 47.3881H71.8114C71.8114 47.3881 71.5161 53.2055 70.6619 56.8143C69.8508 60.2407 69.2726 62.184 67.6731 65.3208C66.0325 68.5382 64.657 70.1003 62.3852 72.9078C60.2272 75.5746 59.0575 77.1662 56.4076 79.3452C54.0992 81.2433 52.5875 82.0407 49.9702 83.4835C47.3671 84.9184 45.8746 85.7092 43.073 86.7022C40.2816 87.6916 38.6285 88.0047 35.716 88.5414C32.6932 89.0985 30.9718 89.3789 27.8991 89.4611C24.9319 89.5404 23.2459 89.4532 20.3122 89.0013C17.3852 88.5503 15.7595 88.1141 12.9552 87.162C10.1755 86.2182 8.65835 85.5353 6.05796 84.1732C1.22991 81.6442 1 79.3452 1 79.3452Z" fill="#DC9749" stroke="#040300" stroke-width="0.459814"/>
<path d="M126.168 18.1132L126.066 21.0876H124.821V19.1963H124.121V18.1132H126.168ZM119.018 19.1963V11.3507H120.376V18.124H123.851V11.3507H125.209V19.1963H119.018ZM133.081 18.124V19.1963H128.916V18.124H133.081ZM129.298 11.3507V19.1963H127.946V11.3507H129.298ZM132.537 14.6269V15.683H128.916V14.6269H132.537ZM133.054 11.3507V12.4284H128.916V11.3507H133.054ZM140.031 14.6269V15.6992H135.866V14.6269H140.031ZM136.2 11.3507V19.1963H134.848V11.3507H136.2ZM141.071 11.3507V19.1963H139.724V11.3507H141.071ZM146.411 11.3507V19.1963H145.069V11.3507H146.411ZM148.873 11.3507V12.4284H142.628V11.3507H148.873ZM153.55 16.2704H151.508V15.1981H153.55C153.905 15.1981 154.193 15.1406 154.412 15.0256C154.631 14.9107 154.791 14.7526 154.891 14.5514C154.996 14.3467 155.048 14.1132 155.048 13.8509C155.048 13.6031 154.996 13.3714 154.891 13.1558C154.791 12.9367 154.631 12.7607 154.412 12.6278C154.193 12.4949 153.905 12.4284 153.55 12.4284H151.922V19.1963H150.57V11.3507H153.55C154.157 11.3507 154.672 11.4585 155.096 11.674C155.524 11.886 155.849 12.1805 156.072 12.5577C156.294 12.9313 156.406 13.3588 156.406 13.8402C156.406 14.3467 156.294 14.7814 156.072 15.1442C155.849 15.507 155.524 15.7854 155.096 15.9794C154.672 16.1734 154.157 16.2704 153.55 16.2704Z" fill="black"/>
<path d="M123.224 31.8966H124.571C124.528 32.4103 124.385 32.8683 124.14 33.2706C123.896 33.6694 123.553 33.9837 123.111 34.2136C122.669 34.4435 122.132 34.5585 121.5 34.5585C121.015 34.5585 120.579 34.4722 120.191 34.2998C119.803 34.1238 119.47 33.8759 119.194 33.5562C118.917 33.2329 118.705 32.8431 118.558 32.3869C118.414 31.9307 118.342 31.4206 118.342 30.8566V30.2046C118.342 29.6406 118.416 29.1305 118.563 28.6743C118.714 28.218 118.93 27.8283 119.21 27.505C119.49 27.1781 119.826 26.9284 120.218 26.756C120.613 26.5835 121.056 26.4973 121.549 26.4973C122.174 26.4973 122.702 26.6123 123.133 26.8422C123.564 27.0721 123.898 27.39 124.135 27.7959C124.376 28.2019 124.523 28.6671 124.577 29.1916H123.23C123.194 28.8539 123.115 28.5647 122.993 28.324C122.874 28.0833 122.698 27.9001 122.465 27.7744C122.231 27.6451 121.926 27.5804 121.549 27.5804C121.24 27.5804 120.97 27.6379 120.74 27.7528C120.51 27.8678 120.318 28.0366 120.164 28.2594C120.009 28.4821 119.893 28.7569 119.813 29.0838C119.738 29.4071 119.7 29.7771 119.7 30.1938V30.8566C119.7 31.2517 119.734 31.611 119.803 31.9343C119.875 32.254 119.982 32.5288 120.126 32.7587C120.273 32.9886 120.46 33.1664 120.686 33.2922C120.913 33.4179 121.184 33.4808 121.5 33.4808C121.884 33.4808 122.195 33.4197 122.432 33.2976C122.673 33.1754 122.854 32.9976 122.977 32.7641C123.102 32.527 123.185 32.2378 123.224 31.8966ZM129.528 26.6051V34.4507H128.187V26.6051H129.528ZM131.991 26.6051V27.6828H125.746V26.6051H131.991ZM136.667 31.5248H134.625V30.4525H136.667C137.023 30.4525 137.31 30.395 137.529 30.28C137.749 30.1651 137.908 30.007 138.009 29.8058C138.113 29.6011 138.165 29.3676 138.165 29.1053C138.165 28.8575 138.113 28.6258 138.009 28.4102C137.908 28.1911 137.749 28.0151 137.529 27.8822C137.31 27.7492 137.023 27.6828 136.667 27.6828H135.04V34.4507H133.687V26.6051H136.667C137.274 26.6051 137.79 26.7129 138.214 26.9284C138.641 27.1404 138.966 27.4349 139.189 27.8121C139.412 28.1857 139.523 28.6132 139.523 29.0946C139.523 29.6011 139.412 30.0357 139.189 30.3986C138.966 30.7614 138.641 31.0398 138.214 31.2338C137.79 31.4278 137.274 31.5248 136.667 31.5248ZM147.654 30.3124V30.7434C147.654 31.3362 147.576 31.8678 147.422 32.3384C147.267 32.809 147.047 33.2095 146.759 33.54C146.475 33.8705 146.134 34.1238 145.735 34.2998C145.337 34.4722 144.895 34.5585 144.41 34.5585C143.928 34.5585 143.488 34.4722 143.09 34.2998C142.695 34.1238 142.351 33.8705 142.06 33.54C141.769 33.2095 141.543 32.809 141.382 32.3384C141.223 31.8678 141.144 31.3362 141.144 30.7434V30.3124C141.144 29.7196 141.223 29.1898 141.382 28.7228C141.54 28.2522 141.762 27.8516 142.05 27.5211C142.341 27.1871 142.684 26.9338 143.079 26.7614C143.478 26.5853 143.918 26.4973 144.399 26.4973C144.884 26.4973 145.326 26.5853 145.725 26.7614C146.123 26.9338 146.466 27.1871 146.754 27.5211C147.041 27.8516 147.262 28.2522 147.417 28.7228C147.575 29.1898 147.654 29.7196 147.654 30.3124ZM146.301 30.7434V30.3016C146.301 29.8633 146.258 29.4771 146.172 29.1431C146.089 28.8054 145.965 28.5234 145.8 28.2971C145.638 28.0672 145.439 27.8947 145.202 27.7798C144.965 27.6612 144.697 27.602 144.399 27.602C144.101 27.602 143.835 27.6612 143.602 27.7798C143.368 27.8947 143.169 28.0672 143.003 28.2971C142.842 28.5234 142.718 28.8054 142.632 29.1431C142.545 29.4771 142.502 29.8633 142.502 30.3016V30.7434C142.502 31.1817 142.545 31.5697 142.632 31.9073C142.718 32.245 142.844 32.5306 143.009 32.7641C143.178 32.994 143.379 33.1682 143.612 33.2868C143.846 33.4017 144.112 33.4592 144.41 33.4592C144.712 33.4592 144.979 33.4017 145.213 33.2868C145.446 33.1682 145.644 32.994 145.805 32.7641C145.967 32.5306 146.089 32.245 146.172 31.9073C146.258 31.5697 146.301 31.1817 146.301 30.7434ZM151.005 32.2468L154.486 26.6051H155.838V34.4507H154.486V28.8036L151.005 34.4507H149.658V26.6051H151.005V32.2468ZM161.188 26.6051V34.4507H159.846V26.6051H161.188ZM163.651 26.6051V27.6828H157.405V26.6051H163.651ZM170.483 33.3784V34.4507H166.317V33.3784H170.483ZM166.7 26.6051V34.4507H165.347V26.6051H166.7ZM169.938 29.8813V30.9374H166.317V29.8813H169.938ZM170.456 26.6051V27.6828H166.317V26.6051H170.456ZM177.395 26.6051V27.6828H173.634V26.6051H177.395ZM178.43 26.6051V34.4507H177.077V26.6051H178.43ZM173.365 26.6051H174.706L174.518 30.501C174.493 31.0721 174.444 31.575 174.372 32.0097C174.301 32.4444 174.204 32.8162 174.081 33.1251C173.959 33.4341 173.805 33.6873 173.618 33.8849C173.431 34.0789 173.207 34.2226 172.944 34.316C172.686 34.4058 172.382 34.4507 172.034 34.4507H171.689V33.3784L171.899 33.3622C172.089 33.3478 172.253 33.3029 172.389 33.2275C172.53 33.1485 172.648 33.0335 172.745 32.8826C172.842 32.7282 172.923 32.5288 172.988 32.2845C173.052 32.0403 173.103 31.7421 173.138 31.39C173.178 31.038 173.207 30.6267 173.225 30.1561L173.365 26.6051ZM181.63 29.6172H183.602C184.198 29.6172 184.709 29.7178 185.132 29.919C185.556 30.1166 185.88 30.395 186.102 30.7542C186.325 31.1134 186.436 31.5319 186.436 32.0097C186.436 32.3689 186.374 32.6976 186.248 32.9958C186.122 33.294 185.937 33.5526 185.693 33.7717C185.449 33.9873 185.15 34.1543 184.798 34.2729C184.45 34.3914 184.051 34.4507 183.602 34.4507H180.692V26.6051H182.05V33.3784H183.602C183.943 33.3784 184.224 33.3155 184.443 33.1898C184.662 33.0605 184.824 32.8916 184.928 32.6833C185.035 32.4749 185.089 32.2468 185.089 31.9989C185.089 31.7583 185.035 31.5391 184.928 31.3415C184.824 31.144 184.662 30.9859 184.443 30.8674C184.224 30.7488 183.943 30.6895 183.602 30.6895H181.63V29.6172ZM193.468 29.8813V30.9536H189.303V29.8813H193.468ZM189.637 26.6051V34.4507H188.284V26.6051H189.637ZM194.508 26.6051V34.4507H193.161V26.6051H194.508ZM203.037 30.3124V30.7434C203.037 31.3362 202.96 31.8678 202.805 32.3384C202.651 32.809 202.43 33.2095 202.143 33.54C201.859 33.8705 201.517 34.1238 201.119 34.2998C200.72 34.4722 200.278 34.5585 199.793 34.5585C199.312 34.5585 198.872 34.4722 198.473 34.2998C198.078 34.1238 197.735 33.8705 197.444 33.54C197.153 33.2095 196.927 32.809 196.765 32.3384C196.607 31.8678 196.528 31.3362 196.528 30.7434V30.3124C196.528 29.7196 196.607 29.1898 196.765 28.7228C196.923 28.2522 197.146 27.8516 197.433 27.5211C197.724 27.1871 198.067 26.9338 198.462 26.7614C198.861 26.5853 199.301 26.4973 199.782 26.4973C200.267 26.4973 200.709 26.5853 201.108 26.7614C201.507 26.9338 201.85 27.1871 202.137 27.5211C202.425 27.8516 202.645 28.2522 202.8 28.7228C202.958 29.1898 203.037 29.7196 203.037 30.3124ZM201.685 30.7434V30.3016C201.685 29.8633 201.641 29.4771 201.555 29.1431C201.473 28.8054 201.349 28.5234 201.183 28.2971C201.022 28.0672 200.822 27.8947 200.585 27.7798C200.348 27.6612 200.081 27.602 199.782 27.602C199.484 27.602 199.218 27.6612 198.985 27.7798C198.751 27.8947 198.552 28.0672 198.387 28.2971C198.225 28.5234 198.101 28.8054 198.015 29.1431C197.929 29.4771 197.886 29.8633 197.886 30.3016V30.7434C197.886 31.1817 197.929 31.5697 198.015 31.9073C198.101 32.245 198.227 32.5306 198.392 32.7641C198.561 32.994 198.762 33.1682 198.996 33.2868C199.229 33.4017 199.495 33.4592 199.793 33.4592C200.095 33.4592 200.363 33.4017 200.596 33.2868C200.83 33.1682 201.027 32.994 201.189 32.7641C201.35 32.5306 201.473 32.245 201.555 31.9073C201.641 31.5697 201.685 31.1817 201.685 30.7434ZM210.068 26.6051V27.6828H206.426V34.4507H205.079V26.6051H210.068ZM217.746 30.3124V30.7434C217.746 31.3362 217.669 31.8678 217.514 32.3384C217.36 32.809 217.139 33.2095 216.852 33.54C216.568 33.8705 216.227 34.1238 215.828 34.2998C215.429 34.4722 214.987 34.5585 214.502 34.5585C214.021 34.5585 213.581 34.4722 213.182 34.2998C212.787 34.1238 212.444 33.8705 212.153 33.54C211.862 33.2095 211.636 32.809 211.474 32.3384C211.316 31.8678 211.237 31.3362 211.237 30.7434V30.3124C211.237 29.7196 211.316 29.1898 211.474 28.7228C211.632 28.2522 211.855 27.8516 212.142 27.5211C212.433 27.1871 212.776 26.9338 213.171 26.7614C213.57 26.5853 214.01 26.4973 214.492 26.4973C214.977 26.4973 215.418 26.5853 215.817 26.7614C216.216 26.9338 216.559 27.1871 216.846 27.5211C217.134 27.8516 217.355 28.2522 217.509 28.7228C217.667 29.1898 217.746 29.7196 217.746 30.3124ZM216.394 30.7434V30.3016C216.394 29.8633 216.351 29.4771 216.264 29.1431C216.182 28.8054 216.058 28.5234 215.893 28.2971C215.731 28.0672 215.532 27.8947 215.294 27.7798C215.057 27.6612 214.79 27.602 214.492 27.602C214.193 27.602 213.928 27.6612 213.694 27.7798C213.461 27.8947 213.261 28.0672 213.096 28.2971C212.934 28.5234 212.81 28.8054 212.724 29.1431C212.638 29.4771 212.595 29.8633 212.595 30.3016V30.7434C212.595 31.1817 212.638 31.5697 212.724 31.9073C212.81 32.245 212.936 32.5306 213.101 32.7641C213.27 32.994 213.471 33.1682 213.705 33.2868C213.938 33.4017 214.204 33.4592 214.502 33.4592C214.804 33.4592 215.072 33.4017 215.305 33.2868C215.539 33.1682 215.736 32.994 215.898 32.7641C216.06 32.5306 216.182 32.245 216.264 31.9073C216.351 31.5697 216.394 31.1817 216.394 30.7434Z" fill="black"/>
<path d="M120.884 42.6984V50.5439H119.537V42.6984H120.884ZM125.604 42.6984L122.414 47.1708H120.501L120.318 45.9961H121.665L123.95 42.6984H125.604ZM124.225 50.5439L121.687 46.966L122.56 45.926L125.847 50.5439H124.225ZM133.258 46.4056V46.8367C133.258 47.4294 133.181 47.9611 133.026 48.4317C132.872 48.9023 132.651 49.3028 132.364 49.6333C132.08 49.9638 131.738 50.217 131.34 50.3931C130.941 50.5655 130.499 50.6517 130.014 50.6517C129.533 50.6517 129.093 50.5655 128.694 50.3931C128.299 50.217 127.956 49.9638 127.665 49.6333C127.374 49.3028 127.148 48.9023 126.986 48.4317C126.828 47.9611 126.749 47.4294 126.749 46.8367V46.4056C126.749 45.8129 126.828 45.283 126.986 44.816C127.144 44.3454 127.367 43.9449 127.654 43.6144C127.945 43.2803 128.288 43.0271 128.683 42.8546C129.082 42.6786 129.522 42.5906 130.003 42.5906C130.488 42.5906 130.93 42.6786 131.329 42.8546C131.728 43.0271 132.071 43.2803 132.358 43.6144C132.646 43.9449 132.866 44.3454 133.021 44.816C133.179 45.283 133.258 45.8129 133.258 46.4056ZM131.906 46.8367V46.3948C131.906 45.9566 131.862 45.5704 131.776 45.2363C131.694 44.8986 131.57 44.6167 131.404 44.3903C131.243 44.1604 131.043 43.988 130.806 43.873C130.569 43.7545 130.302 43.6952 130.003 43.6952C129.705 43.6952 129.439 43.7545 129.206 43.873C128.972 43.988 128.773 44.1604 128.608 44.3903C128.446 44.6167 128.322 44.8986 128.236 45.2363C128.15 45.5704 128.107 45.9566 128.107 46.3948V46.8367C128.107 47.275 128.15 47.6629 128.236 48.0006C128.322 48.3383 128.448 48.6239 128.613 48.8574C128.782 49.0873 128.983 49.2615 129.217 49.38C129.45 49.495 129.716 49.5525 130.014 49.5525C130.316 49.5525 130.584 49.495 130.817 49.38C131.051 49.2615 131.248 49.0873 131.41 48.8574C131.571 48.6239 131.694 48.3383 131.776 48.0006C131.862 47.6629 131.906 47.275 131.906 46.8367ZM140.346 45.9745V47.0468H136.181V45.9745H140.346ZM136.515 42.6984V50.5439H135.162V42.6984H136.515ZM141.386 42.6984V50.5439H140.039V42.6984H141.386ZM146.615 42.6984V50.5439H145.273V42.6984H146.615ZM149.077 42.6984V43.7761H142.832V42.6984H149.077ZM153.644 47.618H151.601V46.5457H153.644C153.999 46.5457 154.287 46.4882 154.506 46.3733C154.725 46.2583 154.885 46.1003 154.985 45.8991C155.09 45.6943 155.142 45.4608 155.142 45.1986C155.142 44.9507 155.09 44.719 154.985 44.5035C154.885 44.2844 154.725 44.1083 154.506 43.9754C154.287 43.8425 153.999 43.7761 153.644 43.7761H152.016V50.5439H150.664V42.6984H153.644C154.251 42.6984 154.766 42.8061 155.19 43.0217C155.618 43.2336 155.943 43.5282 156.165 43.9054C156.388 44.279 156.499 44.7065 156.499 45.1878C156.499 45.6943 156.388 46.129 156.165 46.4918C155.943 46.8547 155.618 47.1331 155.19 47.327C154.766 47.521 154.251 47.618 153.644 47.618ZM164.52 46.4056V46.8367C164.52 47.4294 164.442 47.9611 164.288 48.4317C164.133 48.9023 163.913 49.3028 163.625 49.6333C163.341 49.9638 163 50.217 162.601 50.3931C162.203 50.5655 161.761 50.6517 161.276 50.6517C160.794 50.6517 160.354 50.5655 159.956 50.3931C159.56 50.217 159.217 49.9638 158.926 49.6333C158.635 49.3028 158.409 48.9023 158.248 48.4317C158.089 47.9611 158.01 47.4294 158.01 46.8367V46.4056C158.01 45.8129 158.089 45.283 158.248 44.816C158.406 44.3454 158.628 43.9449 158.916 43.6144C159.207 43.2803 159.55 43.0271 159.945 42.8546C160.344 42.6786 160.784 42.5906 161.265 42.5906C161.75 42.5906 162.192 42.6786 162.591 42.8546C162.989 43.0271 163.332 43.2803 163.62 43.6144C163.907 43.9449 164.128 44.3454 164.283 44.816C164.441 45.283 164.52 45.8129 164.52 46.4056ZM163.167 46.8367V46.3948C163.167 45.9566 163.124 45.5704 163.038 45.2363C162.955 44.8986 162.831 44.6167 162.666 44.3903C162.504 44.1604 162.305 43.988 162.068 43.873C161.831 43.7545 161.563 43.6952 161.265 43.6952C160.967 43.6952 160.701 43.7545 160.468 43.873C160.234 43.988 160.035 44.1604 159.869 44.3903C159.708 44.6167 159.584 44.8986 159.498 45.2363C159.411 45.5704 159.368 45.9566 159.368 46.3948V46.8367C159.368 47.275 159.411 47.6629 159.498 48.0006C159.584 48.3383 159.71 48.6239 159.875 48.8574C160.044 49.0873 160.245 49.2615 160.478 49.38C160.712 49.495 160.978 49.5525 161.276 49.5525C161.578 49.5525 161.845 49.495 162.079 49.38C162.312 49.2615 162.51 49.0873 162.671 48.8574C162.833 48.6239 162.955 48.3383 163.038 48.0006C163.124 47.6629 163.167 47.275 163.167 46.8367ZM171.397 42.6984V43.7761H167.636V42.6984H171.397ZM172.432 42.6984V50.5439H171.08V42.6984H172.432ZM167.367 42.6984H168.709L168.52 46.5942C168.495 47.1654 168.446 47.6683 168.375 48.103C168.303 48.5376 168.206 48.9094 168.084 49.2184C167.961 49.5273 167.807 49.7806 167.62 49.9782C167.433 50.1721 167.209 50.3158 166.947 50.4092C166.688 50.499 166.384 50.5439 166.036 50.5439H165.691V49.4716L165.901 49.4555C166.092 49.4411 166.255 49.3962 166.392 49.3208C166.532 49.2417 166.65 49.1268 166.747 48.9759C166.844 48.8214 166.925 48.6221 166.99 48.3778C167.054 48.1335 167.105 47.8354 167.141 47.4833C167.18 47.1313 167.209 46.7199 167.227 46.2494L167.367 42.6984ZM178.857 47.6019H176.696L176.163 47.3809C175.57 47.1941 175.116 46.9103 174.8 46.5296C174.484 46.1488 174.326 45.6692 174.326 45.0908C174.326 44.5735 174.441 44.1371 174.67 43.7814C174.9 43.4258 175.227 43.1564 175.651 42.9732C176.079 42.79 176.583 42.6984 177.165 42.6984H179.8V50.5439H178.442V43.7761H177.165C176.662 43.7761 176.289 43.8982 176.044 44.1425C175.8 44.3867 175.678 44.7244 175.678 45.1555C175.678 45.4501 175.732 45.7033 175.84 45.9153C175.951 46.1236 176.115 46.2853 176.33 46.4002C176.549 46.5116 176.82 46.5673 177.144 46.5673H178.857V47.6019ZM177.208 46.9983L175.387 50.5439H173.932L175.775 46.9983H177.208ZM186.562 48.3401L190.043 42.6984H191.395V50.5439H190.043V44.8969L186.562 50.5439H185.215V42.6984H186.562V48.3401ZM202.02 46.0877V47.1654H198.738V46.0877H202.02ZM196.61 47.9898H197.957C197.997 48.3347 198.077 48.6257 198.2 48.8627C198.325 49.0998 198.507 49.2795 198.744 49.4016C198.985 49.5237 199.299 49.5848 199.687 49.5848C199.999 49.5848 200.269 49.5219 200.495 49.3962C200.725 49.2705 200.914 49.0927 201.061 48.8627C201.208 48.6292 201.318 48.3526 201.39 48.0329C201.461 47.7096 201.497 47.3486 201.497 46.9499V46.2925C201.497 45.9584 201.472 45.6548 201.422 45.3818C201.372 45.1052 201.294 44.8609 201.19 44.649C201.09 44.437 200.964 44.2592 200.813 44.1155C200.666 43.9682 200.493 43.8569 200.296 43.7814C200.098 43.706 199.877 43.6683 199.633 43.6683C199.256 43.6683 198.95 43.7329 198.717 43.8623C198.483 43.988 198.307 44.173 198.189 44.4173C198.07 44.658 197.991 44.9489 197.952 45.2902H196.605C196.659 44.7621 196.806 44.2951 197.046 43.8892C197.287 43.4833 197.621 43.1654 198.049 42.9355C198.48 42.7055 199.008 42.5906 199.633 42.5906C200.125 42.5906 200.567 42.6786 200.958 42.8546C201.354 43.0271 201.691 43.2767 201.972 43.6036C202.252 43.9269 202.465 44.3167 202.613 44.7729C202.764 45.2291 202.839 45.7392 202.839 46.3032V46.9499C202.839 47.5138 202.765 48.0239 202.618 48.4802C202.474 48.9364 202.264 49.3262 201.988 49.6495C201.711 49.9728 201.379 50.2206 200.991 50.3931C200.603 50.5655 200.168 50.6517 199.687 50.6517C199.051 50.6517 198.512 50.5386 198.07 50.3122C197.632 50.0823 197.291 49.7662 197.046 49.3639C196.802 48.9615 196.657 48.5035 196.61 47.9898ZM206.08 42.6984V50.5439H204.733V42.6984H206.08ZM210.8 42.6984L207.61 47.1708H205.697L205.514 45.9961H206.861L209.146 42.6984H210.8ZM209.421 50.5439L206.883 46.966L207.755 45.926L211.042 50.5439H209.421ZM216.832 47.9898H218.179C218.136 48.5035 217.992 48.9615 217.748 49.3639C217.504 49.7626 217.16 50.0769 216.719 50.3069C216.277 50.5368 215.74 50.6517 215.107 50.6517C214.623 50.6517 214.186 50.5655 213.798 50.3931C213.41 50.217 213.078 49.9692 212.801 49.6495C212.525 49.3262 212.313 48.9364 212.165 48.4802C212.022 48.0239 211.95 47.5138 211.95 46.9499V46.2978C211.95 45.7339 212.024 45.2238 212.171 44.7675C212.322 44.3113 212.537 43.9215 212.817 43.5982C213.098 43.2713 213.433 43.0217 213.825 42.8492C214.22 42.6768 214.664 42.5906 215.156 42.5906C215.781 42.5906 216.309 42.7055 216.74 42.9355C217.171 43.1654 217.505 43.4833 217.742 43.8892C217.983 44.2951 218.13 44.7603 218.184 45.2848H216.837C216.801 44.9471 216.722 44.658 216.6 44.4173C216.482 44.1766 216.306 43.9934 216.072 43.8677C215.839 43.7383 215.533 43.6737 215.156 43.6737C214.847 43.6737 214.578 43.7312 214.348 43.8461C214.118 43.9611 213.926 44.1299 213.771 44.3526C213.617 44.5753 213.5 44.8502 213.421 45.1771C213.345 45.5004 213.308 45.8704 213.308 46.2871V46.9499C213.308 47.345 213.342 47.7042 213.41 48.0275C213.482 48.3473 213.59 48.6221 213.733 48.852C213.881 49.0819 214.068 49.2597 214.294 49.3854C214.52 49.5112 214.791 49.574 215.107 49.574C215.492 49.574 215.803 49.513 216.04 49.3908C216.28 49.2687 216.462 49.0909 216.584 48.8574C216.71 48.6203 216.792 48.3311 216.832 47.9898ZM226.167 42.6984V50.5439H224.82V43.7761H221.333V50.5439H219.986V42.6984H226.167ZM233.481 49.4716V50.5439H229.316V49.4716H233.481ZM229.698 42.6984V50.5439H228.346V42.6984H229.698ZM232.937 45.9745V47.0307H229.316V45.9745H232.937ZM233.454 42.6984V43.7761H229.316V42.6984H233.454ZM238.117 47.618H236.075V46.5457H238.117C238.473 46.5457 238.76 46.4882 238.979 46.3733C239.199 46.2583 239.358 46.1003 239.459 45.8991C239.563 45.6943 239.615 45.4608 239.615 45.1986C239.615 44.9507 239.563 44.719 239.459 44.5035C239.358 44.2844 239.199 44.1083 238.979 43.9754C238.76 43.8425 238.473 43.7761 238.117 43.7761H236.49V50.5439H235.137V42.6984H238.117C238.724 42.6984 239.24 42.8061 239.664 43.0217C240.091 43.2336 240.416 43.5282 240.639 43.9054C240.862 44.279 240.973 44.7065 240.973 45.1878C240.973 45.6943 240.862 46.129 240.639 46.4918C240.416 46.8547 240.091 47.1331 239.664 47.327C239.24 47.521 238.724 47.618 238.117 47.618ZM245.965 42.6984V50.5439H244.623V42.6984H245.965ZM248.427 42.6984V43.7761H242.182V42.6984H248.427ZM251.35 48.3401L254.831 42.6984H256.184V50.5439H254.831V44.8969L251.35 50.5439H250.003V42.6984H251.35V48.3401ZM261.046 46.7828H259.958V46.0123H260.895C261.229 46.0123 261.501 45.9638 261.709 45.8668C261.917 45.7662 262.068 45.6279 262.162 45.4519C262.259 45.2722 262.307 45.0639 262.307 44.8268C262.307 44.6149 262.253 44.4209 262.145 44.2448C262.041 44.0688 261.88 43.9287 261.66 43.8246C261.441 43.7168 261.159 43.6629 260.814 43.6629C260.556 43.6629 260.321 43.7096 260.109 43.803C259.897 43.8964 259.728 44.0275 259.602 44.1964C259.48 44.3652 259.419 44.5646 259.419 44.7945H258.066C258.066 44.4532 258.138 44.1479 258.282 43.8784C258.429 43.6054 258.629 43.3737 258.88 43.1833C259.135 42.9929 259.428 42.8474 259.758 42.7469C260.092 42.6427 260.444 42.5906 260.814 42.5906C261.246 42.5906 261.635 42.6391 261.984 42.7361C262.332 42.8295 262.632 42.9696 262.884 43.1564C263.135 43.3432 263.327 43.5767 263.46 43.8569C263.593 44.1335 263.66 44.455 263.66 44.8214C263.66 45.0908 263.597 45.3441 263.471 45.5812C263.349 45.8183 263.173 46.0266 262.943 46.2062C262.713 46.3859 262.436 46.5278 262.113 46.6319C261.793 46.7325 261.438 46.7828 261.046 46.7828ZM259.958 46.314H261.046C261.481 46.314 261.867 46.3589 262.205 46.4487C262.542 46.5385 262.828 46.6697 263.061 46.8421C263.295 47.0145 263.473 47.2283 263.595 47.4833C263.717 47.7348 263.778 48.0239 263.778 48.3508C263.778 48.7173 263.704 49.0442 263.557 49.3315C263.413 49.6153 263.209 49.856 262.943 50.0536C262.677 50.2512 262.363 50.4003 262 50.5008C261.641 50.6014 261.246 50.6517 260.814 50.6517C260.466 50.6517 260.121 50.6086 259.78 50.5224C259.442 50.4326 259.135 50.2961 258.858 50.1129C258.585 49.9261 258.366 49.689 258.201 49.4016C258.036 49.1142 257.953 48.7693 257.953 48.367H259.311C259.311 48.5897 259.374 48.7945 259.5 48.9813C259.629 49.1645 259.805 49.3118 260.028 49.4231C260.254 49.5309 260.516 49.5848 260.814 49.5848C261.156 49.5848 261.445 49.5309 261.682 49.4231C261.923 49.3154 262.106 49.1681 262.232 48.9813C262.361 48.7945 262.426 48.5843 262.426 48.3508C262.426 48.1281 262.391 47.9359 262.323 47.7743C262.259 47.609 262.162 47.4761 262.032 47.3755C261.903 47.2714 261.743 47.1941 261.553 47.1438C261.362 47.0935 261.143 47.0684 260.895 47.0684H259.958V46.314Z" fill="black"/>
<path d="M124.196 58.7921V59.8698H120.435V58.7921H124.196ZM125.231 58.7921V66.6377H123.878V58.7921H125.231ZM120.166 58.7921H121.507L121.319 62.688C121.294 63.2591 121.245 63.7621 121.173 64.1967C121.101 64.6314 121.004 65.0032 120.882 65.3121C120.76 65.6211 120.606 65.8743 120.419 66.0719C120.232 66.2659 120.007 66.4096 119.745 66.503C119.487 66.5928 119.183 66.6377 118.835 66.6377H118.49V65.5654L118.7 65.5492C118.89 65.5349 119.054 65.49 119.19 65.4145C119.33 65.3355 119.449 65.2205 119.546 65.0697C119.643 64.9152 119.724 64.7158 119.788 64.4715C119.853 64.2273 119.903 63.9291 119.939 63.5771C119.979 63.225 120.007 62.8137 120.025 62.3431L120.166 58.7921ZM132.54 65.5654V66.6377H128.374V65.5654H132.54ZM128.757 58.7921V66.6377H127.404V58.7921H128.757ZM131.995 62.0683V63.1244H128.374V62.0683H131.995ZM132.513 58.7921V59.8698H128.374V58.7921H132.513ZM139.38 62.0683V63.1406H135.214V62.0683H139.38ZM135.548 58.7921V66.6377H134.196V58.7921H135.548ZM140.42 58.7921V66.6377H139.073V58.7921H140.42ZM143.919 64.4338L147.4 58.7921H148.752V66.6377H147.4V60.9906L143.919 66.6377H142.572V58.7921H143.919V64.4338ZM156.11 62.0683V63.1406H151.944V62.0683H156.11ZM152.279 58.7921V66.6377H150.926V58.7921H152.279ZM157.15 58.7921V66.6377H155.803V58.7921H157.15ZM164.329 58.7921V59.8698H160.687V66.6377H159.34V58.7921H164.329ZM168.987 63.7118H166.945V62.6395H168.987C169.343 62.6395 169.63 62.582 169.849 62.467C170.068 62.3521 170.228 62.194 170.329 61.9929C170.433 61.7881 170.485 61.5546 170.485 61.2924C170.485 61.0445 170.433 60.8128 170.329 60.5972C170.228 60.3781 170.068 60.2021 169.849 60.0692C169.63 59.9363 169.343 59.8698 168.987 59.8698H167.36V66.6377H166.007V58.7921H168.987C169.594 58.7921 170.11 58.8999 170.534 59.1154C170.961 59.3274 171.286 59.6219 171.509 59.9991C171.732 60.3727 171.843 60.8002 171.843 61.2816C171.843 61.7881 171.732 62.2228 171.509 62.5856C171.286 62.9484 170.961 63.2268 170.534 63.4208C170.11 63.6148 169.594 63.7118 168.987 63.7118ZM175.843 59.8375L173.499 66.6377H172.082L175.035 58.7921H175.94L175.843 59.8375ZM177.805 66.6377L175.455 59.8375L175.353 58.7921H176.264L179.227 66.6377H177.805ZM177.692 63.7279V64.8002H173.424V63.7279H177.692ZM186.962 65.5654V66.6377H181.18V65.5654H186.962ZM181.514 65.5654V68.5668H180.221L180.172 65.5654H181.514ZM188.007 65.5654L187.926 68.5614H186.655V65.5654H188.007ZM186.013 58.7921V59.8698H182.392V58.7921H186.013ZM187.048 58.7921V66.6377H185.701V58.7921H187.048ZM182.123 58.7921H183.475L183.287 61.9713C183.258 62.4742 183.206 62.9269 183.131 63.3292C183.055 63.7315 182.964 64.0926 182.856 64.4123C182.752 64.7284 182.633 65.0086 182.5 65.2529C182.367 65.4935 182.225 65.7019 182.074 65.8779C181.924 66.0539 181.769 66.2048 181.611 66.3306C181.457 66.4527 181.304 66.5551 181.153 66.6377H180.431V65.5654H180.781C180.878 65.4756 180.986 65.3463 181.105 65.1774C181.223 65.005 181.338 64.7805 181.449 64.5039C181.564 64.2237 181.665 63.877 181.751 63.4639C181.837 63.0508 181.897 62.5533 181.929 61.9713L182.123 58.7921ZM194.088 64.0836H195.435C195.392 64.5973 195.248 65.0553 195.004 65.4576C194.759 65.8564 194.416 66.1707 193.974 66.4006C193.532 66.6305 192.995 66.7455 192.363 66.7455C191.878 66.7455 191.442 66.6592 191.054 66.4868C190.666 66.3108 190.334 66.0629 190.057 65.7432C189.78 65.4199 189.568 65.0301 189.421 64.5739C189.277 64.1177 189.206 63.6076 189.206 63.0436V62.3916C189.206 61.8276 189.279 61.3175 189.426 60.8613C189.577 60.4051 189.793 60.0153 190.073 59.692C190.353 59.3651 190.689 59.1154 191.081 58.943C191.476 58.7706 191.92 58.6843 192.412 58.6843C193.037 58.6843 193.565 58.7993 193.996 59.0292C194.427 59.2591 194.761 59.577 194.998 59.983C195.239 60.3889 195.386 60.8541 195.44 61.3786H194.093C194.057 61.0409 193.978 60.7517 193.856 60.511C193.737 60.2703 193.561 60.0871 193.328 59.9614C193.094 59.8321 192.789 59.7674 192.412 59.7674C192.103 59.7674 191.833 59.8249 191.603 59.9399C191.374 60.0548 191.181 60.2236 191.027 60.4464C190.872 60.6691 190.756 60.9439 190.677 61.2708C190.601 61.5941 190.563 61.9641 190.563 62.3808V63.0436C190.563 63.4388 190.598 63.798 190.666 64.1213C190.738 64.441 190.845 64.7158 190.989 64.9457C191.136 65.1756 191.323 65.3534 191.55 65.4792C191.776 65.6049 192.047 65.6678 192.363 65.6678C192.748 65.6678 193.058 65.6067 193.295 65.4846C193.536 65.3624 193.717 65.1846 193.84 64.9511C193.965 64.714 194.048 64.4248 194.088 64.0836ZM198.589 58.7921V66.6377H197.242V58.7921H198.589ZM203.309 58.7921L200.119 63.2645H198.206L198.023 62.0898H199.37L201.655 58.7921H203.309ZM201.93 66.6377L199.392 63.0598L200.265 62.0198L203.552 66.6377H201.93ZM210.963 62.4994V62.9304C210.963 63.5232 210.886 64.0548 210.731 64.5254C210.577 64.996 210.356 65.3966 210.069 65.727C209.785 66.0575 209.443 66.3108 209.045 66.4868C208.646 66.6592 208.204 66.7455 207.719 66.7455C207.238 66.7455 206.798 66.6592 206.399 66.4868C206.004 66.3108 205.661 66.0575 205.37 65.727C205.079 65.3966 204.853 64.996 204.691 64.5254C204.533 64.0548 204.454 63.5232 204.454 62.9304V62.4994C204.454 61.9066 204.533 61.3768 204.691 60.9098C204.849 60.4392 205.072 60.0386 205.359 59.7082C205.65 59.3741 205.993 59.1208 206.388 58.9484C206.787 58.7724 207.227 58.6843 207.708 58.6843C208.193 58.6843 208.635 58.7724 209.034 58.9484C209.433 59.1208 209.776 59.3741 210.063 59.7082C210.351 60.0386 210.571 60.4392 210.726 60.9098C210.884 61.3768 210.963 61.9066 210.963 62.4994ZM209.611 62.9304V62.4886C209.611 62.0503 209.567 61.6642 209.481 61.3301C209.399 60.9924 209.275 60.7104 209.109 60.4841C208.948 60.2542 208.748 60.0817 208.511 59.9668C208.274 59.8483 208.007 59.789 207.708 59.789C207.41 59.789 207.144 59.8483 206.911 59.9668C206.677 60.0817 206.478 60.2542 206.313 60.4841C206.151 60.7104 206.027 60.9924 205.941 61.3301C205.855 61.6642 205.812 62.0503 205.812 62.4886V62.9304C205.812 63.3687 205.855 63.7567 205.941 64.0943C206.027 64.432 206.153 64.7176 206.318 64.9511C206.487 65.181 206.688 65.3552 206.922 65.4738C207.155 65.5887 207.421 65.6462 207.719 65.6462C208.021 65.6462 208.289 65.5887 208.522 65.4738C208.756 65.3552 208.953 65.181 209.115 64.9511C209.276 64.7176 209.399 64.432 209.481 64.0943C209.567 63.7567 209.611 63.3687 209.611 62.9304ZM214.204 64.4338L217.685 58.7921H219.037V66.6377H217.685V60.9906L214.204 66.6377H212.857V58.7921H214.204V64.4338ZM216.752 56.7822H217.717C217.717 57.0804 217.645 57.3444 217.501 57.5743C217.361 57.8006 217.16 57.9785 216.898 58.1078C216.639 58.2371 216.33 58.3018 215.971 58.3018C215.429 58.3018 214.999 58.1617 214.683 57.8815C214.371 57.5977 214.214 57.2313 214.214 56.7822H215.179C215.179 56.9834 215.238 57.1612 215.357 57.3157C215.479 57.4666 215.684 57.542 215.971 57.542C216.255 57.542 216.456 57.4666 216.575 57.3157C216.693 57.1612 216.752 56.9834 216.752 56.7822Z" fill="black"/>
<path d="M125.766 78.1329V78.564C125.766 79.1567 125.689 79.6884 125.534 80.159C125.38 80.6296 125.159 81.0301 124.871 81.3606C124.588 81.6911 124.246 81.9443 123.848 82.1204C123.449 82.2928 123.007 82.379 122.522 82.379C122.041 82.379 121.601 82.2928 121.202 82.1204C120.807 81.9443 120.464 81.6911 120.173 81.3606C119.882 81.0301 119.655 80.6296 119.494 80.159C119.336 79.6884 119.257 79.1567 119.257 78.564V78.1329C119.257 77.5402 119.336 77.0103 119.494 76.5433C119.652 76.0727 119.875 75.6722 120.162 75.3417C120.453 75.0076 120.796 74.7544 121.191 74.5819C121.59 74.4059 122.03 74.3179 122.511 74.3179C122.996 74.3179 123.438 74.4059 123.837 74.5819C124.236 74.7544 124.579 75.0076 124.866 75.3417C125.153 75.6722 125.374 76.0727 125.529 76.5433C125.687 77.0103 125.766 77.5402 125.766 78.1329ZM124.413 78.564V78.1221C124.413 77.6839 124.37 77.2977 124.284 76.9636C124.201 76.6259 124.078 76.3439 123.912 76.1176C123.751 75.8877 123.551 75.7153 123.314 75.6003C123.077 75.4818 122.809 75.4225 122.511 75.4225C122.213 75.4225 121.947 75.4818 121.714 75.6003C121.48 75.7153 121.281 75.8877 121.116 76.1176C120.954 76.3439 120.83 76.6259 120.744 76.9636C120.658 77.2977 120.615 77.6839 120.615 78.1221V78.564C120.615 79.0022 120.658 79.3902 120.744 79.7279C120.83 80.0656 120.956 80.3512 121.121 80.5847C121.29 80.8146 121.491 80.9888 121.725 81.1073C121.958 81.2223 122.224 81.2798 122.522 81.2798C122.824 81.2798 123.091 81.2223 123.325 81.1073C123.558 80.9888 123.756 80.8146 123.918 80.5847C124.079 80.3512 124.201 80.0656 124.284 79.7279C124.37 79.3902 124.413 79.0022 124.413 78.564ZM132.644 74.4257V75.5033H128.996V82.2712H127.649V74.4257H132.644ZM128.586 77.4378H130.558C131.155 77.4378 131.665 77.5384 132.089 77.7396C132.513 77.9371 132.836 78.2155 133.059 78.5748C133.281 78.934 133.393 79.3525 133.393 79.8303C133.393 80.1895 133.33 80.5182 133.204 80.8164C133.078 81.1145 132.893 81.3732 132.649 81.5923C132.405 81.8078 132.107 81.9749 131.755 82.0934C131.406 82.212 131.007 82.2712 130.558 82.2712H127.649V74.4257H129.007V81.1989H130.558C130.9 81.1989 131.18 81.1361 131.399 81.0103C131.618 80.881 131.78 80.7122 131.884 80.5038C131.992 80.2955 132.046 80.0674 132.046 79.8195C132.046 79.5788 131.992 79.3597 131.884 79.1621C131.78 78.9645 131.618 78.8065 131.399 78.6879C131.18 78.5694 130.9 78.5101 130.558 78.5101H128.586V77.4378ZM140.308 74.4257V75.5033H136.547V74.4257H140.308ZM141.343 74.4257V82.2712H139.99V74.4257H141.343ZM136.278 74.4257H137.619L137.431 78.3215C137.406 78.8927 137.357 79.3956 137.285 79.8303C137.214 80.2649 137.117 80.6367 136.994 80.9457C136.872 81.2546 136.718 81.5079 136.531 81.7055C136.344 81.8994 136.12 82.0431 135.857 82.1365C135.599 82.2263 135.295 82.2712 134.947 82.2712H134.602V81.1989L134.812 81.1828C135.002 81.1684 135.166 81.1235 135.302 81.0481C135.443 80.969 135.561 80.8541 135.658 80.7032C135.755 80.5487 135.836 80.3494 135.901 80.1051C135.965 79.8608 136.015 79.5626 136.051 79.2106C136.091 78.8586 136.12 78.4472 136.138 77.9766L136.278 74.4257ZM146.669 75.471L144.325 82.2712H142.908L145.861 74.4257H146.766L146.669 75.471ZM148.63 82.2712L146.281 75.471L146.178 74.4257H147.089L150.053 82.2712H148.63ZM148.517 79.3615V80.4338H144.249V79.3615H148.517ZM156.031 79.7171H157.378C157.335 80.2308 157.191 80.6888 156.947 81.0912C156.702 81.4899 156.359 81.8042 155.918 82.0341C155.476 82.2641 154.939 82.379 154.306 82.379C153.821 82.379 153.385 82.2928 152.997 82.1204C152.609 81.9443 152.277 81.6965 152 81.3768C151.724 81.0535 151.512 80.6637 151.364 80.2075C151.221 79.7512 151.149 79.2411 151.149 78.6771V78.0251C151.149 77.4612 151.222 76.951 151.37 76.4948C151.521 76.0386 151.736 75.6488 152.016 75.3255C152.296 74.9986 152.632 74.749 153.024 74.5765C153.419 74.4041 153.863 74.3179 154.355 74.3179C154.98 74.3179 155.508 74.4328 155.939 74.6628C156.37 74.8927 156.704 75.2106 156.941 75.6165C157.182 76.0224 157.329 76.4876 157.383 77.0121H156.036C156 76.6744 155.921 76.3853 155.799 76.1446C155.68 75.9039 155.504 75.7207 155.271 75.595C155.037 75.4656 154.732 75.401 154.355 75.401C154.046 75.401 153.777 75.4584 153.547 75.5734C153.317 75.6884 153.125 75.8572 152.97 76.0799C152.816 76.3026 152.699 76.5774 152.62 76.9043C152.544 77.2277 152.507 77.5977 152.507 78.0144V78.6771C152.507 79.0723 152.541 79.4315 152.609 79.7548C152.681 80.0745 152.789 80.3494 152.932 80.5793C153.08 80.8092 153.266 80.987 153.493 81.1127C153.719 81.2385 153.99 81.3013 154.306 81.3013C154.691 81.3013 155.002 81.2403 155.239 81.1181C155.479 80.996 155.661 80.8182 155.783 80.5847C155.909 80.3476 155.991 80.0584 156.031 79.7171ZM162.224 74.4257V82.2712H160.882V74.4257H162.224ZM164.687 74.4257V75.5033H158.441V74.4257H164.687ZM167.609 80.0674L171.09 74.4257H172.443V82.2712H171.09V76.6241L167.609 82.2712H166.262V74.4257H167.609V80.0674Z" fill="black"/>
</svg>
