<svg width="151" height="121" viewBox="0 0 151 121" fill="none" xmlns="http://www.w3.org/2000/svg">
<rect x="48.6527" y="72.7556" width="60.0559" height="18.7303" transform="rotate(-45 48.6527 72.7556)" fill="#007BFB"/>
<rect x="61.8814" width="37.0757" height="18.7303" transform="rotate(45 61.8814 0)" fill="#007BFB"/>
<path d="M67.47 102.327C67.47 101.719 67.3 101.482 66.67 101.503C65.07 101.541 63.465 101.553 61.865 101.503C61.5811 101.461 61.292 101.529 61.0561 101.692C60.8202 101.855 60.6554 102.102 60.595 102.383C59.113 106.435 57.581 110.476 56.061 114.517C55.959 114.796 55.828 115.057 55.637 115.467C55.472 115.045 55.379 114.85 55.299 114.622C53.745 110.527 52.183 106.44 50.642 102.332C50.5853 102.06 50.4261 101.821 50.1974 101.663C49.9688 101.506 49.6882 101.442 49.414 101.486C47.784 101.533 46.15 101.546 44.52 101.486C43.707 101.456 43.538 101.744 43.542 102.501C43.572 108.185 43.542 113.87 43.542 119.555C43.542 119.867 43.572 120.18 43.589 120.561C44.724 120.561 45.761 120.518 46.794 120.561C47.518 120.603 47.687 120.332 47.683 119.648C47.653 115.738 47.683 111.833 47.683 107.923V107.061C47.933 107.312 48.121 107.619 48.229 107.957C49.757 111.905 51.302 115.844 52.797 119.791C52.8543 120.045 53.0068 120.268 53.2233 120.414C53.4398 120.559 53.7038 120.616 53.961 120.573C54.939 120.527 55.921 120.535 56.899 120.573C57.1168 120.608 57.3398 120.557 57.5208 120.431C57.7018 120.305 57.8267 120.114 57.869 119.897C58.491 118.207 59.139 116.516 59.803 114.825C60.8417 112.12 61.8817 109.418 62.923 106.719L63.156 106.744V120.569C64.358 120.569 65.48 120.535 66.594 120.569C67.246 120.594 67.466 120.399 67.44 119.724C67.4367 113.928 67.4467 108.129 67.47 102.327ZM35.355 101.887C33.9343 101.271 32.3977 100.969 30.8497 101C29.3016 101.032 27.7785 101.396 26.384 102.069C24.314 103.045 23.12 104.799 22.633 107.175C24.013 107.382 25.287 107.597 26.57 107.745C26.722 107.745 26.993 107.564 27.07 107.399C28.34 105.209 29.576 104.618 32.15 105.036C34.004 105.336 35.113 107.048 34.626 108.979C33.081 108.979 31.502 108.874 29.97 109.009C28.4961 109.093 27.0404 109.378 25.643 109.854C22.913 110.898 21.6 113.286 21.998 115.974C22.396 118.662 24.453 120.577 27.298 120.898C30.067 121.207 32.678 120.864 35.003 118.84L35.079 120.581C36.404 120.581 37.619 120.581 38.889 120.556C39.05 120.556 39.339 120.188 39.339 119.994C39.339 116.054 39.439 112.116 39.287 108.184C39.157 105.424 38.055 103.004 35.355 101.887ZM30.414 117.107C29.6815 117.155 28.9458 117.097 28.23 116.934C27.7522 116.82 27.3288 116.543 27.0323 116.152C26.7357 115.76 26.5843 115.278 26.604 114.787C26.5836 114.307 26.7333 113.835 27.0267 113.455C27.3201 113.074 27.7385 112.809 28.208 112.707C29.038 112.494 29.891 112.377 30.748 112.357C32.098 112.297 33.449 112.357 34.863 112.357C34.846 115.087 33.077 116.993 30.414 117.107ZM131.865 108.16C131.629 106.49 130.865 104.94 129.685 103.735C128.505 102.528 126.969 101.731 125.303 101.46C124.042 101.279 122.765 101.225 121.493 101.3C119.789 101.333 118.139 101.9 116.775 102.922C115.412 103.943 114.405 105.367 113.898 106.992C113.077 109.519 113.031 112.233 113.767 114.786C114.121 116.192 114.856 117.474 115.892 118.488C116.929 119.502 118.225 120.211 119.639 120.534C121.946 121.164 124.39 121.076 126.645 120.281C127.848 119.888 128.94 119.214 129.829 118.313C130.717 117.412 131.378 116.312 131.755 115.104C130.459 114.866 129.249 114.634 128.034 114.448C127.923 114.452 127.815 114.482 127.717 114.535C127.619 114.587 127.535 114.662 127.47 114.752C126.128 116.84 124.143 117.372 121.831 117.102C119.52 116.832 117.683 114.566 118.076 112.372H132.076C132.076 111.811 132.098 111.342 132.076 110.877C132.056 109.966 131.986 109.061 131.865 108.16ZM118.047 108.641C118.25 106.431 120.134 104.934 122.704 104.904C125.349 104.871 127.195 106.274 127.496 108.641H118.047ZM90.106 109.216C90.0612 107.377 89.3858 105.61 88.193 104.21C86.9993 102.809 85.3617 101.86 83.553 101.52C81.8556 101.254 80.1325 101.19 78.42 101.33C76.5833 101.459 74.8458 102.212 73.496 103.464C72.1472 104.715 71.2674 106.39 71.003 108.21C70.7743 110.06 70.7743 111.93 71.003 113.78C71.401 117.035 73.349 119.25 76.423 120.31C79.053 121.222 81.915 121.222 84.546 120.31C87.561 119.297 89.411 117.124 90.003 113.971C90.129 113.004 90.1967 112.032 90.206 111.055H90.105C90.105 110.455 90.136 109.833 90.106 109.216ZM85.495 112.306C85.402 115.319 83.335 117.192 80.279 117.044C77.223 116.896 75.508 115.159 75.449 112.074V109.765C75.529 106.886 77.468 105.073 80.461 105.073C83.454 105.073 85.414 106.857 85.491 109.723C85.5203 110.588 85.523 111.448 85.499 112.305L85.495 112.306ZM110.003 102.458C110.003 101.727 109.804 101.494 109.059 101.498C104.727 101.532 100.398 101.532 96.071 101.498C95.381 101.498 95.161 101.68 95.156 102.395C95.1393 105.914 95.086 109.436 94.996 112.961C94.965 113.675 94.859 114.383 94.678 115.074C94.5939 115.455 94.3833 115.797 94.0804 116.043C93.7776 116.289 93.4004 116.426 93.01 116.431C92.656 116.468 92.3003 116.479 91.943 116.465C91.423 116.431 91.177 116.605 91.193 117.162C91.223 118.079 91.219 118.997 91.193 119.914C91.193 120.4 91.346 120.615 91.859 120.594C92.807 120.552 93.759 120.594 94.704 120.518C96.943 120.328 98.327 119.204 98.84 117.01C99.103 115.797 99.245 114.561 99.263 113.32C99.326 110.814 99.263 108.3 99.263 105.746H105.346V120.57C106.697 120.57 107.908 120.536 109.118 120.57C109.813 120.6 110.029 120.384 110.024 119.674C110.01 113.939 110.003 108.201 110.003 102.459M14.55 114.584C13.73 116.317 12.197 117.044 10.35 117.032C8.433 117.032 6.778 116.283 6.067 114.428C5.21136 112.255 5.21136 109.838 6.067 107.665C6.757 105.895 8.315 105.13 10.177 105.087C12.039 105.044 13.619 105.789 14.584 107.53C14.749 107.822 15.088 108.278 15.291 108.253C16.655 108.067 18.005 107.771 19.441 107.496C19.1353 106.285 18.5566 105.161 17.7493 104.209C16.9419 103.256 15.9272 102.502 14.783 102.002C12.793 101.085 10.681 101.157 8.581 101.313C6.81691 101.433 5.14131 102.13 3.813 103.297C2.48566 104.463 1.57988 106.034 1.236 107.767C0.985914 109.587 0.922251 111.428 1.046 113.261C1.101 115.197 1.973 116.824 3.264 118.266C6.397 121.782 14.004 121.782 17.158 118.553C18.3219 117.436 19.1256 115.996 19.466 114.419C18.226 114.246 17.056 114.128 15.909 113.909C15.219 113.764 14.872 113.904 14.55 114.584ZM150.378 102.057C150.378 101.867 150.014 101.567 149.798 101.541C149.147 101.499 148.494 101.491 147.842 101.516H133.872C133.575 101.516 133.025 101.778 133.025 101.938C132.949 103.138 132.983 104.343 132.983 105.641H139.384V119.673C139.384 119.965 139.659 120.493 139.807 120.518C141.157 120.586 142.516 120.556 143.96 120.556V105.632H150.369C150.403 104.352 150.433 103.202 150.378 102.057Z" fill="#007BFB"/>
</svg>
