<svg width="245" height="108" viewBox="0 0 245 108" fill="none" xmlns="http://www.w3.org/2000/svg">
<mask id="mask0_255_5245" style="mask-type:luminance" maskUnits="userSpaceOnUse" x="0" y="0" width="245" height="108">
<path d="M245 0H0V107.917H245V0Z" fill="white"/>
</mask>
<g mask="url(#mask0_255_5245)">
<path d="M44.8107 37.217H37.9892C37.9892 36.7088 36.6942 32.8273 31.2132 32.8273C27.1987 32.8273 26.3481 34.923 26.3481 36.319C26.3481 39.5634 31.7871 40.2179 35.0281 41.0359C38.6892 41.9584 45.8641 43.8487 45.8641 51.041C45.8641 55.0304 43.7082 57.6273 41.8041 59.1278C39.2912 61.0737 35.7806 62.0727 31.6682 62.0727C21.4901 62.0727 17.0416 56.2871 16.5656 50.7415H24.325C24.4755 51.9773 26.0436 56.0816 31.9166 56.0816C36.9357 56.0816 37.5377 53.4359 37.5377 52.336C37.5377 49.1958 33.1206 48.4544 29.2287 47.4483C25.2071 46.404 18.3191 44.7016 18.3191 37.3145C18.3191 31.8734 22.2846 26.8362 31.6156 26.8362C43.5051 26.8397 44.8107 35.4418 44.8107 37.217Z" fill="#282828"/>
<path d="M73.7389 53.144C73.3783 55.0065 70.9492 62.0768 61.4888 62.0768C57.2713 62.0768 54.1597 60.4231 52.2522 58.5329C50.4953 56.7854 48.5912 53.6835 48.5912 48.8969C48.5912 43.3097 51.0973 40.1593 53.1027 38.4638C56.0673 35.9713 59.2768 35.6196 61.5342 35.6196C66.4028 35.6196 69.4653 37.8163 71.1699 39.8667C72.7273 41.7117 74.1308 44.7544 74.1308 49.0501V50.3451H56.6063C56.6063 53.694 57.9013 57.0881 61.8352 57.0881C65.1882 57.0881 66.5497 54.5191 66.8543 53.144H73.7389ZM66.4552 46.1051C66.4552 44.8658 65.8918 40.6117 61.6358 40.6117C57.3833 40.6117 56.6063 44.3435 56.6063 46.1051H66.4552Z" fill="#282828"/>
<path d="M87.5112 36.1212H92.8278V41.3639H87.5112V52.789C87.5112 53.6872 87.5112 54.7872 88.3127 55.6332C88.9638 56.2841 89.8143 56.3816 90.6192 56.3816H93.3807V61.6278C91.6762 61.8715 89.4712 62.077 87.8614 62.077C86.0063 62.077 83.4967 61.6765 81.8377 59.929C79.9372 57.9378 80.0353 55.4347 80.0353 52.9944V41.3639H76.0173V36.1212H80.0353L80.7352 28.3372H87.5112V36.1212Z" fill="#282828"/>
<path d="M140.75 61.5754H136.532L135.283 57.8367C134.425 58.9854 133.27 59.9775 132.168 60.6321C130.313 61.6799 127.901 62.0801 125.798 62.0801C122.686 62.0801 118.773 61.4257 115.511 57.8367C112.505 54.54 110.944 49.3494 110.944 44.9109C110.944 40.3646 112.249 35.2751 115.256 31.8287C118.822 27.7383 123.285 26.8401 126.848 26.8401C137.236 26.8401 140.165 33.7364 140.648 38.9198H132.868C132.721 37.6736 132.22 36.1766 131.468 35.1742C130.666 34.0774 129.21 32.8312 126.701 32.8312C124.741 32.8312 122.434 33.6284 120.929 36.5248C120.53 37.3221 119.578 39.4176 119.578 44.4097C119.578 47.3549 119.925 50.5993 121.181 52.6948C122.238 54.439 124.037 56.0925 126.998 56.0925C128.86 56.0925 130.362 55.3929 131.366 54.3937C132.367 53.3946 133.127 51.7028 133.127 49.9031V49.0501H126.246V43.2088H140.753L140.75 61.5754Z" fill="#282828"/>
<path d="M146.301 61.5758V36.1213H152.829V41.7607H152.93C153.175 39.8148 154.134 38.4675 154.785 37.7715C155.636 36.8732 157.239 35.6235 159.85 35.6235C160.305 35.6235 160.756 35.6792 161.208 35.7245V42.4119H160.004C158.751 42.4119 157.543 42.6624 156.588 43.2612C154.131 44.8069 153.777 47.2053 153.777 49.8963V61.5723L146.301 61.5758Z" fill="#282828"/>
<path d="M184.835 39.1148C186.039 40.3157 188.647 43.4559 188.647 48.7961C188.647 52.8898 187.044 56.5347 184.636 58.8323C182.882 60.4788 180.019 62.0768 175.956 62.0768C171.885 62.0768 169.029 60.4788 167.272 58.8323C164.864 56.5347 163.261 52.8898 163.261 48.7961C163.261 43.4559 165.872 40.3123 167.08 39.1148C170.041 36.2186 173.446 35.6196 175.959 35.6196C178.462 35.6196 181.874 36.2186 184.835 39.1148ZM172.389 42.6099C171.182 44.4549 171.084 46.8987 171.084 48.7961C171.084 52.2388 171.633 53.8855 172.239 54.9367C173.191 56.5834 174.601 57.0847 175.956 57.0847C177.307 57.0847 178.717 56.58 179.669 54.9367C180.275 53.8855 180.824 52.2423 180.824 48.7961C180.824 46.8987 180.726 44.4549 179.522 42.6099C178.668 41.2627 177.562 40.6117 175.956 40.6117C174.349 40.6117 173.24 41.2662 172.389 42.6099Z" fill="#282828"/>
<path d="M199.802 36.1206V51.4448C199.802 52.3883 199.802 54.188 200.648 55.2845C201.201 56.033 202.153 56.4334 203.203 56.4334C204.408 56.4334 205.713 55.8867 206.57 54.738C207.568 53.443 207.726 51.9009 207.726 50.5988V36.1241H215.198V61.5786H208.272V57.0356H208.177C206.869 60.0328 204.258 62.0798 200.502 62.0798C198.189 62.0798 196.488 61.3801 195.181 60.2766C192.669 58.1809 192.315 55.2845 192.315 52.6457V36.1241L199.802 36.1206Z" fill="#282828"/>
<path d="M220.665 69.7599V36.1213H227.591V40.2152C229.146 37.2213 232.158 35.6235 235.368 35.6235C241.643 35.6235 245.004 41.0647 245.004 48.6048C245.004 58.1851 240.034 62.0805 235.068 62.0805C232.008 62.0805 229.705 60.8308 228.144 58.3348V69.7634H220.665V69.7599ZM228.144 51.3967C228.144 54.9406 229.795 57.0886 232.505 57.0886C236.226 57.0886 237.166 53.0434 237.166 48.751C237.166 42.9619 235.364 40.612 232.505 40.612C229.845 40.612 228.144 42.8609 228.144 45.9068V51.3967Z" fill="#282828"/>
<path d="M106.589 23.6858H98.9871V61.4985H106.589V23.6858Z" fill="#282828"/>
<path d="M106.555 23.6963H98.9494V61.5055H106.555V23.6963Z" fill="#282828"/>
<path d="M0 1.02002V106.897H106.568V69.2026H98.9556V99.3218H7.7105L7.6825 8.62294L98.9556 8.59509V16.1736H106.568V1.02002H0Z" fill="#ED1C24"/>
</g>
</svg>
